G75*
%MOIN*%
%OFA0B0*%
%FSLAX24Y24*%
%IPPOS*%
%LPD*%
%AMOC8*
5,1,8,0,0,1.08239X$1,22.5*
%
%ADD10R,0.0315X0.0571*%
%ADD11R,0.0500X0.0354*%
%ADD12R,0.0217X0.0472*%
%ADD13C,0.0118*%
%ADD14R,0.0268X0.0354*%
%ADD15R,0.0472X0.0197*%
%ADD16R,0.0236X0.0236*%
%ADD17R,0.0118X0.0315*%
%ADD18R,0.0315X0.0118*%
%ADD19R,0.0276X0.0118*%
%ADD20R,0.0118X0.0276*%
%ADD21R,0.0360X0.0160*%
%ADD22R,0.0098X0.0551*%
%ADD23R,0.0630X0.0866*%
%ADD24R,0.0197X0.0394*%
%ADD25C,0.0091*%
%ADD26R,0.1670X0.1670*%
%ADD27R,0.0472X0.0217*%
%ADD28R,0.0276X0.0236*%
%ADD29C,0.0080*%
%ADD30R,0.0512X0.0512*%
%ADD31R,0.0472X0.0512*%
%ADD32R,0.0472X0.0472*%
%ADD33R,0.0512X0.0472*%
%ADD34R,0.0315X0.0354*%
%ADD35R,0.0236X0.0276*%
%ADD36R,0.0472X0.0315*%
%ADD37R,0.0315X0.0472*%
%ADD38R,0.0138X0.0335*%
%ADD39R,0.0236X0.0236*%
%ADD40R,0.0098X0.0138*%
%ADD41R,0.0790X0.0394*%
%ADD42R,0.0118X0.0110*%
%ADD43R,0.0315X0.0138*%
%ADD44C,0.0077*%
%ADD45R,0.0079X0.0591*%
%ADD46R,0.0551X0.0138*%
%ADD47R,0.0748X0.0709*%
%ADD48R,0.0748X0.0748*%
D10*
X014739Y002732D03*
X014739Y005389D03*
X014739Y010681D03*
X014739Y013338D03*
D11*
X013997Y012836D03*
X013997Y011183D03*
X013997Y004887D03*
X013997Y003234D03*
D12*
X012784Y013101D03*
X012036Y013101D03*
X012036Y014124D03*
X012410Y014124D03*
X012784Y014124D03*
D13*
X012751Y011152D02*
X012753Y011183D01*
X012759Y011214D01*
X012769Y011244D01*
X012782Y011272D01*
X012799Y011299D01*
X012819Y011323D01*
X012842Y011345D01*
X012867Y011363D01*
X012895Y011378D01*
X012924Y011390D01*
X012954Y011398D01*
X012985Y011402D01*
X013017Y011402D01*
X013048Y011398D01*
X013078Y011390D01*
X013107Y011378D01*
X013135Y011363D01*
X013160Y011345D01*
X013183Y011323D01*
X013203Y011299D01*
X013220Y011272D01*
X013233Y011244D01*
X013243Y011214D01*
X013249Y011183D01*
X013251Y011152D01*
X013249Y011121D01*
X013243Y011090D01*
X013233Y011060D01*
X013220Y011032D01*
X013203Y011005D01*
X013183Y010981D01*
X013160Y010959D01*
X013135Y010941D01*
X013107Y010926D01*
X013078Y010914D01*
X013048Y010906D01*
X013017Y010902D01*
X012985Y010902D01*
X012954Y010906D01*
X012924Y010914D01*
X012895Y010926D01*
X012867Y010941D01*
X012842Y010959D01*
X012819Y010981D01*
X012799Y011005D01*
X012782Y011032D01*
X012769Y011060D01*
X012759Y011090D01*
X012753Y011121D01*
X012751Y011152D01*
D14*
X012761Y011750D03*
X013242Y011750D03*
D15*
X012997Y010861D03*
D16*
X011639Y012455D03*
X011639Y012848D03*
X011168Y013860D03*
X011168Y014254D03*
X011633Y014135D03*
X011633Y014529D03*
X013228Y014219D03*
X013228Y013825D03*
X013676Y013872D03*
X014030Y014017D03*
X014030Y014411D03*
X013676Y014265D03*
X013282Y013080D03*
X013282Y012687D03*
X013129Y004596D03*
X013522Y004596D03*
D17*
X011593Y002773D03*
X011396Y002773D03*
X011200Y002773D03*
X011003Y002773D03*
X010806Y002773D03*
X010806Y001710D03*
X011003Y001710D03*
X011200Y001710D03*
X011396Y001710D03*
X011593Y001710D03*
D18*
X011702Y002045D03*
X011702Y002242D03*
X011702Y002439D03*
X010698Y002439D03*
X010698Y002242D03*
X010698Y002045D03*
D19*
X012239Y003250D03*
X012239Y003446D03*
X012239Y003643D03*
X012239Y003840D03*
X012239Y004037D03*
X013341Y004037D03*
X013341Y003840D03*
X013341Y003643D03*
X013341Y003446D03*
X013341Y003250D03*
D20*
X012987Y003092D03*
X012790Y003092D03*
X012593Y003092D03*
X012593Y004194D03*
X012790Y004194D03*
X012987Y004194D03*
D21*
X005450Y004380D03*
X005450Y003870D03*
X004710Y003870D03*
X004710Y004380D03*
D22*
X006530Y003671D03*
X006727Y003671D03*
X006924Y003671D03*
X007121Y003671D03*
X007318Y003671D03*
X007515Y003671D03*
X007711Y003671D03*
X007908Y003671D03*
X008105Y003671D03*
X008302Y003671D03*
D23*
X009345Y002431D03*
X005487Y002431D03*
D24*
X008999Y005037D03*
X009432Y005037D03*
X005979Y010202D03*
X005546Y010202D03*
D25*
X006989Y009002D02*
X007293Y009002D01*
X007293Y009002D01*
X006989Y009002D01*
X006989Y009002D01*
X006989Y008805D02*
X007293Y008805D01*
X007293Y008805D01*
X006989Y008805D01*
X006989Y008805D01*
X006989Y008608D02*
X007293Y008608D01*
X007293Y008608D01*
X006989Y008608D01*
X006989Y008608D01*
X006989Y008411D02*
X007293Y008411D01*
X007293Y008411D01*
X006989Y008411D01*
X006989Y008411D01*
X006989Y008214D02*
X007293Y008214D01*
X007293Y008214D01*
X006989Y008214D01*
X006989Y008214D01*
X006989Y008017D02*
X007293Y008017D01*
X007293Y008017D01*
X006989Y008017D01*
X006989Y008017D01*
X006989Y007820D02*
X007293Y007820D01*
X007293Y007820D01*
X006989Y007820D01*
X006989Y007820D01*
X006989Y007624D02*
X007293Y007624D01*
X007293Y007624D01*
X006989Y007624D01*
X006989Y007624D01*
X006989Y007427D02*
X007293Y007427D01*
X007293Y007427D01*
X006989Y007427D01*
X006989Y007427D01*
X006989Y007230D02*
X007293Y007230D01*
X007293Y007230D01*
X006989Y007230D01*
X006989Y007230D01*
X006989Y007033D02*
X007293Y007033D01*
X007293Y007033D01*
X006989Y007033D01*
X006989Y007033D01*
X006989Y006836D02*
X007293Y006836D01*
X007293Y006836D01*
X006989Y006836D01*
X006989Y006836D01*
X006989Y006639D02*
X007293Y006639D01*
X007293Y006639D01*
X006989Y006639D01*
X006989Y006639D01*
X006989Y006443D02*
X007293Y006443D01*
X007293Y006443D01*
X006989Y006443D01*
X006989Y006443D01*
X006989Y006246D02*
X007293Y006246D01*
X007293Y006246D01*
X006989Y006246D01*
X006989Y006246D01*
X006989Y006049D02*
X007293Y006049D01*
X007293Y006049D01*
X006989Y006049D01*
X006989Y006049D01*
X007475Y005866D02*
X007475Y005562D01*
X007475Y005562D01*
X007475Y005866D01*
X007475Y005866D01*
X007475Y005652D02*
X007475Y005652D01*
X007475Y005742D02*
X007475Y005742D01*
X007475Y005832D02*
X007475Y005832D01*
X007672Y005866D02*
X007672Y005562D01*
X007672Y005562D01*
X007672Y005866D01*
X007672Y005866D01*
X007672Y005652D02*
X007672Y005652D01*
X007672Y005742D02*
X007672Y005742D01*
X007672Y005832D02*
X007672Y005832D01*
X007869Y005866D02*
X007869Y005562D01*
X007869Y005562D01*
X007869Y005866D01*
X007869Y005866D01*
X007869Y005652D02*
X007869Y005652D01*
X007869Y005742D02*
X007869Y005742D01*
X007869Y005832D02*
X007869Y005832D01*
X008066Y005866D02*
X008066Y005562D01*
X008066Y005562D01*
X008066Y005866D01*
X008066Y005866D01*
X008066Y005652D02*
X008066Y005652D01*
X008066Y005742D02*
X008066Y005742D01*
X008066Y005832D02*
X008066Y005832D01*
X008262Y005866D02*
X008262Y005562D01*
X008262Y005562D01*
X008262Y005866D01*
X008262Y005866D01*
X008262Y005652D02*
X008262Y005652D01*
X008262Y005742D02*
X008262Y005742D01*
X008262Y005832D02*
X008262Y005832D01*
X008459Y005866D02*
X008459Y005562D01*
X008459Y005562D01*
X008459Y005866D01*
X008459Y005866D01*
X008459Y005652D02*
X008459Y005652D01*
X008459Y005742D02*
X008459Y005742D01*
X008459Y005832D02*
X008459Y005832D01*
X008656Y005866D02*
X008656Y005562D01*
X008656Y005562D01*
X008656Y005866D01*
X008656Y005866D01*
X008656Y005652D02*
X008656Y005652D01*
X008656Y005742D02*
X008656Y005742D01*
X008656Y005832D02*
X008656Y005832D01*
X008853Y005866D02*
X008853Y005562D01*
X008853Y005562D01*
X008853Y005866D01*
X008853Y005866D01*
X008853Y005652D02*
X008853Y005652D01*
X008853Y005742D02*
X008853Y005742D01*
X008853Y005832D02*
X008853Y005832D01*
X009050Y005866D02*
X009050Y005562D01*
X009050Y005562D01*
X009050Y005866D01*
X009050Y005866D01*
X009050Y005652D02*
X009050Y005652D01*
X009050Y005742D02*
X009050Y005742D01*
X009050Y005832D02*
X009050Y005832D01*
X009247Y005866D02*
X009247Y005562D01*
X009247Y005562D01*
X009247Y005866D01*
X009247Y005866D01*
X009247Y005652D02*
X009247Y005652D01*
X009247Y005742D02*
X009247Y005742D01*
X009247Y005832D02*
X009247Y005832D01*
X009444Y005866D02*
X009444Y005562D01*
X009444Y005562D01*
X009444Y005866D01*
X009444Y005866D01*
X009444Y005652D02*
X009444Y005652D01*
X009444Y005742D02*
X009444Y005742D01*
X009444Y005832D02*
X009444Y005832D01*
X009641Y005866D02*
X009641Y005562D01*
X009641Y005562D01*
X009641Y005866D01*
X009641Y005866D01*
X009641Y005652D02*
X009641Y005652D01*
X009641Y005742D02*
X009641Y005742D01*
X009641Y005832D02*
X009641Y005832D01*
X009838Y005866D02*
X009838Y005562D01*
X009838Y005562D01*
X009838Y005866D01*
X009838Y005866D01*
X009838Y005652D02*
X009838Y005652D01*
X009838Y005742D02*
X009838Y005742D01*
X009838Y005832D02*
X009838Y005832D01*
X010035Y005866D02*
X010035Y005562D01*
X010035Y005562D01*
X010035Y005866D01*
X010035Y005866D01*
X010035Y005652D02*
X010035Y005652D01*
X010035Y005742D02*
X010035Y005742D01*
X010035Y005832D02*
X010035Y005832D01*
X010231Y005866D02*
X010231Y005562D01*
X010231Y005562D01*
X010231Y005866D01*
X010231Y005866D01*
X010231Y005652D02*
X010231Y005652D01*
X010231Y005742D02*
X010231Y005742D01*
X010231Y005832D02*
X010231Y005832D01*
X010428Y005866D02*
X010428Y005562D01*
X010428Y005562D01*
X010428Y005866D01*
X010428Y005866D01*
X010428Y005652D02*
X010428Y005652D01*
X010428Y005742D02*
X010428Y005742D01*
X010428Y005832D02*
X010428Y005832D01*
X010611Y006049D02*
X010915Y006049D01*
X010915Y006049D01*
X010611Y006049D01*
X010611Y006049D01*
X010611Y006246D02*
X010915Y006246D01*
X010915Y006246D01*
X010611Y006246D01*
X010611Y006246D01*
X010611Y006443D02*
X010915Y006443D01*
X010915Y006443D01*
X010611Y006443D01*
X010611Y006443D01*
X010611Y006639D02*
X010915Y006639D01*
X010915Y006639D01*
X010611Y006639D01*
X010611Y006639D01*
X010611Y006836D02*
X010915Y006836D01*
X010915Y006836D01*
X010611Y006836D01*
X010611Y006836D01*
X010611Y007033D02*
X010915Y007033D01*
X010915Y007033D01*
X010611Y007033D01*
X010611Y007033D01*
X010611Y007230D02*
X010915Y007230D01*
X010915Y007230D01*
X010611Y007230D01*
X010611Y007230D01*
X010611Y007427D02*
X010915Y007427D01*
X010915Y007427D01*
X010611Y007427D01*
X010611Y007427D01*
X010611Y007624D02*
X010915Y007624D01*
X010915Y007624D01*
X010611Y007624D01*
X010611Y007624D01*
X010611Y007820D02*
X010915Y007820D01*
X010915Y007820D01*
X010611Y007820D01*
X010611Y007820D01*
X010611Y008017D02*
X010915Y008017D01*
X010915Y008017D01*
X010611Y008017D01*
X010611Y008017D01*
X010611Y008214D02*
X010915Y008214D01*
X010915Y008214D01*
X010611Y008214D01*
X010611Y008214D01*
X010611Y008411D02*
X010915Y008411D01*
X010915Y008411D01*
X010611Y008411D01*
X010611Y008411D01*
X010611Y008608D02*
X010915Y008608D01*
X010915Y008608D01*
X010611Y008608D01*
X010611Y008608D01*
X010611Y008805D02*
X010915Y008805D01*
X010915Y008805D01*
X010611Y008805D01*
X010611Y008805D01*
X010611Y009002D02*
X010915Y009002D01*
X010915Y009002D01*
X010611Y009002D01*
X010611Y009002D01*
X010428Y009184D02*
X010428Y009488D01*
X010428Y009184D02*
X010428Y009184D01*
X010428Y009488D01*
X010428Y009488D01*
X010428Y009274D02*
X010428Y009274D01*
X010428Y009364D02*
X010428Y009364D01*
X010428Y009454D02*
X010428Y009454D01*
X010231Y009488D02*
X010231Y009184D01*
X010231Y009184D01*
X010231Y009488D01*
X010231Y009488D01*
X010231Y009274D02*
X010231Y009274D01*
X010231Y009364D02*
X010231Y009364D01*
X010231Y009454D02*
X010231Y009454D01*
X010035Y009488D02*
X010035Y009184D01*
X010035Y009184D01*
X010035Y009488D01*
X010035Y009488D01*
X010035Y009274D02*
X010035Y009274D01*
X010035Y009364D02*
X010035Y009364D01*
X010035Y009454D02*
X010035Y009454D01*
X009838Y009488D02*
X009838Y009184D01*
X009838Y009184D01*
X009838Y009488D01*
X009838Y009488D01*
X009838Y009274D02*
X009838Y009274D01*
X009838Y009364D02*
X009838Y009364D01*
X009838Y009454D02*
X009838Y009454D01*
X009641Y009488D02*
X009641Y009184D01*
X009641Y009184D01*
X009641Y009488D01*
X009641Y009488D01*
X009641Y009274D02*
X009641Y009274D01*
X009641Y009364D02*
X009641Y009364D01*
X009641Y009454D02*
X009641Y009454D01*
X009444Y009488D02*
X009444Y009184D01*
X009444Y009184D01*
X009444Y009488D01*
X009444Y009488D01*
X009444Y009274D02*
X009444Y009274D01*
X009444Y009364D02*
X009444Y009364D01*
X009444Y009454D02*
X009444Y009454D01*
X009247Y009488D02*
X009247Y009184D01*
X009247Y009184D01*
X009247Y009488D01*
X009247Y009488D01*
X009247Y009274D02*
X009247Y009274D01*
X009247Y009364D02*
X009247Y009364D01*
X009247Y009454D02*
X009247Y009454D01*
X009050Y009488D02*
X009050Y009184D01*
X009050Y009184D01*
X009050Y009488D01*
X009050Y009488D01*
X009050Y009274D02*
X009050Y009274D01*
X009050Y009364D02*
X009050Y009364D01*
X009050Y009454D02*
X009050Y009454D01*
X008853Y009488D02*
X008853Y009184D01*
X008853Y009184D01*
X008853Y009488D01*
X008853Y009488D01*
X008853Y009274D02*
X008853Y009274D01*
X008853Y009364D02*
X008853Y009364D01*
X008853Y009454D02*
X008853Y009454D01*
X008656Y009488D02*
X008656Y009184D01*
X008656Y009184D01*
X008656Y009488D01*
X008656Y009488D01*
X008656Y009274D02*
X008656Y009274D01*
X008656Y009364D02*
X008656Y009364D01*
X008656Y009454D02*
X008656Y009454D01*
X008459Y009488D02*
X008459Y009184D01*
X008459Y009184D01*
X008459Y009488D01*
X008459Y009488D01*
X008459Y009274D02*
X008459Y009274D01*
X008459Y009364D02*
X008459Y009364D01*
X008459Y009454D02*
X008459Y009454D01*
X008262Y009488D02*
X008262Y009184D01*
X008262Y009184D01*
X008262Y009488D01*
X008262Y009488D01*
X008262Y009274D02*
X008262Y009274D01*
X008262Y009364D02*
X008262Y009364D01*
X008262Y009454D02*
X008262Y009454D01*
X008066Y009488D02*
X008066Y009184D01*
X008066Y009184D01*
X008066Y009488D01*
X008066Y009488D01*
X008066Y009274D02*
X008066Y009274D01*
X008066Y009364D02*
X008066Y009364D01*
X008066Y009454D02*
X008066Y009454D01*
X007869Y009488D02*
X007869Y009184D01*
X007869Y009184D01*
X007869Y009488D01*
X007869Y009488D01*
X007869Y009274D02*
X007869Y009274D01*
X007869Y009364D02*
X007869Y009364D01*
X007869Y009454D02*
X007869Y009454D01*
X007672Y009488D02*
X007672Y009184D01*
X007672Y009184D01*
X007672Y009488D01*
X007672Y009488D01*
X007672Y009274D02*
X007672Y009274D01*
X007672Y009364D02*
X007672Y009364D01*
X007672Y009454D02*
X007672Y009454D01*
X007475Y009488D02*
X007475Y009184D01*
X007475Y009184D01*
X007475Y009488D01*
X007475Y009488D01*
X007475Y009274D02*
X007475Y009274D01*
X007475Y009364D02*
X007475Y009364D01*
X007475Y009454D02*
X007475Y009454D01*
D26*
X008952Y007525D03*
D27*
X003597Y004986D03*
X003597Y004238D03*
X002574Y004238D03*
X002574Y004612D03*
X002574Y004986D03*
D28*
X003558Y005517D03*
X003558Y005911D03*
X005011Y005242D03*
X005456Y005242D03*
X005456Y004848D03*
X005011Y004848D03*
X008900Y004592D03*
X008900Y004198D03*
X009396Y004218D03*
X009396Y004612D03*
X012259Y002171D03*
X012259Y001777D03*
X013361Y006974D03*
X013361Y007368D03*
X013952Y007486D03*
X013952Y007880D03*
X014267Y008509D03*
X014267Y008903D03*
X012101Y008391D03*
X012101Y007998D03*
X011865Y009454D03*
X011865Y009848D03*
X012259Y011029D03*
X012259Y011423D03*
X005211Y010281D03*
X005211Y009887D03*
X004802Y010078D03*
X004802Y009684D03*
X004204Y009558D03*
X004204Y009164D03*
X003323Y010086D03*
X003323Y010480D03*
X003187Y010877D03*
X003187Y011270D03*
X002615Y011229D03*
X002615Y010835D03*
X002974Y012548D03*
X002974Y012942D03*
D29*
X004205Y012997D02*
X004439Y012997D01*
X004439Y012840D02*
X004205Y012840D01*
X004205Y012682D02*
X004439Y012682D01*
X004439Y012525D02*
X004205Y012525D01*
X004205Y012367D02*
X004439Y012367D01*
X004439Y012210D02*
X004205Y012210D01*
X004205Y012052D02*
X004439Y012052D01*
X004439Y011895D02*
X004205Y011895D01*
X004205Y011737D02*
X004439Y011737D01*
X004439Y011580D02*
X004205Y011580D01*
X004205Y011422D02*
X004439Y011422D01*
X004439Y011265D02*
X004205Y011265D01*
X004637Y011067D02*
X004637Y010833D01*
X004795Y010833D02*
X004795Y011067D01*
X004952Y011067D02*
X004952Y010833D01*
X005110Y010833D02*
X005110Y011067D01*
X005267Y011067D02*
X005267Y010833D01*
X005425Y010833D02*
X005425Y011067D01*
X005582Y011067D02*
X005582Y010833D01*
X005740Y010833D02*
X005740Y011067D01*
X005897Y011067D02*
X005897Y010833D01*
X006055Y010833D02*
X006055Y011067D01*
X006212Y011067D02*
X006212Y010833D01*
X006370Y010833D02*
X006370Y011067D01*
X006568Y011265D02*
X006802Y011265D01*
X006802Y011422D02*
X006568Y011422D01*
X006568Y011580D02*
X006802Y011580D01*
X006802Y011737D02*
X006568Y011737D01*
X006568Y011895D02*
X006802Y011895D01*
X006802Y012052D02*
X006568Y012052D01*
X006568Y012210D02*
X006802Y012210D01*
X006802Y012367D02*
X006568Y012367D01*
X006568Y012525D02*
X006802Y012525D01*
X006802Y012682D02*
X006568Y012682D01*
X006568Y012840D02*
X006802Y012840D01*
X006802Y012997D02*
X006568Y012997D01*
X006370Y013195D02*
X006370Y013429D01*
X006212Y013429D02*
X006212Y013195D01*
X006055Y013195D02*
X006055Y013429D01*
X005897Y013429D02*
X005897Y013195D01*
X005740Y013195D02*
X005740Y013429D01*
X005582Y013429D02*
X005582Y013195D01*
X005425Y013195D02*
X005425Y013429D01*
X005267Y013429D02*
X005267Y013195D01*
X005110Y013195D02*
X005110Y013429D01*
X004952Y013429D02*
X004952Y013195D01*
X004795Y013195D02*
X004795Y013429D01*
X004637Y013429D02*
X004637Y013195D01*
D30*
X004854Y012781D03*
X006153Y012781D03*
X006153Y011481D03*
X004854Y011481D03*
D31*
X005504Y011481D03*
X005504Y012781D03*
D32*
X005504Y012131D03*
D33*
X006153Y012131D03*
X004854Y012131D03*
D34*
X004207Y010524D03*
X003774Y010524D03*
X003774Y009973D03*
X004207Y009973D03*
D35*
G36*
X006247Y009357D02*
X006080Y009524D01*
X006275Y009719D01*
X006442Y009552D01*
X006247Y009357D01*
G37*
G36*
X006526Y009079D02*
X006359Y009246D01*
X006554Y009441D01*
X006721Y009274D01*
X006526Y009079D01*
G37*
G36*
X006856Y009800D02*
X007023Y009633D01*
X006828Y009438D01*
X006661Y009605D01*
X006856Y009800D01*
G37*
G36*
X006578Y010078D02*
X006745Y009911D01*
X006550Y009716D01*
X006383Y009883D01*
X006578Y010078D01*
G37*
X008916Y010584D03*
X009310Y010584D03*
G36*
X010480Y010483D02*
X010647Y010316D01*
X010452Y010121D01*
X010285Y010288D01*
X010480Y010483D01*
G37*
G36*
X010758Y010205D02*
X010925Y010038D01*
X010730Y009843D01*
X010563Y010010D01*
X010758Y010205D01*
G37*
X010889Y011584D03*
X011282Y011584D03*
X012180Y007368D03*
X012574Y007368D03*
X013912Y005872D03*
X014306Y005872D03*
G36*
X010522Y005087D02*
X010689Y004920D01*
X010494Y004725D01*
X010327Y004892D01*
X010522Y005087D01*
G37*
G36*
X010244Y005365D02*
X010411Y005198D01*
X010216Y005003D01*
X010049Y005170D01*
X010244Y005365D01*
G37*
X007534Y005202D03*
X007141Y005202D03*
X003731Y012812D03*
X003338Y012812D03*
X005128Y014160D03*
X005521Y014160D03*
D36*
X001511Y004021D03*
X001511Y004730D03*
X005999Y004494D03*
X005999Y003785D03*
X002599Y009664D03*
X002599Y010373D03*
D37*
X002731Y009179D03*
X003440Y009179D03*
D38*
X008617Y010990D03*
X009129Y010990D03*
X008873Y011856D03*
X010546Y012006D03*
X011058Y012006D03*
X010802Y012872D03*
D39*
G36*
X012707Y004990D02*
X012873Y005156D01*
X013039Y004990D01*
X012873Y004824D01*
X012707Y004990D01*
G37*
G36*
X012429Y004712D02*
X012595Y004878D01*
X012761Y004712D01*
X012595Y004546D01*
X012429Y004712D01*
G37*
D40*
X003597Y011775D03*
X003400Y011775D03*
X003204Y011775D03*
X003204Y012094D03*
X003400Y012094D03*
X003597Y012094D03*
D41*
X001637Y011738D03*
X001637Y013943D03*
D42*
X003479Y008131D03*
X003479Y007946D03*
D43*
X005231Y008805D03*
X005231Y009061D03*
X005231Y009317D03*
X005900Y009317D03*
X005900Y008805D03*
D44*
X012615Y008828D02*
X012615Y008828D01*
X012397Y008828D01*
X012397Y008828D01*
X012615Y008828D01*
X012615Y008671D02*
X012615Y008671D01*
X012397Y008671D01*
X012397Y008671D01*
X012615Y008671D01*
X012615Y008513D02*
X012615Y008513D01*
X012397Y008513D01*
X012397Y008513D01*
X012615Y008513D01*
X012615Y008356D02*
X012615Y008356D01*
X012397Y008356D01*
X012397Y008356D01*
X012615Y008356D01*
X012731Y008238D02*
X012731Y008238D01*
X012731Y008020D01*
X012731Y008020D01*
X012731Y008238D01*
X012731Y008096D02*
X012731Y008096D01*
X012731Y008172D02*
X012731Y008172D01*
X012889Y008238D02*
X012889Y008238D01*
X012889Y008020D01*
X012889Y008020D01*
X012889Y008238D01*
X012889Y008096D02*
X012889Y008096D01*
X012889Y008172D02*
X012889Y008172D01*
X013046Y008238D02*
X013046Y008238D01*
X013046Y008020D01*
X013046Y008020D01*
X013046Y008238D01*
X013046Y008096D02*
X013046Y008096D01*
X013046Y008172D02*
X013046Y008172D01*
X013204Y008238D02*
X013204Y008238D01*
X013204Y008020D01*
X013204Y008020D01*
X013204Y008238D01*
X013204Y008096D02*
X013204Y008096D01*
X013204Y008172D02*
X013204Y008172D01*
X013361Y008238D02*
X013361Y008238D01*
X013361Y008020D01*
X013361Y008020D01*
X013361Y008238D01*
X013361Y008096D02*
X013361Y008096D01*
X013361Y008172D02*
X013361Y008172D01*
X013477Y008354D02*
X013477Y008354D01*
X013695Y008354D01*
X013695Y008354D01*
X013477Y008354D01*
X013477Y008511D02*
X013477Y008511D01*
X013695Y008511D01*
X013695Y008511D01*
X013477Y008511D01*
X013477Y008669D02*
X013477Y008669D01*
X013695Y008669D01*
X013695Y008669D01*
X013477Y008669D01*
X013477Y008826D02*
X013477Y008826D01*
X013695Y008826D01*
X013695Y008826D01*
X013477Y008826D01*
X013477Y008984D02*
X013477Y008984D01*
X013695Y008984D01*
X013695Y008984D01*
X013477Y008984D01*
X013361Y009099D02*
X013361Y009099D01*
X013361Y009317D01*
X013361Y009317D01*
X013361Y009099D01*
X013361Y009175D02*
X013361Y009175D01*
X013361Y009251D02*
X013361Y009251D01*
X013204Y009099D02*
X013204Y009099D01*
X013204Y009317D01*
X013204Y009317D01*
X013204Y009099D01*
X013204Y009175D02*
X013204Y009175D01*
X013204Y009251D02*
X013204Y009251D01*
X013046Y009099D02*
X013046Y009099D01*
X013046Y009317D01*
X013046Y009317D01*
X013046Y009099D01*
X013046Y009175D02*
X013046Y009175D01*
X013046Y009251D02*
X013046Y009251D01*
X012889Y009099D02*
X012889Y009099D01*
X012889Y009317D01*
X012889Y009317D01*
X012889Y009099D01*
X012889Y009175D02*
X012889Y009175D01*
X012889Y009251D02*
X012889Y009251D01*
X012731Y009099D02*
X012731Y009099D01*
X012731Y009317D01*
X012731Y009317D01*
X012731Y009099D01*
X012731Y009175D02*
X012731Y009175D01*
X012731Y009251D02*
X012731Y009251D01*
X012615Y008986D02*
X012615Y008986D01*
X012397Y008986D01*
X012397Y008986D01*
X012615Y008986D01*
D45*
X009963Y013230D03*
X009806Y013230D03*
X009648Y013230D03*
X009491Y013230D03*
X009333Y013230D03*
X009176Y013230D03*
X009019Y013230D03*
X008861Y013230D03*
X008704Y013230D03*
X008546Y013230D03*
X008389Y013230D03*
X008231Y013230D03*
X008074Y013230D03*
X007916Y013230D03*
X007759Y013230D03*
X007759Y014415D03*
X007916Y014415D03*
X008074Y014415D03*
X008231Y014415D03*
X008389Y014415D03*
X008546Y014415D03*
X008704Y014415D03*
X008861Y014415D03*
X009019Y014415D03*
X009176Y014415D03*
X009333Y014415D03*
X009491Y014415D03*
X009648Y014415D03*
X009806Y014415D03*
X009963Y014415D03*
D46*
X002593Y007722D03*
X002593Y007466D03*
X002593Y007210D03*
X002593Y006954D03*
X002593Y006698D03*
D47*
X001550Y005635D03*
X001550Y008785D03*
D48*
X001550Y007710D03*
X001550Y006710D03*
M02*
