%
M48
M72
T01C0.0131
T02C0.0197
T03C0.0200
T04C0.0236
T05C0.0276
T06C0.0350
%
T01
X2731Y1462
X3211Y2738
X3924Y3317
X4109Y2683
X4936Y2604
X4581Y3391
X6078Y2289
X6235Y1659
X6786Y2958
X7416Y3037
X8243Y2919
X8676Y3588
X7692Y4257
X6786Y5084
X6747Y5517
X6393Y5714
X6353Y6202
X6105Y6431
X5566Y6856
X6038Y7722
X6550Y7368
X6558Y8702
X5912Y9726
X4818Y8824
X5054Y8273
X3991Y7210
X3204Y8037
X3400Y8588
X2231Y8694
X2219Y8313
X3085Y9769
X2219Y10793
X3794Y11147
X2574Y12525
X2574Y13273
X3322Y13313
X3912Y13785
X4306Y13785
X4818Y13982
X4896Y14572
X5491Y13667
X6668Y13588
X6904Y13313
X6707Y14179
X8991Y12643
X9345Y12643
X9148Y11974
X9148Y11376
X9833Y10639
X9424Y9927
X10920Y9533
X11393Y8706
X11168Y8313
X11578Y8053
X11558Y7679
X11932Y8726
X12377Y9376
X12463Y9746
X12101Y10242
X12456Y10439
X11944Y10675
X11747Y11265
X11707Y12053
X11081Y12498
X11629Y13234
X11511Y13588
X12377Y13116
X12928Y12407
X13519Y12171
X14542Y11738
X13597Y10714
X13479Y10360
X13125Y10163
X14267Y9297
X12889Y7360
X13715Y6974
X14148Y7131
X14349Y6254
X13715Y5281
X13794Y3903
X14570Y3309
X13578Y2887
X13361Y2604
X13007Y2407
X12652Y2131
X12652Y1738
X13794Y1620
X11668Y3234
X11314Y3470
X11707Y4179
X11589Y5006
X12219Y5399
X11038Y5557
X10763Y5242
X10408Y4533
X10172Y4179
X10172Y2446
X9975Y2053
X10211Y1659
X8204Y1659
X6550Y4257
X7889Y5242
X3007Y5832
X2109Y5128
X1983Y4218
X2770Y3746
X6845Y10840
X10566Y11265
X11058Y10754
X11038Y10332
X12416Y14557
X11196Y14691
X1944Y14415
T02
X5999Y3194
T03
X1550Y9612
X1550Y10112
X1550Y10612
X1550Y11112
T04
X7574Y13824
X10148Y13824
X12991Y11145
T05
X1274Y2565
T06
X1952Y1708
X1952Y2508
X3952Y2108
M30
