G75*
%MOIN*%
%OFA0B0*%
%FSLAX24Y24*%
%IPPOS*%
%LPD*%
%AMOC8*
5,1,8,0,0,1.08239X$1,22.5*
%
%ADD10C,0.0340*%
%ADD11C,0.0271*%
%ADD12C,0.0087*%
%ADD13C,0.0087*%
%ADD14C,0.0079*%
%ADD15C,0.0130*%
%ADD16C,0.0160*%
%ADD17C,0.0337*%
%ADD18C,0.0416*%
D10*
X001550Y009612D03*
X001550Y010112D03*
X001550Y010612D03*
X001550Y011112D03*
D11*
X002219Y010793D03*
X003085Y009769D03*
X002231Y008694D03*
X002219Y008313D03*
X003204Y008037D03*
X003400Y008588D03*
X004818Y008824D03*
X005054Y008273D03*
X006038Y007722D03*
X006550Y007368D03*
X006105Y006431D03*
X006353Y006202D03*
X006393Y005714D03*
X006747Y005517D03*
X006786Y005084D03*
X006550Y004257D03*
X007692Y004257D03*
X008676Y003588D03*
X008243Y002919D03*
X007416Y003037D03*
X006786Y002958D03*
X006078Y002289D03*
X006235Y001659D03*
X004936Y002604D03*
X004109Y002683D03*
X003924Y003317D03*
X004581Y003391D03*
X003211Y002738D03*
X002770Y003746D03*
X001983Y004218D03*
X002109Y005128D03*
X003007Y005832D03*
X003991Y007210D03*
X005566Y006856D03*
X006558Y008702D03*
X005912Y009726D03*
X006845Y010840D03*
X008991Y012643D03*
X009345Y012643D03*
X009148Y011974D03*
X009148Y011376D03*
X009833Y010639D03*
X009424Y009927D03*
X010920Y009533D03*
X011393Y008706D03*
X011168Y008313D03*
X011578Y008053D03*
X011558Y007679D03*
X011932Y008726D03*
X012377Y009376D03*
X012463Y009746D03*
X012101Y010242D03*
X012456Y010439D03*
X011944Y010675D03*
X011747Y011265D03*
X011707Y012053D03*
X011081Y012498D03*
X011629Y013234D03*
X011511Y013588D03*
X012377Y013116D03*
X012928Y012407D03*
X013519Y012171D03*
X014542Y011738D03*
X013597Y010714D03*
X013479Y010360D03*
X013125Y010163D03*
X014267Y009297D03*
X012889Y007360D03*
X013715Y006974D03*
X014148Y007131D03*
X014349Y006254D03*
X013715Y005281D03*
X013794Y003903D03*
X014570Y003309D03*
X013578Y002887D03*
X013361Y002604D03*
X013007Y002407D03*
X012652Y002131D03*
X012652Y001738D03*
X013794Y001620D03*
X011668Y003234D03*
X011314Y003470D03*
X011707Y004179D03*
X011589Y005006D03*
X012219Y005399D03*
X011038Y005557D03*
X010763Y005242D03*
X010408Y004533D03*
X010172Y004179D03*
X010172Y002446D03*
X009975Y002053D03*
X010211Y001659D03*
X008204Y001659D03*
X007889Y005242D03*
X011038Y010332D03*
X011058Y010754D03*
X010566Y011265D03*
X012416Y014557D03*
X011196Y014691D03*
X006904Y013313D03*
X006668Y013588D03*
X006707Y014179D03*
X005491Y013667D03*
X004818Y013982D03*
X004306Y013785D03*
X003912Y013785D03*
X003322Y013313D03*
X002574Y013273D03*
X002574Y012525D03*
X003794Y011147D03*
X001944Y014415D03*
X004896Y014572D03*
X002731Y001462D03*
D12*
X004109Y002683D02*
X004306Y002880D01*
X004306Y004887D01*
X005763Y006344D01*
X003400Y008588D02*
X003400Y009179D01*
X003519Y009297D01*
X004267Y009297D01*
X004621Y009651D01*
X004621Y012368D01*
D13*
X004621Y013785D01*
X004818Y013982D01*
X005054Y008273D02*
X005802Y007525D01*
X005802Y006383D02*
X005763Y006344D01*
X010920Y009533D02*
X011904Y009533D01*
X011983Y009612D01*
X013085Y010714D01*
X013597Y010714D01*
X013243Y011974D02*
X012456Y011974D01*
X011747Y011265D01*
X013243Y011974D02*
X013440Y012171D01*
X013519Y012171D01*
D14*
X005841Y007486D02*
X005841Y006423D01*
X005802Y006383D01*
X005841Y007486D02*
X005802Y007525D01*
D15*
X008952Y012604D02*
X008991Y012643D01*
D16*
X002181Y001365D02*
X002117Y001338D01*
X002484Y001338D01*
X002456Y001407D01*
X002456Y001517D01*
X002498Y001618D01*
X002575Y001696D01*
X002676Y001738D01*
X002786Y001738D01*
X002887Y001696D01*
X002965Y001618D01*
X003007Y001517D01*
X003007Y001407D01*
X002978Y001338D01*
X005021Y001338D01*
X005021Y001400D01*
X005156Y001535D01*
X005988Y001535D01*
X005959Y001604D01*
X005959Y001714D01*
X006001Y001815D01*
X006079Y001893D01*
X006180Y001935D01*
X006290Y001935D01*
X006391Y001893D01*
X006469Y001815D01*
X006511Y001714D01*
X006511Y001604D01*
X006482Y001535D01*
X007957Y001535D01*
X007928Y001604D01*
X007928Y001714D01*
X007970Y001815D01*
X008047Y001893D01*
X008149Y001935D01*
X008258Y001935D01*
X008360Y001893D01*
X008437Y001815D01*
X008479Y001714D01*
X008479Y001604D01*
X008450Y001535D01*
X009637Y001535D01*
X009772Y001400D01*
X009772Y001338D01*
X013479Y001338D01*
X013628Y001350D01*
X013683Y001367D01*
X013638Y001386D01*
X013560Y001464D01*
X013519Y001565D01*
X013519Y001674D01*
X013560Y001776D01*
X013638Y001853D01*
X013739Y001895D01*
X013849Y001895D01*
X013950Y001853D01*
X014028Y001776D01*
X014070Y001674D01*
X014070Y001565D01*
X014065Y001553D01*
X014152Y001616D01*
X014327Y001857D01*
X014419Y002140D01*
X014430Y002289D01*
X014430Y002384D01*
X014565Y002519D01*
X014824Y002519D01*
X014824Y003202D01*
X014803Y003153D01*
X014726Y003075D01*
X014624Y003033D01*
X014515Y003033D01*
X014414Y003075D01*
X014336Y003153D01*
X014294Y003254D01*
X014294Y003363D01*
X014336Y003465D01*
X014414Y003542D01*
X014515Y003584D01*
X014624Y003584D01*
X014726Y003542D01*
X014803Y003465D01*
X014824Y003415D01*
X014824Y005602D01*
X014565Y005602D01*
X014430Y005737D01*
X014430Y009071D01*
X014423Y009063D01*
X014321Y009021D01*
X014212Y009021D01*
X014110Y009063D01*
X014033Y009141D01*
X013991Y009242D01*
X013991Y009352D01*
X014033Y009453D01*
X014110Y009530D01*
X014212Y009572D01*
X014321Y009572D01*
X014423Y009530D01*
X014430Y009523D01*
X014430Y010337D01*
X014565Y010472D01*
X014824Y010472D01*
X014824Y013555D01*
X014565Y013555D01*
X014430Y013690D01*
X014430Y013903D01*
X014419Y014052D01*
X014327Y014335D01*
X014152Y014576D01*
X013911Y014751D01*
X013628Y014843D01*
X013479Y014854D01*
X011422Y014854D01*
X011429Y014847D01*
X011471Y014745D01*
X011471Y014636D01*
X011429Y014534D01*
X011352Y014457D01*
X011250Y014415D01*
X011141Y014415D01*
X011040Y014457D01*
X010962Y014534D01*
X010920Y014636D01*
X010920Y014745D01*
X010962Y014847D01*
X010970Y014854D01*
X002062Y014854D01*
X001913Y014843D01*
X001630Y014751D01*
X001389Y014576D01*
X001214Y014335D01*
X001204Y014302D01*
X001692Y014302D01*
X001668Y014360D01*
X001668Y014470D01*
X001710Y014571D01*
X001788Y014649D01*
X001889Y014691D01*
X001999Y014691D01*
X002100Y014649D01*
X002177Y014571D01*
X002219Y014470D01*
X002219Y014360D01*
X002195Y014302D01*
X002349Y014302D01*
X002422Y014230D01*
X002422Y013509D01*
X002519Y013549D01*
X002628Y013549D01*
X002730Y013507D01*
X002807Y013429D01*
X002849Y013328D01*
X002849Y013218D01*
X002807Y013117D01*
X002730Y013040D01*
X002628Y012998D01*
X002519Y012998D01*
X002422Y013038D01*
X002422Y012761D01*
X002519Y012801D01*
X002628Y012801D01*
X002730Y012759D01*
X002807Y012681D01*
X002849Y012580D01*
X002849Y012470D01*
X002825Y012413D01*
X004239Y012413D01*
X004311Y012340D01*
X004311Y011490D01*
X004239Y011417D01*
X003862Y011417D01*
X003950Y011381D01*
X004028Y011303D01*
X004070Y011202D01*
X004070Y011092D01*
X004028Y010991D01*
X003950Y010914D01*
X003852Y010873D01*
X004438Y010873D01*
X004438Y012291D01*
X004437Y012292D01*
X004437Y013541D01*
X004361Y013509D01*
X004251Y013509D01*
X004150Y013551D01*
X004109Y013592D01*
X004068Y013551D01*
X003967Y013509D01*
X003857Y013509D01*
X003756Y013551D01*
X003679Y013629D01*
X003637Y013730D01*
X003637Y013840D01*
X003679Y013941D01*
X003756Y014019D01*
X003857Y014061D01*
X003967Y014061D01*
X004068Y014019D01*
X004109Y013978D01*
X004150Y014019D01*
X004251Y014061D01*
X004361Y014061D01*
X004462Y014019D01*
X004528Y013952D01*
X004542Y013966D01*
X004542Y014037D01*
X004584Y014138D01*
X004662Y014215D01*
X004763Y014257D01*
X004873Y014257D01*
X004974Y014215D01*
X005051Y014138D01*
X005093Y014037D01*
X005093Y013927D01*
X005051Y013826D01*
X004974Y013748D01*
X004873Y013706D01*
X004805Y013706D01*
X004805Y012292D01*
X004804Y012291D01*
X004804Y010972D01*
X004845Y011013D01*
X006656Y012824D01*
X008782Y012824D01*
X008835Y012877D01*
X008936Y012919D01*
X009046Y012919D01*
X009147Y012877D01*
X009168Y012856D01*
X009189Y012877D01*
X009290Y012919D01*
X009400Y012919D01*
X009501Y012877D01*
X009579Y012799D01*
X009621Y012698D01*
X009621Y012588D01*
X009579Y012487D01*
X009501Y012410D01*
X009400Y012368D01*
X009290Y012368D01*
X009189Y012410D01*
X009168Y012431D01*
X009147Y012410D01*
X009046Y012368D01*
X008936Y012368D01*
X008897Y012384D01*
X006838Y012384D01*
X005156Y010702D01*
X005156Y009521D01*
X004715Y009080D01*
X004763Y009100D01*
X004873Y009100D01*
X004974Y009058D01*
X005051Y008980D01*
X005093Y008879D01*
X005093Y008770D01*
X005051Y008668D01*
X004974Y008591D01*
X004873Y008549D01*
X004763Y008549D01*
X004662Y008591D01*
X004584Y008668D01*
X004542Y008770D01*
X004542Y008879D01*
X004562Y008927D01*
X004447Y008812D01*
X004014Y008379D01*
X003778Y008143D01*
X003778Y007387D01*
X003835Y007444D01*
X003936Y007486D01*
X004046Y007486D01*
X004147Y007444D01*
X004225Y007366D01*
X004266Y007265D01*
X004266Y007155D01*
X004225Y007054D01*
X004147Y006977D01*
X004046Y006935D01*
X003936Y006935D01*
X003835Y006977D01*
X003778Y007034D01*
X003778Y004009D01*
X003649Y003880D01*
X003295Y003526D01*
X002940Y003526D01*
X002927Y003512D01*
X002825Y003470D01*
X002716Y003470D01*
X002614Y003512D01*
X002537Y003590D01*
X002495Y003691D01*
X002495Y003800D01*
X002537Y003902D01*
X002614Y003979D01*
X002716Y004021D01*
X002825Y004021D01*
X002927Y003979D01*
X002940Y003966D01*
X003112Y003966D01*
X003338Y004191D01*
X003338Y007794D01*
X003258Y007761D01*
X003149Y007761D01*
X003047Y007803D01*
X002970Y007881D01*
X002928Y007982D01*
X002928Y008092D01*
X002970Y008193D01*
X003047Y008271D01*
X003149Y008313D01*
X003258Y008313D01*
X003338Y008280D01*
X003338Y008316D01*
X003244Y008355D01*
X003167Y008432D01*
X003125Y008533D01*
X003125Y008643D01*
X003167Y008744D01*
X003217Y008795D01*
X003217Y009255D01*
X003324Y009362D01*
X003443Y009480D01*
X004191Y009480D01*
X004360Y009650D01*
X003469Y009650D01*
X003399Y009720D01*
X003399Y010803D01*
X003469Y010873D01*
X003736Y010873D01*
X003638Y010914D01*
X003560Y010991D01*
X003519Y011092D01*
X003519Y011202D01*
X003560Y011303D01*
X003638Y011381D01*
X003726Y011417D01*
X001623Y011417D01*
X001726Y011375D01*
X001813Y011287D01*
X001860Y011173D01*
X001860Y011050D01*
X001813Y010936D01*
X001738Y010862D01*
X001813Y010787D01*
X001860Y010673D01*
X001860Y010550D01*
X001813Y010436D01*
X001738Y010362D01*
X001813Y010287D01*
X001860Y010173D01*
X001860Y010050D01*
X001813Y009936D01*
X001738Y009862D01*
X001813Y009787D01*
X001860Y009673D01*
X001860Y009550D01*
X001813Y009436D01*
X001726Y009349D01*
X001612Y009302D01*
X001488Y009302D01*
X001374Y009349D01*
X001287Y009436D01*
X001240Y009550D01*
X001240Y009673D01*
X001287Y009787D01*
X001362Y009862D01*
X001287Y009936D01*
X001240Y010050D01*
X001240Y010173D01*
X001287Y010287D01*
X001362Y010362D01*
X001287Y010436D01*
X001240Y010550D01*
X001240Y010673D01*
X001287Y010787D01*
X001362Y010862D01*
X001287Y010936D01*
X001240Y011050D01*
X001240Y011173D01*
X001287Y011287D01*
X001374Y011375D01*
X001477Y011417D01*
X001111Y011417D01*
X001111Y002873D01*
X001205Y002912D01*
X001344Y002912D01*
X001471Y002859D01*
X001569Y002762D01*
X001594Y002702D01*
X001608Y002737D01*
X001722Y002851D01*
X001871Y002913D01*
X002032Y002913D01*
X002181Y002851D01*
X002295Y002737D01*
X002357Y002588D01*
X002357Y002427D01*
X002295Y002278D01*
X002181Y002165D01*
X002044Y002108D01*
X002181Y002051D01*
X002295Y001937D01*
X002357Y001788D01*
X002357Y001627D01*
X002295Y001478D01*
X002181Y001365D01*
X002241Y001425D02*
X002456Y001425D01*
X002483Y001583D02*
X002338Y001583D01*
X002357Y001742D02*
X003777Y001742D01*
X003722Y001765D02*
X003871Y001703D01*
X004032Y001703D01*
X004181Y001765D01*
X004295Y001878D01*
X004357Y002027D01*
X004357Y002188D01*
X004295Y002337D01*
X004207Y002425D01*
X004265Y002449D01*
X004343Y002527D01*
X004385Y002628D01*
X004385Y002699D01*
X004489Y002804D01*
X004489Y003131D01*
X004527Y003116D01*
X004636Y003116D01*
X004738Y003158D01*
X004815Y003235D01*
X004857Y003337D01*
X004857Y003446D01*
X004815Y003547D01*
X004738Y003625D01*
X004636Y003667D01*
X004527Y003667D01*
X004489Y003651D01*
X004489Y004811D01*
X005838Y006160D01*
X005839Y006160D01*
X005912Y006234D01*
X005949Y006197D01*
X006050Y006155D01*
X006078Y006155D01*
X006078Y006148D01*
X006120Y006046D01*
X006197Y005969D01*
X006242Y005950D01*
X006236Y005948D01*
X006159Y005870D01*
X006117Y005769D01*
X006117Y005659D01*
X006159Y005558D01*
X006236Y005481D01*
X006338Y005439D01*
X006447Y005439D01*
X006476Y005451D01*
X006513Y005361D01*
X006591Y005284D01*
X006594Y005282D01*
X006553Y005240D01*
X006511Y005139D01*
X006511Y005029D01*
X006553Y004928D01*
X006630Y004851D01*
X006731Y004809D01*
X006841Y004809D01*
X006942Y004851D01*
X007020Y004928D01*
X007062Y005029D01*
X007062Y005139D01*
X007020Y005240D01*
X006942Y005318D01*
X006939Y005319D01*
X006980Y005361D01*
X007022Y005463D01*
X007022Y005572D01*
X006980Y005673D01*
X006903Y005751D01*
X006802Y005793D01*
X006692Y005793D01*
X006663Y005781D01*
X006626Y005870D01*
X006549Y005948D01*
X006504Y005966D01*
X006509Y005969D01*
X006587Y006046D01*
X006629Y006148D01*
X006629Y006257D01*
X006587Y006358D01*
X006509Y006436D01*
X006408Y006478D01*
X006381Y006478D01*
X006381Y006486D01*
X006339Y006587D01*
X006261Y006664D01*
X006160Y006706D01*
X006050Y006706D01*
X006021Y006694D01*
X006021Y007446D01*
X006093Y007446D01*
X006194Y007488D01*
X006272Y007566D01*
X006314Y007667D01*
X006314Y007777D01*
X006272Y007878D01*
X006194Y007956D01*
X006093Y007998D01*
X005983Y007998D01*
X005882Y007956D01*
X005805Y007878D01*
X005777Y007810D01*
X005329Y008257D01*
X005329Y008328D01*
X005288Y008429D01*
X005210Y008507D01*
X005109Y008549D01*
X004999Y008549D01*
X004898Y008507D01*
X004820Y008429D01*
X004778Y008328D01*
X004778Y008218D01*
X004820Y008117D01*
X004898Y008040D01*
X004999Y007998D01*
X005070Y007998D01*
X005662Y007405D01*
X005662Y007114D01*
X005621Y007131D01*
X005511Y007131D01*
X005410Y007090D01*
X005332Y007012D01*
X005290Y006911D01*
X005290Y006801D01*
X005332Y006700D01*
X005410Y006622D01*
X005511Y006580D01*
X005621Y006580D01*
X005662Y006598D01*
X005662Y006503D01*
X005579Y006420D01*
X005579Y006420D01*
X004123Y004963D01*
X004123Y003508D01*
X004080Y003550D01*
X003979Y003592D01*
X003869Y003592D01*
X003768Y003550D01*
X003690Y003473D01*
X003648Y003371D01*
X003648Y003262D01*
X003690Y003160D01*
X003768Y003083D01*
X003869Y003041D01*
X003979Y003041D01*
X004080Y003083D01*
X004123Y003125D01*
X004123Y002958D01*
X004054Y002958D01*
X003953Y002916D01*
X003875Y002839D01*
X003834Y002737D01*
X003834Y002628D01*
X003875Y002527D01*
X003889Y002513D01*
X003871Y002513D01*
X003722Y002451D01*
X003608Y002337D01*
X003547Y002188D01*
X003547Y002027D01*
X003608Y001878D01*
X003722Y001765D01*
X003599Y001900D02*
X002310Y001900D01*
X002162Y002059D02*
X003547Y002059D01*
X003559Y002217D02*
X002234Y002217D01*
X002335Y002376D02*
X003647Y002376D01*
X003872Y002534D02*
X002357Y002534D01*
X002313Y002693D02*
X003834Y002693D01*
X003888Y002851D02*
X002181Y002851D01*
X001723Y002851D02*
X001479Y002851D01*
X001111Y003010D02*
X004123Y003010D01*
X004489Y003010D02*
X006511Y003010D01*
X006511Y003013D02*
X006511Y002903D01*
X006553Y002802D01*
X006630Y002725D01*
X006731Y002683D01*
X006841Y002683D01*
X006942Y002725D01*
X007020Y002802D01*
X007062Y002903D01*
X007062Y003013D01*
X007020Y003114D01*
X006942Y003192D01*
X006841Y003234D01*
X006731Y003234D01*
X006630Y003192D01*
X006553Y003114D01*
X006511Y003013D01*
X006532Y002851D02*
X004489Y002851D01*
X004385Y002693D02*
X006707Y002693D01*
X006866Y002693D02*
X008079Y002693D01*
X008087Y002685D02*
X008188Y002643D01*
X008298Y002643D01*
X008399Y002685D01*
X008477Y002763D01*
X008518Y002864D01*
X008518Y002974D01*
X008477Y003075D01*
X008399Y003152D01*
X008298Y003194D01*
X008188Y003194D01*
X008087Y003152D01*
X008009Y003075D01*
X007967Y002974D01*
X007967Y002864D01*
X008009Y002763D01*
X008087Y002685D01*
X007973Y002851D02*
X007040Y002851D01*
X007062Y003010D02*
X007982Y003010D01*
X008125Y003168D02*
X006966Y003168D01*
X006607Y003168D02*
X004748Y003168D01*
X004853Y003327D02*
X008587Y003327D01*
X008621Y003313D02*
X008731Y003313D01*
X008832Y003355D01*
X008910Y003432D01*
X008952Y003533D01*
X008952Y003643D01*
X008910Y003744D01*
X008832Y003822D01*
X008731Y003864D01*
X008621Y003864D01*
X008520Y003822D01*
X008442Y003744D01*
X008400Y003643D01*
X008400Y003533D01*
X008442Y003432D01*
X008520Y003355D01*
X008621Y003313D01*
X008765Y003327D02*
X011075Y003327D01*
X011080Y003314D02*
X011158Y003236D01*
X011259Y003195D01*
X011369Y003195D01*
X011393Y003204D01*
X011393Y003179D01*
X011435Y003078D01*
X011512Y003000D01*
X011613Y002958D01*
X011723Y002958D01*
X011824Y003000D01*
X011902Y003078D01*
X011944Y003179D01*
X011944Y003289D01*
X011902Y003390D01*
X011824Y003467D01*
X011723Y003509D01*
X011613Y003509D01*
X011589Y003499D01*
X011589Y003525D01*
X011547Y003626D01*
X011470Y003704D01*
X011369Y003746D01*
X011259Y003746D01*
X011158Y003704D01*
X011080Y003626D01*
X011038Y003525D01*
X011038Y003415D01*
X011080Y003314D01*
X011038Y003485D02*
X008932Y003485D01*
X008951Y003644D02*
X011098Y003644D01*
X011530Y003644D02*
X013700Y003644D01*
X013739Y003628D02*
X013638Y003670D01*
X013560Y003747D01*
X013519Y003848D01*
X013519Y003958D01*
X013560Y004059D01*
X013638Y004137D01*
X013739Y004179D01*
X013849Y004179D01*
X013950Y004137D01*
X014028Y004059D01*
X014070Y003958D01*
X014070Y003848D01*
X014028Y003747D01*
X013950Y003670D01*
X013849Y003628D01*
X013739Y003628D01*
X013888Y003644D02*
X014824Y003644D01*
X014824Y003802D02*
X014051Y003802D01*
X014068Y003961D02*
X014824Y003961D01*
X014824Y004119D02*
X013968Y004119D01*
X013621Y004119D02*
X011981Y004119D01*
X011983Y004124D02*
X011941Y004023D01*
X011864Y003945D01*
X011762Y003903D01*
X011653Y003903D01*
X011551Y003945D01*
X011474Y004023D01*
X011432Y004124D01*
X011432Y004234D01*
X011474Y004335D01*
X011551Y004412D01*
X011653Y004454D01*
X011762Y004454D01*
X011864Y004412D01*
X011941Y004335D01*
X011983Y004234D01*
X011983Y004124D01*
X011965Y004278D02*
X014824Y004278D01*
X014824Y004436D02*
X011806Y004436D01*
X011609Y004436D02*
X010666Y004436D01*
X010684Y004478D02*
X010642Y004377D01*
X010564Y004299D01*
X010463Y004258D01*
X010438Y004258D01*
X010448Y004234D01*
X010448Y004124D01*
X010406Y004023D01*
X010328Y003945D01*
X010227Y003903D01*
X010117Y003903D01*
X010016Y003945D01*
X009938Y004023D01*
X009896Y004124D01*
X009896Y004234D01*
X009938Y004335D01*
X010016Y004412D01*
X010117Y004454D01*
X010143Y004454D01*
X010133Y004478D01*
X010133Y004588D01*
X010175Y004689D01*
X010252Y004767D01*
X010353Y004809D01*
X010463Y004809D01*
X010564Y004767D01*
X010642Y004689D01*
X010684Y004588D01*
X010684Y004478D01*
X010681Y004595D02*
X014824Y004595D01*
X014824Y004753D02*
X011701Y004753D01*
X011745Y004772D02*
X011644Y004730D01*
X011535Y004730D01*
X011433Y004772D01*
X011356Y004849D01*
X011314Y004951D01*
X011314Y005060D01*
X011356Y005162D01*
X011433Y005239D01*
X011535Y005281D01*
X011644Y005281D01*
X011745Y005239D01*
X011823Y005162D01*
X011865Y005060D01*
X011865Y004951D01*
X011823Y004849D01*
X011745Y004772D01*
X011849Y004912D02*
X014824Y004912D01*
X014824Y005070D02*
X013894Y005070D01*
X013871Y005048D02*
X013949Y005125D01*
X013991Y005226D01*
X013991Y005336D01*
X013949Y005437D01*
X013871Y005515D01*
X013770Y005557D01*
X013661Y005557D01*
X013559Y005515D01*
X013482Y005437D01*
X013440Y005336D01*
X013440Y005226D01*
X013482Y005125D01*
X013559Y005048D01*
X013661Y005006D01*
X013770Y005006D01*
X013871Y005048D01*
X013991Y005229D02*
X014824Y005229D01*
X014824Y005387D02*
X013970Y005387D01*
X013796Y005546D02*
X014824Y005546D01*
X014463Y005704D02*
X011275Y005704D01*
X011272Y005713D02*
X011194Y005790D01*
X011093Y005832D01*
X010983Y005832D01*
X010882Y005790D01*
X010805Y005713D01*
X010763Y005612D01*
X010763Y005502D01*
X010805Y005401D01*
X010882Y005323D01*
X010983Y005281D01*
X011093Y005281D01*
X011194Y005323D01*
X011272Y005401D01*
X011314Y005502D01*
X011314Y005612D01*
X011272Y005713D01*
X011314Y005546D02*
X013635Y005546D01*
X013461Y005387D02*
X011259Y005387D01*
X011423Y005229D02*
X009701Y005229D01*
X009701Y005331D02*
X009631Y005400D01*
X008823Y005400D01*
X008753Y005331D01*
X008753Y004720D01*
X008823Y004650D01*
X009631Y004650D01*
X009701Y004720D01*
X009701Y005331D01*
X009644Y005387D02*
X010818Y005387D01*
X010763Y005546D02*
X007022Y005546D01*
X006991Y005387D02*
X008810Y005387D01*
X008753Y005229D02*
X007025Y005229D01*
X007062Y005070D02*
X008753Y005070D01*
X008753Y004912D02*
X007004Y004912D01*
X006569Y004912D02*
X004590Y004912D01*
X004489Y004753D02*
X008753Y004753D01*
X007925Y004414D02*
X007967Y004312D01*
X007967Y004203D01*
X007925Y004101D01*
X007848Y004024D01*
X007747Y003982D01*
X007637Y003982D01*
X007536Y004024D01*
X007458Y004101D01*
X007416Y004203D01*
X007416Y004312D01*
X007458Y004414D01*
X007536Y004491D01*
X007637Y004533D01*
X007747Y004533D01*
X007848Y004491D01*
X007925Y004414D01*
X007903Y004436D02*
X010074Y004436D01*
X010136Y004595D02*
X004489Y004595D01*
X004489Y004436D02*
X006339Y004436D01*
X006316Y004414D02*
X006274Y004312D01*
X006274Y004203D01*
X006316Y004101D01*
X006394Y004024D01*
X006495Y003982D01*
X006605Y003982D01*
X006706Y004024D01*
X006784Y004101D01*
X006826Y004203D01*
X006826Y004312D01*
X006784Y004414D01*
X006706Y004491D01*
X006605Y004533D01*
X006495Y004533D01*
X006394Y004491D01*
X006316Y004414D01*
X006274Y004278D02*
X004489Y004278D01*
X004489Y004119D02*
X006309Y004119D01*
X006791Y004119D02*
X007451Y004119D01*
X007416Y004278D02*
X006826Y004278D01*
X006761Y004436D02*
X007481Y004436D01*
X007933Y004119D02*
X009898Y004119D01*
X009915Y004278D02*
X007967Y004278D01*
X008500Y003802D02*
X004489Y003802D01*
X004489Y003961D02*
X010000Y003961D01*
X010344Y003961D02*
X011536Y003961D01*
X011434Y004119D02*
X010446Y004119D01*
X010512Y004278D02*
X011450Y004278D01*
X011478Y004753D02*
X010578Y004753D01*
X010239Y004753D02*
X009701Y004753D01*
X009701Y004912D02*
X011330Y004912D01*
X011318Y005070D02*
X009701Y005070D01*
X010801Y005704D02*
X006949Y005704D01*
X006629Y005863D02*
X014430Y005863D01*
X014430Y006021D02*
X006562Y006021D01*
X006629Y006180D02*
X014430Y006180D01*
X014430Y006338D02*
X006595Y006338D01*
X006376Y006497D02*
X014430Y006497D01*
X014430Y006655D02*
X006270Y006655D01*
X006021Y006814D02*
X014430Y006814D01*
X014305Y006898D02*
X014382Y006975D01*
X014424Y007077D01*
X014424Y007186D01*
X014382Y007288D01*
X014305Y007365D01*
X014203Y007407D01*
X014094Y007407D01*
X013992Y007365D01*
X013915Y007288D01*
X013873Y007186D01*
X013873Y007077D01*
X013915Y006975D01*
X013992Y006898D01*
X014094Y006856D01*
X014203Y006856D01*
X014305Y006898D01*
X014379Y006972D02*
X014430Y006972D01*
X014424Y007131D02*
X014430Y007131D01*
X014430Y007289D02*
X014380Y007289D01*
X014430Y007448D02*
X011717Y007448D01*
X011714Y007445D02*
X011791Y007523D01*
X011833Y007624D01*
X011833Y007734D01*
X011791Y007835D01*
X011770Y007856D01*
X011811Y007897D01*
X011853Y007998D01*
X011853Y008108D01*
X011811Y008209D01*
X011734Y008286D01*
X011632Y008328D01*
X011523Y008328D01*
X011444Y008296D01*
X011444Y008367D01*
X011417Y008431D01*
X011447Y008431D01*
X011549Y008473D01*
X011626Y008550D01*
X011668Y008651D01*
X011668Y008761D01*
X011626Y008862D01*
X011549Y008940D01*
X011447Y008982D01*
X011338Y008982D01*
X011236Y008940D01*
X011159Y008862D01*
X011117Y008761D01*
X011117Y008651D01*
X011143Y008588D01*
X011113Y008588D01*
X011012Y008546D01*
X010935Y008469D01*
X010893Y008367D01*
X010893Y008258D01*
X010935Y008157D01*
X011012Y008079D01*
X011113Y008037D01*
X011223Y008037D01*
X011302Y008070D01*
X011302Y007998D01*
X011344Y007897D01*
X011365Y007876D01*
X011324Y007835D01*
X011282Y007734D01*
X011282Y007624D01*
X011324Y007523D01*
X011402Y007445D01*
X011503Y007403D01*
X011613Y007403D01*
X011714Y007445D01*
X011826Y007606D02*
X014430Y007606D01*
X014430Y007765D02*
X011820Y007765D01*
X011822Y007923D02*
X014430Y007923D01*
X014430Y008082D02*
X011853Y008082D01*
X011780Y008240D02*
X014430Y008240D01*
X014430Y008399D02*
X011431Y008399D01*
X011629Y008557D02*
X014430Y008557D01*
X014430Y008716D02*
X011668Y008716D01*
X011614Y008874D02*
X014430Y008874D01*
X014430Y009033D02*
X014349Y009033D01*
X014184Y009033D02*
X004999Y009033D01*
X005093Y008874D02*
X011171Y008874D01*
X011117Y008716D02*
X005071Y008716D01*
X004893Y008557D02*
X011039Y008557D01*
X010906Y008399D02*
X005300Y008399D01*
X005347Y008240D02*
X010900Y008240D01*
X011009Y008082D02*
X005505Y008082D01*
X005664Y007923D02*
X005850Y007923D01*
X006227Y007923D02*
X011333Y007923D01*
X011295Y007765D02*
X006314Y007765D01*
X006289Y007606D02*
X006406Y007606D01*
X006394Y007601D02*
X006495Y007643D01*
X006605Y007643D01*
X006706Y007601D01*
X006784Y007524D01*
X006826Y007423D01*
X006826Y007313D01*
X006784Y007212D01*
X006706Y007134D01*
X006605Y007092D01*
X006495Y007092D01*
X006394Y007134D01*
X006316Y007212D01*
X006274Y007313D01*
X006274Y007423D01*
X006316Y007524D01*
X006394Y007601D01*
X006285Y007448D02*
X006096Y007448D01*
X006021Y007289D02*
X006284Y007289D01*
X006402Y007131D02*
X006021Y007131D01*
X006021Y006972D02*
X013918Y006972D01*
X013873Y007131D02*
X006698Y007131D01*
X006816Y007289D02*
X013917Y007289D01*
X014012Y009191D02*
X012582Y009191D01*
X012610Y009220D02*
X012652Y009321D01*
X012652Y009430D01*
X012619Y009512D01*
X012619Y009512D01*
X012697Y009590D01*
X012739Y009691D01*
X012739Y009800D01*
X012697Y009902D01*
X012619Y009979D01*
X012613Y009982D01*
X012850Y010218D01*
X012849Y010218D01*
X012849Y010108D01*
X012891Y010007D01*
X012969Y009929D01*
X013070Y009887D01*
X013180Y009887D01*
X013281Y009929D01*
X013358Y010007D01*
X013395Y010096D01*
X013424Y010084D01*
X013534Y010084D01*
X013635Y010126D01*
X013713Y010204D01*
X013755Y010305D01*
X013755Y010415D01*
X013731Y010471D01*
X013753Y010481D01*
X013831Y010558D01*
X013873Y010659D01*
X013873Y010769D01*
X013831Y010870D01*
X013753Y010948D01*
X013652Y010990D01*
X013542Y010990D01*
X013441Y010948D01*
X013391Y010898D01*
X013236Y010898D01*
X013286Y010948D01*
X013339Y011076D01*
X013339Y011214D01*
X013286Y011342D01*
X013188Y011440D01*
X013060Y011493D01*
X012922Y011493D01*
X012794Y011440D01*
X012696Y011342D01*
X012643Y011214D01*
X012643Y011076D01*
X012696Y010948D01*
X012794Y010850D01*
X012912Y010801D01*
X012902Y010790D01*
X012694Y010583D01*
X012689Y010595D01*
X012612Y010672D01*
X012510Y010714D01*
X012401Y010714D01*
X012299Y010672D01*
X012222Y010595D01*
X012185Y010505D01*
X012156Y010517D01*
X012046Y010517D01*
X011945Y010475D01*
X011868Y010398D01*
X011826Y010297D01*
X011826Y010187D01*
X011868Y010086D01*
X011945Y010008D01*
X012046Y009966D01*
X012078Y009966D01*
X011907Y009796D01*
X011828Y009717D01*
X011126Y009717D01*
X011076Y009767D01*
X010975Y009809D01*
X010865Y009809D01*
X010764Y009767D01*
X010686Y009689D01*
X010645Y009588D01*
X010645Y009478D01*
X010686Y009377D01*
X010764Y009299D01*
X010865Y009258D01*
X010975Y009258D01*
X011076Y009299D01*
X011126Y009349D01*
X011980Y009349D01*
X012088Y009457D01*
X012129Y009498D01*
X012101Y009430D01*
X012101Y009321D01*
X012143Y009220D01*
X012221Y009142D01*
X012322Y009100D01*
X012432Y009100D01*
X012533Y009142D01*
X012610Y009220D01*
X012652Y009350D02*
X013991Y009350D01*
X014088Y009508D02*
X012620Y009508D01*
X012729Y009667D02*
X014430Y009667D01*
X014430Y009825D02*
X012729Y009825D01*
X012615Y009984D02*
X012914Y009984D01*
X012849Y010142D02*
X012773Y010142D01*
X012729Y010618D02*
X012666Y010618D01*
X012888Y010776D02*
X010075Y010776D01*
X010067Y010795D02*
X009990Y010873D01*
X009888Y010915D01*
X009779Y010915D01*
X009677Y010873D01*
X009600Y010795D01*
X009558Y010694D01*
X009558Y010585D01*
X009600Y010483D01*
X009677Y010406D01*
X009779Y010364D01*
X009888Y010364D01*
X009990Y010406D01*
X010067Y010483D01*
X010109Y010585D01*
X010109Y010694D01*
X010067Y010795D01*
X010109Y010618D02*
X012245Y010618D01*
X011929Y010459D02*
X011284Y010459D01*
X011272Y010488D02*
X011314Y010387D01*
X011314Y010277D01*
X011272Y010176D01*
X011194Y010099D01*
X011093Y010057D01*
X010983Y010057D01*
X010882Y010099D01*
X010805Y010176D01*
X010763Y010277D01*
X010763Y010387D01*
X010805Y010488D01*
X010882Y010566D01*
X010983Y010608D01*
X011093Y010608D01*
X011194Y010566D01*
X011272Y010488D01*
X011314Y010301D02*
X011827Y010301D01*
X011844Y010142D02*
X011238Y010142D01*
X010838Y010142D02*
X009598Y010142D01*
X009580Y010160D02*
X009658Y010083D01*
X009700Y009982D01*
X009700Y009872D01*
X009658Y009771D01*
X009580Y009693D01*
X009479Y009651D01*
X009369Y009651D01*
X009268Y009693D01*
X009190Y009771D01*
X009148Y009872D01*
X009148Y009982D01*
X009190Y010083D01*
X009268Y010160D01*
X009369Y010202D01*
X009479Y010202D01*
X009580Y010160D01*
X009624Y010459D02*
X006236Y010459D01*
X006236Y010488D02*
X006166Y010558D01*
X005359Y010558D01*
X005289Y010488D01*
X005289Y009917D01*
X005359Y009847D01*
X005664Y009847D01*
X005637Y009781D01*
X005637Y009671D01*
X005679Y009570D01*
X005756Y009492D01*
X005857Y009450D01*
X005967Y009450D01*
X006068Y009492D01*
X006146Y009570D01*
X006188Y009671D01*
X006188Y009781D01*
X006160Y009847D01*
X006166Y009847D01*
X006236Y009917D01*
X006236Y010488D01*
X006236Y010301D02*
X010763Y010301D01*
X010793Y010459D02*
X010043Y010459D01*
X009558Y010618D02*
X007013Y010618D01*
X007001Y010607D02*
X007079Y010684D01*
X007121Y010785D01*
X007121Y010895D01*
X007079Y010996D01*
X007001Y011074D01*
X006900Y011116D01*
X006790Y011116D01*
X006689Y011074D01*
X006612Y010996D01*
X006570Y010895D01*
X006570Y010785D01*
X006612Y010684D01*
X006689Y010607D01*
X006790Y010565D01*
X006900Y010565D01*
X007001Y010607D01*
X007117Y010776D02*
X009592Y010776D01*
X010332Y011109D02*
X010290Y011211D01*
X010290Y011320D01*
X010332Y011421D01*
X010410Y011499D01*
X010511Y011541D01*
X010621Y011541D01*
X010722Y011499D01*
X010799Y011421D01*
X010841Y011320D01*
X010841Y011211D01*
X010799Y011109D01*
X010722Y011032D01*
X010621Y010990D01*
X010511Y010990D01*
X010410Y011032D01*
X010332Y011109D01*
X010348Y011093D02*
X006954Y011093D01*
X006737Y011093D02*
X005547Y011093D01*
X005389Y010935D02*
X006586Y010935D01*
X006573Y010776D02*
X005230Y010776D01*
X005156Y010618D02*
X006678Y010618D01*
X007104Y010935D02*
X012709Y010935D01*
X012643Y011093D02*
X011965Y011093D01*
X011980Y011109D02*
X012022Y011211D01*
X012022Y011281D01*
X012532Y011790D01*
X013319Y011790D01*
X013427Y011898D01*
X013436Y011907D01*
X013464Y011895D01*
X013573Y011895D01*
X013675Y011937D01*
X013752Y012015D01*
X013794Y012116D01*
X013794Y012226D01*
X013752Y012327D01*
X013675Y012404D01*
X013573Y012446D01*
X013464Y012446D01*
X013362Y012404D01*
X013285Y012327D01*
X013249Y012240D01*
X013167Y012158D01*
X012379Y012158D01*
X011763Y011541D01*
X011692Y011541D01*
X011591Y011499D01*
X011513Y011421D01*
X011471Y011320D01*
X011471Y011211D01*
X011513Y011109D01*
X011591Y011032D01*
X011692Y010990D01*
X011802Y010990D01*
X011903Y011032D01*
X011980Y011109D01*
X012022Y011252D02*
X012658Y011252D01*
X012764Y011410D02*
X012152Y011410D01*
X012310Y011569D02*
X014321Y011569D01*
X014309Y011582D02*
X014386Y011504D01*
X014487Y011462D01*
X014597Y011462D01*
X014698Y011504D01*
X014776Y011582D01*
X014818Y011683D01*
X014818Y011793D01*
X014776Y011894D01*
X014698Y011971D01*
X014597Y012013D01*
X014487Y012013D01*
X014386Y011971D01*
X014309Y011894D01*
X014267Y011793D01*
X014267Y011683D01*
X014309Y011582D01*
X014267Y011727D02*
X012469Y011727D01*
X012266Y012044D02*
X011983Y012044D01*
X011983Y011998D02*
X011983Y012108D01*
X011941Y012209D01*
X011864Y012286D01*
X011762Y012328D01*
X011653Y012328D01*
X011551Y012286D01*
X011474Y012209D01*
X011432Y012108D01*
X011432Y011998D01*
X011474Y011897D01*
X011551Y011819D01*
X011653Y011777D01*
X011762Y011777D01*
X011864Y011819D01*
X011941Y011897D01*
X011983Y011998D01*
X011930Y011886D02*
X012108Y011886D01*
X011949Y011727D02*
X009273Y011727D01*
X009305Y011740D02*
X009382Y011818D01*
X009424Y011919D01*
X009424Y012029D01*
X009382Y012130D01*
X009305Y012208D01*
X009203Y012250D01*
X009094Y012250D01*
X008992Y012208D01*
X008915Y012130D01*
X008873Y012029D01*
X008873Y011919D01*
X008915Y011818D01*
X008992Y011740D01*
X009094Y011698D01*
X009203Y011698D01*
X009305Y011740D01*
X009410Y011886D02*
X011485Y011886D01*
X011432Y012044D02*
X009418Y012044D01*
X009309Y012203D02*
X011471Y012203D01*
X011944Y012203D02*
X013212Y012203D01*
X013319Y012361D02*
X006815Y012361D01*
X006657Y012203D02*
X008988Y012203D01*
X008879Y012044D02*
X006498Y012044D01*
X006340Y011886D02*
X008887Y011886D01*
X009024Y011727D02*
X006181Y011727D01*
X006023Y011569D02*
X011791Y011569D01*
X011509Y011410D02*
X010804Y011410D01*
X010841Y011252D02*
X011471Y011252D01*
X011529Y011093D02*
X010783Y011093D01*
X010328Y011410D02*
X005864Y011410D01*
X005706Y011252D02*
X010290Y011252D01*
X009592Y012520D02*
X014824Y012520D01*
X014824Y012678D02*
X009621Y012678D01*
X009541Y012837D02*
X014824Y012837D01*
X014824Y012995D02*
X012625Y012995D01*
X012610Y012960D02*
X012652Y013061D01*
X012652Y013171D01*
X012610Y013272D01*
X012533Y013349D01*
X012432Y013391D01*
X012322Y013391D01*
X012221Y013349D01*
X012143Y013272D01*
X012101Y013171D01*
X012101Y013061D01*
X012143Y012960D01*
X012221Y012882D01*
X012322Y012840D01*
X012432Y012840D01*
X012533Y012882D01*
X012610Y012960D01*
X012652Y013154D02*
X014824Y013154D01*
X014824Y013312D02*
X012570Y013312D01*
X012184Y013312D02*
X011894Y013312D01*
X011904Y013289D02*
X011862Y013390D01*
X011785Y013467D01*
X011763Y013477D01*
X011786Y013533D01*
X011786Y013643D01*
X011744Y013744D01*
X011667Y013822D01*
X011565Y013864D01*
X011456Y013864D01*
X011355Y013822D01*
X011277Y013744D01*
X011235Y013643D01*
X011235Y013533D01*
X011277Y013432D01*
X011355Y013355D01*
X011377Y013345D01*
X011353Y013289D01*
X011353Y013179D01*
X011395Y013078D01*
X011473Y013000D01*
X011574Y012958D01*
X011684Y012958D01*
X011785Y013000D01*
X011862Y013078D01*
X011904Y013179D01*
X011904Y013289D01*
X011894Y013154D02*
X012101Y013154D01*
X012128Y012995D02*
X011773Y012995D01*
X011484Y012995D02*
X004805Y012995D01*
X004805Y012837D02*
X008795Y012837D01*
X008952Y012604D02*
X006747Y012604D01*
X004936Y010793D01*
X004936Y009691D01*
X004936Y009612D01*
X004227Y008903D01*
X003794Y008470D01*
X003558Y008234D01*
X003558Y004100D01*
X003204Y003746D01*
X002770Y003746D01*
X002514Y003644D02*
X001111Y003644D01*
X001111Y003802D02*
X002496Y003802D01*
X002596Y003961D02*
X002082Y003961D01*
X002038Y003943D02*
X002139Y003985D01*
X002217Y004062D01*
X002259Y004163D01*
X002259Y004273D01*
X002217Y004374D01*
X002139Y004452D01*
X002038Y004494D01*
X001928Y004494D01*
X001827Y004452D01*
X001749Y004374D01*
X001708Y004273D01*
X001708Y004163D01*
X001749Y004062D01*
X001827Y003985D01*
X001928Y003943D01*
X002038Y003943D01*
X001884Y003961D02*
X001111Y003961D01*
X001111Y004119D02*
X001726Y004119D01*
X001710Y004278D02*
X001111Y004278D01*
X001111Y004436D02*
X001812Y004436D01*
X002154Y004436D02*
X003338Y004436D01*
X003338Y004278D02*
X002257Y004278D01*
X002240Y004119D02*
X003266Y004119D01*
X003571Y003802D02*
X004123Y003802D01*
X004123Y003644D02*
X003413Y003644D01*
X003703Y003485D02*
X002862Y003485D01*
X002679Y003485D02*
X001111Y003485D01*
X001111Y003327D02*
X003648Y003327D01*
X003687Y003168D02*
X001111Y003168D01*
X001111Y004595D02*
X003338Y004595D01*
X003338Y004753D02*
X001111Y004753D01*
X001111Y004912D02*
X001935Y004912D01*
X001953Y004894D02*
X002054Y004852D01*
X002164Y004852D01*
X002265Y004894D01*
X002343Y004971D01*
X002385Y005073D01*
X002385Y005182D01*
X002343Y005284D01*
X002265Y005361D01*
X002164Y005403D01*
X002054Y005403D01*
X001953Y005361D01*
X001875Y005284D01*
X001834Y005182D01*
X001834Y005073D01*
X001875Y004971D01*
X001953Y004894D01*
X001834Y005070D02*
X001111Y005070D01*
X001111Y005229D02*
X001853Y005229D01*
X002016Y005387D02*
X001111Y005387D01*
X001111Y005546D02*
X003338Y005546D01*
X003338Y005704D02*
X003252Y005704D01*
X003240Y005676D02*
X003282Y005777D01*
X003282Y005887D01*
X003240Y005988D01*
X003163Y006066D01*
X003062Y006108D01*
X002952Y006108D01*
X002851Y006066D01*
X002773Y005988D01*
X002731Y005887D01*
X002731Y005777D01*
X002773Y005676D01*
X002851Y005599D01*
X002952Y005557D01*
X003062Y005557D01*
X003163Y005599D01*
X003240Y005676D01*
X003338Y005387D02*
X002202Y005387D01*
X002365Y005229D02*
X003338Y005229D01*
X003338Y005070D02*
X002384Y005070D01*
X002283Y004912D02*
X003338Y004912D01*
X003778Y004912D02*
X004123Y004912D01*
X004123Y004753D02*
X003778Y004753D01*
X003778Y004595D02*
X004123Y004595D01*
X004123Y004436D02*
X003778Y004436D01*
X003778Y004278D02*
X004123Y004278D01*
X004123Y004119D02*
X003778Y004119D01*
X003730Y003961D02*
X004123Y003961D01*
X004692Y003644D02*
X008401Y003644D01*
X008420Y003485D02*
X004841Y003485D01*
X004346Y002534D02*
X005950Y002534D01*
X005921Y002523D02*
X006023Y002565D01*
X006132Y002565D01*
X006234Y002523D01*
X006311Y002445D01*
X006353Y002344D01*
X006353Y002234D01*
X006311Y002133D01*
X006234Y002055D01*
X006132Y002013D01*
X006023Y002013D01*
X005921Y002055D01*
X005844Y002133D01*
X005802Y002234D01*
X005802Y002344D01*
X005844Y002445D01*
X005921Y002523D01*
X005815Y002376D02*
X004256Y002376D01*
X004345Y002217D02*
X005809Y002217D01*
X005918Y002059D02*
X004357Y002059D01*
X004304Y001900D02*
X006098Y001900D01*
X005971Y001742D02*
X004126Y001742D01*
X005046Y001425D02*
X003007Y001425D01*
X002979Y001583D02*
X005968Y001583D01*
X006372Y001900D02*
X008066Y001900D01*
X007940Y001742D02*
X006499Y001742D01*
X006502Y001583D02*
X007937Y001583D01*
X008341Y001900D02*
X009740Y001900D01*
X009742Y001897D02*
X009819Y001819D01*
X009920Y001777D01*
X009962Y001777D01*
X009936Y001714D01*
X009936Y001604D01*
X009978Y001503D01*
X010055Y001425D01*
X010157Y001384D01*
X010266Y001384D01*
X010368Y001425D01*
X010445Y001503D01*
X010487Y001604D01*
X010487Y001714D01*
X010445Y001815D01*
X010368Y001893D01*
X010266Y001935D01*
X010225Y001935D01*
X010251Y001998D01*
X010251Y002108D01*
X010225Y002171D01*
X010227Y002171D01*
X010328Y002213D01*
X010406Y002290D01*
X010448Y002392D01*
X010448Y002501D01*
X010406Y002603D01*
X010328Y002680D01*
X010227Y002722D01*
X010117Y002722D01*
X010016Y002680D01*
X009938Y002603D01*
X009896Y002501D01*
X009896Y002392D01*
X009923Y002328D01*
X009920Y002328D01*
X009819Y002286D01*
X009742Y002209D01*
X009700Y002108D01*
X009700Y001998D01*
X009742Y001897D01*
X009700Y002059D02*
X006237Y002059D01*
X006346Y002217D02*
X009750Y002217D01*
X009903Y002376D02*
X006340Y002376D01*
X006205Y002534D02*
X009910Y002534D01*
X010047Y002693D02*
X008407Y002693D01*
X008513Y002851D02*
X013238Y002851D01*
X013205Y002838D02*
X013127Y002760D01*
X013090Y002671D01*
X013062Y002683D01*
X012952Y002683D01*
X012851Y002641D01*
X012773Y002563D01*
X012731Y002462D01*
X012731Y002397D01*
X012707Y002407D01*
X012598Y002407D01*
X012496Y002365D01*
X012419Y002288D01*
X012377Y002186D01*
X012377Y002077D01*
X012419Y001975D01*
X012460Y001935D01*
X012419Y001894D01*
X012377Y001793D01*
X012377Y001683D01*
X012419Y001582D01*
X012496Y001504D01*
X012598Y001462D01*
X012707Y001462D01*
X012808Y001504D01*
X012886Y001582D01*
X012928Y001683D01*
X012928Y001793D01*
X012886Y001894D01*
X012845Y001935D01*
X012886Y001975D01*
X012928Y002077D01*
X012928Y002141D01*
X012952Y002132D01*
X013062Y002132D01*
X013163Y002173D01*
X013240Y002251D01*
X013277Y002340D01*
X013306Y002328D01*
X013416Y002328D01*
X013517Y002370D01*
X013595Y002448D01*
X013637Y002549D01*
X013637Y002614D01*
X013734Y002654D01*
X013811Y002731D01*
X013853Y002833D01*
X013853Y002942D01*
X013811Y003043D01*
X013734Y003121D01*
X013632Y003163D01*
X013523Y003163D01*
X013421Y003121D01*
X013344Y003043D01*
X013302Y002942D01*
X013302Y002878D01*
X013205Y002838D01*
X013100Y002693D02*
X010297Y002693D01*
X010434Y002534D02*
X012761Y002534D01*
X012522Y002376D02*
X010441Y002376D01*
X010333Y002217D02*
X012390Y002217D01*
X012384Y002059D02*
X010251Y002059D01*
X010349Y001900D02*
X012425Y001900D01*
X012377Y001742D02*
X010475Y001742D01*
X010478Y001583D02*
X012418Y001583D01*
X012887Y001583D02*
X013519Y001583D01*
X013546Y001742D02*
X012928Y001742D01*
X012879Y001900D02*
X014341Y001900D01*
X014392Y002059D02*
X012921Y002059D01*
X013207Y002217D02*
X014425Y002217D01*
X014430Y002376D02*
X013523Y002376D01*
X013630Y002534D02*
X014824Y002534D01*
X014824Y002693D02*
X013773Y002693D01*
X013853Y002851D02*
X014824Y002851D01*
X014824Y003010D02*
X013825Y003010D01*
X013330Y003010D02*
X011834Y003010D01*
X011939Y003168D02*
X014330Y003168D01*
X014294Y003327D02*
X011928Y003327D01*
X011781Y003485D02*
X014357Y003485D01*
X014783Y003485D02*
X014824Y003485D01*
X014810Y003168D02*
X014824Y003168D01*
X013538Y003802D02*
X008851Y003802D01*
X008361Y003168D02*
X011397Y003168D01*
X011502Y003010D02*
X008503Y003010D01*
X008467Y001742D02*
X009947Y001742D01*
X009945Y001583D02*
X008470Y001583D01*
X009747Y001425D02*
X010057Y001425D01*
X010366Y001425D02*
X013599Y001425D01*
X014042Y001742D02*
X014243Y001742D01*
X014106Y001583D02*
X014070Y001583D01*
X013520Y003961D02*
X011879Y003961D01*
X011861Y005070D02*
X013536Y005070D01*
X013440Y005229D02*
X011756Y005229D01*
X011399Y007448D02*
X006815Y007448D01*
X006694Y007606D02*
X011290Y007606D01*
X012171Y009191D02*
X004827Y009191D01*
X004985Y009350D02*
X010714Y009350D01*
X010645Y009508D02*
X006084Y009508D01*
X006186Y009667D02*
X009331Y009667D01*
X009517Y009667D02*
X010677Y009667D01*
X009680Y009825D02*
X011937Y009825D01*
X012004Y009984D02*
X009699Y009984D01*
X009250Y010142D02*
X006236Y010142D01*
X006236Y009984D02*
X009149Y009984D01*
X009168Y009825D02*
X006169Y009825D01*
X005655Y009825D02*
X005156Y009825D01*
X005156Y009667D02*
X005638Y009667D01*
X005740Y009508D02*
X005144Y009508D01*
X005156Y009984D02*
X005289Y009984D01*
X005289Y010142D02*
X005156Y010142D01*
X005156Y010301D02*
X005289Y010301D01*
X005289Y010459D02*
X005156Y010459D01*
X004925Y011093D02*
X004804Y011093D01*
X004804Y011252D02*
X005084Y011252D01*
X005242Y011410D02*
X004804Y011410D01*
X004804Y011569D02*
X005401Y011569D01*
X005559Y011727D02*
X004804Y011727D01*
X004804Y011886D02*
X005718Y011886D01*
X005876Y012044D02*
X004804Y012044D01*
X004804Y012203D02*
X006035Y012203D01*
X006193Y012361D02*
X004805Y012361D01*
X004805Y012520D02*
X006352Y012520D01*
X006510Y012678D02*
X004805Y012678D01*
X004437Y012678D02*
X002808Y012678D01*
X002849Y012520D02*
X004437Y012520D01*
X004437Y012361D02*
X004290Y012361D01*
X004311Y012203D02*
X004438Y012203D01*
X004438Y012044D02*
X004311Y012044D01*
X004311Y011886D02*
X004438Y011886D01*
X004438Y011727D02*
X004311Y011727D01*
X004311Y011569D02*
X004438Y011569D01*
X004438Y011410D02*
X003879Y011410D01*
X003709Y011410D02*
X001639Y011410D01*
X001461Y011410D02*
X001111Y011410D01*
X001111Y011252D02*
X001272Y011252D01*
X001240Y011093D02*
X001111Y011093D01*
X001111Y010935D02*
X001289Y010935D01*
X001283Y010776D02*
X001111Y010776D01*
X001111Y010618D02*
X001240Y010618D01*
X001278Y010459D02*
X001111Y010459D01*
X001111Y010301D02*
X001301Y010301D01*
X001240Y010142D02*
X001111Y010142D01*
X001111Y009984D02*
X001267Y009984D01*
X001325Y009825D02*
X001111Y009825D01*
X001111Y009667D02*
X001240Y009667D01*
X001257Y009508D02*
X001111Y009508D01*
X001111Y009350D02*
X001374Y009350D01*
X001111Y009191D02*
X003217Y009191D01*
X003217Y009033D02*
X001111Y009033D01*
X001111Y008874D02*
X002021Y008874D01*
X001998Y008851D02*
X001956Y008749D01*
X001956Y008640D01*
X001998Y008538D01*
X002026Y008509D01*
X001986Y008469D01*
X001944Y008367D01*
X001944Y008258D01*
X001986Y008157D01*
X002063Y008079D01*
X002164Y008037D01*
X002274Y008037D01*
X002375Y008079D01*
X002453Y008157D01*
X002495Y008258D01*
X002495Y008367D01*
X002453Y008469D01*
X002424Y008498D01*
X002465Y008538D01*
X002507Y008640D01*
X002507Y008749D01*
X002465Y008851D01*
X002387Y008928D01*
X002286Y008970D01*
X002176Y008970D01*
X002075Y008928D01*
X001998Y008851D01*
X001956Y008716D02*
X001111Y008716D01*
X001111Y008557D02*
X001990Y008557D01*
X001957Y008399D02*
X001111Y008399D01*
X001111Y008240D02*
X001951Y008240D01*
X002060Y008082D02*
X001111Y008082D01*
X001111Y007923D02*
X002952Y007923D01*
X002928Y008082D02*
X002378Y008082D01*
X002488Y008240D02*
X003017Y008240D01*
X003200Y008399D02*
X002482Y008399D01*
X002473Y008557D02*
X003125Y008557D01*
X003155Y008716D02*
X002507Y008716D01*
X002441Y008874D02*
X003217Y008874D01*
X003312Y009350D02*
X001726Y009350D01*
X001843Y009508D02*
X002995Y009508D01*
X003031Y009494D02*
X003140Y009494D01*
X003242Y009536D01*
X003319Y009613D01*
X003361Y009714D01*
X003361Y009824D01*
X003319Y009925D01*
X003242Y010003D01*
X003140Y010045D01*
X003031Y010045D01*
X002929Y010003D01*
X002852Y009925D01*
X002810Y009824D01*
X002810Y009714D01*
X002852Y009613D01*
X002929Y009536D01*
X003031Y009494D01*
X003176Y009508D02*
X004219Y009508D01*
X004510Y008874D02*
X004542Y008874D01*
X004564Y008716D02*
X004351Y008716D01*
X004193Y008557D02*
X004742Y008557D01*
X004808Y008399D02*
X004034Y008399D01*
X003876Y008240D02*
X004778Y008240D01*
X004856Y008082D02*
X003778Y008082D01*
X003778Y007923D02*
X005144Y007923D01*
X005302Y007765D02*
X003778Y007765D01*
X003778Y007606D02*
X005461Y007606D01*
X005619Y007448D02*
X004137Y007448D01*
X004256Y007289D02*
X005662Y007289D01*
X005662Y007131D02*
X005622Y007131D01*
X005510Y007131D02*
X004256Y007131D01*
X004137Y006972D02*
X005316Y006972D01*
X005290Y006814D02*
X003778Y006814D01*
X003778Y006972D02*
X003845Y006972D01*
X003778Y006655D02*
X005377Y006655D01*
X005656Y006497D02*
X003778Y006497D01*
X003778Y006338D02*
X005498Y006338D01*
X005339Y006180D02*
X003778Y006180D01*
X003778Y006021D02*
X005181Y006021D01*
X005022Y005863D02*
X003778Y005863D01*
X003778Y005704D02*
X004864Y005704D01*
X004705Y005546D02*
X003778Y005546D01*
X003778Y005387D02*
X004547Y005387D01*
X004388Y005229D02*
X003778Y005229D01*
X003778Y005070D02*
X004230Y005070D01*
X004748Y005070D02*
X006511Y005070D01*
X006548Y005229D02*
X004907Y005229D01*
X005065Y005387D02*
X006502Y005387D01*
X006171Y005546D02*
X005224Y005546D01*
X005382Y005704D02*
X006117Y005704D01*
X006156Y005863D02*
X005541Y005863D01*
X005699Y006021D02*
X006144Y006021D01*
X005991Y006180D02*
X005858Y006180D01*
X003845Y007448D02*
X003778Y007448D01*
X003338Y007448D02*
X001111Y007448D01*
X001111Y007606D02*
X003338Y007606D01*
X003338Y007765D02*
X003267Y007765D01*
X003140Y007765D02*
X001111Y007765D01*
X001111Y007289D02*
X003338Y007289D01*
X003338Y007131D02*
X001111Y007131D01*
X001111Y006972D02*
X003338Y006972D01*
X003338Y006814D02*
X001111Y006814D01*
X001111Y006655D02*
X003338Y006655D01*
X003338Y006497D02*
X001111Y006497D01*
X001111Y006338D02*
X003338Y006338D01*
X003338Y006180D02*
X001111Y006180D01*
X001111Y006021D02*
X002806Y006021D01*
X002731Y005863D02*
X001111Y005863D01*
X001111Y005704D02*
X002761Y005704D01*
X003207Y006021D02*
X003338Y006021D01*
X003338Y005863D02*
X003282Y005863D01*
X003341Y009667D02*
X003452Y009667D01*
X003399Y009825D02*
X003360Y009825D01*
X003399Y009984D02*
X003261Y009984D01*
X003399Y010142D02*
X001860Y010142D01*
X001833Y009984D02*
X002910Y009984D01*
X002810Y009825D02*
X001775Y009825D01*
X001860Y009667D02*
X002830Y009667D01*
X003399Y010301D02*
X001799Y010301D01*
X001822Y010459D02*
X003399Y010459D01*
X003399Y010618D02*
X002434Y010618D01*
X002453Y010637D02*
X002495Y010738D01*
X002495Y010848D01*
X002453Y010949D01*
X002375Y011027D01*
X002274Y011068D01*
X002164Y011068D01*
X002063Y011027D01*
X001986Y010949D01*
X001944Y010848D01*
X001944Y010738D01*
X001986Y010637D01*
X002063Y010559D01*
X002164Y010517D01*
X002274Y010517D01*
X002375Y010559D01*
X002453Y010637D01*
X002495Y010776D02*
X003399Y010776D01*
X003617Y010935D02*
X002459Y010935D01*
X001980Y010935D02*
X001811Y010935D01*
X001817Y010776D02*
X001944Y010776D01*
X002005Y010618D02*
X001860Y010618D01*
X001860Y011093D02*
X003519Y011093D01*
X003539Y011252D02*
X001828Y011252D01*
X002422Y012837D02*
X004437Y012837D01*
X004437Y012995D02*
X002422Y012995D01*
X002822Y013154D02*
X003091Y013154D01*
X003088Y013157D02*
X003166Y013079D01*
X003267Y013037D01*
X003376Y013037D01*
X003478Y013079D01*
X003555Y013157D01*
X003597Y013258D01*
X003597Y013367D01*
X003555Y013469D01*
X003478Y013546D01*
X003376Y013588D01*
X003267Y013588D01*
X003166Y013546D01*
X003088Y013469D01*
X003046Y013367D01*
X003046Y013258D01*
X003088Y013157D01*
X003046Y013312D02*
X002849Y013312D01*
X002766Y013471D02*
X003090Y013471D01*
X003553Y013471D02*
X004437Y013471D01*
X004437Y013312D02*
X003597Y013312D01*
X003553Y013154D02*
X004437Y013154D01*
X004805Y013154D02*
X006673Y013154D01*
X006671Y013157D02*
X006748Y013079D01*
X006850Y013037D01*
X006959Y013037D01*
X007060Y013079D01*
X007138Y013157D01*
X007180Y013258D01*
X007180Y013367D01*
X007138Y013469D01*
X007060Y013546D01*
X006959Y013588D01*
X006944Y013588D01*
X006944Y013643D01*
X006902Y013744D01*
X006824Y013822D01*
X006723Y013864D01*
X006613Y013864D01*
X006512Y013822D01*
X006435Y013744D01*
X006393Y013643D01*
X006393Y013533D01*
X006435Y013432D01*
X006512Y013355D01*
X006613Y013313D01*
X006629Y013313D01*
X006629Y013258D01*
X006671Y013157D01*
X006629Y013312D02*
X004805Y013312D01*
X004805Y013471D02*
X005297Y013471D01*
X005335Y013433D02*
X005257Y013511D01*
X005215Y013612D01*
X005215Y013722D01*
X005257Y013823D01*
X005335Y013901D01*
X005436Y013942D01*
X005546Y013942D01*
X005647Y013901D01*
X005725Y013823D01*
X005766Y013722D01*
X005766Y013612D01*
X005725Y013511D01*
X005647Y013433D01*
X005546Y013391D01*
X005436Y013391D01*
X005335Y013433D01*
X005215Y013629D02*
X004805Y013629D01*
X005013Y013788D02*
X005243Y013788D01*
X005093Y013946D02*
X006550Y013946D01*
X006551Y013945D02*
X006653Y013903D01*
X006762Y013903D01*
X006864Y013945D01*
X006941Y014023D01*
X006983Y014124D01*
X006983Y014234D01*
X006941Y014335D01*
X006864Y014412D01*
X006762Y014454D01*
X006653Y014454D01*
X006551Y014412D01*
X006474Y014335D01*
X006432Y014234D01*
X006432Y014124D01*
X006474Y014023D01*
X006551Y013945D01*
X006478Y013788D02*
X005739Y013788D01*
X005766Y013629D02*
X006393Y013629D01*
X006418Y013471D02*
X005685Y013471D01*
X005065Y014105D02*
X006440Y014105D01*
X006444Y014263D02*
X002388Y014263D01*
X002422Y014105D02*
X004570Y014105D01*
X004740Y014339D02*
X004663Y014416D01*
X004621Y014518D01*
X004621Y014627D01*
X004663Y014729D01*
X004740Y014806D01*
X004842Y014848D01*
X004951Y014848D01*
X005053Y014806D01*
X005130Y014729D01*
X005172Y014627D01*
X005172Y014518D01*
X005130Y014416D01*
X005053Y014339D01*
X004951Y014297D01*
X004842Y014297D01*
X004740Y014339D01*
X004661Y014422D02*
X002219Y014422D01*
X002168Y014580D02*
X004621Y014580D01*
X004673Y014739D02*
X001614Y014739D01*
X001719Y014580D02*
X001396Y014580D01*
X001278Y014422D02*
X001668Y014422D01*
X002422Y013946D02*
X003684Y013946D01*
X003637Y013788D02*
X002422Y013788D01*
X002422Y013629D02*
X003678Y013629D01*
X005132Y014422D02*
X006574Y014422D01*
X006841Y014422D02*
X011124Y014422D01*
X011267Y014422D02*
X012174Y014422D01*
X012183Y014401D02*
X012141Y014502D01*
X012141Y014612D01*
X012183Y014713D01*
X012260Y014790D01*
X012361Y014832D01*
X012471Y014832D01*
X012572Y014790D01*
X012650Y014713D01*
X012692Y014612D01*
X012692Y014502D01*
X012650Y014401D01*
X012572Y014323D01*
X012471Y014281D01*
X012361Y014281D01*
X012260Y014323D01*
X012183Y014401D01*
X012141Y014580D02*
X011448Y014580D01*
X011471Y014739D02*
X012209Y014739D01*
X012624Y014739D02*
X013927Y014739D01*
X014145Y014580D02*
X012692Y014580D01*
X012659Y014422D02*
X014263Y014422D01*
X014350Y014263D02*
X006971Y014263D01*
X006975Y014105D02*
X007362Y014105D01*
X007376Y014120D02*
X007279Y014022D01*
X007226Y013894D01*
X007226Y013755D01*
X007279Y013627D01*
X007376Y013529D01*
X007504Y013476D01*
X007643Y013476D01*
X007771Y013529D01*
X007869Y013627D01*
X007922Y013755D01*
X007922Y013894D01*
X007869Y014022D01*
X007771Y014120D01*
X007643Y014173D01*
X007504Y014173D01*
X007376Y014120D01*
X007247Y013946D02*
X006865Y013946D01*
X006858Y013788D02*
X007226Y013788D01*
X007278Y013629D02*
X006944Y013629D01*
X007136Y013471D02*
X011261Y013471D01*
X011235Y013629D02*
X010444Y013629D01*
X010444Y013627D02*
X010497Y013755D01*
X010497Y013894D01*
X010444Y014022D01*
X010346Y014120D01*
X010218Y014173D01*
X010079Y014173D01*
X009951Y014120D01*
X009853Y014022D01*
X009800Y013894D01*
X009800Y013755D01*
X009853Y013627D01*
X009951Y013529D01*
X010079Y013476D01*
X010218Y013476D01*
X010346Y013529D01*
X010444Y013627D01*
X010497Y013788D02*
X011321Y013788D01*
X011701Y013788D02*
X014430Y013788D01*
X014427Y013946D02*
X010475Y013946D01*
X010360Y014105D02*
X014401Y014105D01*
X014491Y013629D02*
X011786Y013629D01*
X011777Y013471D02*
X014824Y013471D01*
X014824Y012361D02*
X013718Y012361D01*
X013794Y012203D02*
X014824Y012203D01*
X014824Y012044D02*
X013764Y012044D01*
X013415Y011886D02*
X014305Y011886D01*
X014779Y011886D02*
X014824Y011886D01*
X014818Y011727D02*
X014824Y011727D01*
X014824Y011569D02*
X014763Y011569D01*
X014824Y011410D02*
X013218Y011410D01*
X013323Y011252D02*
X014824Y011252D01*
X014824Y011093D02*
X013339Y011093D01*
X013273Y010935D02*
X013428Y010935D01*
X013766Y010935D02*
X014824Y010935D01*
X014824Y010776D02*
X013870Y010776D01*
X013856Y010618D02*
X014824Y010618D01*
X014553Y010459D02*
X013736Y010459D01*
X013753Y010301D02*
X014430Y010301D01*
X014430Y010142D02*
X013651Y010142D01*
X013335Y009984D02*
X014430Y009984D01*
X012101Y009350D02*
X011981Y009350D01*
X011364Y013154D02*
X007135Y013154D01*
X007180Y013312D02*
X011363Y013312D01*
X010943Y014580D02*
X005172Y014580D01*
X005120Y014739D02*
X010920Y014739D01*
X009937Y014105D02*
X007785Y014105D01*
X007900Y013946D02*
X009822Y013946D01*
X009800Y013788D02*
X007922Y013788D01*
X007870Y013629D02*
X009852Y013629D01*
X004438Y011252D02*
X004049Y011252D01*
X004070Y011093D02*
X004438Y011093D01*
X004438Y010935D02*
X003971Y010935D01*
D17*
X005999Y003194D03*
D18*
X001274Y002565D03*
M02*
