G75*
%MOIN*%
%OFA0B0*%
%FSLAX24Y24*%
%IPPOS*%
%LPD*%
%AMOC8*
5,1,8,0,0,1.08239X$1,22.5*
%
%ADD10C,0.0000*%
%ADD11C,0.0060*%
%ADD12C,0.0030*%
%ADD13C,0.0100*%
%ADD14C,0.0080*%
%ADD15C,0.0160*%
%ADD16C,0.0050*%
%ADD17C,0.0070*%
%ADD18C,0.0010*%
%ADD19C,0.0028*%
%ADD20C,0.0130*%
%ADD21R,0.3728X0.3071*%
D10*
X001777Y001708D02*
X001779Y001734D01*
X001785Y001760D01*
X001794Y001784D01*
X001807Y001807D01*
X001824Y001827D01*
X001843Y001845D01*
X001865Y001860D01*
X001888Y001871D01*
X001913Y001879D01*
X001939Y001883D01*
X001965Y001883D01*
X001991Y001879D01*
X002016Y001871D01*
X002040Y001860D01*
X002061Y001845D01*
X002080Y001827D01*
X002097Y001807D01*
X002110Y001784D01*
X002119Y001760D01*
X002125Y001734D01*
X002127Y001708D01*
X002125Y001682D01*
X002119Y001656D01*
X002110Y001632D01*
X002097Y001609D01*
X002080Y001589D01*
X002061Y001571D01*
X002039Y001556D01*
X002016Y001545D01*
X001991Y001537D01*
X001965Y001533D01*
X001939Y001533D01*
X001913Y001537D01*
X001888Y001545D01*
X001864Y001556D01*
X001843Y001571D01*
X001824Y001589D01*
X001807Y001609D01*
X001794Y001632D01*
X001785Y001656D01*
X001779Y001682D01*
X001777Y001708D01*
X002062Y001108D02*
X001996Y001110D01*
X001930Y001115D01*
X001864Y001125D01*
X001799Y001138D01*
X001735Y001154D01*
X001672Y001174D01*
X001610Y001198D01*
X001550Y001225D01*
X001491Y001255D01*
X001434Y001289D01*
X001379Y001326D01*
X001326Y001366D01*
X001275Y001408D01*
X001227Y001454D01*
X001181Y001502D01*
X001139Y001553D01*
X001099Y001606D01*
X001062Y001661D01*
X001028Y001718D01*
X000998Y001777D01*
X000971Y001837D01*
X000947Y001899D01*
X000927Y001962D01*
X000911Y002026D01*
X000898Y002091D01*
X000888Y002157D01*
X000883Y002223D01*
X000881Y002289D01*
X000881Y013903D01*
X000883Y013969D01*
X000888Y014035D01*
X000898Y014101D01*
X000911Y014166D01*
X000927Y014230D01*
X000947Y014293D01*
X000971Y014355D01*
X000998Y014415D01*
X001028Y014474D01*
X001062Y014531D01*
X001099Y014586D01*
X001139Y014639D01*
X001181Y014690D01*
X001227Y014738D01*
X001275Y014784D01*
X001326Y014826D01*
X001379Y014866D01*
X001434Y014903D01*
X001491Y014937D01*
X001550Y014967D01*
X001610Y014994D01*
X001672Y015018D01*
X001735Y015038D01*
X001799Y015054D01*
X001864Y015067D01*
X001930Y015077D01*
X001996Y015082D01*
X002062Y015084D01*
X013479Y015084D01*
X013545Y015082D01*
X013611Y015077D01*
X013677Y015067D01*
X013742Y015054D01*
X013806Y015038D01*
X013869Y015018D01*
X013931Y014994D01*
X013991Y014967D01*
X014050Y014937D01*
X014107Y014903D01*
X014162Y014866D01*
X014215Y014826D01*
X014266Y014784D01*
X014314Y014738D01*
X014360Y014690D01*
X014402Y014639D01*
X014442Y014586D01*
X014479Y014531D01*
X014513Y014474D01*
X014543Y014415D01*
X014570Y014355D01*
X014594Y014293D01*
X014614Y014230D01*
X014630Y014166D01*
X014643Y014101D01*
X014653Y014035D01*
X014658Y013969D01*
X014660Y013903D01*
X014660Y013785D01*
X015054Y013785D01*
X015054Y010242D01*
X014660Y010242D01*
X014660Y005832D01*
X015054Y005832D01*
X015054Y002289D01*
X014660Y002289D01*
X014658Y002223D01*
X014653Y002157D01*
X014643Y002091D01*
X014630Y002026D01*
X014614Y001962D01*
X014594Y001899D01*
X014570Y001837D01*
X014543Y001777D01*
X014513Y001718D01*
X014479Y001661D01*
X014442Y001606D01*
X014402Y001553D01*
X014360Y001502D01*
X014314Y001454D01*
X014266Y001408D01*
X014215Y001366D01*
X014162Y001326D01*
X014107Y001289D01*
X014050Y001255D01*
X013991Y001225D01*
X013931Y001198D01*
X013869Y001174D01*
X013806Y001154D01*
X013742Y001138D01*
X013677Y001125D01*
X013611Y001115D01*
X013545Y001110D01*
X013479Y001108D01*
X009542Y001108D01*
X009542Y001305D01*
X005251Y001305D01*
X005251Y001108D01*
X002062Y001108D01*
X001777Y002508D02*
X001779Y002534D01*
X001785Y002560D01*
X001794Y002584D01*
X001807Y002607D01*
X001824Y002627D01*
X001843Y002645D01*
X001865Y002660D01*
X001888Y002671D01*
X001913Y002679D01*
X001939Y002683D01*
X001965Y002683D01*
X001991Y002679D01*
X002016Y002671D01*
X002040Y002660D01*
X002061Y002645D01*
X002080Y002627D01*
X002097Y002607D01*
X002110Y002584D01*
X002119Y002560D01*
X002125Y002534D01*
X002127Y002508D01*
X002125Y002482D01*
X002119Y002456D01*
X002110Y002432D01*
X002097Y002409D01*
X002080Y002389D01*
X002061Y002371D01*
X002039Y002356D01*
X002016Y002345D01*
X001991Y002337D01*
X001965Y002333D01*
X001939Y002333D01*
X001913Y002337D01*
X001888Y002345D01*
X001864Y002356D01*
X001843Y002371D01*
X001824Y002389D01*
X001807Y002409D01*
X001794Y002432D01*
X001785Y002456D01*
X001779Y002482D01*
X001777Y002508D01*
X003777Y002108D02*
X003779Y002134D01*
X003785Y002160D01*
X003794Y002184D01*
X003807Y002207D01*
X003824Y002227D01*
X003843Y002245D01*
X003865Y002260D01*
X003888Y002271D01*
X003913Y002279D01*
X003939Y002283D01*
X003965Y002283D01*
X003991Y002279D01*
X004016Y002271D01*
X004040Y002260D01*
X004061Y002245D01*
X004080Y002227D01*
X004097Y002207D01*
X004110Y002184D01*
X004119Y002160D01*
X004125Y002134D01*
X004127Y002108D01*
X004125Y002082D01*
X004119Y002056D01*
X004110Y002032D01*
X004097Y002009D01*
X004080Y001989D01*
X004061Y001971D01*
X004039Y001956D01*
X004016Y001945D01*
X003991Y001937D01*
X003965Y001933D01*
X003939Y001933D01*
X003913Y001937D01*
X003888Y001945D01*
X003864Y001956D01*
X003843Y001971D01*
X003824Y001989D01*
X003807Y002009D01*
X003794Y002032D01*
X003785Y002056D01*
X003779Y002082D01*
X003777Y002108D01*
X012873Y011145D02*
X012875Y011166D01*
X012881Y011186D01*
X012890Y011206D01*
X012902Y011223D01*
X012917Y011237D01*
X012935Y011249D01*
X012955Y011257D01*
X012975Y011262D01*
X012996Y011263D01*
X013017Y011260D01*
X013037Y011254D01*
X013056Y011243D01*
X013073Y011230D01*
X013086Y011214D01*
X013097Y011196D01*
X013105Y011176D01*
X013109Y011156D01*
X013109Y011134D01*
X013105Y011114D01*
X013097Y011094D01*
X013086Y011076D01*
X013073Y011060D01*
X013056Y011047D01*
X013037Y011036D01*
X013017Y011030D01*
X012996Y011027D01*
X012975Y011028D01*
X012955Y011033D01*
X012935Y011041D01*
X012917Y011053D01*
X012902Y011067D01*
X012890Y011084D01*
X012881Y011104D01*
X012875Y011124D01*
X012873Y011145D01*
X010030Y013824D02*
X010032Y013845D01*
X010038Y013865D01*
X010047Y013885D01*
X010059Y013902D01*
X010074Y013916D01*
X010092Y013928D01*
X010112Y013936D01*
X010132Y013941D01*
X010153Y013942D01*
X010174Y013939D01*
X010194Y013933D01*
X010213Y013922D01*
X010230Y013909D01*
X010243Y013893D01*
X010254Y013875D01*
X010262Y013855D01*
X010266Y013835D01*
X010266Y013813D01*
X010262Y013793D01*
X010254Y013773D01*
X010243Y013755D01*
X010230Y013739D01*
X010213Y013726D01*
X010194Y013715D01*
X010174Y013709D01*
X010153Y013706D01*
X010132Y013707D01*
X010112Y013712D01*
X010092Y013720D01*
X010074Y013732D01*
X010059Y013746D01*
X010047Y013763D01*
X010038Y013783D01*
X010032Y013803D01*
X010030Y013824D01*
X007456Y013824D02*
X007458Y013845D01*
X007464Y013865D01*
X007473Y013885D01*
X007485Y013902D01*
X007500Y013916D01*
X007518Y013928D01*
X007538Y013936D01*
X007558Y013941D01*
X007579Y013942D01*
X007600Y013939D01*
X007620Y013933D01*
X007639Y013922D01*
X007656Y013909D01*
X007669Y013893D01*
X007680Y013875D01*
X007688Y013855D01*
X007692Y013835D01*
X007692Y013813D01*
X007688Y013793D01*
X007680Y013773D01*
X007669Y013755D01*
X007656Y013739D01*
X007639Y013726D01*
X007620Y013715D01*
X007600Y013709D01*
X007579Y013706D01*
X007558Y013707D01*
X007538Y013712D01*
X007518Y013720D01*
X007500Y013732D01*
X007485Y013746D01*
X007473Y013763D01*
X007464Y013783D01*
X007458Y013803D01*
X007456Y013824D01*
D11*
X007468Y012299D02*
X007340Y012299D01*
X007298Y012256D01*
X007298Y012171D01*
X007340Y012128D01*
X007468Y012128D01*
X007468Y012043D02*
X007468Y012299D01*
X007588Y012214D02*
X007588Y012043D01*
X007588Y012171D02*
X007758Y012171D01*
X007758Y012214D02*
X007673Y012299D01*
X007588Y012214D01*
X007758Y012214D02*
X007758Y012043D01*
X007878Y012043D02*
X008005Y012171D01*
X008048Y012128D02*
X007878Y012299D01*
X008048Y012299D02*
X008048Y012043D01*
X007908Y011741D02*
X007823Y011741D01*
X007781Y011699D01*
X007781Y011571D01*
X007908Y011571D01*
X007951Y011613D01*
X007908Y011656D01*
X007781Y011656D01*
X007661Y011571D02*
X007661Y011741D01*
X007533Y011741D01*
X007491Y011699D01*
X007491Y011571D01*
X007371Y011613D02*
X007371Y011699D01*
X007328Y011741D01*
X007201Y011741D01*
X007201Y011826D02*
X007201Y011571D01*
X007328Y011571D01*
X007371Y011613D01*
X007093Y012043D02*
X007093Y012299D01*
X007178Y012299D02*
X007008Y012299D01*
X006888Y012256D02*
X006888Y012086D01*
X006845Y012043D01*
X006760Y012043D01*
X006717Y012086D01*
X006717Y012256D01*
X006760Y012299D01*
X006845Y012299D01*
X006888Y012256D01*
X006598Y012299D02*
X006598Y012043D01*
X006427Y012043D02*
X006427Y012299D01*
X006598Y012299D02*
X006427Y012043D01*
X006458Y011826D02*
X006373Y011826D01*
X006331Y011784D01*
X006211Y011826D02*
X006211Y011571D01*
X006083Y011571D01*
X006041Y011613D01*
X006041Y011656D01*
X006083Y011699D01*
X006211Y011699D01*
X006211Y011826D02*
X006083Y011826D01*
X006041Y011784D01*
X006041Y011741D01*
X006083Y011699D01*
X006331Y011613D02*
X006373Y011571D01*
X006458Y011571D01*
X006501Y011613D01*
X006501Y011784D01*
X006458Y011826D01*
X006621Y011784D02*
X006621Y011699D01*
X006663Y011656D01*
X006791Y011656D01*
X006791Y011571D02*
X006791Y011826D01*
X006663Y011826D01*
X006621Y011784D01*
X008361Y011741D02*
X008361Y011528D01*
X008403Y011486D01*
X008446Y011486D01*
X008488Y011571D02*
X008361Y011571D01*
X008488Y011571D02*
X008531Y011613D01*
X008531Y011741D01*
X008651Y011699D02*
X008651Y011571D01*
X008778Y011571D01*
X008821Y011613D01*
X008778Y011656D01*
X008651Y011656D01*
X008651Y011699D02*
X008693Y011741D01*
X008778Y011741D01*
X008972Y011826D02*
X008972Y011571D01*
X009014Y011571D02*
X008929Y011571D01*
X009134Y011613D02*
X009134Y011699D01*
X009177Y011741D01*
X009304Y011741D01*
X009304Y011486D01*
X009304Y011571D02*
X009177Y011571D01*
X009134Y011613D01*
X009014Y011826D02*
X008972Y011826D01*
X009026Y012043D02*
X009111Y012043D01*
X009069Y012043D02*
X009069Y012214D01*
X009111Y012214D01*
X009069Y012299D02*
X009069Y012341D01*
X009219Y012214D02*
X009304Y012214D01*
X009262Y012256D02*
X009262Y012086D01*
X009219Y012043D01*
X009424Y012043D02*
X009552Y012043D01*
X009594Y012086D01*
X009594Y012171D01*
X009552Y012214D01*
X009424Y012214D01*
X009714Y012214D02*
X009714Y012043D01*
X009842Y012043D01*
X009884Y012086D01*
X009884Y012214D01*
X010004Y012214D02*
X010132Y012214D01*
X010174Y012171D01*
X010174Y012086D01*
X010132Y012043D01*
X010004Y012043D01*
X010004Y012299D01*
X010294Y012171D02*
X010294Y012043D01*
X010294Y012171D02*
X010337Y012214D01*
X010464Y012214D01*
X010464Y012043D01*
X010584Y012086D02*
X010584Y012171D01*
X010627Y012214D01*
X010712Y012214D01*
X010754Y012171D01*
X010754Y012086D01*
X010712Y012043D01*
X010627Y012043D01*
X010584Y012086D01*
X010874Y012043D02*
X011002Y012043D01*
X011044Y012086D01*
X011044Y012171D01*
X011002Y012214D01*
X010874Y012214D01*
X011164Y012171D02*
X011334Y012171D01*
X011454Y012171D02*
X011454Y012043D01*
X011454Y012171D02*
X011497Y012214D01*
X011624Y012214D01*
X011624Y012043D01*
X011744Y012086D02*
X011744Y012171D01*
X011787Y012214D01*
X011872Y012214D01*
X011914Y012171D01*
X011914Y012086D01*
X011872Y012043D01*
X011787Y012043D01*
X011744Y012086D01*
X012034Y012043D02*
X012034Y012171D01*
X012077Y012214D01*
X012204Y012214D01*
X012204Y012043D01*
X012301Y011826D02*
X012301Y011571D01*
X012174Y011571D01*
X012131Y011613D01*
X012131Y011699D01*
X012174Y011741D01*
X012301Y011741D01*
X012011Y011699D02*
X012011Y011613D01*
X011969Y011571D01*
X011884Y011571D01*
X011841Y011656D02*
X012011Y011656D01*
X012011Y011699D02*
X011969Y011741D01*
X011884Y011741D01*
X011841Y011699D01*
X011841Y011656D01*
X011721Y011741D02*
X011636Y011741D01*
X011679Y011784D02*
X011679Y011613D01*
X011636Y011571D01*
X011528Y011613D02*
X011528Y011741D01*
X011528Y011613D02*
X011485Y011571D01*
X011443Y011613D01*
X011400Y011571D01*
X011358Y011613D01*
X011358Y011741D01*
X011238Y011699D02*
X011238Y011613D01*
X011195Y011571D01*
X011110Y011571D01*
X011068Y011656D02*
X011238Y011656D01*
X011238Y011699D02*
X011195Y011741D01*
X011110Y011741D01*
X011068Y011699D01*
X011068Y011656D01*
X010948Y011656D02*
X010778Y011656D01*
X010778Y011699D01*
X010820Y011741D01*
X010905Y011741D01*
X010948Y011699D01*
X010948Y011613D01*
X010905Y011571D01*
X010820Y011571D01*
X010658Y011571D02*
X010658Y011741D01*
X010530Y011741D01*
X010488Y011699D01*
X010488Y011571D01*
X010078Y011613D02*
X010078Y011699D01*
X010035Y011741D01*
X009908Y011741D01*
X009908Y011826D02*
X009908Y011571D01*
X010035Y011571D01*
X010078Y011613D01*
X009788Y011571D02*
X009703Y011571D01*
X009745Y011571D02*
X009745Y011741D01*
X009788Y011741D01*
X009745Y011826D02*
X009745Y011869D01*
X009594Y011699D02*
X009552Y011741D01*
X009424Y011741D01*
X009467Y011656D02*
X009552Y011656D01*
X009594Y011699D01*
X009594Y011571D02*
X009467Y011571D01*
X009424Y011613D01*
X009467Y011656D01*
X008833Y012043D02*
X008748Y012214D01*
X008628Y012171D02*
X008628Y012086D01*
X008585Y012043D01*
X008500Y012043D01*
X008458Y012128D02*
X008628Y012128D01*
X008628Y012171D02*
X008585Y012214D01*
X008500Y012214D01*
X008458Y012171D01*
X008458Y012128D01*
X008833Y012043D02*
X008918Y012214D01*
X012603Y012214D02*
X012688Y012214D01*
X012645Y012256D02*
X012645Y012086D01*
X012603Y012043D01*
X012808Y012043D02*
X012808Y012214D01*
X012978Y012214D02*
X012978Y012086D01*
X012935Y012043D01*
X012808Y012043D01*
X013098Y012171D02*
X013140Y012128D01*
X013268Y012128D01*
X013268Y012043D02*
X013268Y012299D01*
X013140Y012299D01*
X013098Y012256D01*
X013098Y012171D01*
X013044Y011741D02*
X013001Y011699D01*
X013001Y011613D01*
X013044Y011571D01*
X013171Y011571D01*
X013171Y011486D02*
X013171Y011741D01*
X013044Y011741D01*
X012881Y011699D02*
X012881Y011613D01*
X012839Y011571D01*
X012754Y011571D01*
X012711Y011656D02*
X012881Y011656D01*
X012881Y011699D02*
X012839Y011741D01*
X012754Y011741D01*
X012711Y011699D01*
X012711Y011656D01*
X013291Y011656D02*
X013419Y011656D01*
X013461Y011613D01*
X013419Y011571D01*
X013291Y011571D01*
X013291Y011699D01*
X013334Y011741D01*
X013419Y011741D01*
X013569Y011741D02*
X013655Y011741D01*
X013612Y011784D02*
X013612Y011613D01*
X013569Y011571D01*
D12*
X011200Y013166D02*
X011200Y013360D01*
X011104Y013456D01*
X011007Y013360D01*
X011007Y013166D01*
X010906Y013166D02*
X010906Y013360D01*
X010857Y013360D01*
X010809Y013311D01*
X010761Y013360D01*
X010712Y013311D01*
X010712Y013166D01*
X010809Y013166D02*
X010809Y013311D01*
X011007Y013311D02*
X011200Y013311D01*
X010611Y013360D02*
X010611Y013215D01*
X010563Y013166D01*
X010418Y013166D01*
X010418Y013360D01*
X010316Y013456D02*
X010268Y013456D01*
X010268Y013166D01*
X010316Y013166D02*
X010220Y013166D01*
X010120Y013215D02*
X010120Y013311D01*
X010072Y013360D01*
X009975Y013360D01*
X009926Y013311D01*
X009926Y013263D01*
X010120Y013263D01*
X010120Y013215D02*
X010072Y013166D01*
X009975Y013166D01*
X009777Y013215D02*
X009729Y013166D01*
X009777Y013215D02*
X009777Y013408D01*
X009825Y013360D02*
X009729Y013360D01*
X009334Y013456D02*
X009334Y013166D01*
X009334Y013263D02*
X009141Y013456D01*
X009040Y013360D02*
X008991Y013360D01*
X008991Y013166D01*
X008943Y013166D02*
X009040Y013166D01*
X009141Y013166D02*
X009286Y013311D01*
X008991Y013456D02*
X008991Y013505D01*
X008843Y013360D02*
X008746Y013360D01*
X008795Y013408D02*
X008795Y013215D01*
X008746Y013166D01*
X008647Y013215D02*
X008647Y013311D01*
X008598Y013360D01*
X008502Y013360D01*
X008453Y013311D01*
X008453Y013263D01*
X008647Y013263D01*
X008647Y013215D02*
X008598Y013166D01*
X008502Y013166D01*
X008057Y013166D02*
X008057Y013456D01*
X007912Y013456D01*
X007864Y013408D01*
X007864Y013311D01*
X007912Y013263D01*
X008057Y013263D01*
X007961Y013263D02*
X007864Y013166D01*
X007763Y013215D02*
X007763Y013311D01*
X007714Y013360D01*
X007618Y013360D01*
X007569Y013311D01*
X007569Y013263D01*
X007763Y013263D01*
X007763Y013215D02*
X007714Y013166D01*
X007618Y013166D01*
X007468Y013360D02*
X007371Y013166D01*
X007275Y013360D01*
X007173Y013215D02*
X007125Y013215D01*
X007125Y013166D01*
X007173Y013166D01*
X007173Y013215D01*
X006731Y013215D02*
X006731Y013408D01*
X006683Y013456D01*
X006586Y013456D01*
X006538Y013408D01*
X006538Y013311D02*
X006635Y013311D01*
X006538Y013311D02*
X006538Y013215D01*
X006586Y013166D01*
X006683Y013166D01*
X006731Y013215D01*
X007961Y008094D02*
X007961Y007998D01*
X008010Y007949D01*
X008058Y007998D02*
X008107Y007949D01*
X008058Y007998D02*
X008058Y008094D01*
X008208Y007901D02*
X008208Y007853D01*
X008401Y007853D01*
X008401Y007901D02*
X008353Y007949D01*
X008256Y007949D01*
X008208Y007901D01*
X008256Y007756D02*
X008353Y007756D01*
X008401Y007804D01*
X008401Y007901D01*
X008501Y007949D02*
X008598Y007949D01*
X008549Y007998D02*
X008549Y007804D01*
X008501Y007756D01*
X008697Y007756D02*
X008794Y007756D01*
X008746Y007756D02*
X008746Y007949D01*
X008794Y007949D01*
X008746Y008046D02*
X008746Y008094D01*
X008895Y008046D02*
X009089Y007853D01*
X009040Y007901D02*
X008895Y007756D01*
X008696Y007566D02*
X008551Y007566D01*
X008502Y007518D01*
X008502Y007421D01*
X008551Y007373D01*
X008696Y007373D01*
X008599Y007373D02*
X008502Y007276D01*
X008401Y007324D02*
X008401Y007421D01*
X008353Y007469D01*
X008256Y007469D01*
X008208Y007421D01*
X008208Y007373D01*
X008401Y007373D01*
X008401Y007324D02*
X008353Y007276D01*
X008256Y007276D01*
X008304Y007134D02*
X008304Y007086D01*
X008304Y006989D02*
X008304Y006796D01*
X008352Y006796D02*
X008255Y006796D01*
X008059Y006796D02*
X008156Y006989D01*
X008304Y006989D02*
X008352Y006989D01*
X008453Y006941D02*
X008453Y006796D01*
X008453Y006941D02*
X008502Y006989D01*
X008647Y006989D01*
X008647Y006796D01*
X008748Y006844D02*
X008748Y007086D01*
X008941Y007086D02*
X008941Y006844D01*
X008893Y006796D01*
X008796Y006796D01*
X008748Y006844D01*
X008647Y006606D02*
X008647Y006316D01*
X008502Y006316D01*
X008453Y006364D01*
X008453Y006461D01*
X008502Y006509D01*
X008647Y006509D01*
X008352Y006509D02*
X008352Y006364D01*
X008304Y006316D01*
X008159Y006316D01*
X008159Y006267D02*
X008207Y006219D01*
X008255Y006219D01*
X008159Y006267D02*
X008159Y006509D01*
X008059Y006796D02*
X007962Y006989D01*
X007861Y006844D02*
X007813Y006844D01*
X007813Y006796D01*
X007861Y006796D01*
X007861Y006844D01*
X007666Y006606D02*
X007569Y006606D01*
X007618Y006606D02*
X007618Y006364D01*
X007666Y006316D01*
X007714Y006316D01*
X007763Y006364D01*
X007468Y006364D02*
X007420Y006316D01*
X007323Y006316D01*
X007275Y006364D01*
X007275Y006461D01*
X007323Y006509D01*
X007420Y006509D01*
X007468Y006461D01*
X007468Y006364D01*
X007173Y006364D02*
X007173Y006461D01*
X007125Y006509D01*
X007028Y006509D01*
X006980Y006461D01*
X006980Y006413D01*
X007173Y006413D01*
X007173Y006364D02*
X007125Y006316D01*
X007028Y006316D01*
X006584Y006364D02*
X006536Y006316D01*
X006439Y006316D01*
X006391Y006364D01*
X006391Y006413D01*
X006439Y006461D01*
X006536Y006461D01*
X006584Y006509D01*
X006584Y006558D01*
X006536Y006606D01*
X006439Y006606D01*
X006391Y006558D01*
X006289Y006606D02*
X006289Y006316D01*
X006289Y006413D02*
X006144Y006509D01*
X006044Y006509D02*
X005996Y006509D01*
X005996Y006316D01*
X006044Y006316D02*
X005947Y006316D01*
X005848Y006316D02*
X005848Y006509D01*
X005702Y006509D01*
X005654Y006461D01*
X005654Y006316D01*
X005553Y006316D02*
X005553Y006509D01*
X005408Y006509D01*
X005359Y006461D01*
X005359Y006316D01*
X005258Y006364D02*
X005258Y006461D01*
X005210Y006509D01*
X005113Y006509D01*
X005065Y006461D01*
X005065Y006413D01*
X005258Y006413D01*
X005258Y006364D02*
X005210Y006316D01*
X005113Y006316D01*
X004964Y006316D02*
X004964Y006509D01*
X004964Y006413D02*
X004867Y006509D01*
X004818Y006509D01*
X004866Y006796D02*
X004769Y006796D01*
X004721Y006844D01*
X004721Y006941D01*
X004769Y006989D01*
X004866Y006989D01*
X004914Y006941D01*
X004914Y006844D01*
X004866Y006796D01*
X005016Y006796D02*
X005016Y006941D01*
X005064Y006989D01*
X005112Y006941D01*
X005112Y006796D01*
X005209Y006796D02*
X005209Y006989D01*
X005161Y006989D01*
X005112Y006941D01*
X005309Y006989D02*
X005406Y006989D01*
X005357Y007038D02*
X005357Y006844D01*
X005309Y006796D01*
X005506Y006989D02*
X005554Y006989D01*
X005651Y006893D01*
X005651Y006989D02*
X005651Y006796D01*
X005752Y006796D02*
X005897Y006796D01*
X005946Y006844D01*
X005897Y006893D01*
X005752Y006893D01*
X005752Y006941D02*
X005752Y006796D01*
X005752Y006941D02*
X005801Y006989D01*
X005897Y006989D01*
X006047Y007038D02*
X006047Y006844D01*
X006095Y006796D01*
X006240Y006796D01*
X006240Y007086D01*
X006095Y007086D01*
X006047Y007038D01*
X006045Y007276D02*
X005948Y007276D01*
X005900Y007324D01*
X005900Y007421D01*
X005996Y007421D01*
X005900Y007518D02*
X005948Y007566D01*
X006045Y007566D01*
X006093Y007518D01*
X006093Y007324D01*
X006045Y007276D01*
X006487Y007276D02*
X006535Y007276D01*
X006535Y007324D01*
X006487Y007324D01*
X006487Y007276D01*
X006636Y007276D02*
X006636Y007421D01*
X006685Y007469D01*
X006830Y007469D01*
X006830Y007276D01*
X006931Y007324D02*
X006931Y007421D01*
X006979Y007469D01*
X007076Y007469D01*
X007124Y007421D01*
X007124Y007324D01*
X007076Y007276D01*
X006979Y007276D01*
X006931Y007324D01*
X007224Y007276D02*
X007321Y007276D01*
X007272Y007276D02*
X007272Y007469D01*
X007321Y007469D01*
X007422Y007469D02*
X007567Y007469D01*
X007615Y007421D01*
X007567Y007373D01*
X007470Y007373D01*
X007422Y007324D01*
X007470Y007276D01*
X007615Y007276D01*
X007715Y007276D02*
X007812Y007276D01*
X007763Y007276D02*
X007763Y007469D01*
X007812Y007469D01*
X007913Y007469D02*
X008010Y007276D01*
X008107Y007469D01*
X007763Y007566D02*
X007763Y007614D01*
X007272Y007614D02*
X007272Y007566D01*
X007274Y006989D02*
X007225Y006941D01*
X007225Y006796D01*
X007371Y006796D01*
X007419Y006844D01*
X007371Y006893D01*
X007225Y006893D01*
X007274Y006989D02*
X007371Y006989D01*
X007124Y006989D02*
X007124Y006796D01*
X006931Y006796D02*
X006931Y006941D01*
X006979Y006989D01*
X007124Y006989D01*
X006830Y006941D02*
X006830Y006844D01*
X006781Y006796D01*
X006636Y006796D01*
X006636Y007086D01*
X006636Y006989D02*
X006781Y006989D01*
X006830Y006941D01*
X006289Y006413D02*
X006144Y006316D01*
X005996Y006606D02*
X005996Y006654D01*
X004620Y006844D02*
X004571Y006796D01*
X004426Y006796D01*
X004426Y006989D01*
X004325Y006989D02*
X004228Y006989D01*
X004277Y007038D02*
X004277Y006844D01*
X004228Y006796D01*
X004129Y006796D02*
X004129Y007086D01*
X004080Y006989D02*
X003984Y006989D01*
X003935Y006941D01*
X003935Y006796D01*
X004080Y006989D02*
X004129Y006941D01*
X004375Y006606D02*
X004327Y006558D01*
X004327Y006509D01*
X004423Y006413D01*
X004423Y006364D01*
X004375Y006316D01*
X004327Y006316D01*
X004230Y006413D01*
X004230Y006316D02*
X004423Y006509D01*
X004423Y006558D01*
X004375Y006606D01*
X004620Y006844D02*
X004620Y006989D01*
X003834Y006364D02*
X003786Y006316D01*
X003737Y006316D01*
X003689Y006364D01*
X003689Y006606D01*
X003737Y006606D02*
X003641Y006606D01*
X003539Y006461D02*
X003539Y006364D01*
X003491Y006316D01*
X003394Y006316D01*
X003346Y006364D01*
X003346Y006461D01*
X003394Y006509D01*
X003491Y006509D01*
X003539Y006461D01*
X003245Y006461D02*
X003196Y006413D01*
X003100Y006413D01*
X003051Y006364D01*
X003100Y006316D01*
X003245Y006316D01*
X003245Y006461D02*
X003196Y006509D01*
X003051Y006509D01*
X002950Y006509D02*
X002902Y006509D01*
X002902Y006316D01*
X002950Y006316D02*
X002853Y006316D01*
X002754Y006364D02*
X002705Y006413D01*
X002560Y006413D01*
X002560Y006461D02*
X002560Y006316D01*
X002705Y006316D01*
X002754Y006364D01*
X002705Y006509D02*
X002609Y006509D01*
X002560Y006461D01*
X002459Y006461D02*
X002411Y006509D01*
X002314Y006509D01*
X002266Y006461D01*
X002266Y006316D01*
X002459Y006316D02*
X002459Y006606D01*
X002412Y006796D02*
X002509Y006796D01*
X002557Y006844D01*
X002557Y006941D01*
X002509Y006989D01*
X002412Y006989D01*
X002364Y006941D01*
X002364Y006893D01*
X002557Y006893D01*
X002657Y006796D02*
X002754Y006796D01*
X002705Y006796D02*
X002705Y007086D01*
X002754Y007086D01*
X002902Y007086D02*
X002902Y006796D01*
X002950Y006796D02*
X002853Y006796D01*
X002902Y006654D02*
X002902Y006606D01*
X003100Y006796D02*
X003051Y006844D01*
X003051Y006941D01*
X003100Y006989D01*
X003196Y006989D01*
X003245Y006941D01*
X003245Y006844D01*
X003196Y006796D01*
X003100Y006796D01*
X003346Y006844D02*
X003394Y006796D01*
X003491Y006796D01*
X003539Y006844D01*
X003539Y007038D01*
X003491Y007086D01*
X003394Y007086D01*
X003346Y007038D01*
X002950Y007086D02*
X002902Y007086D01*
X002263Y006941D02*
X002263Y006844D01*
X002214Y006796D01*
X002069Y006796D01*
X002069Y006747D02*
X002069Y006989D01*
X002214Y006989D01*
X002263Y006941D01*
X002166Y006699D02*
X002117Y006699D01*
X002069Y006747D01*
X001968Y006844D02*
X001968Y006941D01*
X001920Y006989D01*
X001823Y006989D01*
X001774Y006941D01*
X001774Y006893D01*
X001968Y006893D01*
X001968Y006844D02*
X001920Y006796D01*
X001823Y006796D01*
X001870Y006606D02*
X001870Y006316D01*
X001870Y006461D02*
X001676Y006461D01*
X001575Y006461D02*
X001527Y006509D01*
X001430Y006509D01*
X001382Y006461D01*
X001382Y006413D01*
X001575Y006413D01*
X001575Y006461D02*
X001575Y006364D01*
X001527Y006316D01*
X001430Y006316D01*
X001280Y006316D02*
X001135Y006316D01*
X001087Y006364D01*
X001135Y006413D01*
X001232Y006413D01*
X001280Y006461D01*
X001232Y006509D01*
X001087Y006509D01*
X000986Y006509D02*
X000889Y006509D01*
X000937Y006558D02*
X000937Y006364D01*
X000889Y006316D01*
X000789Y006364D02*
X000789Y006461D01*
X000741Y006509D01*
X000644Y006509D01*
X000596Y006461D01*
X000596Y006413D01*
X000789Y006413D01*
X000789Y006364D02*
X000741Y006316D01*
X000644Y006316D01*
X000495Y006316D02*
X000495Y006509D01*
X000495Y006413D02*
X000398Y006509D01*
X000350Y006509D01*
X001676Y006606D02*
X001676Y006316D01*
X008696Y007276D02*
X008696Y007566D01*
X009092Y007421D02*
X009092Y007373D01*
X009285Y007373D01*
X009285Y007421D02*
X009285Y007324D01*
X009237Y007276D01*
X009140Y007276D01*
X009092Y007421D02*
X009140Y007469D01*
X009237Y007469D01*
X009285Y007421D01*
X009385Y007276D02*
X009482Y007276D01*
X009433Y007276D02*
X009433Y007566D01*
X009482Y007566D01*
X009583Y007421D02*
X009631Y007469D01*
X009776Y007469D01*
X009776Y007566D02*
X009776Y007276D01*
X009631Y007276D01*
X009583Y007324D01*
X009583Y007421D01*
X009877Y007421D02*
X009877Y007276D01*
X010022Y007276D01*
X010071Y007324D01*
X010022Y007373D01*
X009877Y007373D01*
X009877Y007421D02*
X009926Y007469D01*
X010022Y007469D01*
X010171Y007469D02*
X010220Y007469D01*
X010316Y007373D01*
X010316Y007469D02*
X010316Y007276D01*
X010418Y007276D02*
X010563Y007276D01*
X010611Y007324D01*
X010563Y007373D01*
X010418Y007373D01*
X010418Y007421D02*
X010418Y007276D01*
X010418Y007421D02*
X010466Y007469D01*
X010563Y007469D01*
X010712Y007421D02*
X010712Y007373D01*
X010906Y007373D01*
X010906Y007421D02*
X010906Y007324D01*
X010857Y007276D01*
X010761Y007276D01*
X010712Y007421D02*
X010761Y007469D01*
X010857Y007469D01*
X010906Y007421D01*
X011007Y007276D02*
X011007Y007566D01*
X011007Y007756D02*
X011007Y007949D01*
X011104Y008046D01*
X011200Y007949D01*
X011200Y007756D01*
X011200Y007901D02*
X011007Y007901D01*
X010906Y007949D02*
X010906Y007756D01*
X010809Y007756D02*
X010809Y007901D01*
X010761Y007949D01*
X010712Y007901D01*
X010712Y007756D01*
X010611Y007804D02*
X010611Y007949D01*
X010611Y007804D02*
X010563Y007756D01*
X010418Y007756D01*
X010418Y007949D01*
X010316Y008046D02*
X010268Y008046D01*
X010268Y007756D01*
X010316Y007756D02*
X010220Y007756D01*
X010120Y007804D02*
X010120Y007901D01*
X010072Y007949D01*
X009975Y007949D01*
X009926Y007901D01*
X009926Y007853D01*
X010120Y007853D01*
X010120Y007804D02*
X010072Y007756D01*
X009975Y007756D01*
X009777Y007804D02*
X009777Y007998D01*
X009825Y007949D02*
X009729Y007949D01*
X009777Y007804D02*
X009729Y007756D01*
X009334Y007949D02*
X009286Y007998D01*
X009286Y008094D01*
X009189Y008094D02*
X009189Y007998D01*
X009237Y007949D01*
X009089Y008046D02*
X009089Y007756D01*
X009386Y006989D02*
X009337Y006941D01*
X009337Y006796D01*
X009386Y006989D02*
X009531Y006989D01*
X009531Y006796D01*
X009632Y006844D02*
X009632Y006941D01*
X009680Y006989D01*
X009777Y006989D01*
X009825Y006941D01*
X009825Y006844D01*
X009777Y006796D01*
X009680Y006796D01*
X009632Y006844D01*
X009926Y006844D02*
X009975Y006893D01*
X010072Y006893D01*
X010120Y006941D01*
X010072Y006989D01*
X009926Y006989D01*
X009926Y006844D02*
X009975Y006796D01*
X010120Y006796D01*
X010221Y006796D02*
X010221Y006941D01*
X010269Y006989D01*
X010318Y006941D01*
X010318Y006796D01*
X010415Y006796D02*
X010415Y006989D01*
X010366Y006989D01*
X010318Y006941D01*
X010516Y006941D02*
X010516Y006893D01*
X010709Y006893D01*
X010709Y006941D02*
X010709Y006844D01*
X010661Y006796D01*
X010564Y006796D01*
X010516Y006941D02*
X010564Y006989D01*
X010661Y006989D01*
X010709Y006941D01*
X010809Y006796D02*
X010906Y006796D01*
X010857Y006796D02*
X010857Y007086D01*
X010906Y007086D01*
X011007Y007038D02*
X011055Y007086D01*
X011152Y007086D01*
X011200Y007038D01*
X011200Y006844D01*
X011152Y006796D01*
X011055Y006796D01*
X011007Y006844D01*
X011055Y006606D02*
X011200Y006606D01*
X011200Y006316D01*
X011055Y006316D01*
X011007Y006364D01*
X011007Y006558D01*
X011055Y006606D01*
X010906Y006461D02*
X010906Y006364D01*
X010857Y006316D01*
X010761Y006316D01*
X010712Y006413D02*
X010906Y006413D01*
X010906Y006461D02*
X010857Y006509D01*
X010761Y006509D01*
X010712Y006461D01*
X010712Y006413D01*
X010611Y006461D02*
X010563Y006509D01*
X010418Y006509D01*
X010316Y006509D02*
X010268Y006509D01*
X010268Y006316D01*
X010316Y006316D02*
X010220Y006316D01*
X010120Y006364D02*
X010120Y006461D01*
X010072Y006509D01*
X009926Y006509D01*
X009926Y006267D01*
X009975Y006219D01*
X010023Y006219D01*
X010072Y006316D02*
X009926Y006316D01*
X009825Y006316D02*
X009825Y006509D01*
X009680Y006509D01*
X009632Y006461D01*
X009632Y006316D01*
X009531Y006364D02*
X009531Y006461D01*
X009482Y006509D01*
X009386Y006509D01*
X009337Y006461D01*
X009337Y006413D01*
X009531Y006413D01*
X009531Y006364D02*
X009482Y006316D01*
X009386Y006316D01*
X009236Y006364D02*
X009236Y006461D01*
X009188Y006509D01*
X009043Y006509D01*
X009043Y006606D02*
X009043Y006316D01*
X009188Y006316D01*
X009236Y006364D01*
X010072Y006316D02*
X010120Y006364D01*
X010268Y006606D02*
X010268Y006654D01*
X010466Y006413D02*
X010418Y006364D01*
X010466Y006316D01*
X010611Y006316D01*
X010563Y006413D02*
X010611Y006461D01*
X010563Y006413D02*
X010466Y006413D01*
X011007Y007276D02*
X011104Y007373D01*
X011200Y007276D01*
X011200Y007566D01*
X010906Y007949D02*
X010857Y007949D01*
X010809Y007901D01*
D13*
X013473Y005017D02*
X013479Y005055D01*
X013489Y005093D01*
X013503Y005129D01*
X013520Y005164D01*
X013541Y005197D01*
X013565Y005228D01*
X013592Y005256D01*
X013621Y005282D01*
X013653Y005304D01*
X013687Y005323D01*
X013722Y005339D01*
X013759Y005351D01*
X013798Y005360D01*
X013836Y005364D01*
X013875Y005365D01*
X013914Y005362D01*
X013952Y005355D01*
X013990Y005344D01*
X014026Y005330D01*
X014061Y005312D01*
X014093Y005291D01*
X014124Y005266D01*
X014151Y005239D01*
X014176Y005209D01*
X014198Y005177D01*
X014217Y005143D01*
X014232Y005107D01*
X014232Y005086D02*
X014142Y005136D01*
X014282Y005186D01*
X013770Y004550D02*
X013670Y004500D01*
X013720Y004400D01*
X013770Y004550D01*
X013670Y004500D02*
X013698Y004498D01*
X013726Y004493D01*
X013753Y004484D01*
X013778Y004472D01*
X013802Y004457D01*
X013824Y004439D01*
X013843Y004418D01*
X013860Y004396D01*
X013874Y004371D01*
X013884Y004345D01*
X013891Y004317D01*
X013895Y004289D01*
X013895Y004261D01*
X013891Y004233D01*
X013884Y004205D01*
X013874Y004179D01*
X013860Y004154D01*
X013843Y004132D01*
X013824Y004111D01*
X013802Y004093D01*
X013778Y004078D01*
X013753Y004066D01*
X013726Y004057D01*
X013698Y004052D01*
X013670Y004050D01*
X013570Y004250D02*
X014220Y004250D01*
X014120Y004350D01*
X014120Y004150D01*
X014220Y004250D01*
X013944Y003918D02*
X013844Y003818D01*
X013834Y003808D02*
X014054Y003808D01*
X014044Y003818D02*
X013944Y003918D01*
X013944Y003218D01*
X014194Y003368D02*
X014192Y003398D01*
X014187Y003428D01*
X014178Y003457D01*
X014165Y003484D01*
X014150Y003510D01*
X014131Y003534D01*
X014110Y003555D01*
X014086Y003574D01*
X014060Y003589D01*
X014033Y003602D01*
X014004Y003611D01*
X013974Y003616D01*
X013944Y003618D01*
X013914Y003616D01*
X013884Y003611D01*
X013855Y003602D01*
X013828Y003589D01*
X013802Y003574D01*
X013778Y003555D01*
X013757Y003534D01*
X013738Y003510D01*
X013723Y003484D01*
X013710Y003457D01*
X013701Y003428D01*
X013696Y003398D01*
X013694Y003368D01*
X013784Y003418D01*
X013644Y003468D01*
X013694Y003368D01*
X012361Y002550D02*
X012261Y002650D01*
X012251Y002660D02*
X012251Y002440D01*
X012261Y002450D02*
X012361Y002550D01*
X011761Y002550D01*
X011591Y002413D02*
X011391Y002413D01*
X011491Y002313D01*
X011591Y002413D01*
X011491Y002313D02*
X011491Y002863D01*
D14*
X011167Y002797D02*
X010857Y002487D01*
X010783Y002647D02*
X010785Y002676D01*
X010791Y002705D01*
X010800Y002733D01*
X010813Y002759D01*
X010829Y002783D01*
X010849Y002805D01*
X010871Y002825D01*
X010895Y002841D01*
X010921Y002854D01*
X010949Y002863D01*
X010978Y002869D01*
X011007Y002871D01*
X011036Y002869D01*
X011065Y002863D01*
X011093Y002854D01*
X011119Y002841D01*
X011143Y002825D01*
X011165Y002805D01*
X011185Y002783D01*
X011201Y002759D01*
X011214Y002733D01*
X011223Y002705D01*
X011229Y002676D01*
X011231Y002647D01*
X011229Y002618D01*
X011223Y002589D01*
X011214Y002561D01*
X011201Y002535D01*
X011185Y002511D01*
X011165Y002489D01*
X011143Y002469D01*
X011119Y002453D01*
X011093Y002440D01*
X011065Y002431D01*
X011036Y002425D01*
X011007Y002423D01*
X010978Y002425D01*
X010949Y002431D01*
X010921Y002440D01*
X010895Y002453D01*
X010871Y002469D01*
X010849Y002489D01*
X010829Y002511D01*
X010813Y002535D01*
X010800Y002561D01*
X010791Y002589D01*
X010785Y002618D01*
X010783Y002647D01*
X010857Y002797D02*
X011157Y002497D01*
X010857Y002797D02*
X010857Y002807D01*
X013220Y003430D02*
X013434Y003750D01*
X013220Y003750D02*
X013434Y003430D01*
X013434Y004080D02*
X013434Y004134D01*
X013327Y004240D01*
X013327Y004400D01*
X013327Y004240D02*
X013220Y004134D01*
X013220Y004080D01*
X013120Y004780D02*
X013334Y004780D01*
X013334Y004834D01*
X013120Y005047D01*
X013120Y005100D01*
X013334Y005100D01*
X013618Y004976D02*
X013620Y005005D01*
X013626Y005034D01*
X013635Y005062D01*
X013648Y005088D01*
X013664Y005112D01*
X013684Y005134D01*
X013706Y005154D01*
X013730Y005170D01*
X013756Y005183D01*
X013784Y005192D01*
X013813Y005198D01*
X013842Y005200D01*
X013871Y005198D01*
X013900Y005192D01*
X013928Y005183D01*
X013954Y005170D01*
X013978Y005154D01*
X014000Y005134D01*
X014020Y005112D01*
X014036Y005088D01*
X014049Y005062D01*
X014058Y005034D01*
X014064Y005005D01*
X014066Y004976D01*
X014064Y004947D01*
X014058Y004918D01*
X014049Y004890D01*
X014036Y004864D01*
X014020Y004840D01*
X014000Y004818D01*
X013978Y004798D01*
X013954Y004782D01*
X013928Y004769D01*
X013900Y004760D01*
X013871Y004754D01*
X013842Y004752D01*
X013813Y004754D01*
X013784Y004760D01*
X013756Y004769D01*
X013730Y004782D01*
X013706Y004798D01*
X013684Y004818D01*
X013664Y004840D01*
X013648Y004864D01*
X013635Y004890D01*
X013626Y004918D01*
X013620Y004947D01*
X013618Y004976D01*
X013597Y012683D02*
X013755Y012683D01*
X014424Y013391D02*
X014424Y013549D01*
X013755Y014257D02*
X013597Y014257D01*
X012928Y013549D02*
X012928Y013391D01*
X001566Y007611D02*
X001450Y007535D01*
X001444Y007525D02*
X001566Y007433D01*
X001444Y007344D02*
X001444Y007525D01*
X001444Y007706D01*
X001578Y006407D02*
X001578Y006226D01*
X001456Y006318D01*
X001578Y006226D02*
X001578Y006045D01*
X001456Y006140D02*
X001571Y006216D01*
X001444Y005813D02*
X001444Y005631D01*
X001566Y005539D01*
X001444Y005450D02*
X001444Y005631D01*
X001450Y005641D02*
X001566Y005717D01*
X001444Y004805D02*
X001444Y004624D01*
X001566Y004532D01*
X001444Y004443D02*
X001444Y004624D01*
X001450Y004634D02*
X001566Y004710D01*
X001589Y003470D02*
X001550Y003470D01*
X001550Y003313D01*
X001589Y003313D01*
X001589Y003470D01*
D15*
X013831Y004975D02*
X013833Y004980D01*
X013837Y004984D01*
X013842Y004985D01*
X013848Y004983D01*
X013851Y004978D01*
X013851Y004972D01*
X013848Y004967D01*
X013842Y004965D01*
X013837Y004966D01*
X013833Y004970D01*
X013831Y004975D01*
D16*
X012692Y003135D02*
X002219Y003135D01*
X002219Y015065D01*
X012692Y015065D01*
X012692Y003135D01*
X013286Y002904D02*
X013286Y002737D01*
X013328Y002695D01*
X013412Y002695D01*
X013453Y002737D01*
X013453Y002820D02*
X013370Y002820D01*
X013453Y002820D02*
X013453Y002904D01*
X013412Y002945D01*
X013328Y002945D01*
X013286Y002904D01*
X013563Y002904D02*
X013604Y002945D01*
X013729Y002945D01*
X013729Y002987D02*
X013688Y003029D01*
X013646Y003029D01*
X013729Y002987D02*
X013729Y002779D01*
X013839Y002779D02*
X013839Y002945D01*
X013839Y002862D02*
X013922Y002779D01*
X013964Y002779D01*
X014069Y002820D02*
X014069Y002904D01*
X014111Y002945D01*
X014194Y002945D01*
X014236Y002904D01*
X014236Y002820D01*
X014194Y002779D01*
X014111Y002779D01*
X014069Y002820D01*
X013563Y002779D02*
X013563Y002904D01*
X004995Y002163D02*
X004995Y002006D01*
X004581Y002006D01*
X004581Y002163D01*
X004995Y002163D01*
X004963Y001588D02*
X004550Y001588D01*
X004550Y001431D01*
X004963Y001431D01*
X004963Y001588D01*
X001574Y002919D02*
X001160Y002919D01*
X001160Y003076D01*
X001574Y003076D01*
X001574Y002919D01*
X001574Y003978D02*
X001160Y003978D01*
X001160Y004135D01*
X001574Y004135D01*
X001574Y003978D01*
X001770Y005057D02*
X001357Y005057D01*
X001357Y005214D01*
X001770Y005214D01*
X001770Y005057D01*
X001743Y006580D02*
X001330Y006580D01*
X001330Y006738D01*
X001743Y006738D01*
X001743Y006580D01*
X001743Y006974D02*
X001330Y006974D01*
X001330Y007131D01*
X001743Y007131D01*
X001743Y006974D01*
X012948Y012742D02*
X012964Y012736D01*
X012979Y012726D01*
X012991Y012714D01*
X013001Y012699D01*
X013007Y012683D01*
X014345Y012683D01*
X014404Y012742D02*
X014404Y014198D01*
X014345Y014257D02*
X013007Y014257D01*
X012948Y014198D02*
X012948Y012742D01*
X014061Y013883D02*
X014063Y013893D01*
X014068Y013902D01*
X014077Y013908D01*
X014086Y013911D01*
X014097Y013910D01*
X014106Y013905D01*
X014113Y013898D01*
X014117Y013888D01*
X014117Y013878D01*
X014113Y013868D01*
X014106Y013861D01*
X014097Y013856D01*
X014086Y013855D01*
X014077Y013858D01*
X014068Y013864D01*
X014063Y013873D01*
X014061Y013883D01*
X014404Y014198D02*
X014388Y014204D01*
X014373Y014214D01*
X014361Y014226D01*
X014351Y014241D01*
X014345Y014257D01*
X014581Y012903D02*
X014739Y012903D01*
X014739Y012490D01*
X014581Y012490D01*
X014581Y012903D01*
X014404Y012742D02*
X014388Y012736D01*
X014373Y012726D01*
X014361Y012714D01*
X014351Y012699D01*
X014345Y012683D01*
X012948Y014198D02*
X012964Y014204D01*
X012979Y014214D01*
X012991Y014226D01*
X013001Y014241D01*
X013007Y014257D01*
D17*
X011844Y002296D02*
X011955Y002186D01*
X012120Y002186D01*
X011955Y002186D02*
X011844Y002075D01*
X011789Y002075D01*
X011576Y002109D02*
X011246Y001889D01*
X011246Y002109D02*
X011576Y001889D01*
X011789Y002296D02*
X011844Y002296D01*
X011094Y002278D02*
X011094Y002057D01*
X011094Y002278D02*
X011039Y002278D01*
X010818Y002057D01*
X010763Y002057D01*
X010763Y002278D01*
D18*
X004702Y001922D02*
X004702Y001832D01*
X004702Y001862D02*
X004657Y001862D01*
X004642Y001877D01*
X004642Y001907D01*
X004657Y001922D01*
X004702Y001922D01*
X004672Y001862D02*
X004642Y001832D01*
X004610Y001832D02*
X004610Y001847D01*
X004549Y001907D01*
X004549Y001922D01*
X004610Y001922D01*
X004625Y001347D02*
X004655Y001347D01*
X004670Y001332D01*
X004670Y001272D01*
X004655Y001257D01*
X004625Y001257D01*
X004610Y001272D01*
X004578Y001257D02*
X004518Y001317D01*
X004518Y001332D01*
X004533Y001347D01*
X004563Y001347D01*
X004578Y001332D01*
X004610Y001332D02*
X004625Y001347D01*
X004578Y001257D02*
X004518Y001257D01*
X001609Y002627D02*
X001609Y002717D01*
X001564Y002717D01*
X001549Y002702D01*
X001549Y002672D01*
X001564Y002657D01*
X001609Y002657D01*
X001579Y002657D02*
X001549Y002627D01*
X001517Y002627D02*
X001457Y002627D01*
X001487Y002627D02*
X001487Y002717D01*
X001517Y002687D01*
X001424Y002717D02*
X001364Y002717D01*
X001364Y002702D01*
X001424Y002642D01*
X001424Y002627D01*
X001352Y003786D02*
X001352Y003876D01*
X001307Y003876D01*
X001292Y003861D01*
X001292Y003831D01*
X001307Y003816D01*
X001352Y003816D01*
X001322Y003816D02*
X001292Y003786D01*
X001260Y003801D02*
X001245Y003786D01*
X001215Y003786D01*
X001200Y003801D01*
X001200Y003831D01*
X001215Y003846D01*
X001230Y003846D01*
X001260Y003831D01*
X001260Y003876D01*
X001200Y003876D01*
X002101Y004628D02*
X002201Y004628D01*
X002151Y004628D02*
X002151Y004778D01*
X002201Y004728D01*
X002248Y004753D02*
X002273Y004778D01*
X002348Y004778D01*
X002348Y004628D01*
X002273Y004628D01*
X002248Y004653D01*
X002248Y004753D01*
X002396Y004778D02*
X002496Y004778D01*
X002496Y004628D01*
X002396Y004628D01*
X002446Y004703D02*
X002496Y004703D01*
X002543Y004628D02*
X002643Y004628D01*
X002643Y004778D01*
X002376Y005298D02*
X002376Y005388D01*
X002331Y005388D01*
X002316Y005373D01*
X002316Y005343D01*
X002331Y005328D01*
X002376Y005328D01*
X002346Y005328D02*
X002316Y005298D01*
X002284Y005313D02*
X002269Y005298D01*
X002239Y005298D01*
X002224Y005313D01*
X002224Y005328D01*
X002239Y005343D01*
X002254Y005343D01*
X002239Y005343D02*
X002224Y005358D01*
X002224Y005373D01*
X002239Y005388D01*
X002269Y005388D01*
X002284Y005373D01*
X002313Y005557D02*
X002288Y005582D01*
X002288Y005682D01*
X002313Y005707D01*
X002388Y005707D01*
X002388Y005557D01*
X002313Y005557D01*
X002240Y005557D02*
X002140Y005657D01*
X002140Y005682D01*
X002165Y005707D01*
X002215Y005707D01*
X002240Y005682D01*
X002240Y005557D02*
X002140Y005557D01*
X002435Y005557D02*
X002535Y005557D01*
X002535Y005707D01*
X002435Y005707D01*
X002485Y005632D02*
X002535Y005632D01*
X002582Y005557D02*
X002682Y005557D01*
X002682Y005707D01*
X002729Y006150D02*
X002629Y006150D01*
X002582Y006150D02*
X002482Y006150D01*
X002435Y006150D02*
X002359Y006150D01*
X002334Y006175D01*
X002334Y006275D01*
X002359Y006300D01*
X002435Y006300D01*
X002435Y006150D01*
X002532Y006225D02*
X002582Y006225D01*
X002582Y006300D02*
X002582Y006150D01*
X002729Y006150D02*
X002729Y006300D01*
X002582Y006300D02*
X002482Y006300D01*
X002287Y006275D02*
X002262Y006300D01*
X002212Y006300D01*
X002187Y006275D01*
X002187Y006250D01*
X002212Y006225D01*
X002187Y006200D01*
X002187Y006175D01*
X002212Y006150D01*
X002262Y006150D01*
X002287Y006175D01*
X002237Y006225D02*
X002212Y006225D01*
X002018Y006561D02*
X002018Y006606D01*
X002003Y006621D01*
X001972Y006621D01*
X001957Y006606D01*
X001957Y006561D01*
X001927Y006561D02*
X002018Y006561D01*
X001957Y006591D02*
X001927Y006621D01*
X001927Y006653D02*
X001927Y006713D01*
X001927Y006683D02*
X002018Y006683D01*
X001987Y006653D01*
X001972Y006745D02*
X001987Y006775D01*
X001987Y006790D01*
X001972Y006805D01*
X001942Y006805D01*
X001927Y006790D01*
X001927Y006760D01*
X001942Y006745D01*
X001972Y006745D02*
X002018Y006745D01*
X002018Y006805D01*
X002018Y006876D02*
X002018Y006921D01*
X002003Y006936D01*
X001972Y006936D01*
X001957Y006921D01*
X001957Y006876D01*
X001927Y006876D02*
X002018Y006876D01*
X001957Y006906D02*
X001927Y006936D01*
X001927Y006968D02*
X001927Y007028D01*
X001927Y006998D02*
X002018Y006998D01*
X001987Y006968D01*
X001987Y007060D02*
X002003Y007060D01*
X002018Y007075D01*
X002018Y007105D01*
X002003Y007120D01*
X001987Y007120D01*
X001972Y007105D01*
X001972Y007075D01*
X001987Y007060D01*
X001972Y007075D02*
X001957Y007060D01*
X001942Y007060D01*
X001927Y007075D01*
X001927Y007105D01*
X001942Y007120D01*
X001957Y007120D01*
X001972Y007105D01*
X001777Y007963D02*
X001677Y007963D01*
X001630Y007963D02*
X001529Y007963D01*
X001482Y007963D02*
X001407Y007963D01*
X001382Y007988D01*
X001382Y008088D01*
X001407Y008113D01*
X001482Y008113D01*
X001482Y007963D01*
X001580Y008038D02*
X001630Y008038D01*
X001630Y008113D02*
X001630Y007963D01*
X001777Y007963D02*
X001777Y008113D01*
X001630Y008113D02*
X001529Y008113D01*
X001335Y008038D02*
X001235Y008038D01*
X001260Y007963D02*
X001260Y008113D01*
X001335Y008038D01*
X014823Y012451D02*
X014823Y012481D01*
X014838Y012496D01*
X014823Y012528D02*
X014883Y012588D01*
X014898Y012588D01*
X014913Y012573D01*
X014913Y012543D01*
X014898Y012528D01*
X014898Y012496D02*
X014913Y012481D01*
X014913Y012451D01*
X014898Y012436D01*
X014838Y012436D01*
X014823Y012451D01*
X014823Y012528D02*
X014823Y012588D01*
X014838Y012620D02*
X014823Y012635D01*
X014823Y012665D01*
X014838Y012680D01*
X014853Y012680D01*
X014868Y012665D01*
X014868Y012635D01*
X014883Y012620D01*
X014898Y012620D01*
X014913Y012635D01*
X014913Y012665D01*
X014898Y012680D01*
X014883Y012680D01*
X014868Y012665D01*
X014868Y012635D02*
X014853Y012620D01*
X014838Y012620D01*
D19*
X012562Y014943D02*
X012562Y003785D01*
X002326Y003785D01*
X002326Y014943D01*
X012562Y014943D01*
X012030Y014423D02*
X012030Y014028D01*
X012030Y014423D02*
X011635Y014423D01*
X011242Y014423D02*
X010847Y014423D01*
X010453Y014423D02*
X010058Y014423D01*
X009664Y014423D02*
X009269Y014423D01*
X008875Y014423D02*
X008480Y014423D01*
X008087Y014423D02*
X007692Y014423D01*
X007298Y014423D02*
X006903Y014423D01*
X006509Y014423D02*
X006114Y014423D01*
X005721Y014423D02*
X005326Y014423D01*
X004932Y014423D02*
X004537Y014423D01*
X004143Y014423D02*
X003748Y014423D01*
X003354Y014423D02*
X002959Y014423D01*
X002959Y014028D01*
X002959Y013634D02*
X002959Y013239D01*
X002959Y012845D02*
X002959Y012450D01*
X002959Y012057D02*
X002959Y011662D01*
X002959Y011268D02*
X002959Y010873D01*
X002959Y010479D02*
X002959Y010084D01*
X002959Y009691D02*
X002959Y009296D01*
X002959Y008902D02*
X002959Y008507D01*
X002959Y008113D02*
X002959Y007718D01*
X002959Y007324D02*
X002959Y006929D01*
X002959Y006536D02*
X002959Y006141D01*
X002959Y005747D02*
X002959Y005352D01*
X003354Y005352D01*
X003748Y005352D02*
X004143Y005352D01*
X004537Y005352D02*
X004932Y005352D01*
X005326Y005352D02*
X005721Y005352D01*
X006114Y005352D02*
X006509Y005352D01*
X006903Y005352D02*
X007298Y005352D01*
X007692Y005352D02*
X008087Y005352D01*
X008480Y005352D02*
X008875Y005352D01*
X009269Y005352D02*
X009664Y005352D01*
X010058Y005352D02*
X010453Y005352D01*
X010847Y005352D02*
X011242Y005352D01*
X011635Y005352D02*
X012030Y005352D01*
X012030Y005747D01*
X012030Y006141D02*
X012030Y006536D01*
X012030Y006929D02*
X012030Y007324D01*
X012030Y007718D02*
X012030Y008113D01*
X012030Y008507D02*
X012030Y008902D01*
X012030Y009296D02*
X012030Y009691D01*
X012030Y010084D02*
X012030Y010479D01*
X012030Y010873D02*
X012030Y011268D01*
X012030Y011662D02*
X012030Y012057D01*
X012030Y012450D02*
X012030Y012845D01*
X012030Y013239D02*
X012030Y013634D01*
D20*
X011709Y013813D02*
X011523Y013813D01*
X011462Y013874D01*
X011462Y014121D01*
X011523Y014183D01*
X011709Y014183D01*
X011709Y013813D01*
X011248Y013813D02*
X011125Y013813D01*
X011187Y013813D02*
X011187Y014183D01*
X011248Y014183D02*
X011125Y014183D01*
X010941Y014121D02*
X010941Y014060D01*
X010880Y013998D01*
X010756Y013998D01*
X010694Y013936D01*
X010694Y013874D01*
X010756Y013813D01*
X010880Y013813D01*
X010941Y013874D01*
X010941Y014121D02*
X010880Y014183D01*
X010756Y014183D01*
X010694Y014121D01*
X010481Y014183D02*
X010296Y014183D01*
X010234Y014121D01*
X010234Y013998D01*
X010296Y013936D01*
X010481Y013936D01*
X010481Y013813D02*
X010481Y014183D01*
X010021Y014183D02*
X010021Y013813D01*
X009774Y013813D01*
X009560Y013813D02*
X009560Y014060D01*
X009437Y014183D01*
X009313Y014060D01*
X009313Y013813D01*
X009313Y013998D02*
X009560Y013998D01*
X009100Y014121D02*
X008976Y013998D01*
X008976Y013813D01*
X008976Y013998D02*
X008853Y014121D01*
X008853Y014183D01*
X009100Y014183D02*
X009100Y014121D01*
D21*
X007404Y001635D03*
M02*
