G75*
%MOIN*%
%OFA0B0*%
%FSLAX24Y24*%
%IPPOS*%
%LPD*%
%AMOC8*
5,1,8,0,0,1.08239X$1,22.5*
%
%ADD10C,0.0296*%
%ADD11R,0.0375X0.0375*%
%ADD12R,0.0296X0.0336*%
%ADD13C,0.0079*%
%ADD14R,0.0217X0.0217*%
%ADD15R,0.0296X0.0296*%
%ADD16R,0.0336X0.0296*%
%ADD17R,0.0454X0.0454*%
%ADD18C,0.0370*%
%ADD19C,0.0410*%
%ADD20C,0.0454*%
%ADD21C,0.0331*%
%ADD22C,0.0397*%
%ADD23C,0.0476*%
D10*
X012991Y011145D03*
X010148Y013824D03*
X007574Y013824D03*
D11*
X001806Y007525D03*
X001215Y007525D03*
X001215Y006226D03*
X001806Y006226D03*
X001806Y005631D03*
X001215Y005631D03*
X001215Y004624D03*
X001806Y004624D03*
X001924Y003391D03*
X001333Y003391D03*
D12*
X001184Y004057D03*
X001578Y004057D03*
X001774Y005135D03*
X001381Y005135D03*
X001353Y006659D03*
X001353Y007053D03*
X001747Y007053D03*
X001747Y006659D03*
X004578Y002084D03*
X004971Y002084D03*
X004940Y001509D03*
X004546Y001509D03*
D13*
X014069Y013883D02*
X014071Y013891D01*
X014076Y013898D01*
X014083Y013902D01*
X014091Y013903D01*
X014099Y013900D01*
X014105Y013895D01*
X014109Y013887D01*
X014109Y013879D01*
X014105Y013871D01*
X014099Y013866D01*
X014091Y013863D01*
X014083Y013864D01*
X014076Y013868D01*
X014071Y013875D01*
X014069Y013883D01*
D14*
X014267Y014061D03*
X014267Y013667D03*
X014267Y013273D03*
X014267Y012880D03*
X013873Y012880D03*
X013479Y012880D03*
X013085Y012880D03*
X013085Y013273D03*
X013085Y013667D03*
X013085Y014061D03*
X013479Y014061D03*
X013873Y014061D03*
D15*
X001554Y002998D03*
X001160Y002998D03*
D16*
X014660Y012486D03*
X014660Y012880D03*
D17*
X013952Y010281D03*
X013873Y009691D03*
X013519Y009061D03*
X013282Y008352D03*
X013125Y007761D03*
D18*
X003452Y002358D03*
X003452Y001858D03*
X002952Y001858D03*
X002952Y002358D03*
X002452Y002358D03*
X002452Y001858D03*
D19*
X001952Y001708D03*
X001952Y002508D03*
X003952Y002108D03*
D20*
X001550Y009612D03*
X001550Y010112D03*
X001550Y010612D03*
X001550Y011112D03*
D21*
X002219Y010793D03*
X003085Y009769D03*
X002231Y008694D03*
X002219Y008313D03*
X003204Y008037D03*
X003400Y008588D03*
X004818Y008824D03*
X005054Y008273D03*
X006038Y007722D03*
X006550Y007368D03*
X006105Y006431D03*
X006353Y006202D03*
X006393Y005714D03*
X006747Y005517D03*
X006786Y005084D03*
X006550Y004257D03*
X007692Y004257D03*
X008676Y003588D03*
X008243Y002919D03*
X007416Y003037D03*
X006786Y002958D03*
X006078Y002289D03*
X006235Y001659D03*
X004936Y002604D03*
X004109Y002683D03*
X003924Y003317D03*
X004581Y003391D03*
X003211Y002738D03*
X002770Y003746D03*
X001983Y004218D03*
X002109Y005128D03*
X003007Y005832D03*
X003991Y007210D03*
X005566Y006856D03*
X006558Y008702D03*
X005912Y009726D03*
X006845Y010840D03*
X008991Y012643D03*
X009345Y012643D03*
X009148Y011974D03*
X009148Y011376D03*
X009833Y010639D03*
X009424Y009927D03*
X010920Y009533D03*
X011393Y008706D03*
X011168Y008313D03*
X011578Y008053D03*
X011558Y007679D03*
X011932Y008726D03*
X012377Y009376D03*
X012463Y009746D03*
X012101Y010242D03*
X012456Y010439D03*
X011944Y010675D03*
X011747Y011265D03*
X011707Y012053D03*
X011081Y012498D03*
X011629Y013234D03*
X011511Y013588D03*
X012377Y013116D03*
X012928Y012407D03*
X013519Y012171D03*
X014542Y011738D03*
X013597Y010714D03*
X013479Y010360D03*
X013125Y010163D03*
X014267Y009297D03*
X012889Y007360D03*
X013715Y006974D03*
X014148Y007131D03*
X014349Y006254D03*
X013715Y005281D03*
X013794Y003903D03*
X014570Y003309D03*
X013578Y002887D03*
X013361Y002604D03*
X013007Y002407D03*
X012652Y002131D03*
X012652Y001738D03*
X013794Y001620D03*
X011668Y003234D03*
X011314Y003470D03*
X011707Y004179D03*
X011589Y005006D03*
X012219Y005399D03*
X011038Y005557D03*
X010763Y005242D03*
X010408Y004533D03*
X010172Y004179D03*
X010172Y002446D03*
X009975Y002053D03*
X010211Y001659D03*
X008204Y001659D03*
X007889Y005242D03*
X011038Y010332D03*
X011058Y010754D03*
X010566Y011265D03*
X012416Y014557D03*
X011196Y014691D03*
X006904Y013313D03*
X006668Y013588D03*
X006707Y014179D03*
X005491Y013667D03*
X004818Y013982D03*
X004306Y013785D03*
X003912Y013785D03*
X003322Y013313D03*
X002574Y013273D03*
X002574Y012525D03*
X003794Y011147D03*
X001944Y014415D03*
X004896Y014572D03*
X002731Y001462D03*
D22*
X005999Y003194D03*
D23*
X001274Y002565D03*
M02*
