G75*
%MOIN*%
%OFA0B0*%
%FSLAX24Y24*%
%IPPOS*%
%LPD*%
%AMOC8*
5,1,8,0,0,1.08239X$1,22.5*
%
%ADD10C,0.0340*%
%ADD11C,0.0271*%
%ADD12C,0.0087*%
%ADD13C,0.0087*%
%ADD14C,0.0079*%
%ADD15C,0.0337*%
%ADD16C,0.0131*%
%ADD17C,0.0416*%
%ADD18C,0.0160*%
D10*
X001550Y009612D03*
X001550Y010112D03*
X001550Y010612D03*
X001550Y011112D03*
D11*
X002219Y010793D03*
X003085Y009769D03*
X002231Y008694D03*
X002219Y008313D03*
X003204Y008037D03*
X003400Y008588D03*
X004818Y008824D03*
X005054Y008273D03*
X006038Y007722D03*
X006550Y007368D03*
X006105Y006431D03*
X006353Y006202D03*
X006393Y005714D03*
X006747Y005517D03*
X006786Y005084D03*
X006550Y004257D03*
X007692Y004257D03*
X008676Y003588D03*
X008243Y002919D03*
X007416Y003037D03*
X006786Y002958D03*
X006078Y002289D03*
X006235Y001659D03*
X004936Y002604D03*
X004109Y002683D03*
X003924Y003317D03*
X004581Y003391D03*
X003211Y002738D03*
X002770Y003746D03*
X001983Y004218D03*
X002109Y005128D03*
X003007Y005832D03*
X003991Y007210D03*
X005566Y006856D03*
X006558Y008702D03*
X005912Y009726D03*
X006845Y010840D03*
X008991Y012643D03*
X009345Y012643D03*
X009148Y011974D03*
X009148Y011376D03*
X009833Y010639D03*
X009424Y009927D03*
X010920Y009533D03*
X011393Y008706D03*
X011168Y008313D03*
X011578Y008053D03*
X011558Y007679D03*
X011932Y008726D03*
X012377Y009376D03*
X012463Y009746D03*
X012101Y010242D03*
X012456Y010439D03*
X011944Y010675D03*
X011747Y011265D03*
X011707Y012053D03*
X011081Y012498D03*
X011629Y013234D03*
X011511Y013588D03*
X012377Y013116D03*
X012928Y012407D03*
X013519Y012171D03*
X014542Y011738D03*
X013597Y010714D03*
X013479Y010360D03*
X013125Y010163D03*
X014267Y009297D03*
X012889Y007360D03*
X013715Y006974D03*
X014148Y007131D03*
X014349Y006254D03*
X013715Y005281D03*
X013794Y003903D03*
X014570Y003309D03*
X013578Y002887D03*
X013361Y002604D03*
X013007Y002407D03*
X012652Y002131D03*
X012652Y001738D03*
X013794Y001620D03*
X011668Y003234D03*
X011314Y003470D03*
X011707Y004179D03*
X011589Y005006D03*
X012219Y005399D03*
X011038Y005557D03*
X010763Y005242D03*
X010408Y004533D03*
X010172Y004179D03*
X010172Y002446D03*
X009975Y002053D03*
X010211Y001659D03*
X008204Y001659D03*
X007889Y005242D03*
X011038Y010332D03*
X011058Y010754D03*
X010566Y011265D03*
X012416Y014557D03*
X011196Y014691D03*
X006904Y013313D03*
X006668Y013588D03*
X006707Y014179D03*
X005491Y013667D03*
X004818Y013982D03*
X004306Y013785D03*
X003912Y013785D03*
X003322Y013313D03*
X002574Y013273D03*
X002574Y012525D03*
X003794Y011147D03*
X001944Y014415D03*
X004896Y014572D03*
X002731Y001462D03*
D12*
X005684Y001974D02*
X005999Y001659D01*
X006235Y001659D01*
X005684Y001974D02*
X005684Y002643D01*
D13*
X005684Y002683D01*
X005448Y002919D01*
X005408Y002958D01*
X003833Y002958D01*
X003519Y003273D01*
X003519Y008470D01*
X003400Y008588D01*
X003046Y008903D02*
X002456Y008313D01*
X002219Y008313D01*
X002613Y009218D02*
X001511Y009218D01*
X001196Y009533D01*
X001196Y010202D01*
X001196Y010757D01*
X001550Y011112D01*
X001550Y010612D02*
X001613Y010612D01*
X002361Y009864D01*
X002692Y009533D01*
X002731Y009494D01*
X004424Y009494D01*
X004463Y009533D01*
X004700Y009769D01*
X004700Y012525D01*
X004700Y012998D01*
X003912Y013785D01*
X004306Y013785D02*
X004857Y013234D01*
X004857Y009533D01*
X004542Y009218D01*
X002967Y009218D01*
X002613Y009218D01*
X003046Y008903D02*
X004345Y008903D01*
X004542Y008903D01*
X004621Y008982D01*
X005015Y009376D01*
X005015Y013667D01*
X005270Y013923D01*
X005526Y014179D01*
X005881Y014179D01*
X006707Y014179D01*
X005491Y013667D02*
X005211Y013387D01*
X005211Y008431D01*
X005054Y008273D01*
X007180Y006423D02*
X007889Y007131D01*
X008282Y007092D02*
X008282Y008096D01*
X009838Y009651D01*
X009838Y010635D01*
X009833Y010639D01*
X009148Y010439D02*
X010054Y011344D01*
X010487Y011344D01*
X010566Y011265D01*
X009148Y010439D02*
X009148Y010202D01*
X008282Y007092D02*
X007456Y006265D01*
X007456Y004927D01*
X007101Y004572D01*
X005487Y004572D01*
X004581Y003667D01*
X004581Y003391D01*
X003924Y003324D02*
X005408Y004809D01*
X007062Y004809D01*
X007180Y004927D01*
X007180Y006423D01*
X003924Y003324D02*
X003924Y003317D01*
D14*
X007889Y007131D02*
X008007Y007250D01*
X008125Y007368D01*
X008125Y009179D01*
X009148Y010202D01*
X003519Y008470D02*
X003400Y008588D01*
D15*
X005999Y003194D03*
D16*
X005566Y006856D02*
X005723Y007013D01*
X006865Y007013D01*
X007534Y007683D01*
X007534Y011108D01*
X008637Y012210D01*
X008715Y012289D01*
X008991Y012289D01*
X009070Y012289D01*
X009345Y012565D01*
X009345Y012643D01*
D17*
X001274Y002565D03*
D18*
X001214Y001857D02*
X001389Y001616D01*
X001630Y001442D01*
X001652Y001434D01*
X001608Y001478D01*
X001547Y001627D01*
X001547Y001788D01*
X001608Y001937D01*
X001722Y002051D01*
X001859Y002108D01*
X001722Y002165D01*
X001608Y002278D01*
X001547Y002427D01*
X001547Y002588D01*
X001608Y002737D01*
X001722Y002851D01*
X001871Y002913D01*
X002032Y002913D01*
X002181Y002851D01*
X002295Y002737D01*
X002357Y002588D01*
X002357Y002427D01*
X002295Y002278D01*
X002181Y002165D01*
X002044Y002108D01*
X002181Y002051D01*
X002295Y001937D01*
X002357Y001788D01*
X002357Y001627D01*
X002295Y001478D01*
X002181Y001365D01*
X002117Y001338D01*
X005021Y001338D01*
X005021Y001400D01*
X005156Y001535D01*
X005864Y001535D01*
X005816Y001583D01*
X005501Y001898D01*
X005501Y002567D01*
X005500Y002567D01*
X005500Y002607D01*
X005372Y002735D01*
X005372Y002735D01*
X005332Y002775D01*
X005155Y002775D01*
X005169Y002760D01*
X005211Y002659D01*
X005211Y002549D01*
X005169Y002448D01*
X005092Y002370D01*
X004991Y002328D01*
X004881Y002328D01*
X004780Y002370D01*
X004702Y002448D01*
X004660Y002549D01*
X004660Y002659D01*
X004702Y002760D01*
X004717Y002775D01*
X004369Y002775D01*
X004385Y002737D01*
X004385Y002628D01*
X004343Y002527D01*
X004265Y002449D01*
X004207Y002425D01*
X004295Y002337D01*
X004357Y002188D01*
X004357Y002027D01*
X004295Y001878D01*
X004181Y001765D01*
X004032Y001703D01*
X003871Y001703D01*
X003722Y001765D01*
X003608Y001878D01*
X003547Y002027D01*
X003547Y002188D01*
X003608Y002337D01*
X003722Y002451D01*
X003871Y002513D01*
X003889Y002513D01*
X003875Y002527D01*
X003834Y002628D01*
X003834Y002737D01*
X003849Y002775D01*
X003757Y002775D01*
X003442Y003090D01*
X003335Y003197D01*
X003335Y007793D01*
X003258Y007761D01*
X003149Y007761D01*
X003047Y007803D01*
X002970Y007881D01*
X002928Y007982D01*
X002928Y008092D01*
X002970Y008193D01*
X003047Y008271D01*
X003149Y008313D01*
X003258Y008313D01*
X003335Y008281D01*
X003335Y008317D01*
X003244Y008355D01*
X003167Y008432D01*
X003125Y008533D01*
X003125Y008643D01*
X003157Y008719D01*
X003122Y008719D01*
X002532Y008129D01*
X002425Y008129D01*
X002375Y008079D01*
X002274Y008037D01*
X002164Y008037D01*
X002063Y008079D01*
X001986Y008157D01*
X001944Y008258D01*
X001944Y008367D01*
X001986Y008469D01*
X002063Y008546D01*
X002164Y008588D01*
X002274Y008588D01*
X002375Y008546D01*
X002402Y008519D01*
X002918Y009034D01*
X001435Y009034D01*
X001120Y009349D01*
X001111Y009358D01*
X001111Y002289D01*
X001122Y002140D01*
X001214Y001857D01*
X001200Y001900D02*
X001593Y001900D01*
X001547Y001742D02*
X001298Y001742D01*
X001435Y001583D02*
X001565Y001583D01*
X001741Y002059D02*
X001149Y002059D01*
X001116Y002217D02*
X001669Y002217D01*
X001568Y002376D02*
X001111Y002376D01*
X001111Y002534D02*
X001547Y002534D01*
X001590Y002693D02*
X001111Y002693D01*
X001111Y002851D02*
X001723Y002851D01*
X002181Y002851D02*
X002960Y002851D01*
X002978Y002894D02*
X002936Y002793D01*
X002936Y002683D01*
X002978Y002582D01*
X003055Y002504D01*
X003157Y002462D01*
X003266Y002462D01*
X003368Y002504D01*
X003445Y002582D01*
X003487Y002683D01*
X003487Y002793D01*
X003445Y002894D01*
X003368Y002971D01*
X003266Y003013D01*
X003157Y003013D01*
X003055Y002971D01*
X002978Y002894D01*
X002936Y002693D02*
X002313Y002693D01*
X002357Y002534D02*
X003025Y002534D01*
X003398Y002534D02*
X003872Y002534D01*
X003834Y002693D02*
X003487Y002693D01*
X003463Y002851D02*
X003681Y002851D01*
X003522Y003010D02*
X003275Y003010D01*
X003148Y003010D02*
X001111Y003010D01*
X001111Y003168D02*
X003364Y003168D01*
X003335Y003327D02*
X001111Y003327D01*
X001111Y003485D02*
X002679Y003485D01*
X002716Y003470D02*
X002825Y003470D01*
X002927Y003512D01*
X003004Y003590D01*
X003046Y003691D01*
X003046Y003800D01*
X003004Y003902D01*
X002927Y003979D01*
X002825Y004021D01*
X002716Y004021D01*
X002614Y003979D01*
X002537Y003902D01*
X002495Y003800D01*
X002495Y003691D01*
X002537Y003590D01*
X002614Y003512D01*
X002716Y003470D01*
X002862Y003485D02*
X003335Y003485D01*
X003335Y003644D02*
X003027Y003644D01*
X003045Y003802D02*
X003335Y003802D01*
X003335Y003961D02*
X002945Y003961D01*
X002596Y003961D02*
X001111Y003961D01*
X001111Y004119D02*
X003335Y004119D01*
X003335Y004278D02*
X001111Y004278D01*
X001111Y004436D02*
X003335Y004436D01*
X003335Y004595D02*
X001111Y004595D01*
X001111Y004753D02*
X003335Y004753D01*
X003335Y004912D02*
X001111Y004912D01*
X001111Y005070D02*
X003335Y005070D01*
X003335Y005229D02*
X001111Y005229D01*
X001111Y005387D02*
X003335Y005387D01*
X003335Y005546D02*
X001111Y005546D01*
X001111Y005704D02*
X002761Y005704D01*
X002773Y005676D02*
X002731Y005777D01*
X002731Y005887D01*
X002773Y005988D01*
X002851Y006066D01*
X002952Y006108D01*
X003062Y006108D01*
X003163Y006066D01*
X003240Y005988D01*
X003282Y005887D01*
X003282Y005777D01*
X003240Y005676D01*
X003163Y005599D01*
X003062Y005557D01*
X002952Y005557D01*
X002851Y005599D01*
X002773Y005676D01*
X002731Y005863D02*
X001111Y005863D01*
X001111Y006021D02*
X002806Y006021D01*
X003207Y006021D02*
X003335Y006021D01*
X003335Y005863D02*
X003282Y005863D01*
X003252Y005704D02*
X003335Y005704D01*
X003702Y005704D02*
X006117Y005704D01*
X006117Y005659D02*
X006117Y005769D01*
X006159Y005870D01*
X006236Y005948D01*
X006242Y005950D01*
X006197Y005969D01*
X006120Y006046D01*
X006078Y006148D01*
X006078Y006155D01*
X006050Y006155D01*
X005949Y006197D01*
X005872Y006275D01*
X005830Y006376D01*
X005830Y006486D01*
X005872Y006587D01*
X005949Y006664D01*
X006050Y006706D01*
X006160Y006706D01*
X006261Y006664D01*
X006339Y006587D01*
X006381Y006486D01*
X006381Y006478D01*
X006408Y006478D01*
X006509Y006436D01*
X006587Y006358D01*
X006629Y006257D01*
X006629Y006148D01*
X006587Y006046D01*
X006509Y005969D01*
X006504Y005966D01*
X006549Y005948D01*
X006626Y005870D01*
X006663Y005781D01*
X006692Y005793D01*
X006802Y005793D01*
X006903Y005751D01*
X006980Y005673D01*
X006996Y005635D01*
X006996Y006499D01*
X007812Y007315D01*
X007819Y007315D01*
X007827Y007324D01*
X007945Y007442D01*
X007945Y009253D01*
X008965Y010272D01*
X008965Y010515D01*
X009870Y011420D01*
X009978Y011528D01*
X010479Y011528D01*
X010511Y011541D01*
X010621Y011541D01*
X010722Y011499D01*
X010799Y011421D01*
X010841Y011320D01*
X010841Y011211D01*
X010799Y011109D01*
X010722Y011032D01*
X010621Y010990D01*
X010511Y010990D01*
X010410Y011032D01*
X010332Y011109D01*
X010311Y011160D01*
X010130Y011160D01*
X009885Y010915D01*
X009888Y010915D01*
X009990Y010873D01*
X010067Y010795D01*
X010109Y010694D01*
X010109Y010585D01*
X010067Y010483D01*
X010021Y010438D01*
X010021Y009575D01*
X009914Y009467D01*
X008466Y008020D01*
X008466Y007016D01*
X008358Y006908D01*
X007639Y006189D01*
X007639Y005360D01*
X007655Y005398D01*
X007732Y005475D01*
X007834Y005517D01*
X007943Y005517D01*
X008045Y005475D01*
X008122Y005398D01*
X008164Y005297D01*
X008164Y005187D01*
X008122Y005086D01*
X008045Y005008D01*
X007943Y004966D01*
X007834Y004966D01*
X007732Y005008D01*
X007655Y005086D01*
X007639Y005124D01*
X007639Y004851D01*
X007532Y004743D01*
X007177Y004389D01*
X006794Y004389D01*
X006826Y004312D01*
X006826Y004203D01*
X006784Y004101D01*
X006706Y004024D01*
X006605Y003982D01*
X006495Y003982D01*
X006394Y004024D01*
X006316Y004101D01*
X006274Y004203D01*
X006274Y004312D01*
X006306Y004389D01*
X005563Y004389D01*
X004768Y003594D01*
X004815Y003547D01*
X004857Y003446D01*
X004857Y003337D01*
X004815Y003235D01*
X004738Y003158D01*
X004700Y003142D01*
X005484Y003142D01*
X005592Y003034D01*
X005592Y003034D01*
X005631Y002995D01*
X005631Y002995D01*
X005868Y002759D01*
X005868Y002567D01*
X005867Y002567D01*
X005867Y002050D01*
X006052Y001865D01*
X006079Y001893D01*
X006180Y001935D01*
X006290Y001935D01*
X006391Y001893D01*
X006469Y001815D01*
X006511Y001714D01*
X006511Y001604D01*
X006482Y001535D01*
X009637Y001535D01*
X009772Y001400D01*
X009772Y001338D01*
X013479Y001338D01*
X013628Y001350D01*
X013683Y001367D01*
X013638Y001386D01*
X013560Y001464D01*
X013519Y001565D01*
X013519Y001674D01*
X013560Y001776D01*
X013638Y001853D01*
X013739Y001895D01*
X013849Y001895D01*
X013950Y001853D01*
X014028Y001776D01*
X014070Y001674D01*
X014070Y001565D01*
X014065Y001553D01*
X014152Y001616D01*
X014327Y001857D01*
X014419Y002140D01*
X014430Y002289D01*
X014430Y002384D01*
X014565Y002519D01*
X014824Y002519D01*
X014824Y005602D01*
X014565Y005602D01*
X014430Y005737D01*
X014430Y005989D01*
X014404Y005978D01*
X014294Y005978D01*
X014193Y006020D01*
X014116Y006097D01*
X014074Y006199D01*
X014074Y006308D01*
X014116Y006410D01*
X014193Y006487D01*
X014294Y006529D01*
X014404Y006529D01*
X014430Y006518D01*
X014430Y010337D01*
X014565Y010472D01*
X014824Y010472D01*
X014824Y013555D01*
X014565Y013555D01*
X014430Y013690D01*
X014430Y013903D01*
X014419Y014052D01*
X014327Y014335D01*
X014152Y014576D01*
X013911Y014751D01*
X013628Y014843D01*
X013479Y014854D01*
X002062Y014854D01*
X001913Y014843D01*
X001630Y014751D01*
X001389Y014576D01*
X001214Y014335D01*
X001204Y014302D01*
X002389Y014302D01*
X002461Y014230D01*
X002461Y012413D01*
X004278Y012413D01*
X004351Y012340D01*
X004351Y011450D01*
X004278Y011378D01*
X003953Y011378D01*
X004028Y011303D01*
X004070Y011202D01*
X004070Y011092D01*
X004028Y010991D01*
X003950Y010914D01*
X003852Y010873D01*
X004513Y010873D01*
X004516Y010870D01*
X004516Y012922D01*
X003928Y013509D01*
X003857Y013509D01*
X003756Y013551D01*
X003679Y013629D01*
X003637Y013730D01*
X003637Y013840D01*
X003679Y013941D01*
X003756Y014019D01*
X003857Y014061D01*
X003967Y014061D01*
X004068Y014019D01*
X004109Y013978D01*
X004150Y014019D01*
X004251Y014061D01*
X004361Y014061D01*
X004462Y014019D01*
X004540Y013941D01*
X004542Y013935D01*
X004542Y014037D01*
X004584Y014138D01*
X004662Y014215D01*
X004763Y014257D01*
X004873Y014257D01*
X004974Y014215D01*
X005051Y014138D01*
X005093Y014037D01*
X005093Y014005D01*
X005194Y014107D01*
X005450Y014362D01*
X006501Y014362D01*
X006551Y014412D01*
X006653Y014454D01*
X006762Y014454D01*
X006864Y014412D01*
X006941Y014335D01*
X006983Y014234D01*
X006983Y014124D01*
X006941Y014023D01*
X006864Y013945D01*
X006762Y013903D01*
X006653Y013903D01*
X006551Y013945D01*
X006501Y013995D01*
X005602Y013995D01*
X005549Y013941D01*
X005647Y013901D01*
X005725Y013823D01*
X005766Y013722D01*
X005766Y013612D01*
X005725Y013511D01*
X005647Y013433D01*
X005546Y013391D01*
X005475Y013391D01*
X005395Y013311D01*
X005395Y010558D01*
X006166Y010558D01*
X006236Y010488D01*
X006236Y009917D01*
X006166Y009847D01*
X005395Y009847D01*
X005395Y008355D01*
X005329Y008289D01*
X005329Y008218D01*
X005288Y008117D01*
X005210Y008040D01*
X005109Y007998D01*
X004999Y007998D01*
X004898Y008040D01*
X004820Y008117D01*
X004778Y008218D01*
X004778Y008328D01*
X004820Y008429D01*
X004898Y008507D01*
X004999Y008549D01*
X005028Y008549D01*
X005028Y009129D01*
X004805Y008906D01*
X004618Y008719D01*
X003644Y008719D01*
X003676Y008643D01*
X003676Y008572D01*
X003702Y008546D01*
X003702Y003484D01*
X003768Y003550D01*
X003869Y003592D01*
X003932Y003592D01*
X005332Y004992D01*
X006986Y004992D01*
X006996Y005003D01*
X006996Y005399D01*
X006980Y005361D01*
X006903Y005284D01*
X006802Y005242D01*
X006692Y005242D01*
X006591Y005284D01*
X006513Y005361D01*
X006476Y005451D01*
X006447Y005439D01*
X006338Y005439D01*
X006236Y005481D01*
X006159Y005558D01*
X006117Y005659D01*
X006171Y005546D02*
X003702Y005546D01*
X003702Y005387D02*
X006502Y005387D01*
X006991Y005387D02*
X006996Y005387D01*
X006996Y005229D02*
X003702Y005229D01*
X003702Y005070D02*
X006996Y005070D01*
X007383Y004595D02*
X010136Y004595D01*
X010133Y004588D02*
X010133Y004478D01*
X010143Y004454D01*
X010117Y004454D01*
X010016Y004412D01*
X009938Y004335D01*
X009896Y004234D01*
X009896Y004124D01*
X009938Y004023D01*
X010016Y003945D01*
X010117Y003903D01*
X010227Y003903D01*
X010328Y003945D01*
X010406Y004023D01*
X010448Y004124D01*
X010448Y004234D01*
X010438Y004258D01*
X010463Y004258D01*
X010564Y004299D01*
X010642Y004377D01*
X010684Y004478D01*
X010684Y004588D01*
X010642Y004689D01*
X010564Y004767D01*
X010463Y004809D01*
X010353Y004809D01*
X010252Y004767D01*
X010175Y004689D01*
X010133Y004588D01*
X010074Y004436D02*
X007903Y004436D01*
X007925Y004414D02*
X007848Y004491D01*
X007747Y004533D01*
X007637Y004533D01*
X007536Y004491D01*
X007458Y004414D01*
X007416Y004312D01*
X007416Y004203D01*
X007458Y004101D01*
X007536Y004024D01*
X007637Y003982D01*
X007747Y003982D01*
X007848Y004024D01*
X007925Y004101D01*
X007967Y004203D01*
X007967Y004312D01*
X007925Y004414D01*
X007967Y004278D02*
X009915Y004278D01*
X009898Y004119D02*
X007933Y004119D01*
X007451Y004119D02*
X006791Y004119D01*
X006826Y004278D02*
X007416Y004278D01*
X007481Y004436D02*
X007225Y004436D01*
X007542Y004753D02*
X008753Y004753D01*
X008753Y004720D02*
X008823Y004650D01*
X008922Y004650D01*
X009631Y004650D01*
X009701Y004720D01*
X009701Y005331D01*
X009631Y005400D01*
X008823Y005400D01*
X008753Y005331D01*
X008753Y004720D01*
X008753Y004912D02*
X007639Y004912D01*
X007639Y005070D02*
X007670Y005070D01*
X008107Y005070D02*
X008753Y005070D01*
X008753Y005229D02*
X008164Y005229D01*
X008127Y005387D02*
X008810Y005387D01*
X009644Y005387D02*
X010525Y005387D01*
X010529Y005398D02*
X010487Y005297D01*
X010487Y005187D01*
X010529Y005086D01*
X010607Y005008D01*
X010708Y004966D01*
X010817Y004966D01*
X010919Y005008D01*
X010996Y005086D01*
X011038Y005187D01*
X011038Y005281D01*
X011093Y005281D01*
X011194Y005323D01*
X011272Y005401D01*
X011314Y005502D01*
X011314Y005612D01*
X011272Y005713D01*
X011194Y005790D01*
X011093Y005832D01*
X010983Y005832D01*
X010882Y005790D01*
X010805Y005713D01*
X010763Y005612D01*
X010763Y005517D01*
X010708Y005517D01*
X010607Y005475D01*
X010529Y005398D01*
X010763Y005546D02*
X007639Y005546D01*
X007639Y005704D02*
X010801Y005704D01*
X011275Y005704D02*
X014463Y005704D01*
X014430Y005863D02*
X007639Y005863D01*
X007639Y006021D02*
X014192Y006021D01*
X014081Y006180D02*
X007639Y006180D01*
X007788Y006338D02*
X014086Y006338D01*
X014217Y006497D02*
X007947Y006497D01*
X008105Y006655D02*
X014430Y006655D01*
X014430Y006814D02*
X013945Y006814D01*
X013949Y006818D02*
X013991Y006919D01*
X013991Y007029D01*
X013949Y007130D01*
X013871Y007208D01*
X013770Y007250D01*
X013661Y007250D01*
X013559Y007208D01*
X013482Y007130D01*
X013440Y007029D01*
X013440Y006919D01*
X013482Y006818D01*
X013559Y006740D01*
X013661Y006698D01*
X013770Y006698D01*
X013871Y006740D01*
X013949Y006818D01*
X013991Y006972D02*
X014430Y006972D01*
X014430Y007131D02*
X013948Y007131D01*
X013483Y007131D02*
X013049Y007131D01*
X013045Y007126D02*
X013122Y007204D01*
X013164Y007305D01*
X013164Y007415D01*
X013122Y007516D01*
X013045Y007593D01*
X012943Y007635D01*
X012834Y007635D01*
X012732Y007593D01*
X012655Y007516D01*
X012613Y007415D01*
X012613Y007305D01*
X012655Y007204D01*
X012732Y007126D01*
X012834Y007084D01*
X012943Y007084D01*
X013045Y007126D01*
X013158Y007289D02*
X014430Y007289D01*
X014430Y007448D02*
X013150Y007448D01*
X013013Y007606D02*
X014430Y007606D01*
X014430Y007765D02*
X011820Y007765D01*
X011833Y007734D02*
X011791Y007835D01*
X011770Y007856D01*
X011811Y007897D01*
X011853Y007998D01*
X011853Y008108D01*
X011811Y008209D01*
X011734Y008286D01*
X011632Y008328D01*
X011523Y008328D01*
X011444Y008296D01*
X011444Y008367D01*
X011417Y008431D01*
X011447Y008431D01*
X011549Y008473D01*
X011626Y008550D01*
X011666Y008647D01*
X011698Y008570D01*
X011776Y008492D01*
X011877Y008450D01*
X011987Y008450D01*
X012088Y008492D01*
X012165Y008570D01*
X012207Y008671D01*
X012207Y008781D01*
X012165Y008882D01*
X012088Y008960D01*
X011987Y009002D01*
X011877Y009002D01*
X011776Y008960D01*
X011698Y008882D01*
X011658Y008785D01*
X011626Y008862D01*
X011549Y008940D01*
X011447Y008982D01*
X011338Y008982D01*
X011236Y008940D01*
X011159Y008862D01*
X011117Y008761D01*
X011117Y008651D01*
X011143Y008588D01*
X011113Y008588D01*
X011012Y008546D01*
X010935Y008469D01*
X010893Y008367D01*
X010893Y008258D01*
X010935Y008157D01*
X011012Y008079D01*
X011113Y008037D01*
X011223Y008037D01*
X011302Y008070D01*
X011302Y007998D01*
X011344Y007897D01*
X011365Y007876D01*
X011324Y007835D01*
X011282Y007734D01*
X011282Y007624D01*
X011324Y007523D01*
X011402Y007445D01*
X011503Y007403D01*
X011613Y007403D01*
X011714Y007445D01*
X011791Y007523D01*
X011833Y007624D01*
X011833Y007734D01*
X011826Y007606D02*
X012764Y007606D01*
X012627Y007448D02*
X011717Y007448D01*
X011399Y007448D02*
X008466Y007448D01*
X008466Y007606D02*
X011290Y007606D01*
X011295Y007765D02*
X008466Y007765D01*
X008466Y007923D02*
X011333Y007923D01*
X011009Y008082D02*
X008528Y008082D01*
X008687Y008240D02*
X010900Y008240D01*
X010906Y008399D02*
X008845Y008399D01*
X009004Y008557D02*
X011039Y008557D01*
X011117Y008716D02*
X009162Y008716D01*
X009321Y008874D02*
X011171Y008874D01*
X010975Y009258D02*
X010865Y009258D01*
X010764Y009299D01*
X010686Y009377D01*
X010645Y009478D01*
X010645Y009588D01*
X010686Y009689D01*
X010764Y009767D01*
X010865Y009809D01*
X010975Y009809D01*
X011076Y009767D01*
X011154Y009689D01*
X011196Y009588D01*
X011196Y009478D01*
X011154Y009377D01*
X011076Y009299D01*
X010975Y009258D01*
X011127Y009350D02*
X012101Y009350D01*
X012101Y009321D02*
X012143Y009220D01*
X012221Y009142D01*
X012322Y009100D01*
X012432Y009100D01*
X012533Y009142D01*
X012610Y009220D01*
X012652Y009321D01*
X012652Y009430D01*
X012610Y009532D01*
X012533Y009609D01*
X012432Y009651D01*
X012322Y009651D01*
X012221Y009609D01*
X012143Y009532D01*
X012101Y009430D01*
X012101Y009321D01*
X012171Y009191D02*
X009638Y009191D01*
X009479Y009033D02*
X014430Y009033D01*
X014430Y009191D02*
X012582Y009191D01*
X012652Y009350D02*
X014430Y009350D01*
X014430Y009508D02*
X012620Y009508D01*
X012134Y009508D02*
X011196Y009508D01*
X011163Y009667D02*
X014430Y009667D01*
X014430Y009825D02*
X010021Y009825D01*
X010021Y009667D02*
X010677Y009667D01*
X010645Y009508D02*
X009955Y009508D01*
X009796Y009350D02*
X010714Y009350D01*
X010021Y009984D02*
X012004Y009984D01*
X012046Y009966D02*
X011945Y010008D01*
X011868Y010086D01*
X011826Y010187D01*
X011826Y010297D01*
X011868Y010398D01*
X011875Y010405D01*
X011788Y010441D01*
X011710Y010519D01*
X011668Y010620D01*
X011668Y010730D01*
X011710Y010831D01*
X011788Y010908D01*
X011889Y010950D01*
X011999Y010950D01*
X012100Y010908D01*
X012177Y010831D01*
X012219Y010730D01*
X012219Y010620D01*
X012177Y010519D01*
X012170Y010511D01*
X012185Y010505D01*
X012222Y010595D01*
X012299Y010672D01*
X012401Y010714D01*
X012510Y010714D01*
X012612Y010672D01*
X012689Y010595D01*
X012731Y010493D01*
X012731Y010384D01*
X012689Y010282D01*
X012612Y010205D01*
X012510Y010163D01*
X012401Y010163D01*
X012372Y010175D01*
X012335Y010086D01*
X012257Y010008D01*
X012156Y009966D01*
X012046Y009966D01*
X012199Y009984D02*
X012914Y009984D01*
X012891Y010007D02*
X012969Y009929D01*
X013070Y009887D01*
X013180Y009887D01*
X013281Y009929D01*
X013358Y010007D01*
X013395Y010096D01*
X013424Y010084D01*
X013534Y010084D01*
X013635Y010126D01*
X013713Y010204D01*
X013755Y010305D01*
X013755Y010415D01*
X013731Y010471D01*
X013753Y010481D01*
X013831Y010558D01*
X013873Y010659D01*
X013873Y010769D01*
X013831Y010870D01*
X013753Y010948D01*
X013652Y010990D01*
X013542Y010990D01*
X013441Y010948D01*
X013364Y010870D01*
X013322Y010769D01*
X013322Y010659D01*
X013345Y010603D01*
X013323Y010593D01*
X013246Y010516D01*
X013209Y010427D01*
X013180Y010439D01*
X013070Y010439D01*
X012969Y010397D01*
X012891Y010319D01*
X012849Y010218D01*
X012849Y010108D01*
X012891Y010007D01*
X012849Y010142D02*
X012358Y010142D01*
X012697Y010301D02*
X012884Y010301D01*
X012731Y010459D02*
X013222Y010459D01*
X013339Y010618D02*
X012666Y010618D01*
X012794Y010850D02*
X012922Y010797D01*
X013060Y010797D01*
X013188Y010850D01*
X013286Y010948D01*
X013339Y011076D01*
X013339Y011214D01*
X013286Y011342D01*
X013188Y011440D01*
X013060Y011493D01*
X012922Y011493D01*
X012794Y011440D01*
X012696Y011342D01*
X012643Y011214D01*
X012643Y011076D01*
X012696Y010948D01*
X012794Y010850D01*
X012709Y010935D02*
X012036Y010935D01*
X011903Y011032D02*
X011980Y011109D01*
X012022Y011211D01*
X012022Y011320D01*
X011980Y011421D01*
X011903Y011499D01*
X011802Y011541D01*
X011692Y011541D01*
X011591Y011499D01*
X011513Y011421D01*
X011471Y011320D01*
X011471Y011211D01*
X011513Y011109D01*
X011591Y011032D01*
X011692Y010990D01*
X011802Y010990D01*
X011903Y011032D01*
X011965Y011093D02*
X012643Y011093D01*
X012658Y011252D02*
X012022Y011252D01*
X011985Y011410D02*
X012764Y011410D01*
X013218Y011410D02*
X014824Y011410D01*
X014824Y011252D02*
X013323Y011252D01*
X013339Y011093D02*
X014824Y011093D01*
X014824Y010935D02*
X013766Y010935D01*
X013870Y010776D02*
X014824Y010776D01*
X014824Y010618D02*
X013856Y010618D01*
X013736Y010459D02*
X014553Y010459D01*
X014430Y010301D02*
X013753Y010301D01*
X013651Y010142D02*
X014430Y010142D01*
X014430Y009984D02*
X013335Y009984D01*
X013325Y010776D02*
X012200Y010776D01*
X012218Y010618D02*
X012245Y010618D01*
X011769Y010459D02*
X010043Y010459D01*
X010021Y010301D02*
X011827Y010301D01*
X011844Y010142D02*
X010021Y010142D01*
X010109Y010618D02*
X010816Y010618D01*
X010824Y010597D02*
X010782Y010699D01*
X010782Y010808D01*
X010824Y010910D01*
X010902Y010987D01*
X011003Y011029D01*
X011113Y011029D01*
X011214Y010987D01*
X011291Y010910D01*
X011333Y010808D01*
X011333Y010699D01*
X011291Y010597D01*
X011214Y010520D01*
X011113Y010478D01*
X011003Y010478D01*
X010902Y010520D01*
X010824Y010597D01*
X010782Y010776D02*
X010075Y010776D01*
X009905Y010935D02*
X010850Y010935D01*
X010783Y011093D02*
X011529Y011093D01*
X011471Y011252D02*
X010841Y011252D01*
X010804Y011410D02*
X011509Y011410D01*
X011653Y011777D02*
X011551Y011819D01*
X011474Y011897D01*
X011432Y011998D01*
X011432Y012108D01*
X011474Y012209D01*
X011551Y012286D01*
X011653Y012328D01*
X011762Y012328D01*
X011864Y012286D01*
X011941Y012209D01*
X011983Y012108D01*
X011983Y011998D01*
X011941Y011897D01*
X011864Y011819D01*
X011762Y011777D01*
X011653Y011777D01*
X011485Y011886D02*
X009410Y011886D01*
X009424Y011919D02*
X009424Y012029D01*
X009382Y012130D01*
X009305Y012208D01*
X009286Y012215D01*
X009467Y012395D01*
X009501Y012410D01*
X009579Y012487D01*
X009621Y012588D01*
X009621Y012698D01*
X009579Y012799D01*
X009501Y012877D01*
X009400Y012919D01*
X009290Y012919D01*
X009189Y012877D01*
X009168Y012856D01*
X009147Y012877D01*
X009046Y012919D01*
X008936Y012919D01*
X008835Y012877D01*
X008757Y012799D01*
X008715Y012698D01*
X008715Y012588D01*
X008754Y012495D01*
X008630Y012495D01*
X008510Y012374D01*
X008431Y012295D01*
X007329Y011193D01*
X007329Y007768D01*
X006791Y007231D01*
X006826Y007313D01*
X006826Y007423D01*
X006784Y007524D01*
X006706Y007601D01*
X006605Y007643D01*
X006495Y007643D01*
X006394Y007601D01*
X006316Y007524D01*
X006274Y007423D01*
X006274Y007313D01*
X006313Y007219D01*
X005638Y007219D01*
X005551Y007131D01*
X005511Y007131D01*
X005410Y007090D01*
X005332Y007012D01*
X005290Y006911D01*
X005290Y006801D01*
X005332Y006700D01*
X005410Y006622D01*
X005511Y006580D01*
X005621Y006580D01*
X005722Y006622D01*
X005799Y006700D01*
X005841Y006801D01*
X005841Y006808D01*
X006950Y006808D01*
X007619Y007477D01*
X007740Y007598D01*
X007740Y011023D01*
X008722Y012005D01*
X008800Y012083D01*
X008895Y012083D01*
X008873Y012029D01*
X008873Y011919D01*
X008915Y011818D01*
X008992Y011740D01*
X009094Y011698D01*
X009203Y011698D01*
X009305Y011740D01*
X009382Y011818D01*
X009424Y011919D01*
X009418Y012044D02*
X011432Y012044D01*
X011471Y012203D02*
X009309Y012203D01*
X009433Y012361D02*
X010840Y012361D01*
X010848Y012342D02*
X010925Y012264D01*
X011027Y012222D01*
X011136Y012222D01*
X011238Y012264D01*
X011315Y012342D01*
X011357Y012443D01*
X011357Y012552D01*
X011315Y012654D01*
X011238Y012731D01*
X011136Y012773D01*
X011027Y012773D01*
X010925Y012731D01*
X010848Y012654D01*
X010806Y012552D01*
X010806Y012443D01*
X010848Y012342D01*
X010806Y012520D02*
X009592Y012520D01*
X009621Y012678D02*
X010873Y012678D01*
X011290Y012678D02*
X012863Y012678D01*
X012873Y012683D02*
X012772Y012641D01*
X012694Y012563D01*
X012652Y012462D01*
X012652Y012352D01*
X012694Y012251D01*
X012772Y012173D01*
X012873Y012132D01*
X012983Y012132D01*
X013084Y012173D01*
X013162Y012251D01*
X013204Y012352D01*
X013204Y012462D01*
X013162Y012563D01*
X013084Y012641D01*
X012983Y012683D01*
X012873Y012683D01*
X012993Y012678D02*
X014824Y012678D01*
X014824Y012520D02*
X013179Y012520D01*
X013204Y012361D02*
X013319Y012361D01*
X013285Y012327D02*
X013243Y012226D01*
X013243Y012116D01*
X013285Y012015D01*
X013362Y011937D01*
X013464Y011895D01*
X013573Y011895D01*
X013675Y011937D01*
X013752Y012015D01*
X013794Y012116D01*
X013794Y012226D01*
X013752Y012327D01*
X013675Y012404D01*
X013573Y012446D01*
X013464Y012446D01*
X013362Y012404D01*
X013285Y012327D01*
X013243Y012203D02*
X013113Y012203D01*
X013273Y012044D02*
X011983Y012044D01*
X011944Y012203D02*
X012742Y012203D01*
X012652Y012361D02*
X011323Y012361D01*
X011357Y012520D02*
X012676Y012520D01*
X011930Y011886D02*
X014824Y011886D01*
X014824Y012044D02*
X013764Y012044D01*
X013794Y012203D02*
X014824Y012203D01*
X014824Y012361D02*
X013718Y012361D01*
X014824Y012837D02*
X009541Y012837D01*
X009951Y013529D02*
X010079Y013476D01*
X010218Y013476D01*
X010346Y013529D01*
X010444Y013627D01*
X010497Y013755D01*
X010497Y013894D01*
X010444Y014022D01*
X010346Y014120D01*
X010218Y014173D01*
X010079Y014173D01*
X009951Y014120D01*
X009853Y014022D01*
X009800Y013894D01*
X009800Y013755D01*
X009853Y013627D01*
X009951Y013529D01*
X009852Y013629D02*
X007870Y013629D01*
X007869Y013627D02*
X007922Y013755D01*
X007922Y013894D01*
X007869Y014022D01*
X007771Y014120D01*
X007643Y014173D01*
X007504Y014173D01*
X007376Y014120D01*
X007279Y014022D01*
X007226Y013894D01*
X007226Y013755D01*
X007279Y013627D01*
X007376Y013529D01*
X007504Y013476D01*
X007643Y013476D01*
X007771Y013529D01*
X007869Y013627D01*
X007922Y013788D02*
X009800Y013788D01*
X009822Y013946D02*
X007900Y013946D01*
X007785Y014105D02*
X009937Y014105D01*
X010360Y014105D02*
X014401Y014105D01*
X014427Y013946D02*
X010475Y013946D01*
X010497Y013788D02*
X011321Y013788D01*
X011355Y013822D02*
X011277Y013744D01*
X011235Y013643D01*
X011235Y013533D01*
X011277Y013432D01*
X011355Y013355D01*
X011456Y013313D01*
X011565Y013313D01*
X011667Y013355D01*
X011744Y013432D01*
X011786Y013533D01*
X011786Y013643D01*
X011744Y013744D01*
X011667Y013822D01*
X011565Y013864D01*
X011456Y013864D01*
X011355Y013822D01*
X011235Y013629D02*
X010444Y013629D01*
X011261Y013471D02*
X007136Y013471D01*
X007138Y013469D02*
X007060Y013546D01*
X006959Y013588D01*
X006850Y013588D01*
X006748Y013546D01*
X006671Y013469D01*
X006629Y013367D01*
X006629Y013258D01*
X006671Y013157D01*
X006748Y013079D01*
X006850Y013037D01*
X006959Y013037D01*
X007060Y013079D01*
X007138Y013157D01*
X007180Y013258D01*
X007180Y013367D01*
X007138Y013469D01*
X007180Y013312D02*
X014824Y013312D01*
X014824Y013154D02*
X007135Y013154D01*
X006673Y013154D02*
X005395Y013154D01*
X005396Y013312D02*
X006629Y013312D01*
X006673Y013471D02*
X005685Y013471D01*
X005766Y013629D02*
X007278Y013629D01*
X007226Y013788D02*
X005739Y013788D01*
X005554Y013946D02*
X006550Y013946D01*
X006865Y013946D02*
X007247Y013946D01*
X007362Y014105D02*
X006975Y014105D01*
X006971Y014263D02*
X014350Y014263D01*
X014263Y014422D02*
X006841Y014422D01*
X006574Y014422D02*
X001278Y014422D01*
X001396Y014580D02*
X014145Y014580D01*
X013927Y014739D02*
X001614Y014739D01*
X002428Y014263D02*
X005351Y014263D01*
X005193Y014105D02*
X005065Y014105D01*
X004570Y014105D02*
X002461Y014105D01*
X002461Y013946D02*
X003684Y013946D01*
X003637Y013788D02*
X002461Y013788D01*
X002461Y013629D02*
X003678Y013629D01*
X003553Y013471D02*
X003967Y013471D01*
X004125Y013312D02*
X003597Y013312D01*
X003597Y013258D02*
X003555Y013157D01*
X003478Y013079D01*
X003376Y013037D01*
X003267Y013037D01*
X003166Y013079D01*
X003088Y013157D01*
X003046Y013258D01*
X003046Y013367D01*
X003088Y013469D01*
X003166Y013546D01*
X003267Y013588D01*
X003376Y013588D01*
X003478Y013546D01*
X003555Y013469D01*
X003597Y013367D01*
X003597Y013258D01*
X003553Y013154D02*
X004284Y013154D01*
X004442Y012995D02*
X002461Y012995D01*
X002461Y012837D02*
X004516Y012837D01*
X004516Y012678D02*
X002461Y012678D01*
X002461Y012520D02*
X004516Y012520D01*
X004516Y012361D02*
X004330Y012361D01*
X004351Y012203D02*
X004516Y012203D01*
X004516Y012044D02*
X004351Y012044D01*
X004351Y011886D02*
X004516Y011886D01*
X004516Y011727D02*
X004351Y011727D01*
X004351Y011569D02*
X004516Y011569D01*
X004516Y011410D02*
X004311Y011410D01*
X004516Y011252D02*
X004049Y011252D01*
X004070Y011093D02*
X004516Y011093D01*
X004516Y010935D02*
X003971Y010935D01*
X003736Y010873D02*
X003469Y010873D01*
X003399Y010803D01*
X003399Y009720D01*
X003442Y009677D01*
X002807Y009677D01*
X002768Y009717D01*
X002545Y009940D01*
X001860Y010625D01*
X001860Y010673D01*
X001813Y010787D01*
X001738Y010862D01*
X001813Y010936D01*
X001860Y011050D01*
X001860Y011173D01*
X001813Y011287D01*
X001726Y011375D01*
X001718Y011378D01*
X003635Y011378D01*
X003560Y011303D01*
X003519Y011202D01*
X003519Y011092D01*
X003560Y010991D01*
X003638Y010914D01*
X003736Y010873D01*
X003617Y010935D02*
X001811Y010935D01*
X001817Y010776D02*
X003399Y010776D01*
X003399Y010618D02*
X001867Y010618D01*
X002025Y010459D02*
X003399Y010459D01*
X003399Y010301D02*
X002184Y010301D01*
X002342Y010142D02*
X003399Y010142D01*
X003399Y009984D02*
X002501Y009984D01*
X002545Y009940D02*
X002545Y009940D01*
X002659Y009825D02*
X003399Y009825D01*
X002916Y009033D02*
X001111Y009033D01*
X001111Y009191D02*
X001278Y009191D01*
X001119Y009350D02*
X001111Y009350D01*
X001550Y009612D02*
X001550Y009612D01*
X001900Y009612D01*
X001900Y009646D01*
X001887Y009714D01*
X001860Y009778D01*
X001822Y009835D01*
X001773Y009884D01*
X001765Y009889D01*
X001813Y009936D01*
X001860Y010050D01*
X001860Y010105D01*
X002285Y009680D01*
X002508Y009457D01*
X002547Y009418D01*
X002563Y009402D01*
X001831Y009402D01*
X001860Y009446D01*
X001887Y009510D01*
X001900Y009577D01*
X001900Y009612D01*
X001550Y009612D01*
X001828Y009825D02*
X002140Y009825D01*
X002285Y009680D02*
X002285Y009680D01*
X002298Y009667D02*
X001896Y009667D01*
X001886Y009508D02*
X002457Y009508D01*
X001981Y009984D02*
X001833Y009984D01*
X001111Y008874D02*
X002758Y008874D01*
X002599Y008716D02*
X001111Y008716D01*
X001111Y008557D02*
X002090Y008557D01*
X001957Y008399D02*
X001111Y008399D01*
X001111Y008240D02*
X001951Y008240D01*
X002060Y008082D02*
X001111Y008082D01*
X001111Y007923D02*
X002952Y007923D01*
X002928Y008082D02*
X002378Y008082D01*
X002643Y008240D02*
X003017Y008240D01*
X003200Y008399D02*
X002802Y008399D01*
X002960Y008557D02*
X003125Y008557D01*
X003119Y008716D02*
X003155Y008716D01*
X003646Y008716D02*
X005028Y008716D01*
X005028Y008874D02*
X004773Y008874D01*
X004932Y009033D02*
X005028Y009033D01*
X005395Y009033D02*
X007329Y009033D01*
X007329Y009191D02*
X005395Y009191D01*
X005395Y009350D02*
X007329Y009350D01*
X007329Y009508D02*
X005395Y009508D01*
X005395Y009667D02*
X007329Y009667D01*
X007329Y009825D02*
X005395Y009825D01*
X006236Y009984D02*
X007329Y009984D01*
X007329Y010142D02*
X006236Y010142D01*
X006236Y010301D02*
X007329Y010301D01*
X007329Y010459D02*
X006236Y010459D01*
X006612Y010684D02*
X006570Y010785D01*
X006570Y010895D01*
X006612Y010996D01*
X006689Y011074D01*
X006790Y011116D01*
X006900Y011116D01*
X007001Y011074D01*
X007079Y010996D01*
X007121Y010895D01*
X007121Y010785D01*
X007079Y010684D01*
X007001Y010607D01*
X006900Y010565D01*
X006790Y010565D01*
X006689Y010607D01*
X006612Y010684D01*
X006678Y010618D02*
X005395Y010618D01*
X005395Y010776D02*
X006573Y010776D01*
X006586Y010935D02*
X005395Y010935D01*
X005395Y011093D02*
X006737Y011093D01*
X006954Y011093D02*
X007329Y011093D01*
X007329Y010935D02*
X007104Y010935D01*
X007117Y010776D02*
X007329Y010776D01*
X007329Y010618D02*
X007013Y010618D01*
X007388Y011252D02*
X005395Y011252D01*
X005395Y011410D02*
X007546Y011410D01*
X007705Y011569D02*
X005395Y011569D01*
X005395Y011727D02*
X007863Y011727D01*
X008022Y011886D02*
X005395Y011886D01*
X005395Y012044D02*
X008180Y012044D01*
X008339Y012203D02*
X005395Y012203D01*
X005395Y012361D02*
X008497Y012361D01*
X008744Y012520D02*
X005395Y012520D01*
X005395Y012678D02*
X008715Y012678D01*
X008795Y012837D02*
X005395Y012837D01*
X005395Y012995D02*
X014824Y012995D01*
X014824Y013471D02*
X011760Y013471D01*
X011786Y013629D02*
X014491Y013629D01*
X014430Y013788D02*
X011701Y013788D01*
X009860Y011410D02*
X009424Y011410D01*
X009424Y011430D02*
X009382Y011532D01*
X009305Y011609D01*
X009203Y011651D01*
X009094Y011651D01*
X008992Y011609D01*
X008915Y011532D01*
X008873Y011430D01*
X008873Y011321D01*
X008915Y011220D01*
X008992Y011142D01*
X009094Y011100D01*
X009203Y011100D01*
X009305Y011142D01*
X009382Y011220D01*
X009424Y011321D01*
X009424Y011430D01*
X009345Y011569D02*
X014824Y011569D01*
X014824Y011727D02*
X009273Y011727D01*
X009024Y011727D02*
X008444Y011727D01*
X008286Y011569D02*
X008952Y011569D01*
X008873Y011410D02*
X008127Y011410D01*
X007969Y011252D02*
X008901Y011252D01*
X009395Y011252D02*
X009702Y011252D01*
X009543Y011093D02*
X007810Y011093D01*
X007740Y010935D02*
X009385Y010935D01*
X009226Y010776D02*
X007740Y010776D01*
X007740Y010618D02*
X009068Y010618D01*
X008965Y010459D02*
X007740Y010459D01*
X007740Y010301D02*
X008965Y010301D01*
X008835Y010142D02*
X007740Y010142D01*
X007740Y009984D02*
X008676Y009984D01*
X008518Y009825D02*
X007740Y009825D01*
X007740Y009667D02*
X008359Y009667D01*
X008201Y009508D02*
X007740Y009508D01*
X007740Y009350D02*
X008042Y009350D01*
X007945Y009191D02*
X007740Y009191D01*
X007740Y009033D02*
X007945Y009033D01*
X007945Y008874D02*
X007740Y008874D01*
X007740Y008716D02*
X007945Y008716D01*
X007945Y008557D02*
X007740Y008557D01*
X007740Y008399D02*
X007945Y008399D01*
X007945Y008240D02*
X007740Y008240D01*
X007740Y008082D02*
X007945Y008082D01*
X007945Y007923D02*
X007740Y007923D01*
X007740Y007765D02*
X007945Y007765D01*
X007945Y007606D02*
X007740Y007606D01*
X007590Y007448D02*
X007945Y007448D01*
X007787Y007289D02*
X007432Y007289D01*
X007273Y007131D02*
X007628Y007131D01*
X007470Y006972D02*
X007115Y006972D01*
X006956Y006814D02*
X007311Y006814D01*
X007153Y006655D02*
X006270Y006655D01*
X006376Y006497D02*
X006996Y006497D01*
X006996Y006338D02*
X006595Y006338D01*
X006629Y006180D02*
X006996Y006180D01*
X006996Y006021D02*
X006562Y006021D01*
X006629Y005863D02*
X006996Y005863D01*
X006996Y005704D02*
X006949Y005704D01*
X007639Y005387D02*
X007651Y005387D01*
X008264Y006814D02*
X013486Y006814D01*
X013440Y006972D02*
X008422Y006972D01*
X008466Y007131D02*
X012728Y007131D01*
X012620Y007289D02*
X008466Y007289D01*
X007326Y007765D02*
X006314Y007765D01*
X006314Y007777D02*
X006272Y007878D01*
X006194Y007956D01*
X006093Y007998D01*
X005983Y007998D01*
X005882Y007956D01*
X005805Y007878D01*
X005763Y007777D01*
X005763Y007667D01*
X005805Y007566D01*
X005882Y007488D01*
X005983Y007446D01*
X006093Y007446D01*
X006194Y007488D01*
X006272Y007566D01*
X006314Y007667D01*
X006314Y007777D01*
X006227Y007923D02*
X007329Y007923D01*
X007329Y008082D02*
X005252Y008082D01*
X005329Y008240D02*
X007329Y008240D01*
X007329Y008399D02*
X005395Y008399D01*
X005395Y008557D02*
X006320Y008557D01*
X006324Y008546D02*
X006402Y008469D01*
X006503Y008427D01*
X006613Y008427D01*
X006714Y008469D01*
X006791Y008546D01*
X006833Y008648D01*
X006833Y008757D01*
X006791Y008858D01*
X006714Y008936D01*
X006613Y008978D01*
X006503Y008978D01*
X006402Y008936D01*
X006324Y008858D01*
X006282Y008757D01*
X006282Y008648D01*
X006324Y008546D01*
X006282Y008716D02*
X005395Y008716D01*
X005395Y008874D02*
X006340Y008874D01*
X006776Y008874D02*
X007329Y008874D01*
X007329Y008716D02*
X006833Y008716D01*
X006796Y008557D02*
X007329Y008557D01*
X007167Y007606D02*
X006694Y007606D01*
X006815Y007448D02*
X007009Y007448D01*
X006850Y007289D02*
X006816Y007289D01*
X006406Y007606D02*
X006289Y007606D01*
X006285Y007448D02*
X006096Y007448D01*
X005980Y007448D02*
X003702Y007448D01*
X003702Y007606D02*
X005788Y007606D01*
X005763Y007765D02*
X003702Y007765D01*
X003702Y007923D02*
X005850Y007923D01*
X006284Y007289D02*
X003702Y007289D01*
X003702Y007131D02*
X005510Y007131D01*
X005316Y006972D02*
X003702Y006972D01*
X003702Y006814D02*
X005290Y006814D01*
X005377Y006655D02*
X003702Y006655D01*
X003702Y006497D02*
X005834Y006497D01*
X005845Y006338D02*
X003702Y006338D01*
X003702Y006180D02*
X005991Y006180D01*
X006144Y006021D02*
X003702Y006021D01*
X003702Y005863D02*
X006156Y005863D01*
X005940Y006655D02*
X005755Y006655D01*
X004856Y008082D02*
X003702Y008082D01*
X003702Y008240D02*
X004778Y008240D01*
X004808Y008399D02*
X003702Y008399D01*
X003691Y008557D02*
X005028Y008557D01*
X003335Y007765D02*
X003267Y007765D01*
X003140Y007765D02*
X001111Y007765D01*
X001111Y007606D02*
X003335Y007606D01*
X003335Y007448D02*
X001111Y007448D01*
X001111Y007289D02*
X003335Y007289D01*
X003335Y007131D02*
X001111Y007131D01*
X001111Y006972D02*
X003335Y006972D01*
X003335Y006814D02*
X001111Y006814D01*
X001111Y006655D02*
X003335Y006655D01*
X003335Y006497D02*
X001111Y006497D01*
X001111Y006338D02*
X003335Y006338D01*
X003335Y006180D02*
X001111Y006180D01*
X002348Y008557D02*
X002441Y008557D01*
X001860Y011093D02*
X003519Y011093D01*
X003539Y011252D02*
X001828Y011252D01*
X002461Y013154D02*
X003091Y013154D01*
X003046Y013312D02*
X002461Y013312D01*
X002461Y013471D02*
X003090Y013471D01*
X004534Y013946D02*
X004542Y013946D01*
X008603Y011886D02*
X008887Y011886D01*
X008879Y012044D02*
X008761Y012044D01*
X010063Y011093D02*
X010348Y011093D01*
X011266Y010935D02*
X011852Y010935D01*
X011688Y010776D02*
X011333Y010776D01*
X011300Y010618D02*
X011669Y010618D01*
X013273Y010935D02*
X013428Y010935D01*
X014430Y008874D02*
X012169Y008874D01*
X012207Y008716D02*
X014430Y008716D01*
X014430Y008557D02*
X012153Y008557D01*
X011711Y008557D02*
X011629Y008557D01*
X011431Y008399D02*
X014430Y008399D01*
X014430Y008240D02*
X011780Y008240D01*
X011853Y008082D02*
X014430Y008082D01*
X014430Y007923D02*
X011822Y007923D01*
X011695Y008874D02*
X011614Y008874D01*
X012164Y005675D02*
X012063Y005633D01*
X011986Y005555D01*
X011944Y005454D01*
X011944Y005344D01*
X011986Y005243D01*
X012063Y005166D01*
X012164Y005124D01*
X012274Y005124D01*
X012375Y005166D01*
X012453Y005243D01*
X012495Y005344D01*
X012495Y005454D01*
X012453Y005555D01*
X012375Y005633D01*
X012274Y005675D01*
X012164Y005675D01*
X011982Y005546D02*
X011314Y005546D01*
X011259Y005387D02*
X011944Y005387D01*
X011745Y005239D02*
X011644Y005281D01*
X011535Y005281D01*
X011433Y005239D01*
X011356Y005162D01*
X011314Y005060D01*
X011314Y004951D01*
X011356Y004849D01*
X011433Y004772D01*
X011535Y004730D01*
X011644Y004730D01*
X011745Y004772D01*
X011823Y004849D01*
X011865Y004951D01*
X011865Y005060D01*
X011823Y005162D01*
X011745Y005239D01*
X011756Y005229D02*
X012000Y005229D01*
X011861Y005070D02*
X014824Y005070D01*
X014824Y004912D02*
X011849Y004912D01*
X011701Y004753D02*
X014824Y004753D01*
X014824Y004595D02*
X010681Y004595D01*
X010666Y004436D02*
X011609Y004436D01*
X011653Y004454D02*
X011551Y004412D01*
X011474Y004335D01*
X011432Y004234D01*
X011432Y004124D01*
X011474Y004023D01*
X011551Y003945D01*
X011653Y003903D01*
X011762Y003903D01*
X011864Y003945D01*
X011941Y004023D01*
X011983Y004124D01*
X011983Y004234D01*
X011941Y004335D01*
X011864Y004412D01*
X011762Y004454D01*
X011653Y004454D01*
X011806Y004436D02*
X014824Y004436D01*
X014824Y004278D02*
X011965Y004278D01*
X011981Y004119D02*
X014824Y004119D01*
X014824Y003961D02*
X011879Y003961D01*
X011536Y003961D02*
X010344Y003961D01*
X010446Y004119D02*
X011434Y004119D01*
X011450Y004278D02*
X010512Y004278D01*
X010578Y004753D02*
X011478Y004753D01*
X011330Y004912D02*
X009701Y004912D01*
X009701Y005070D02*
X010544Y005070D01*
X010487Y005229D02*
X009701Y005229D01*
X009701Y004753D02*
X010239Y004753D01*
X010981Y005070D02*
X011318Y005070D01*
X011423Y005229D02*
X011038Y005229D01*
X010000Y003961D02*
X005135Y003961D01*
X004977Y003802D02*
X014824Y003802D01*
X014824Y003644D02*
X011530Y003644D01*
X011547Y003626D02*
X011470Y003704D01*
X011369Y003746D01*
X011259Y003746D01*
X011158Y003704D01*
X011080Y003626D01*
X011038Y003525D01*
X011038Y003415D01*
X011080Y003314D01*
X011158Y003236D01*
X011259Y003195D01*
X011369Y003195D01*
X011393Y003204D01*
X011393Y003179D01*
X011435Y003078D01*
X011512Y003000D01*
X011613Y002958D01*
X011723Y002958D01*
X011824Y003000D01*
X011902Y003078D01*
X011944Y003179D01*
X011944Y003289D01*
X011902Y003390D01*
X011824Y003467D01*
X011723Y003509D01*
X011613Y003509D01*
X011589Y003499D01*
X011589Y003525D01*
X011547Y003626D01*
X011781Y003485D02*
X014824Y003485D01*
X014824Y003327D02*
X011928Y003327D01*
X011939Y003168D02*
X014824Y003168D01*
X014824Y003010D02*
X011834Y003010D01*
X011502Y003010D02*
X007692Y003010D01*
X007692Y002982D02*
X007650Y002881D01*
X007572Y002803D01*
X007471Y002761D01*
X007361Y002761D01*
X007260Y002803D01*
X007183Y002881D01*
X007141Y002982D01*
X007141Y003092D01*
X007183Y003193D01*
X007260Y003271D01*
X007361Y003313D01*
X007471Y003313D01*
X007572Y003271D01*
X007650Y003193D01*
X007692Y003092D01*
X007692Y002982D01*
X007620Y002851D02*
X013238Y002851D01*
X013205Y002838D02*
X013127Y002760D01*
X013090Y002671D01*
X013062Y002683D01*
X012952Y002683D01*
X012851Y002641D01*
X012773Y002563D01*
X012731Y002462D01*
X012731Y002397D01*
X012707Y002407D01*
X012598Y002407D01*
X012496Y002365D01*
X012419Y002288D01*
X012377Y002186D01*
X012377Y002077D01*
X012419Y001975D01*
X012496Y001898D01*
X012598Y001856D01*
X012707Y001856D01*
X012808Y001898D01*
X012886Y001975D01*
X012928Y002077D01*
X012928Y002141D01*
X012952Y002132D01*
X013062Y002132D01*
X013163Y002173D01*
X013240Y002251D01*
X013277Y002340D01*
X013306Y002328D01*
X013416Y002328D01*
X013517Y002370D01*
X013595Y002448D01*
X013637Y002549D01*
X013637Y002659D01*
X013595Y002760D01*
X013517Y002838D01*
X013416Y002879D01*
X013306Y002879D01*
X013205Y002838D01*
X013100Y002693D02*
X010297Y002693D01*
X010328Y002680D02*
X010227Y002722D01*
X010117Y002722D01*
X010016Y002680D01*
X009938Y002603D01*
X009896Y002501D01*
X009896Y002392D01*
X009923Y002328D01*
X009920Y002328D01*
X009819Y002286D01*
X009742Y002209D01*
X009700Y002108D01*
X009700Y001998D01*
X009742Y001897D01*
X009819Y001819D01*
X009920Y001777D01*
X009962Y001777D01*
X009936Y001714D01*
X009936Y001604D01*
X009978Y001503D01*
X010055Y001425D01*
X010157Y001384D01*
X010266Y001384D01*
X010368Y001425D01*
X010445Y001503D01*
X010487Y001604D01*
X010487Y001714D01*
X010445Y001815D01*
X010368Y001893D01*
X010266Y001935D01*
X010225Y001935D01*
X010251Y001998D01*
X010251Y002108D01*
X010225Y002171D01*
X010227Y002171D01*
X010328Y002213D01*
X010406Y002290D01*
X010448Y002392D01*
X010448Y002501D01*
X010406Y002603D01*
X010328Y002680D01*
X010434Y002534D02*
X012761Y002534D01*
X012522Y002376D02*
X010441Y002376D01*
X010333Y002217D02*
X012390Y002217D01*
X012384Y002059D02*
X010251Y002059D01*
X010349Y001900D02*
X012494Y001900D01*
X012811Y001900D02*
X014341Y001900D01*
X014392Y002059D02*
X012921Y002059D01*
X013207Y002217D02*
X014425Y002217D01*
X014430Y002376D02*
X013523Y002376D01*
X013630Y002534D02*
X014824Y002534D01*
X014824Y002693D02*
X013622Y002693D01*
X013484Y002851D02*
X014824Y002851D01*
X014243Y001742D02*
X014042Y001742D01*
X014070Y001583D02*
X014106Y001583D01*
X013599Y001425D02*
X010366Y001425D01*
X010478Y001583D02*
X013519Y001583D01*
X013546Y001742D02*
X010475Y001742D01*
X010057Y001425D02*
X009747Y001425D01*
X009945Y001583D02*
X006502Y001583D01*
X006499Y001742D02*
X009947Y001742D01*
X009740Y001900D02*
X006372Y001900D01*
X006098Y001900D02*
X006017Y001900D01*
X005867Y002059D02*
X009700Y002059D01*
X009750Y002217D02*
X005867Y002217D01*
X005867Y002376D02*
X009903Y002376D01*
X009910Y002534D02*
X005867Y002534D01*
X005868Y002693D02*
X006707Y002693D01*
X006731Y002683D02*
X006630Y002725D01*
X006553Y002802D01*
X006511Y002903D01*
X006511Y003013D01*
X006553Y003114D01*
X006630Y003192D01*
X006731Y003234D01*
X006841Y003234D01*
X006942Y003192D01*
X007020Y003114D01*
X007062Y003013D01*
X007062Y002903D01*
X007020Y002802D01*
X006942Y002725D01*
X006841Y002683D01*
X006731Y002683D01*
X006866Y002693D02*
X010047Y002693D01*
X011075Y003327D02*
X006278Y003327D01*
X006260Y003369D02*
X006174Y003456D01*
X006060Y003503D01*
X005937Y003503D01*
X005824Y003456D01*
X005737Y003369D01*
X005690Y003256D01*
X005690Y003133D01*
X005737Y003020D01*
X005824Y002933D01*
X005937Y002886D01*
X006060Y002886D01*
X006174Y002933D01*
X006260Y003020D01*
X006307Y003133D01*
X006307Y003256D01*
X006260Y003369D01*
X006103Y003485D02*
X011038Y003485D01*
X011098Y003644D02*
X004818Y003644D01*
X004841Y003485D02*
X005895Y003485D01*
X005720Y003327D02*
X004853Y003327D01*
X004748Y003168D02*
X005690Y003168D01*
X005747Y003010D02*
X005616Y003010D01*
X005775Y002851D02*
X006532Y002851D01*
X006511Y003010D02*
X006250Y003010D01*
X006307Y003168D02*
X006607Y003168D01*
X006966Y003168D02*
X007172Y003168D01*
X007141Y003010D02*
X007062Y003010D01*
X007040Y002851D02*
X007212Y002851D01*
X007660Y003168D02*
X011397Y003168D01*
X012439Y005229D02*
X014824Y005229D01*
X014824Y005387D02*
X012495Y005387D01*
X012457Y005546D02*
X014824Y005546D01*
X006309Y004119D02*
X005294Y004119D01*
X005452Y004278D02*
X006274Y004278D01*
X005252Y004912D02*
X003702Y004912D01*
X003702Y004753D02*
X005093Y004753D01*
X004935Y004595D02*
X003702Y004595D01*
X003702Y004436D02*
X004776Y004436D01*
X004618Y004278D02*
X003702Y004278D01*
X003702Y004119D02*
X004459Y004119D01*
X004301Y003961D02*
X003702Y003961D01*
X003702Y003802D02*
X004142Y003802D01*
X003984Y003644D02*
X003702Y003644D01*
X003702Y003485D02*
X003703Y003485D01*
X004385Y002693D02*
X004674Y002693D01*
X004666Y002534D02*
X004346Y002534D01*
X004256Y002376D02*
X004774Y002376D01*
X005097Y002376D02*
X005501Y002376D01*
X005501Y002534D02*
X005205Y002534D01*
X005197Y002693D02*
X005414Y002693D01*
X005501Y002217D02*
X004345Y002217D01*
X004357Y002059D02*
X005501Y002059D01*
X005501Y001900D02*
X004304Y001900D01*
X004126Y001742D02*
X005657Y001742D01*
X005815Y001583D02*
X002338Y001583D01*
X002357Y001742D02*
X003777Y001742D01*
X003599Y001900D02*
X002310Y001900D01*
X002162Y002059D02*
X003547Y002059D01*
X003559Y002217D02*
X002234Y002217D01*
X002335Y002376D02*
X003647Y002376D01*
X002514Y003644D02*
X001111Y003644D01*
X001111Y003802D02*
X002496Y003802D01*
X002241Y001425D02*
X005046Y001425D01*
M02*
