G75*
%MOIN*%
%OFA0B0*%
%FSLAX24Y24*%
%IPPOS*%
%LPD*%
%AMOC8*
5,1,8,0,0,1.08239X$1,22.5*
%
%ADD10R,0.0315X0.0571*%
%ADD11R,0.0500X0.0354*%
%ADD12R,0.0217X0.0472*%
%ADD13R,0.0268X0.0354*%
%ADD14R,0.0472X0.0197*%
%ADD15C,0.0118*%
%ADD16R,0.0236X0.0236*%
%ADD17R,0.0118X0.0315*%
%ADD18R,0.0315X0.0118*%
%ADD19R,0.0276X0.0118*%
%ADD20R,0.0118X0.0276*%
%ADD21R,0.0360X0.0160*%
%ADD22R,0.0098X0.0551*%
%ADD23R,0.0630X0.0866*%
%ADD24R,0.0197X0.0394*%
%ADD25C,0.0091*%
%ADD26R,0.1670X0.1670*%
%ADD27R,0.0472X0.0217*%
%ADD28R,0.0276X0.0236*%
%ADD29C,0.0080*%
%ADD30R,0.1811X0.1811*%
%ADD31R,0.0315X0.0354*%
%ADD32R,0.0236X0.0276*%
%ADD33R,0.0472X0.0315*%
%ADD34R,0.0315X0.0472*%
%ADD35R,0.0138X0.0335*%
%ADD36R,0.0236X0.0236*%
%ADD37R,0.0098X0.0138*%
%ADD38R,0.0790X0.0394*%
%ADD39R,0.0118X0.0110*%
%ADD40R,0.0315X0.0138*%
%ADD41C,0.0077*%
%ADD42C,0.0310*%
%ADD43R,0.0079X0.0591*%
%ADD44C,0.0394*%
%ADD45R,0.0551X0.0138*%
%ADD46R,0.0748X0.0709*%
%ADD47R,0.0748X0.0748*%
%ADD48C,0.0087*%
%ADD49C,0.0079*%
%ADD50C,0.0271*%
%ADD51C,0.0098*%
%ADD52C,0.0087*%
%ADD53C,0.0160*%
%ADD54C,0.0337*%
%ADD55C,0.0416*%
D10*
X014739Y002732D03*
X014739Y005389D03*
X014739Y010681D03*
X014739Y013338D03*
D11*
X013997Y012836D03*
X013997Y011183D03*
X013997Y004887D03*
X013997Y003234D03*
D12*
X012784Y013101D03*
X012036Y013101D03*
X012036Y014124D03*
X012410Y014124D03*
X012784Y014124D03*
D13*
X012761Y011750D03*
X013242Y011750D03*
D14*
X012997Y010861D03*
D15*
X012804Y011149D02*
X012806Y011176D01*
X012812Y011202D01*
X012821Y011227D01*
X012834Y011250D01*
X012850Y011271D01*
X012869Y011290D01*
X012890Y011306D01*
X012913Y011319D01*
X012938Y011328D01*
X012964Y011334D01*
X012991Y011336D01*
X013018Y011334D01*
X013044Y011328D01*
X013069Y011319D01*
X013092Y011306D01*
X013113Y011290D01*
X013132Y011271D01*
X013148Y011250D01*
X013161Y011227D01*
X013170Y011202D01*
X013176Y011176D01*
X013178Y011149D01*
X013176Y011122D01*
X013170Y011096D01*
X013161Y011071D01*
X013148Y011048D01*
X013132Y011027D01*
X013113Y011008D01*
X013092Y010992D01*
X013069Y010979D01*
X013044Y010970D01*
X013018Y010964D01*
X012991Y010962D01*
X012964Y010964D01*
X012938Y010970D01*
X012913Y010979D01*
X012890Y010992D01*
X012869Y011008D01*
X012850Y011027D01*
X012834Y011048D01*
X012821Y011071D01*
X012812Y011096D01*
X012806Y011122D01*
X012804Y011149D01*
D16*
X011639Y012455D03*
X011639Y012848D03*
X011168Y013860D03*
X011168Y014254D03*
X011633Y014135D03*
X011633Y014529D03*
X013228Y014219D03*
X013228Y013825D03*
X013676Y013872D03*
X014030Y014017D03*
X014030Y014411D03*
X013676Y014265D03*
X013282Y013080D03*
X013282Y012687D03*
X013129Y004596D03*
X013522Y004596D03*
D17*
X011593Y002773D03*
X011396Y002773D03*
X011200Y002773D03*
X011003Y002773D03*
X010806Y002773D03*
X010806Y001710D03*
X011003Y001710D03*
X011200Y001710D03*
X011396Y001710D03*
X011593Y001710D03*
D18*
X011702Y002045D03*
X011702Y002242D03*
X011702Y002439D03*
X010698Y002439D03*
X010698Y002242D03*
X010698Y002045D03*
D19*
X012239Y003250D03*
X012239Y003446D03*
X012239Y003643D03*
X012239Y003840D03*
X012239Y004037D03*
X013341Y004037D03*
X013341Y003840D03*
X013341Y003643D03*
X013341Y003446D03*
X013341Y003250D03*
D20*
X012987Y003092D03*
X012790Y003092D03*
X012593Y003092D03*
X012593Y004194D03*
X012790Y004194D03*
X012987Y004194D03*
D21*
X005450Y004380D03*
X005450Y003870D03*
X004710Y003870D03*
X004710Y004380D03*
D22*
X006530Y003671D03*
X006727Y003671D03*
X006924Y003671D03*
X007121Y003671D03*
X007318Y003671D03*
X007515Y003671D03*
X007711Y003671D03*
X007908Y003671D03*
X008105Y003671D03*
X008302Y003671D03*
D23*
X009345Y002431D03*
X005487Y002431D03*
D24*
X008999Y005037D03*
X009432Y005037D03*
X005979Y010202D03*
X005546Y010202D03*
D25*
X006989Y009002D02*
X007293Y009002D01*
X007293Y009002D01*
X006989Y009002D01*
X006989Y009002D01*
X006989Y008805D02*
X007293Y008805D01*
X007293Y008805D01*
X006989Y008805D01*
X006989Y008805D01*
X006989Y008608D02*
X007293Y008608D01*
X007293Y008608D01*
X006989Y008608D01*
X006989Y008608D01*
X006989Y008411D02*
X007293Y008411D01*
X007293Y008411D01*
X006989Y008411D01*
X006989Y008411D01*
X006989Y008214D02*
X007293Y008214D01*
X007293Y008214D01*
X006989Y008214D01*
X006989Y008214D01*
X006989Y008017D02*
X007293Y008017D01*
X007293Y008017D01*
X006989Y008017D01*
X006989Y008017D01*
X006989Y007820D02*
X007293Y007820D01*
X007293Y007820D01*
X006989Y007820D01*
X006989Y007820D01*
X006989Y007624D02*
X007293Y007624D01*
X007293Y007624D01*
X006989Y007624D01*
X006989Y007624D01*
X006989Y007427D02*
X007293Y007427D01*
X007293Y007427D01*
X006989Y007427D01*
X006989Y007427D01*
X006989Y007230D02*
X007293Y007230D01*
X007293Y007230D01*
X006989Y007230D01*
X006989Y007230D01*
X006989Y007033D02*
X007293Y007033D01*
X007293Y007033D01*
X006989Y007033D01*
X006989Y007033D01*
X006989Y006836D02*
X007293Y006836D01*
X007293Y006836D01*
X006989Y006836D01*
X006989Y006836D01*
X006989Y006639D02*
X007293Y006639D01*
X007293Y006639D01*
X006989Y006639D01*
X006989Y006639D01*
X006989Y006443D02*
X007293Y006443D01*
X007293Y006443D01*
X006989Y006443D01*
X006989Y006443D01*
X006989Y006246D02*
X007293Y006246D01*
X007293Y006246D01*
X006989Y006246D01*
X006989Y006246D01*
X006989Y006049D02*
X007293Y006049D01*
X007293Y006049D01*
X006989Y006049D01*
X006989Y006049D01*
X007475Y005866D02*
X007475Y005562D01*
X007475Y005562D01*
X007475Y005866D01*
X007475Y005866D01*
X007475Y005652D02*
X007475Y005652D01*
X007475Y005742D02*
X007475Y005742D01*
X007475Y005832D02*
X007475Y005832D01*
X007672Y005866D02*
X007672Y005562D01*
X007672Y005562D01*
X007672Y005866D01*
X007672Y005866D01*
X007672Y005652D02*
X007672Y005652D01*
X007672Y005742D02*
X007672Y005742D01*
X007672Y005832D02*
X007672Y005832D01*
X007869Y005866D02*
X007869Y005562D01*
X007869Y005562D01*
X007869Y005866D01*
X007869Y005866D01*
X007869Y005652D02*
X007869Y005652D01*
X007869Y005742D02*
X007869Y005742D01*
X007869Y005832D02*
X007869Y005832D01*
X008066Y005866D02*
X008066Y005562D01*
X008066Y005562D01*
X008066Y005866D01*
X008066Y005866D01*
X008066Y005652D02*
X008066Y005652D01*
X008066Y005742D02*
X008066Y005742D01*
X008066Y005832D02*
X008066Y005832D01*
X008262Y005866D02*
X008262Y005562D01*
X008262Y005562D01*
X008262Y005866D01*
X008262Y005866D01*
X008262Y005652D02*
X008262Y005652D01*
X008262Y005742D02*
X008262Y005742D01*
X008262Y005832D02*
X008262Y005832D01*
X008459Y005866D02*
X008459Y005562D01*
X008459Y005562D01*
X008459Y005866D01*
X008459Y005866D01*
X008459Y005652D02*
X008459Y005652D01*
X008459Y005742D02*
X008459Y005742D01*
X008459Y005832D02*
X008459Y005832D01*
X008656Y005866D02*
X008656Y005562D01*
X008656Y005562D01*
X008656Y005866D01*
X008656Y005866D01*
X008656Y005652D02*
X008656Y005652D01*
X008656Y005742D02*
X008656Y005742D01*
X008656Y005832D02*
X008656Y005832D01*
X008853Y005866D02*
X008853Y005562D01*
X008853Y005562D01*
X008853Y005866D01*
X008853Y005866D01*
X008853Y005652D02*
X008853Y005652D01*
X008853Y005742D02*
X008853Y005742D01*
X008853Y005832D02*
X008853Y005832D01*
X009050Y005866D02*
X009050Y005562D01*
X009050Y005562D01*
X009050Y005866D01*
X009050Y005866D01*
X009050Y005652D02*
X009050Y005652D01*
X009050Y005742D02*
X009050Y005742D01*
X009050Y005832D02*
X009050Y005832D01*
X009247Y005866D02*
X009247Y005562D01*
X009247Y005562D01*
X009247Y005866D01*
X009247Y005866D01*
X009247Y005652D02*
X009247Y005652D01*
X009247Y005742D02*
X009247Y005742D01*
X009247Y005832D02*
X009247Y005832D01*
X009444Y005866D02*
X009444Y005562D01*
X009444Y005562D01*
X009444Y005866D01*
X009444Y005866D01*
X009444Y005652D02*
X009444Y005652D01*
X009444Y005742D02*
X009444Y005742D01*
X009444Y005832D02*
X009444Y005832D01*
X009641Y005866D02*
X009641Y005562D01*
X009641Y005562D01*
X009641Y005866D01*
X009641Y005866D01*
X009641Y005652D02*
X009641Y005652D01*
X009641Y005742D02*
X009641Y005742D01*
X009641Y005832D02*
X009641Y005832D01*
X009838Y005866D02*
X009838Y005562D01*
X009838Y005562D01*
X009838Y005866D01*
X009838Y005866D01*
X009838Y005652D02*
X009838Y005652D01*
X009838Y005742D02*
X009838Y005742D01*
X009838Y005832D02*
X009838Y005832D01*
X010035Y005866D02*
X010035Y005562D01*
X010035Y005562D01*
X010035Y005866D01*
X010035Y005866D01*
X010035Y005652D02*
X010035Y005652D01*
X010035Y005742D02*
X010035Y005742D01*
X010035Y005832D02*
X010035Y005832D01*
X010231Y005866D02*
X010231Y005562D01*
X010231Y005562D01*
X010231Y005866D01*
X010231Y005866D01*
X010231Y005652D02*
X010231Y005652D01*
X010231Y005742D02*
X010231Y005742D01*
X010231Y005832D02*
X010231Y005832D01*
X010428Y005866D02*
X010428Y005562D01*
X010428Y005562D01*
X010428Y005866D01*
X010428Y005866D01*
X010428Y005652D02*
X010428Y005652D01*
X010428Y005742D02*
X010428Y005742D01*
X010428Y005832D02*
X010428Y005832D01*
X010611Y006049D02*
X010915Y006049D01*
X010915Y006049D01*
X010611Y006049D01*
X010611Y006049D01*
X010611Y006246D02*
X010915Y006246D01*
X010915Y006246D01*
X010611Y006246D01*
X010611Y006246D01*
X010611Y006443D02*
X010915Y006443D01*
X010915Y006443D01*
X010611Y006443D01*
X010611Y006443D01*
X010611Y006639D02*
X010915Y006639D01*
X010915Y006639D01*
X010611Y006639D01*
X010611Y006639D01*
X010611Y006836D02*
X010915Y006836D01*
X010915Y006836D01*
X010611Y006836D01*
X010611Y006836D01*
X010611Y007033D02*
X010915Y007033D01*
X010915Y007033D01*
X010611Y007033D01*
X010611Y007033D01*
X010611Y007230D02*
X010915Y007230D01*
X010915Y007230D01*
X010611Y007230D01*
X010611Y007230D01*
X010611Y007427D02*
X010915Y007427D01*
X010915Y007427D01*
X010611Y007427D01*
X010611Y007427D01*
X010611Y007624D02*
X010915Y007624D01*
X010915Y007624D01*
X010611Y007624D01*
X010611Y007624D01*
X010611Y007820D02*
X010915Y007820D01*
X010915Y007820D01*
X010611Y007820D01*
X010611Y007820D01*
X010611Y008017D02*
X010915Y008017D01*
X010915Y008017D01*
X010611Y008017D01*
X010611Y008017D01*
X010611Y008214D02*
X010915Y008214D01*
X010915Y008214D01*
X010611Y008214D01*
X010611Y008214D01*
X010611Y008411D02*
X010915Y008411D01*
X010915Y008411D01*
X010611Y008411D01*
X010611Y008411D01*
X010611Y008608D02*
X010915Y008608D01*
X010915Y008608D01*
X010611Y008608D01*
X010611Y008608D01*
X010611Y008805D02*
X010915Y008805D01*
X010915Y008805D01*
X010611Y008805D01*
X010611Y008805D01*
X010611Y009002D02*
X010915Y009002D01*
X010915Y009002D01*
X010611Y009002D01*
X010611Y009002D01*
X010428Y009184D02*
X010428Y009488D01*
X010428Y009184D02*
X010428Y009184D01*
X010428Y009488D01*
X010428Y009488D01*
X010428Y009274D02*
X010428Y009274D01*
X010428Y009364D02*
X010428Y009364D01*
X010428Y009454D02*
X010428Y009454D01*
X010231Y009488D02*
X010231Y009184D01*
X010231Y009184D01*
X010231Y009488D01*
X010231Y009488D01*
X010231Y009274D02*
X010231Y009274D01*
X010231Y009364D02*
X010231Y009364D01*
X010231Y009454D02*
X010231Y009454D01*
X010035Y009488D02*
X010035Y009184D01*
X010035Y009184D01*
X010035Y009488D01*
X010035Y009488D01*
X010035Y009274D02*
X010035Y009274D01*
X010035Y009364D02*
X010035Y009364D01*
X010035Y009454D02*
X010035Y009454D01*
X009838Y009488D02*
X009838Y009184D01*
X009838Y009184D01*
X009838Y009488D01*
X009838Y009488D01*
X009838Y009274D02*
X009838Y009274D01*
X009838Y009364D02*
X009838Y009364D01*
X009838Y009454D02*
X009838Y009454D01*
X009641Y009488D02*
X009641Y009184D01*
X009641Y009184D01*
X009641Y009488D01*
X009641Y009488D01*
X009641Y009274D02*
X009641Y009274D01*
X009641Y009364D02*
X009641Y009364D01*
X009641Y009454D02*
X009641Y009454D01*
X009444Y009488D02*
X009444Y009184D01*
X009444Y009184D01*
X009444Y009488D01*
X009444Y009488D01*
X009444Y009274D02*
X009444Y009274D01*
X009444Y009364D02*
X009444Y009364D01*
X009444Y009454D02*
X009444Y009454D01*
X009247Y009488D02*
X009247Y009184D01*
X009247Y009184D01*
X009247Y009488D01*
X009247Y009488D01*
X009247Y009274D02*
X009247Y009274D01*
X009247Y009364D02*
X009247Y009364D01*
X009247Y009454D02*
X009247Y009454D01*
X009050Y009488D02*
X009050Y009184D01*
X009050Y009184D01*
X009050Y009488D01*
X009050Y009488D01*
X009050Y009274D02*
X009050Y009274D01*
X009050Y009364D02*
X009050Y009364D01*
X009050Y009454D02*
X009050Y009454D01*
X008853Y009488D02*
X008853Y009184D01*
X008853Y009184D01*
X008853Y009488D01*
X008853Y009488D01*
X008853Y009274D02*
X008853Y009274D01*
X008853Y009364D02*
X008853Y009364D01*
X008853Y009454D02*
X008853Y009454D01*
X008656Y009488D02*
X008656Y009184D01*
X008656Y009184D01*
X008656Y009488D01*
X008656Y009488D01*
X008656Y009274D02*
X008656Y009274D01*
X008656Y009364D02*
X008656Y009364D01*
X008656Y009454D02*
X008656Y009454D01*
X008459Y009488D02*
X008459Y009184D01*
X008459Y009184D01*
X008459Y009488D01*
X008459Y009488D01*
X008459Y009274D02*
X008459Y009274D01*
X008459Y009364D02*
X008459Y009364D01*
X008459Y009454D02*
X008459Y009454D01*
X008262Y009488D02*
X008262Y009184D01*
X008262Y009184D01*
X008262Y009488D01*
X008262Y009488D01*
X008262Y009274D02*
X008262Y009274D01*
X008262Y009364D02*
X008262Y009364D01*
X008262Y009454D02*
X008262Y009454D01*
X008066Y009488D02*
X008066Y009184D01*
X008066Y009184D01*
X008066Y009488D01*
X008066Y009488D01*
X008066Y009274D02*
X008066Y009274D01*
X008066Y009364D02*
X008066Y009364D01*
X008066Y009454D02*
X008066Y009454D01*
X007869Y009488D02*
X007869Y009184D01*
X007869Y009184D01*
X007869Y009488D01*
X007869Y009488D01*
X007869Y009274D02*
X007869Y009274D01*
X007869Y009364D02*
X007869Y009364D01*
X007869Y009454D02*
X007869Y009454D01*
X007672Y009488D02*
X007672Y009184D01*
X007672Y009184D01*
X007672Y009488D01*
X007672Y009488D01*
X007672Y009274D02*
X007672Y009274D01*
X007672Y009364D02*
X007672Y009364D01*
X007672Y009454D02*
X007672Y009454D01*
X007475Y009488D02*
X007475Y009184D01*
X007475Y009184D01*
X007475Y009488D01*
X007475Y009488D01*
X007475Y009274D02*
X007475Y009274D01*
X007475Y009364D02*
X007475Y009364D01*
X007475Y009454D02*
X007475Y009454D01*
D26*
X008952Y007525D03*
D27*
X003597Y004986D03*
X003597Y004238D03*
X002574Y004238D03*
X002574Y004612D03*
X002574Y004986D03*
D28*
X003558Y005517D03*
X003558Y005911D03*
X005011Y005242D03*
X005456Y005242D03*
X005456Y004848D03*
X005011Y004848D03*
X008900Y004592D03*
X008900Y004198D03*
X009396Y004218D03*
X009396Y004612D03*
X012259Y002171D03*
X012259Y001777D03*
X013361Y006974D03*
X013361Y007368D03*
X013952Y007486D03*
X013952Y007880D03*
X014267Y008509D03*
X014267Y008903D03*
X012101Y008391D03*
X012101Y007998D03*
X011865Y009454D03*
X011865Y009848D03*
X012259Y011029D03*
X012259Y011423D03*
X005211Y010281D03*
X005211Y009887D03*
X004802Y010078D03*
X004802Y009684D03*
X004204Y009558D03*
X004204Y009164D03*
X003323Y010086D03*
X003323Y010480D03*
X003187Y010877D03*
X003187Y011270D03*
X002615Y011229D03*
X002615Y010835D03*
X002974Y012548D03*
X002974Y012942D03*
D29*
X004205Y012997D02*
X004439Y012997D01*
X004439Y012840D02*
X004205Y012840D01*
X004205Y012682D02*
X004439Y012682D01*
X004439Y012525D02*
X004205Y012525D01*
X004205Y012367D02*
X004439Y012367D01*
X004439Y012210D02*
X004205Y012210D01*
X004205Y012052D02*
X004439Y012052D01*
X004439Y011895D02*
X004205Y011895D01*
X004205Y011737D02*
X004439Y011737D01*
X004439Y011580D02*
X004205Y011580D01*
X004205Y011422D02*
X004439Y011422D01*
X004439Y011265D02*
X004205Y011265D01*
X004637Y011067D02*
X004637Y010833D01*
X004795Y010833D02*
X004795Y011067D01*
X004952Y011067D02*
X004952Y010833D01*
X005110Y010833D02*
X005110Y011067D01*
X005267Y011067D02*
X005267Y010833D01*
X005425Y010833D02*
X005425Y011067D01*
X005582Y011067D02*
X005582Y010833D01*
X005740Y010833D02*
X005740Y011067D01*
X005897Y011067D02*
X005897Y010833D01*
X006055Y010833D02*
X006055Y011067D01*
X006212Y011067D02*
X006212Y010833D01*
X006370Y010833D02*
X006370Y011067D01*
X006568Y011265D02*
X006802Y011265D01*
X006802Y011422D02*
X006568Y011422D01*
X006568Y011580D02*
X006802Y011580D01*
X006802Y011737D02*
X006568Y011737D01*
X006568Y011895D02*
X006802Y011895D01*
X006802Y012052D02*
X006568Y012052D01*
X006568Y012210D02*
X006802Y012210D01*
X006802Y012367D02*
X006568Y012367D01*
X006568Y012525D02*
X006802Y012525D01*
X006802Y012682D02*
X006568Y012682D01*
X006568Y012840D02*
X006802Y012840D01*
X006802Y012997D02*
X006568Y012997D01*
X006370Y013195D02*
X006370Y013429D01*
X006212Y013429D02*
X006212Y013195D01*
X006055Y013195D02*
X006055Y013429D01*
X005897Y013429D02*
X005897Y013195D01*
X005740Y013195D02*
X005740Y013429D01*
X005582Y013429D02*
X005582Y013195D01*
X005425Y013195D02*
X005425Y013429D01*
X005267Y013429D02*
X005267Y013195D01*
X005110Y013195D02*
X005110Y013429D01*
X004952Y013429D02*
X004952Y013195D01*
X004795Y013195D02*
X004795Y013429D01*
X004637Y013429D02*
X004637Y013195D01*
D30*
X005504Y012131D03*
D31*
X004207Y010524D03*
X003774Y010524D03*
X003774Y009973D03*
X004207Y009973D03*
D32*
G36*
X006247Y009357D02*
X006080Y009524D01*
X006275Y009719D01*
X006442Y009552D01*
X006247Y009357D01*
G37*
G36*
X006526Y009079D02*
X006359Y009246D01*
X006554Y009441D01*
X006721Y009274D01*
X006526Y009079D01*
G37*
G36*
X006856Y009800D02*
X007023Y009633D01*
X006828Y009438D01*
X006661Y009605D01*
X006856Y009800D01*
G37*
G36*
X006578Y010078D02*
X006745Y009911D01*
X006550Y009716D01*
X006383Y009883D01*
X006578Y010078D01*
G37*
X008916Y010584D03*
X009310Y010584D03*
G36*
X010480Y010483D02*
X010647Y010316D01*
X010452Y010121D01*
X010285Y010288D01*
X010480Y010483D01*
G37*
G36*
X010758Y010205D02*
X010925Y010038D01*
X010730Y009843D01*
X010563Y010010D01*
X010758Y010205D01*
G37*
X010889Y011584D03*
X011282Y011584D03*
X012180Y007368D03*
X012574Y007368D03*
X013912Y005872D03*
X014306Y005872D03*
G36*
X010522Y005087D02*
X010689Y004920D01*
X010494Y004725D01*
X010327Y004892D01*
X010522Y005087D01*
G37*
G36*
X010244Y005365D02*
X010411Y005198D01*
X010216Y005003D01*
X010049Y005170D01*
X010244Y005365D01*
G37*
X007534Y005202D03*
X007141Y005202D03*
X003731Y012812D03*
X003338Y012812D03*
X005128Y014160D03*
X005521Y014160D03*
D33*
X002599Y010373D03*
X002599Y009664D03*
X001511Y004730D03*
X001511Y004021D03*
X005999Y003785D03*
X005999Y004494D03*
D34*
X003440Y009179D03*
X002731Y009179D03*
D35*
X008617Y010990D03*
X009129Y010990D03*
X008873Y011856D03*
X010546Y012006D03*
X011058Y012006D03*
X010802Y012872D03*
D36*
G36*
X012707Y004990D02*
X012873Y005156D01*
X013039Y004990D01*
X012873Y004824D01*
X012707Y004990D01*
G37*
G36*
X012429Y004712D02*
X012595Y004878D01*
X012761Y004712D01*
X012595Y004546D01*
X012429Y004712D01*
G37*
D37*
X003597Y011775D03*
X003400Y011775D03*
X003204Y011775D03*
X003204Y012094D03*
X003400Y012094D03*
X003597Y012094D03*
D38*
X001637Y011738D03*
X001637Y013943D03*
D39*
X003479Y008131D03*
X003479Y007946D03*
D40*
X005231Y008805D03*
X005231Y009061D03*
X005231Y009317D03*
X005900Y009317D03*
X005900Y008805D03*
D41*
X012615Y008828D02*
X012615Y008828D01*
X012397Y008828D01*
X012397Y008828D01*
X012615Y008828D01*
X012615Y008671D02*
X012615Y008671D01*
X012397Y008671D01*
X012397Y008671D01*
X012615Y008671D01*
X012615Y008513D02*
X012615Y008513D01*
X012397Y008513D01*
X012397Y008513D01*
X012615Y008513D01*
X012615Y008356D02*
X012615Y008356D01*
X012397Y008356D01*
X012397Y008356D01*
X012615Y008356D01*
X012731Y008238D02*
X012731Y008238D01*
X012731Y008020D01*
X012731Y008020D01*
X012731Y008238D01*
X012731Y008096D02*
X012731Y008096D01*
X012731Y008172D02*
X012731Y008172D01*
X012889Y008238D02*
X012889Y008238D01*
X012889Y008020D01*
X012889Y008020D01*
X012889Y008238D01*
X012889Y008096D02*
X012889Y008096D01*
X012889Y008172D02*
X012889Y008172D01*
X013046Y008238D02*
X013046Y008238D01*
X013046Y008020D01*
X013046Y008020D01*
X013046Y008238D01*
X013046Y008096D02*
X013046Y008096D01*
X013046Y008172D02*
X013046Y008172D01*
X013204Y008238D02*
X013204Y008238D01*
X013204Y008020D01*
X013204Y008020D01*
X013204Y008238D01*
X013204Y008096D02*
X013204Y008096D01*
X013204Y008172D02*
X013204Y008172D01*
X013361Y008238D02*
X013361Y008238D01*
X013361Y008020D01*
X013361Y008020D01*
X013361Y008238D01*
X013361Y008096D02*
X013361Y008096D01*
X013361Y008172D02*
X013361Y008172D01*
X013477Y008354D02*
X013477Y008354D01*
X013695Y008354D01*
X013695Y008354D01*
X013477Y008354D01*
X013477Y008511D02*
X013477Y008511D01*
X013695Y008511D01*
X013695Y008511D01*
X013477Y008511D01*
X013477Y008669D02*
X013477Y008669D01*
X013695Y008669D01*
X013695Y008669D01*
X013477Y008669D01*
X013477Y008826D02*
X013477Y008826D01*
X013695Y008826D01*
X013695Y008826D01*
X013477Y008826D01*
X013477Y008984D02*
X013477Y008984D01*
X013695Y008984D01*
X013695Y008984D01*
X013477Y008984D01*
X013361Y009099D02*
X013361Y009099D01*
X013361Y009317D01*
X013361Y009317D01*
X013361Y009099D01*
X013361Y009175D02*
X013361Y009175D01*
X013361Y009251D02*
X013361Y009251D01*
X013204Y009099D02*
X013204Y009099D01*
X013204Y009317D01*
X013204Y009317D01*
X013204Y009099D01*
X013204Y009175D02*
X013204Y009175D01*
X013204Y009251D02*
X013204Y009251D01*
X013046Y009099D02*
X013046Y009099D01*
X013046Y009317D01*
X013046Y009317D01*
X013046Y009099D01*
X013046Y009175D02*
X013046Y009175D01*
X013046Y009251D02*
X013046Y009251D01*
X012889Y009099D02*
X012889Y009099D01*
X012889Y009317D01*
X012889Y009317D01*
X012889Y009099D01*
X012889Y009175D02*
X012889Y009175D01*
X012889Y009251D02*
X012889Y009251D01*
X012731Y009099D02*
X012731Y009099D01*
X012731Y009317D01*
X012731Y009317D01*
X012731Y009099D01*
X012731Y009175D02*
X012731Y009175D01*
X012731Y009251D02*
X012731Y009251D01*
X012615Y008986D02*
X012615Y008986D01*
X012397Y008986D01*
X012397Y008986D01*
X012615Y008986D01*
D42*
X003452Y002354D03*
X003452Y001854D03*
X002952Y001854D03*
X002952Y002354D03*
X002452Y002354D03*
X002452Y001854D03*
D43*
X007759Y013230D03*
X007916Y013230D03*
X008074Y013230D03*
X008231Y013230D03*
X008389Y013230D03*
X008546Y013230D03*
X008704Y013230D03*
X008861Y013230D03*
X009019Y013230D03*
X009176Y013230D03*
X009333Y013230D03*
X009491Y013230D03*
X009648Y013230D03*
X009806Y013230D03*
X009963Y013230D03*
X009963Y014415D03*
X009806Y014415D03*
X009648Y014415D03*
X009491Y014415D03*
X009333Y014415D03*
X009176Y014415D03*
X009019Y014415D03*
X008861Y014415D03*
X008704Y014415D03*
X008546Y014415D03*
X008389Y014415D03*
X008231Y014415D03*
X008074Y014415D03*
X007916Y014415D03*
X007759Y014415D03*
D44*
X001550Y011112D03*
X001550Y010612D03*
X001550Y010112D03*
X001550Y009612D03*
D45*
X002593Y007722D03*
X002593Y007466D03*
X002593Y007210D03*
X002593Y006954D03*
X002593Y006698D03*
D46*
X001550Y005635D03*
X001550Y008785D03*
D47*
X001550Y007710D03*
X001550Y006710D03*
D48*
X002574Y005399D02*
X003007Y005832D01*
X002574Y005399D02*
X002574Y004986D01*
X003558Y005517D02*
X003597Y005478D01*
X003597Y004986D01*
X004710Y004579D02*
X004710Y004380D01*
X004109Y002683D02*
X004463Y002328D01*
X004463Y001817D01*
X004227Y001580D01*
X003755Y001580D01*
X003481Y001854D01*
X003452Y001854D01*
X003243Y001423D02*
X004896Y001423D01*
X005133Y001659D01*
X005251Y001659D01*
X006727Y003017D02*
X006786Y002958D01*
X006727Y003017D02*
X006727Y003671D01*
X006924Y003671D02*
X006924Y004159D01*
X007574Y004809D01*
X008007Y004809D01*
X008440Y005242D01*
X008440Y005695D01*
X008459Y005714D01*
X008656Y005714D02*
X008656Y005222D01*
X007692Y004257D01*
X007515Y003671D02*
X007318Y003671D01*
X007519Y003588D02*
X007519Y003265D01*
X007416Y003163D01*
X007416Y003037D01*
X007534Y005202D02*
X007574Y005242D01*
X007613Y005242D01*
X007889Y005242D02*
X007928Y005242D01*
X008046Y005360D01*
X008066Y005379D01*
X008066Y005714D01*
X008262Y005714D02*
X008262Y006049D01*
X008243Y006069D01*
X007141Y007033D02*
X005743Y007033D01*
X005566Y006856D01*
X006038Y007722D02*
X006137Y007820D01*
X007141Y007820D01*
X007141Y008214D02*
X006802Y008214D01*
X006361Y008214D01*
X005987Y008588D01*
X005330Y008588D01*
X005231Y008687D01*
X005231Y008805D01*
X006058Y008805D02*
X006274Y008588D01*
X006452Y008411D01*
X006727Y008411D01*
X007141Y008411D01*
X007141Y009002D02*
X007180Y009041D01*
X007180Y009651D01*
X006212Y010619D01*
X006212Y010950D01*
X006055Y010950D02*
X006055Y010278D01*
X005979Y010202D01*
X006251Y010202D01*
X006258Y010202D02*
X006564Y009897D01*
X007219Y010281D02*
X007219Y011265D01*
X006904Y011580D01*
X006685Y011580D01*
X006685Y011580D01*
X006983Y011738D02*
X006983Y011974D01*
X006904Y012053D01*
X006685Y012053D01*
X006685Y012052D01*
X006685Y012367D02*
X006685Y012368D01*
X006963Y012368D01*
X007141Y012191D01*
X007141Y011856D01*
X007534Y011462D01*
X007534Y010517D01*
X008066Y009986D01*
X008066Y009336D01*
X008262Y009336D02*
X008262Y010025D01*
X007692Y010596D01*
X007692Y011580D01*
X007692Y012210D01*
X007755Y012273D01*
X007755Y012880D01*
X007755Y013226D01*
X007759Y013230D01*
X008704Y013230D02*
X008704Y012880D01*
X008704Y012395D01*
X008243Y011935D01*
X008243Y010832D01*
X008853Y010222D01*
X008853Y009336D01*
X008656Y009336D02*
X008656Y010143D01*
X008046Y010754D01*
X008046Y011974D01*
X008381Y012309D01*
X008062Y012305D02*
X007889Y012131D01*
X007889Y012013D01*
X007889Y011620D01*
X007889Y010659D01*
X008463Y010084D01*
X008463Y009340D01*
X008459Y009336D01*
X009050Y009336D02*
X009050Y010368D01*
X009050Y010450D01*
X008916Y010584D01*
X008617Y010883D01*
X008617Y010903D01*
X008617Y010990D01*
X009129Y010990D02*
X009310Y010809D01*
X009310Y010584D01*
X009129Y010990D02*
X009129Y011356D01*
X009148Y011376D01*
X008873Y011856D02*
X008991Y011974D01*
X009148Y011974D01*
X010322Y012872D02*
X009963Y013230D01*
X010322Y012872D02*
X010802Y012872D01*
X011081Y012498D02*
X011058Y012474D01*
X011058Y012006D01*
X011282Y011781D01*
X011282Y011584D01*
X011616Y011750D02*
X012761Y011750D01*
X012810Y012092D02*
X013125Y012092D01*
X013204Y012013D01*
X013204Y011788D01*
X013242Y011750D01*
X012810Y012092D02*
X012456Y012446D01*
X012416Y012446D01*
X012652Y012683D01*
X012770Y012801D02*
X012885Y012687D01*
X013282Y012687D01*
X013282Y013080D02*
X013282Y013470D01*
X013400Y013588D01*
X013794Y013588D01*
X014030Y013824D01*
X014030Y014017D01*
X013782Y014265D01*
X013676Y014265D01*
X013228Y014219D02*
X013189Y014258D01*
X012918Y014258D01*
X012784Y014124D01*
X012784Y013798D01*
X012692Y013706D01*
X011904Y013706D01*
X011786Y013588D01*
X011511Y013588D01*
X011168Y013860D02*
X011156Y013848D01*
X011156Y013313D01*
X011353Y013116D01*
X011353Y012013D01*
X011616Y011750D01*
X011707Y012053D02*
X011639Y012122D01*
X011639Y012455D01*
X011647Y012446D01*
X012416Y012446D01*
X012036Y013101D02*
X012036Y013208D01*
X012337Y013509D01*
X012916Y013509D01*
X012916Y013513D01*
X013228Y013825D01*
X013318Y013116D02*
X013282Y013080D01*
X013997Y012836D02*
X013997Y012649D01*
X013519Y012171D01*
X012259Y011423D02*
X012180Y011502D01*
X011944Y011502D01*
X011747Y011305D01*
X011747Y011265D01*
X011589Y011108D01*
X011589Y009297D01*
X011097Y008805D01*
X010763Y008805D01*
X010767Y008998D02*
X010763Y009002D01*
X010767Y008998D02*
X010999Y008998D01*
X011314Y009313D01*
X011314Y010950D01*
X011093Y011171D01*
X010920Y011344D01*
X010920Y011553D01*
X010889Y011584D01*
X010885Y011580D01*
X010644Y011580D01*
X010546Y011679D01*
X010546Y012006D01*
X011058Y012006D02*
X011058Y012112D01*
X010566Y011265D02*
X010566Y011108D01*
X010566Y010793D01*
X010290Y010517D01*
X010035Y010262D01*
X010035Y009336D01*
X009838Y009336D02*
X009838Y010635D01*
X009833Y010639D01*
X010231Y010183D02*
X010389Y010340D01*
X010428Y010340D01*
X010466Y010302D01*
X010389Y010340D02*
X010802Y010754D01*
X011058Y010754D01*
X010231Y010183D02*
X010231Y009844D01*
X009648Y009702D02*
X009648Y009344D01*
X009641Y009336D01*
X009648Y009702D02*
X009424Y009927D01*
X010763Y008608D02*
X011294Y008608D01*
X011393Y008706D01*
X011668Y008628D02*
X011904Y008391D01*
X012101Y008391D01*
X011932Y008561D01*
X011932Y008726D01*
X011668Y008628D02*
X011668Y009100D01*
X011865Y009297D01*
X011865Y009454D01*
X012377Y009376D02*
X012564Y009376D01*
X012731Y009208D01*
X012889Y009208D02*
X012889Y009691D01*
X012534Y010045D01*
X012259Y010045D01*
X012101Y010202D01*
X012101Y010242D01*
X012456Y010439D02*
X013046Y009848D01*
X013046Y009208D01*
X013204Y009208D02*
X013204Y010084D01*
X013125Y010163D01*
X013361Y009966D02*
X013479Y010084D01*
X013479Y010360D01*
X013361Y009966D02*
X013361Y009208D01*
X013586Y008511D02*
X013989Y008511D01*
X014265Y008511D01*
X013952Y007880D02*
X013873Y007880D01*
X013794Y007801D01*
X013479Y007801D01*
X013361Y007919D01*
X013361Y008129D01*
X012889Y008129D02*
X012889Y007919D01*
X012770Y007801D01*
X012456Y007801D01*
X012219Y007565D01*
X012219Y007407D01*
X012180Y007368D01*
X011826Y007368D01*
X011294Y006836D01*
X010763Y006836D01*
X010763Y006639D02*
X011412Y006639D01*
X011865Y007092D01*
X012967Y007092D01*
X013164Y007289D01*
X013282Y007289D01*
X013361Y007368D01*
X013361Y006974D02*
X013715Y006974D01*
X013400Y006698D02*
X013912Y006187D01*
X013912Y005872D01*
X013912Y005596D01*
X014148Y005360D01*
X014148Y005039D01*
X013997Y004887D01*
X013129Y004596D02*
X013129Y004537D01*
X013007Y004415D01*
X013007Y004214D01*
X012987Y004194D01*
X012790Y004194D02*
X012593Y004194D01*
X012595Y004196D01*
X012398Y004196D01*
X012239Y004037D01*
X012215Y003864D02*
X012239Y003840D01*
X012215Y003864D02*
X011786Y003864D01*
X011707Y003943D01*
X011707Y004179D01*
X011786Y003864D02*
X011235Y003864D01*
X011003Y003631D01*
X011003Y002773D01*
X010698Y002439D02*
X010180Y002439D01*
X010172Y002446D01*
X010361Y002242D02*
X010698Y002242D01*
X010690Y002053D02*
X010487Y002053D01*
X010211Y001777D01*
X010211Y001659D01*
X010172Y002053D02*
X009975Y002053D01*
X010172Y002053D02*
X010361Y002242D01*
X010690Y002053D02*
X010698Y002045D01*
X011200Y001710D02*
X011200Y001427D01*
X011200Y001419D01*
X011274Y001344D01*
X013519Y001344D01*
X013794Y001620D01*
X013007Y002407D02*
X012770Y002407D01*
X012259Y002919D01*
X012259Y003230D01*
X012239Y003250D01*
X012239Y003446D02*
X011881Y003446D01*
X011668Y003234D01*
X011314Y003470D02*
X011487Y003643D01*
X012239Y003643D01*
X012593Y003092D02*
X012605Y003080D01*
X012605Y002852D01*
X012696Y002761D01*
X013046Y002761D01*
X013204Y002604D01*
X013322Y002604D01*
X013361Y002604D01*
X013282Y003037D02*
X013042Y003037D01*
X012987Y003092D01*
X013282Y003037D02*
X013341Y003096D01*
X013341Y003250D01*
X012595Y004196D02*
X012595Y004712D01*
X012595Y004748D01*
X012219Y005163D02*
X012219Y005399D01*
X011589Y005006D02*
X011393Y005202D01*
X011393Y005911D01*
X011255Y006049D01*
X010763Y006049D01*
X010881Y005714D02*
X010428Y005714D01*
X010231Y005714D02*
X010230Y005712D01*
X010230Y005184D01*
X010311Y005184D01*
X010408Y005281D01*
X010723Y005281D01*
X010763Y005242D01*
X011038Y005557D02*
X010881Y005714D01*
X010763Y006443D02*
X011767Y006443D01*
X012022Y006698D01*
X013400Y006698D01*
X012889Y007360D02*
X012581Y007360D01*
X012574Y007368D01*
X012101Y007880D02*
X011944Y007722D01*
X011255Y007033D01*
X010763Y007033D01*
X010763Y007230D02*
X011215Y007230D01*
X011550Y007565D01*
X010979Y007624D02*
X010763Y007624D01*
X012101Y007880D02*
X012101Y007998D01*
X012232Y008129D01*
X012311Y008129D01*
X012731Y008129D01*
X012506Y008356D02*
X012137Y008356D01*
X012101Y008391D01*
X014306Y006210D02*
X014349Y006254D01*
X014306Y006210D02*
X014306Y005872D01*
X012011Y002773D02*
X011593Y002773D01*
X012011Y002773D02*
X012259Y002525D01*
X012259Y002171D01*
X012298Y002131D01*
X012534Y002131D01*
X012652Y002131D01*
X012259Y002171D02*
X012247Y002159D01*
X012046Y002159D01*
X011940Y002053D01*
X011709Y002053D01*
X011702Y002045D01*
X011702Y002439D02*
X011424Y002439D01*
X011393Y002407D01*
X011393Y001714D01*
X011396Y001710D01*
X010172Y004179D02*
X010054Y004297D01*
X010054Y004572D01*
X009641Y004986D01*
X009641Y005714D01*
X009838Y005714D02*
X009838Y005104D01*
X010408Y004533D01*
X007141Y007230D02*
X006688Y007230D01*
X006550Y007368D01*
X007475Y009336D02*
X007456Y009356D01*
X007456Y009730D01*
X006370Y010816D01*
X006370Y010950D01*
X005897Y010950D02*
X005897Y010770D01*
X005684Y010557D01*
X005546Y010419D01*
X005546Y010202D01*
X004952Y010228D02*
X004952Y010342D01*
X004952Y010949D01*
X004952Y010950D01*
X004795Y010950D02*
X004795Y010613D01*
X004795Y010495D01*
X004306Y010006D01*
X004306Y009966D01*
X004214Y009966D01*
X004207Y009973D01*
X004204Y009969D01*
X004204Y009558D01*
X004802Y010078D02*
X004952Y010228D01*
X004599Y010911D02*
X003952Y010911D01*
X003774Y010734D01*
X003774Y010524D01*
X003726Y010476D01*
X003187Y011270D02*
X002657Y011270D01*
X002615Y011229D01*
X002579Y011265D01*
X002101Y011265D01*
X001904Y011069D01*
X001904Y010373D01*
X001811Y010373D01*
X001550Y010112D01*
X001904Y010373D02*
X002207Y010373D01*
X002599Y010373D01*
X003400Y011462D02*
X003873Y011462D01*
X003990Y011580D01*
X004637Y010950D02*
X004599Y010911D01*
X005897Y010950D02*
X005897Y010770D01*
X006983Y011738D02*
X007377Y011344D01*
X007377Y010399D01*
X007869Y009907D01*
X007869Y009336D01*
X007672Y009336D02*
X007672Y009829D01*
X007219Y010281D01*
X004322Y012997D02*
X004322Y013493D01*
X004322Y013768D01*
X004306Y013785D01*
X004637Y013802D02*
X004818Y013982D01*
X004996Y014160D01*
X005128Y014160D01*
X004637Y013802D02*
X004637Y013312D01*
X004795Y013312D02*
X004795Y013565D01*
X006212Y013802D02*
X006212Y013312D01*
X006212Y013802D02*
X006589Y014179D01*
X006707Y014179D01*
X007770Y014415D02*
X007770Y014887D01*
X007928Y014848D02*
X007928Y014415D01*
X007770Y014415D01*
X007928Y014415D02*
X007928Y014376D01*
X008046Y014415D02*
X008046Y014848D01*
X007928Y014848D01*
X008243Y014848D02*
X008243Y014415D01*
X008046Y014415D01*
X008400Y014415D02*
X008400Y014848D01*
X008243Y014848D01*
X008519Y014848D02*
X008558Y014848D01*
X008558Y014415D01*
X008400Y014415D01*
X008715Y014415D02*
X008715Y014809D01*
X008676Y014848D01*
X008558Y014848D01*
X008873Y014848D02*
X008873Y014415D01*
X008715Y014415D01*
X009030Y014415D02*
X009030Y014848D01*
X008873Y014848D01*
X009188Y014887D02*
X009188Y014415D01*
X009030Y014415D01*
X009345Y014415D02*
X009345Y014848D01*
X009306Y014887D01*
X009188Y014887D01*
X009503Y014848D02*
X009503Y014415D01*
X009345Y014415D01*
X009660Y014415D02*
X009660Y014848D01*
X009621Y014887D01*
X009542Y014887D01*
X009503Y014848D01*
X009818Y014848D02*
X009818Y014415D01*
X009660Y014415D01*
X009963Y014415D02*
X009963Y014820D01*
X009936Y014848D01*
X009818Y014848D01*
X011168Y014254D02*
X011515Y014254D01*
X011633Y014135D01*
X012025Y014135D01*
X012036Y014124D01*
X011633Y014529D02*
X011912Y014809D01*
X013400Y014809D01*
X012259Y011029D02*
X011944Y010714D01*
X011944Y010675D01*
X003479Y007946D02*
X003294Y007946D01*
X003204Y008037D01*
X001637Y011738D02*
X001637Y011746D01*
X001668Y011777D01*
X002574Y012328D02*
X002652Y012250D01*
X003048Y012250D01*
X003204Y012094D01*
X002574Y012328D02*
X002574Y012407D01*
X002981Y012935D02*
X002974Y012942D01*
X002981Y012935D02*
X003251Y012935D01*
X003374Y012812D01*
X003338Y012812D01*
X003211Y002738D02*
X003452Y002498D01*
X003452Y002354D01*
X002952Y001854D02*
X002952Y001714D01*
X003243Y001423D01*
D49*
X001650Y001494D02*
X001489Y001494D01*
X001383Y001571D02*
X001614Y001571D01*
X001587Y001635D02*
X001643Y001501D01*
X001745Y001399D01*
X001879Y001344D01*
X002024Y001344D01*
X002158Y001399D01*
X002260Y001501D01*
X002316Y001635D01*
X002401Y001600D01*
X002502Y001600D01*
X002596Y001638D01*
X002667Y001710D01*
X002702Y001793D01*
X002736Y001710D01*
X002807Y001638D01*
X002838Y001626D01*
X003100Y001364D01*
X003166Y001297D01*
X002062Y001297D01*
X001907Y001309D01*
X001612Y001405D01*
X001361Y001588D01*
X001178Y001839D01*
X001082Y002134D01*
X001070Y002289D01*
X001070Y005190D01*
X001090Y005170D01*
X001122Y005151D01*
X001158Y005142D01*
X001511Y005142D01*
X001511Y005596D01*
X001589Y005596D01*
X001589Y005142D01*
X001942Y005142D01*
X001978Y005151D01*
X002010Y005170D01*
X002036Y005196D01*
X002054Y005227D01*
X002063Y005263D01*
X002063Y005596D01*
X001589Y005596D01*
X001589Y005675D01*
X001511Y005675D01*
X001511Y006129D01*
X001158Y006129D01*
X001122Y006120D01*
X001090Y006101D01*
X001070Y006081D01*
X001070Y008340D01*
X001090Y008319D01*
X001122Y008301D01*
X001158Y008291D01*
X001511Y008291D01*
X001511Y008746D01*
X001589Y008746D01*
X001589Y008291D01*
X001942Y008291D01*
X001978Y008301D01*
X001984Y008305D01*
X001984Y008215D01*
X002122Y008078D01*
X002317Y008078D01*
X002454Y008215D01*
X002454Y008410D01*
X002317Y008548D01*
X002122Y008548D01*
X002063Y008489D01*
X002063Y008746D01*
X001589Y008746D01*
X001589Y008824D01*
X002063Y008824D01*
X002063Y009158D01*
X002054Y009193D01*
X002036Y009225D01*
X002010Y009251D01*
X001978Y009269D01*
X001942Y009279D01*
X001599Y009279D01*
X001648Y009289D01*
X001709Y009314D01*
X001764Y009351D01*
X001811Y009397D01*
X001848Y009453D01*
X001873Y009514D01*
X001886Y009579D01*
X001886Y009601D01*
X001561Y009601D01*
X001561Y009622D01*
X001886Y009622D01*
X001886Y009645D01*
X001873Y009710D01*
X001848Y009771D01*
X001811Y009826D01*
X001764Y009873D01*
X001744Y009887D01*
X001801Y009944D01*
X001846Y010053D01*
X001846Y010171D01*
X001836Y010195D01*
X001870Y010230D01*
X002264Y010230D01*
X002264Y010174D01*
X002322Y010116D01*
X002877Y010116D01*
X002935Y010174D01*
X002935Y010571D01*
X002877Y010629D01*
X002862Y010629D01*
X002864Y010632D01*
X002883Y010663D01*
X002892Y010699D01*
X002892Y010816D01*
X002635Y010816D01*
X002635Y010855D01*
X002892Y010855D01*
X002892Y010972D01*
X002883Y011007D01*
X002864Y011039D01*
X002843Y011060D01*
X002852Y011070D01*
X002852Y011127D01*
X002950Y011127D01*
X002950Y011111D01*
X002959Y011102D01*
X002938Y011080D01*
X002920Y011049D01*
X002910Y011013D01*
X002910Y010896D01*
X003168Y010896D01*
X003168Y010857D01*
X002910Y010857D01*
X002910Y010740D01*
X002920Y010705D01*
X002938Y010673D01*
X002964Y010647D01*
X002996Y010629D01*
X003031Y010619D01*
X003086Y010619D01*
X003086Y010321D01*
X003095Y010311D01*
X003074Y010290D01*
X003055Y010258D01*
X003046Y010223D01*
X003046Y010106D01*
X003303Y010106D01*
X003303Y010067D01*
X003046Y010067D01*
X003046Y009950D01*
X003055Y009914D01*
X003074Y009883D01*
X003100Y009857D01*
X003131Y009838D01*
X003167Y009829D01*
X003303Y009829D01*
X003303Y010067D01*
X003343Y010067D01*
X003343Y009829D01*
X003479Y009829D01*
X003515Y009838D01*
X003517Y009840D01*
X003517Y009755D01*
X003576Y009696D01*
X003967Y009696D01*
X003967Y009399D01*
X003976Y009390D01*
X003955Y009368D01*
X003936Y009336D01*
X003927Y009301D01*
X003927Y009184D01*
X004184Y009184D01*
X004184Y009145D01*
X003927Y009145D01*
X003927Y009028D01*
X003936Y008993D01*
X003955Y008961D01*
X003981Y008935D01*
X004012Y008916D01*
X004048Y008907D01*
X004184Y008907D01*
X004184Y009145D01*
X004224Y009145D01*
X004224Y009184D01*
X004481Y009184D01*
X004481Y009301D01*
X004472Y009336D01*
X004453Y009368D01*
X004432Y009390D01*
X004441Y009399D01*
X004441Y009717D01*
X004434Y009724D01*
X004464Y009755D01*
X004464Y009961D01*
X004565Y010062D01*
X004565Y009919D01*
X004574Y009909D01*
X004552Y009888D01*
X004534Y009856D01*
X004525Y009821D01*
X004525Y009704D01*
X004782Y009704D01*
X004782Y009664D01*
X004821Y009664D01*
X004821Y009427D01*
X004958Y009427D01*
X004980Y009433D01*
X004974Y009427D01*
X004974Y009227D01*
X004962Y009215D01*
X004944Y009183D01*
X004934Y009148D01*
X004934Y009061D01*
X005231Y009061D01*
X005231Y009061D01*
X005528Y009061D01*
X005528Y009148D01*
X005518Y009183D01*
X005500Y009215D01*
X005488Y009227D01*
X005488Y009427D01*
X005430Y009485D01*
X005054Y009485D01*
X005069Y009512D01*
X005079Y009548D01*
X005079Y009630D01*
X005192Y009630D01*
X005192Y009868D01*
X005231Y009868D01*
X005231Y009907D01*
X005356Y009907D01*
X005376Y009887D01*
X006150Y009887D01*
X006196Y009934D01*
X006196Y010059D01*
X006199Y010059D01*
X006309Y009950D01*
X006283Y009924D01*
X006283Y009859D01*
X006257Y009859D01*
X006221Y009849D01*
X006190Y009831D01*
X006093Y009734D01*
X006261Y009566D01*
X006233Y009538D01*
X006065Y009707D01*
X005969Y009610D01*
X005950Y009578D01*
X005941Y009543D01*
X005941Y009525D01*
X005900Y009525D01*
X005725Y009525D01*
X005689Y009515D01*
X005657Y009497D01*
X005631Y009471D01*
X005613Y009439D01*
X005604Y009404D01*
X005604Y009317D01*
X005900Y009317D01*
X005900Y009525D01*
X005900Y009317D01*
X005900Y009317D01*
X005900Y009317D01*
X005604Y009317D01*
X005604Y009229D01*
X005613Y009194D01*
X005631Y009162D01*
X005657Y009136D01*
X005689Y009118D01*
X005725Y009108D01*
X005900Y009108D01*
X005900Y009317D01*
X005900Y009317D01*
X005900Y009108D01*
X006076Y009108D01*
X006112Y009118D01*
X006143Y009136D01*
X006169Y009162D01*
X006188Y009194D01*
X006197Y009227D01*
X006229Y009218D01*
X006259Y009218D01*
X006259Y009205D01*
X006419Y009045D01*
X006419Y008896D01*
X006323Y008800D01*
X006323Y008742D01*
X006157Y008908D01*
X006157Y008915D01*
X006099Y008973D01*
X005702Y008973D01*
X005644Y008915D01*
X005644Y008731D01*
X005488Y008731D01*
X005488Y008894D01*
X005500Y008906D01*
X005518Y008938D01*
X005528Y008973D01*
X005528Y009061D01*
X005231Y009061D01*
X005231Y009061D01*
X004934Y009061D01*
X004934Y008973D01*
X004944Y008938D01*
X004962Y008906D01*
X004974Y008894D01*
X004974Y008695D01*
X005032Y008636D01*
X005088Y008636D01*
X005088Y008627D01*
X005172Y008544D01*
X005270Y008445D01*
X005928Y008445D01*
X006217Y008156D01*
X005567Y008156D01*
X004878Y007467D01*
X004797Y007386D01*
X004797Y005425D01*
X004773Y005401D01*
X004773Y005082D01*
X004811Y005045D01*
X004773Y005007D01*
X004773Y004839D01*
X004657Y004722D01*
X004651Y004722D01*
X004567Y004638D01*
X004567Y004559D01*
X004489Y004559D01*
X004431Y004501D01*
X004431Y004479D01*
X004406Y004454D01*
X003995Y004043D01*
X003888Y004043D01*
X003875Y004030D02*
X003933Y004088D01*
X003933Y004103D01*
X004183Y004354D01*
X004183Y004354D01*
X004288Y004459D01*
X004288Y006025D01*
X003344Y006970D01*
X003344Y007718D01*
X003339Y007722D01*
X003383Y007766D01*
X003383Y007792D01*
X003579Y007792D01*
X003638Y007850D01*
X003638Y007979D01*
X003650Y007991D01*
X003668Y008023D01*
X003678Y008058D01*
X003678Y008131D01*
X003479Y008131D01*
X003479Y008132D01*
X003479Y008326D01*
X003402Y008326D01*
X003366Y008316D01*
X003335Y008298D01*
X003309Y008272D01*
X003306Y008267D01*
X003301Y008272D01*
X003106Y008272D01*
X002969Y008134D01*
X002969Y007940D01*
X003007Y007901D01*
X002910Y007901D01*
X002910Y008843D01*
X002930Y008843D01*
X002988Y008901D01*
X002988Y009456D01*
X002971Y009473D01*
X002975Y009488D01*
X002975Y009625D01*
X002639Y009625D01*
X002639Y009703D01*
X002975Y009703D01*
X002975Y009840D01*
X002965Y009875D01*
X002947Y009907D01*
X002921Y009933D01*
X002889Y009951D01*
X002854Y009961D01*
X002639Y009961D01*
X002639Y009703D01*
X002560Y009703D01*
X002560Y009625D01*
X002224Y009625D01*
X002224Y009488D01*
X002233Y009453D01*
X002251Y009421D01*
X002277Y009395D01*
X002309Y009377D01*
X002345Y009367D01*
X002474Y009367D01*
X002474Y008901D01*
X002532Y008843D01*
X002552Y008843D01*
X002552Y007934D01*
X002508Y007890D01*
X002277Y007890D01*
X002218Y007832D01*
X002218Y007612D01*
X002236Y007594D01*
X002218Y007576D01*
X002218Y007356D01*
X002236Y007338D01*
X002218Y007320D01*
X002218Y007100D01*
X002236Y007082D01*
X002218Y007064D01*
X002218Y006865D01*
X002206Y006853D01*
X002188Y006821D01*
X002178Y006786D01*
X002178Y006698D01*
X002178Y006611D01*
X002188Y006576D01*
X002206Y006544D01*
X002232Y006518D01*
X002264Y006500D01*
X002299Y006490D01*
X002593Y006490D01*
X002593Y006698D01*
X002593Y006698D01*
X002178Y006698D01*
X002593Y006698D01*
X002593Y006698D01*
X002593Y006490D01*
X002887Y006490D01*
X002923Y006500D01*
X002954Y006518D01*
X002980Y006544D01*
X002999Y006576D01*
X003008Y006611D01*
X003008Y006698D01*
X002593Y006698D01*
X002593Y006698D01*
X003008Y006698D01*
X003008Y006786D01*
X003004Y006802D01*
X003090Y006716D01*
X003637Y006169D01*
X003578Y006169D01*
X003578Y005931D01*
X003835Y005931D01*
X003835Y005971D01*
X003930Y005876D01*
X003930Y005138D01*
X003875Y005193D01*
X003740Y005193D01*
X003740Y005303D01*
X003795Y005358D01*
X003795Y005677D01*
X003786Y005686D01*
X003807Y005707D01*
X003826Y005739D01*
X003835Y005775D01*
X003835Y005891D01*
X003578Y005891D01*
X003578Y005931D01*
X003538Y005931D01*
X003538Y006169D01*
X003402Y006169D01*
X003366Y006159D01*
X003335Y006141D01*
X003309Y006115D01*
X003290Y006083D01*
X003281Y006047D01*
X003281Y005931D01*
X003538Y005931D01*
X003538Y005891D01*
X003281Y005891D01*
X003281Y005775D01*
X003290Y005739D01*
X003309Y005707D01*
X003330Y005686D01*
X003321Y005677D01*
X003321Y005358D01*
X003379Y005300D01*
X003454Y005300D01*
X003454Y005193D01*
X003320Y005193D01*
X003262Y005135D01*
X003262Y004836D01*
X003320Y004778D01*
X003875Y004778D01*
X003930Y004833D01*
X003930Y004607D01*
X003768Y004445D01*
X003320Y004445D01*
X003262Y004387D01*
X003262Y004088D01*
X003320Y004030D01*
X003875Y004030D01*
X003918Y003966D02*
X002883Y003966D01*
X002868Y003981D02*
X002789Y003981D01*
X002740Y004030D01*
X002851Y004030D01*
X002909Y004088D01*
X002909Y004387D01*
X002900Y004397D01*
X002921Y004418D01*
X002940Y004450D01*
X002949Y004485D01*
X002949Y004597D01*
X002588Y004597D01*
X002588Y004627D01*
X002949Y004627D01*
X002949Y004738D01*
X003930Y004738D01*
X003930Y004661D02*
X002949Y004661D01*
X002949Y004584D02*
X003906Y004584D01*
X003829Y004506D02*
X002949Y004506D01*
X002928Y004429D02*
X003304Y004429D01*
X003262Y004352D02*
X002909Y004352D01*
X002909Y004275D02*
X003262Y004275D01*
X003262Y004197D02*
X002909Y004197D01*
X002909Y004120D02*
X003262Y004120D01*
X003307Y004043D02*
X002864Y004043D01*
X002868Y003981D02*
X003005Y003843D01*
X003005Y003807D01*
X003759Y003807D01*
X003995Y004043D01*
X003995Y004043D01*
X003950Y004120D02*
X004072Y004120D01*
X004027Y004197D02*
X004150Y004197D01*
X004104Y004275D02*
X004227Y004275D01*
X004182Y004352D02*
X004304Y004352D01*
X004259Y004429D02*
X004381Y004429D01*
X004406Y004454D02*
X004406Y004454D01*
X004436Y004506D02*
X004288Y004506D01*
X004288Y004584D02*
X004567Y004584D01*
X004590Y004661D02*
X004288Y004661D01*
X004288Y004738D02*
X004673Y004738D01*
X004750Y004815D02*
X004288Y004815D01*
X004288Y004893D02*
X004773Y004893D01*
X004773Y004970D02*
X004288Y004970D01*
X004288Y005047D02*
X004809Y005047D01*
X004773Y005124D02*
X004288Y005124D01*
X004288Y005202D02*
X004773Y005202D01*
X004773Y005279D02*
X004288Y005279D01*
X004288Y005356D02*
X004773Y005356D01*
X004797Y005433D02*
X004288Y005433D01*
X004288Y005511D02*
X004797Y005511D01*
X004797Y005588D02*
X004288Y005588D01*
X004288Y005665D02*
X004797Y005665D01*
X004797Y005742D02*
X004288Y005742D01*
X004288Y005820D02*
X004797Y005820D01*
X004797Y005897D02*
X004288Y005897D01*
X004288Y005974D02*
X004797Y005974D01*
X004797Y006051D02*
X004262Y006051D01*
X004185Y006129D02*
X004797Y006129D01*
X004797Y006206D02*
X004107Y006206D01*
X004030Y006283D02*
X004797Y006283D01*
X004797Y006360D02*
X003953Y006360D01*
X003876Y006437D02*
X004797Y006437D01*
X004797Y006515D02*
X003798Y006515D01*
X003721Y006592D02*
X004797Y006592D01*
X004797Y006669D02*
X003644Y006669D01*
X003567Y006746D02*
X004797Y006746D01*
X004797Y006824D02*
X003489Y006824D01*
X003412Y006901D02*
X004797Y006901D01*
X004797Y006978D02*
X003344Y006978D01*
X003344Y007055D02*
X004797Y007055D01*
X004797Y007133D02*
X003344Y007133D01*
X003344Y007210D02*
X004797Y007210D01*
X004797Y007287D02*
X003344Y007287D01*
X003344Y007364D02*
X004797Y007364D01*
X004853Y007442D02*
X003344Y007442D01*
X003344Y007519D02*
X004930Y007519D01*
X005007Y007596D02*
X003344Y007596D01*
X003344Y007673D02*
X005085Y007673D01*
X005162Y007751D02*
X003368Y007751D01*
X003615Y007828D02*
X005239Y007828D01*
X005316Y007905D02*
X003638Y007905D01*
X003641Y007982D02*
X005394Y007982D01*
X005471Y008060D02*
X005172Y008060D01*
X005151Y008038D02*
X005289Y008176D01*
X005289Y008371D01*
X005151Y008508D01*
X004957Y008508D01*
X004819Y008371D01*
X004819Y008176D01*
X004957Y008038D01*
X005151Y008038D01*
X005250Y008137D02*
X005548Y008137D01*
X005625Y008017D02*
X004936Y007328D01*
X004936Y005317D01*
X005011Y005242D01*
X005042Y005273D01*
X005432Y005273D01*
X005432Y005265D01*
X005456Y005242D01*
X005251Y005433D02*
X005215Y005433D01*
X005233Y005416D02*
X005190Y005459D01*
X005075Y005459D01*
X005075Y007271D01*
X005682Y007879D01*
X005863Y007879D01*
X005803Y007819D01*
X005803Y007625D01*
X005941Y007487D01*
X006135Y007487D01*
X006273Y007625D01*
X006273Y007677D01*
X006844Y007677D01*
X006844Y007564D01*
X006883Y007525D01*
X006844Y007487D01*
X006844Y007373D01*
X006785Y007373D01*
X006785Y007465D01*
X006647Y007603D01*
X006453Y007603D01*
X006315Y007465D01*
X006315Y007270D01*
X006409Y007176D01*
X005684Y007176D01*
X005600Y007092D01*
X005598Y007091D01*
X005468Y007091D01*
X005331Y006953D01*
X005331Y006759D01*
X005468Y006621D01*
X005663Y006621D01*
X005801Y006759D01*
X005801Y006888D01*
X005802Y006890D01*
X006368Y006890D01*
X006144Y006666D01*
X006008Y006666D01*
X005870Y006528D01*
X005870Y006333D01*
X006008Y006196D01*
X006118Y006196D01*
X006118Y006105D01*
X006256Y005967D01*
X006450Y005967D01*
X006431Y005949D01*
X006295Y005949D01*
X006158Y005811D01*
X006158Y005617D01*
X006295Y005479D01*
X006490Y005479D01*
X006512Y005501D01*
X006512Y005420D01*
X006650Y005282D01*
X006844Y005282D01*
X006883Y005321D01*
X006883Y005222D01*
X007121Y005222D01*
X007121Y005480D01*
X007004Y005480D01*
X006982Y005474D01*
X006982Y005615D01*
X006925Y005671D01*
X006925Y005908D01*
X006929Y005904D01*
X007294Y005904D01*
X007290Y005890D01*
X007290Y005714D01*
X007290Y005538D01*
X007303Y005491D01*
X007316Y005468D01*
X007312Y005470D01*
X007277Y005480D01*
X007160Y005480D01*
X007160Y005222D01*
X007121Y005222D01*
X007121Y005183D01*
X006883Y005183D01*
X006883Y005046D01*
X006893Y005011D01*
X006911Y004979D01*
X006937Y004953D01*
X006969Y004935D01*
X007004Y004925D01*
X007121Y004925D01*
X007121Y005183D01*
X007160Y005183D01*
X007160Y004925D01*
X007277Y004925D01*
X007312Y004935D01*
X007344Y004953D01*
X007366Y004974D01*
X007375Y004965D01*
X007694Y004965D01*
X007752Y005023D01*
X007752Y005046D01*
X007791Y005007D01*
X007986Y005007D01*
X008124Y005144D01*
X008124Y005235D01*
X008209Y005320D01*
X008209Y005386D01*
X008238Y005378D01*
X008262Y005378D01*
X008262Y005714D01*
X008262Y005714D01*
X008262Y006050D01*
X008238Y006050D01*
X008191Y006038D01*
X008149Y006014D01*
X008136Y006000D01*
X008125Y006010D01*
X008006Y006010D01*
X007967Y005972D01*
X007929Y006010D01*
X007809Y006010D01*
X007770Y005972D01*
X007732Y006010D01*
X007612Y006010D01*
X007602Y006000D01*
X007588Y006014D01*
X007581Y006018D01*
X007615Y006052D01*
X007697Y006133D01*
X007697Y008547D01*
X007497Y008747D01*
X007468Y008747D01*
X007477Y008780D01*
X007477Y008805D01*
X007477Y008829D01*
X007464Y008876D01*
X007440Y008918D01*
X007427Y008931D01*
X007437Y008942D01*
X007437Y009040D01*
X007535Y009040D01*
X007573Y009079D01*
X007612Y009040D01*
X007732Y009040D01*
X007770Y009079D01*
X007809Y009040D01*
X007929Y009040D01*
X007967Y009079D01*
X008006Y009040D01*
X008125Y009040D01*
X008164Y009079D01*
X008203Y009040D01*
X008322Y009040D01*
X008361Y009079D01*
X008399Y009040D01*
X008519Y009040D01*
X008558Y009079D01*
X008596Y009040D01*
X008716Y009040D01*
X008755Y009079D01*
X008793Y009040D01*
X008913Y009040D01*
X008952Y009079D01*
X008990Y009040D01*
X009110Y009040D01*
X009148Y009079D01*
X009187Y009040D01*
X009307Y009040D01*
X009345Y009079D01*
X009384Y009040D01*
X009504Y009040D01*
X009542Y009079D01*
X009581Y009040D01*
X009701Y009040D01*
X009739Y009079D01*
X009778Y009040D01*
X009898Y009040D01*
X009936Y009079D01*
X009975Y009040D01*
X010094Y009040D01*
X010133Y009079D01*
X010172Y009040D01*
X010291Y009040D01*
X010302Y009050D01*
X010315Y009037D01*
X010357Y009013D01*
X010404Y009000D01*
X010428Y009000D01*
X010428Y009336D01*
X010428Y009336D01*
X010428Y009000D01*
X010453Y009000D01*
X010466Y009004D01*
X010466Y008942D01*
X010505Y008903D01*
X010466Y008865D01*
X010466Y008745D01*
X010505Y008706D01*
X010466Y008668D01*
X010466Y008548D01*
X010505Y008509D01*
X010466Y008471D01*
X010466Y008351D01*
X010505Y008313D01*
X010466Y008274D01*
X010466Y008154D01*
X010505Y008116D01*
X010466Y008077D01*
X010466Y007957D01*
X010505Y007919D01*
X010466Y007880D01*
X010466Y007761D01*
X010505Y007722D01*
X010466Y007684D01*
X010466Y007564D01*
X010505Y007525D01*
X010466Y007487D01*
X010466Y007367D01*
X010505Y007328D01*
X010466Y007290D01*
X010466Y007170D01*
X010505Y007131D01*
X010466Y007093D01*
X010466Y006973D01*
X010505Y006935D01*
X010466Y006896D01*
X010466Y006776D01*
X010505Y006738D01*
X010466Y006699D01*
X010466Y006579D01*
X010505Y006541D01*
X010466Y006502D01*
X010466Y006383D01*
X010505Y006344D01*
X010466Y006306D01*
X010466Y006186D01*
X010505Y006147D01*
X010466Y006109D01*
X010466Y006010D01*
X010368Y006010D01*
X010330Y005972D01*
X010291Y006010D01*
X010172Y006010D01*
X010161Y006000D01*
X010148Y006014D01*
X010106Y006038D01*
X010059Y006050D01*
X010035Y006050D01*
X010035Y005714D01*
X010035Y005378D01*
X010059Y005378D01*
X010087Y005385D01*
X010087Y005349D01*
X009981Y005243D01*
X009981Y005386D01*
X010010Y005378D01*
X010035Y005378D01*
X010035Y005714D01*
X010035Y005714D01*
X010035Y005714D01*
X010035Y006050D01*
X010010Y006050D01*
X009963Y006038D01*
X009921Y006014D01*
X009908Y006000D01*
X009898Y006010D01*
X009778Y006010D01*
X009739Y005972D01*
X009701Y006010D01*
X009581Y006010D01*
X009571Y006000D01*
X009557Y006014D01*
X009515Y006038D01*
X009468Y006050D01*
X009444Y006050D01*
X009444Y005714D01*
X009444Y005714D01*
X009444Y006050D01*
X009420Y006050D01*
X009373Y006038D01*
X009330Y006014D01*
X009317Y006000D01*
X009307Y006010D01*
X009187Y006010D01*
X009148Y005972D01*
X009110Y006010D01*
X008990Y006010D01*
X008980Y006000D01*
X008967Y006014D01*
X008924Y006038D01*
X008877Y006050D01*
X008853Y006050D01*
X008829Y006050D01*
X008782Y006038D01*
X008740Y006014D01*
X008726Y006000D01*
X008716Y006010D01*
X008596Y006010D01*
X008558Y005972D01*
X008519Y006010D01*
X008399Y006010D01*
X008389Y006000D01*
X008376Y006014D01*
X008334Y006038D01*
X008287Y006050D01*
X008262Y006050D01*
X008262Y005714D01*
X008262Y005714D01*
X008262Y005378D01*
X008287Y005378D01*
X008297Y005381D01*
X008297Y005301D01*
X007947Y004952D01*
X007514Y004952D01*
X006785Y004222D01*
X006785Y004355D01*
X006647Y004492D01*
X006453Y004492D01*
X006374Y004414D01*
X006374Y004454D01*
X006038Y004454D01*
X006038Y004197D01*
X006253Y004197D01*
X006289Y004206D01*
X006315Y004222D01*
X006315Y004160D01*
X006392Y004084D01*
X006392Y003997D01*
X006382Y003988D01*
X006382Y003354D01*
X006440Y003296D01*
X006584Y003296D01*
X006584Y003088D01*
X006551Y003056D01*
X006551Y002861D01*
X006689Y002723D01*
X006884Y002723D01*
X007021Y002861D01*
X007021Y003056D01*
X006884Y003193D01*
X006870Y003193D01*
X006870Y003296D01*
X006974Y003296D01*
X006986Y003284D01*
X007018Y003265D01*
X007053Y003256D01*
X007121Y003256D01*
X007188Y003256D01*
X007224Y003265D01*
X007256Y003284D01*
X007268Y003296D01*
X007347Y003296D01*
X007323Y003272D01*
X007319Y003272D01*
X007181Y003134D01*
X007181Y002940D01*
X007319Y002802D01*
X007513Y002802D01*
X007651Y002940D01*
X007651Y003134D01*
X007620Y003165D01*
X007662Y003206D01*
X007662Y003296D01*
X007761Y003296D01*
X007773Y003284D01*
X007805Y003265D01*
X007841Y003256D01*
X007908Y003256D01*
X007908Y003671D01*
X007908Y004086D01*
X007852Y004086D01*
X007927Y004160D01*
X007927Y004290D01*
X008794Y005158D01*
X008794Y004810D01*
X008721Y004810D01*
X008663Y004751D01*
X008663Y004433D01*
X008673Y004424D01*
X008651Y004402D01*
X008633Y004370D01*
X008623Y004335D01*
X008623Y004218D01*
X008881Y004218D01*
X008881Y004179D01*
X008920Y004179D01*
X008920Y004218D01*
X009178Y004218D01*
X009178Y004238D01*
X009377Y004238D01*
X009377Y004198D01*
X009416Y004198D01*
X009416Y003961D01*
X009553Y003961D01*
X009588Y003970D01*
X009620Y003988D01*
X009646Y004014D01*
X009664Y004046D01*
X009674Y004082D01*
X009674Y004198D01*
X009416Y004198D01*
X009416Y004238D01*
X009674Y004238D01*
X009674Y004355D01*
X009664Y004390D01*
X009646Y004422D01*
X009624Y004443D01*
X009634Y004453D01*
X009634Y004710D01*
X009660Y004737D01*
X009660Y004764D01*
X009911Y004513D01*
X009911Y004238D01*
X009937Y004211D01*
X009937Y004081D01*
X010075Y003944D01*
X010269Y003944D01*
X010407Y004081D01*
X010407Y004276D01*
X010385Y004298D01*
X010506Y004298D01*
X010643Y004436D01*
X010643Y004630D01*
X010620Y004654D01*
X010676Y004710D01*
X010508Y004878D01*
X010536Y004906D01*
X010704Y004738D01*
X010801Y004834D01*
X010819Y004866D01*
X010828Y004901D01*
X010828Y004938D01*
X010819Y004973D01*
X010801Y005005D01*
X010799Y005007D01*
X010860Y005007D01*
X010998Y005144D01*
X010998Y005322D01*
X011135Y005322D01*
X011249Y005436D01*
X011249Y005143D01*
X011354Y005038D01*
X011354Y004908D01*
X011492Y004771D01*
X011687Y004771D01*
X011824Y004908D01*
X011824Y005103D01*
X011687Y005240D01*
X011557Y005240D01*
X011536Y005262D01*
X011536Y005970D01*
X011452Y006054D01*
X011314Y006192D01*
X011059Y006192D01*
X011059Y006299D01*
X011826Y006299D01*
X012082Y006555D01*
X013341Y006555D01*
X013769Y006127D01*
X013769Y006109D01*
X013753Y006109D01*
X013695Y006051D01*
X011455Y006051D01*
X011532Y005974D02*
X013695Y005974D01*
X013695Y006051D02*
X013695Y005693D01*
X013753Y005634D01*
X013769Y005634D01*
X013769Y005537D01*
X014005Y005301D01*
X014005Y005164D01*
X013706Y005164D01*
X013647Y005106D01*
X013647Y004854D01*
X013542Y004854D01*
X013542Y004616D01*
X013503Y004616D01*
X013503Y004854D01*
X013386Y004854D01*
X013351Y004844D01*
X013319Y004826D01*
X013297Y004804D01*
X013288Y004814D01*
X013022Y004814D01*
X012873Y004962D01*
X012901Y004990D01*
X012873Y005018D01*
X012845Y004990D01*
X012677Y005158D01*
X012595Y005076D01*
X012576Y005044D01*
X012567Y005008D01*
X012567Y004978D01*
X012554Y004978D01*
X012539Y004964D01*
X012362Y005140D01*
X012362Y005210D01*
X012454Y005302D01*
X012454Y005497D01*
X012317Y005634D01*
X012122Y005634D01*
X011984Y005497D01*
X011984Y005302D01*
X012076Y005210D01*
X012076Y005104D01*
X012081Y005099D01*
X012081Y005030D01*
X012343Y004767D01*
X012328Y004753D01*
X012328Y004670D01*
X012452Y004547D01*
X012452Y004390D01*
X012435Y004373D01*
X012435Y004339D01*
X012339Y004339D01*
X012195Y004195D01*
X012060Y004195D01*
X012002Y004137D01*
X012002Y004007D01*
X011868Y004007D01*
X011942Y004081D01*
X011942Y004276D01*
X011805Y004414D01*
X011610Y004414D01*
X011473Y004276D01*
X011473Y004081D01*
X011547Y004007D01*
X011176Y004007D01*
X011092Y003923D01*
X010860Y003691D01*
X010860Y003030D01*
X010706Y003030D01*
X010647Y002972D01*
X010647Y002597D01*
X010499Y002597D01*
X010484Y002582D01*
X010369Y002582D01*
X010269Y002681D01*
X010075Y002681D01*
X009937Y002544D01*
X009937Y002349D01*
X009999Y002288D01*
X009878Y002288D01*
X009760Y002169D01*
X009760Y002905D01*
X009701Y002963D01*
X008989Y002963D01*
X008931Y002905D01*
X008931Y001956D01*
X008989Y001898D01*
X009701Y001898D01*
X009749Y001946D01*
X009878Y001818D01*
X010038Y001818D01*
X009976Y001756D01*
X009976Y001562D01*
X010114Y001424D01*
X010309Y001424D01*
X010446Y001562D01*
X010446Y001756D01*
X010420Y001783D01*
X010523Y001886D01*
X010647Y001886D01*
X010647Y001512D01*
X010706Y001453D01*
X011057Y001453D01*
X011057Y001360D01*
X011119Y001297D01*
X009731Y001297D01*
X009731Y001383D01*
X009621Y001494D01*
X010044Y001494D01*
X009976Y001571D02*
X006470Y001571D01*
X006470Y001562D02*
X006470Y001756D01*
X006332Y001894D01*
X006138Y001894D01*
X006045Y001802D01*
X005310Y001802D01*
X005073Y001802D01*
X004990Y001718D01*
X004837Y001566D01*
X004415Y001566D01*
X004523Y001673D01*
X004606Y001757D01*
X004606Y002388D01*
X004344Y002650D01*
X004344Y002780D01*
X004206Y002918D01*
X004012Y002918D01*
X003874Y002780D01*
X003874Y002585D01*
X003987Y002472D01*
X003879Y002472D01*
X003745Y002417D01*
X003706Y002378D01*
X003706Y002405D01*
X003667Y002498D01*
X003961Y002498D01*
X003884Y002575D02*
X003582Y002575D01*
X003572Y002579D02*
X003446Y002705D01*
X003446Y002835D01*
X003309Y002973D01*
X003114Y002973D01*
X002976Y002835D01*
X002976Y002640D01*
X003013Y002604D01*
X003002Y002608D01*
X002901Y002608D01*
X002807Y002570D01*
X002736Y002498D01*
X002723Y002467D01*
X002712Y002493D01*
X002680Y002542D01*
X002639Y002583D01*
X002591Y002615D01*
X002537Y002637D01*
X002490Y002646D01*
X002490Y002392D01*
X002413Y002392D01*
X002413Y002646D01*
X002366Y002637D01*
X002312Y002615D01*
X002304Y002609D01*
X002260Y002714D01*
X002158Y002817D01*
X002024Y002872D01*
X001879Y002872D01*
X001745Y002817D01*
X001643Y002714D01*
X001587Y002580D01*
X001587Y002435D01*
X001643Y002301D01*
X001745Y002199D01*
X001879Y002144D01*
X002024Y002144D01*
X002158Y002199D01*
X002186Y002227D01*
X002191Y002214D01*
X002223Y002166D01*
X002264Y002125D01*
X002312Y002093D01*
X002338Y002082D01*
X002307Y002070D01*
X002236Y001998D01*
X002219Y001956D01*
X002158Y002017D01*
X002024Y002072D01*
X001879Y002072D01*
X001745Y002017D01*
X001643Y001914D01*
X001587Y001780D01*
X001587Y001635D01*
X001587Y001649D02*
X001316Y001649D01*
X001260Y001726D02*
X001587Y001726D01*
X001597Y001803D02*
X001204Y001803D01*
X001165Y001880D02*
X001629Y001880D01*
X001686Y001958D02*
X001140Y001958D01*
X001114Y002035D02*
X001789Y002035D01*
X001769Y002189D02*
X001078Y002189D01*
X001072Y002266D02*
X001678Y002266D01*
X001625Y002344D02*
X001070Y002344D01*
X001070Y002421D02*
X001593Y002421D01*
X001587Y002498D02*
X001070Y002498D01*
X001070Y002575D02*
X001587Y002575D01*
X001617Y002653D02*
X001070Y002653D01*
X001070Y002730D02*
X001658Y002730D01*
X001736Y002807D02*
X001070Y002807D01*
X001070Y002884D02*
X003026Y002884D01*
X002976Y002807D02*
X002168Y002807D01*
X002245Y002730D02*
X002976Y002730D01*
X002976Y002653D02*
X002286Y002653D01*
X002413Y002575D02*
X002490Y002575D01*
X002490Y002498D02*
X002413Y002498D01*
X002413Y002421D02*
X002490Y002421D01*
X002646Y002575D02*
X002822Y002575D01*
X002736Y002498D02*
X002709Y002498D01*
X002284Y002112D02*
X001089Y002112D01*
X001596Y001417D02*
X001727Y001417D01*
X001814Y001340D02*
X003124Y001340D01*
X003047Y001417D02*
X002176Y001417D01*
X002253Y001494D02*
X002969Y001494D01*
X002892Y001571D02*
X002289Y001571D01*
X002606Y001649D02*
X002797Y001649D01*
X002729Y001726D02*
X002674Y001726D01*
X002273Y002035D02*
X002115Y002035D01*
X002217Y001958D02*
X002219Y001958D01*
X002208Y002189D02*
X002134Y002189D01*
X003103Y002962D02*
X001070Y002962D01*
X001070Y003039D02*
X005776Y003039D01*
X005772Y003043D02*
X005847Y002967D01*
X005946Y002927D01*
X006052Y002927D01*
X006151Y002967D01*
X006226Y003043D01*
X006267Y003141D01*
X006267Y003248D01*
X006226Y003346D01*
X006178Y003394D01*
X006178Y003528D01*
X006276Y003528D01*
X006334Y003586D01*
X006334Y003984D01*
X006276Y004042D01*
X005996Y004042D01*
X005988Y004049D01*
X005229Y004049D01*
X005171Y003991D01*
X005171Y003749D01*
X005229Y003690D01*
X005663Y003690D01*
X005663Y003586D01*
X005721Y003528D01*
X005819Y003528D01*
X005819Y003394D01*
X005772Y003346D01*
X005731Y003248D01*
X005731Y003141D01*
X005772Y003043D01*
X005741Y003116D02*
X004056Y003116D01*
X004021Y003082D02*
X004159Y003219D01*
X004159Y003414D01*
X004021Y003551D01*
X004011Y003551D01*
X004013Y003553D01*
X004249Y003789D01*
X004249Y003789D01*
X004391Y003931D01*
X004391Y003870D01*
X004710Y003870D01*
X004710Y003869D01*
X004711Y003869D01*
X004711Y003650D01*
X004909Y003650D01*
X004944Y003660D01*
X004976Y003678D01*
X005002Y003704D01*
X005020Y003736D01*
X005030Y003771D01*
X005030Y003869D01*
X004711Y003869D01*
X004711Y003870D01*
X005030Y003870D01*
X005030Y003968D01*
X005020Y004004D01*
X005002Y004035D01*
X004976Y004061D01*
X004944Y004080D01*
X004909Y004089D01*
X004711Y004089D01*
X004711Y003870D01*
X004710Y003870D01*
X004710Y004089D01*
X004549Y004089D01*
X004660Y004200D01*
X005671Y004200D01*
X005689Y004218D01*
X005709Y004206D01*
X005744Y004197D01*
X005959Y004197D01*
X005959Y004454D01*
X006038Y004454D01*
X006038Y004533D01*
X005959Y004533D01*
X005959Y004791D01*
X005744Y004791D01*
X005733Y004787D01*
X005733Y004828D01*
X005475Y004828D01*
X005475Y004591D01*
X005612Y004591D01*
X005623Y004594D01*
X005623Y004559D01*
X004887Y004559D01*
X004958Y004631D01*
X005190Y004631D01*
X005205Y004646D01*
X005206Y004644D01*
X005232Y004618D01*
X005264Y004600D01*
X005299Y004591D01*
X005436Y004591D01*
X005436Y004828D01*
X005475Y004828D01*
X005475Y004868D01*
X005733Y004868D01*
X005733Y004984D01*
X005723Y005020D01*
X005705Y005052D01*
X005683Y005073D01*
X005693Y005082D01*
X005693Y005401D01*
X005634Y005459D01*
X005277Y005459D01*
X005233Y005416D01*
X005075Y005511D02*
X006264Y005511D01*
X006187Y005588D02*
X005075Y005588D01*
X005075Y005665D02*
X006158Y005665D01*
X006158Y005742D02*
X005075Y005742D01*
X005075Y005820D02*
X006166Y005820D01*
X006243Y005897D02*
X005075Y005897D01*
X005075Y005974D02*
X006249Y005974D01*
X006172Y006051D02*
X005075Y006051D01*
X005075Y006129D02*
X006118Y006129D01*
X005998Y006206D02*
X005075Y006206D01*
X005075Y006283D02*
X005921Y006283D01*
X005870Y006360D02*
X005075Y006360D01*
X005075Y006437D02*
X005870Y006437D01*
X005870Y006515D02*
X005075Y006515D01*
X005075Y006592D02*
X005934Y006592D01*
X005788Y006746D02*
X006225Y006746D01*
X006147Y006669D02*
X005711Y006669D01*
X005801Y006824D02*
X006302Y006824D01*
X006511Y006836D02*
X006105Y006431D01*
X006353Y006202D02*
X006790Y006639D01*
X007141Y006639D01*
X007141Y006836D02*
X006511Y006836D01*
X006376Y007210D02*
X005075Y007210D01*
X005075Y007133D02*
X005640Y007133D01*
X005600Y007092D02*
X005600Y007092D01*
X005433Y007055D02*
X005075Y007055D01*
X005075Y006978D02*
X005356Y006978D01*
X005331Y006901D02*
X005075Y006901D01*
X005075Y006824D02*
X005331Y006824D01*
X005343Y006746D02*
X005075Y006746D01*
X005075Y006669D02*
X005420Y006669D01*
X005091Y007287D02*
X006315Y007287D01*
X006315Y007364D02*
X005168Y007364D01*
X005245Y007442D02*
X006315Y007442D01*
X006369Y007519D02*
X006167Y007519D01*
X006244Y007596D02*
X006446Y007596D01*
X006273Y007673D02*
X006844Y007673D01*
X006844Y007596D02*
X006654Y007596D01*
X006731Y007519D02*
X006876Y007519D01*
X006844Y007442D02*
X006785Y007442D01*
X007141Y008017D02*
X006180Y008017D01*
X005625Y008017D01*
X005631Y007828D02*
X005812Y007828D01*
X005803Y007751D02*
X005554Y007751D01*
X005477Y007673D02*
X005803Y007673D01*
X005832Y007596D02*
X005400Y007596D01*
X005323Y007519D02*
X005909Y007519D01*
X006159Y008214D02*
X005289Y008214D01*
X005289Y008291D02*
X006082Y008291D01*
X006004Y008368D02*
X005289Y008368D01*
X005270Y008446D02*
X005214Y008446D01*
X005192Y008523D02*
X003635Y008523D01*
X003635Y008491D02*
X003635Y008685D01*
X003518Y008803D01*
X003616Y008803D01*
X003651Y008813D01*
X003683Y008831D01*
X003709Y008857D01*
X003727Y008889D01*
X003737Y008924D01*
X003737Y009139D01*
X003479Y009139D01*
X003479Y009218D01*
X003737Y009218D01*
X003737Y009433D01*
X003727Y009469D01*
X003709Y009501D01*
X003683Y009526D01*
X003651Y009545D01*
X003616Y009554D01*
X003479Y009554D01*
X003479Y009218D01*
X003400Y009218D01*
X003400Y009139D01*
X003143Y009139D01*
X003143Y008924D01*
X003152Y008889D01*
X003171Y008857D01*
X003197Y008831D01*
X003228Y008813D01*
X003264Y008803D01*
X003283Y008803D01*
X003165Y008685D01*
X003165Y008491D01*
X003303Y008353D01*
X003498Y008353D01*
X003635Y008491D01*
X003590Y008446D02*
X004894Y008446D01*
X004819Y008368D02*
X003513Y008368D01*
X003479Y008326D02*
X003479Y008132D01*
X003479Y008132D01*
X003678Y008132D01*
X003678Y008205D01*
X003668Y008240D01*
X003650Y008272D01*
X003624Y008298D01*
X003592Y008316D01*
X003557Y008326D01*
X003479Y008326D01*
X003479Y008291D02*
X003479Y008291D01*
X003479Y008214D02*
X003479Y008214D01*
X003479Y008137D02*
X003479Y008137D01*
X003678Y008137D02*
X004858Y008137D01*
X004819Y008214D02*
X003675Y008214D01*
X003631Y008291D02*
X004819Y008291D01*
X004935Y008060D02*
X003678Y008060D01*
X003328Y008291D02*
X002910Y008291D01*
X002910Y008214D02*
X003048Y008214D01*
X002971Y008137D02*
X002910Y008137D01*
X002910Y008060D02*
X002969Y008060D01*
X002969Y007982D02*
X002910Y007982D01*
X002910Y007905D02*
X003003Y007905D01*
X002552Y007982D02*
X002023Y007982D01*
X002023Y007905D02*
X002523Y007905D01*
X002552Y008060D02*
X002023Y008060D01*
X002023Y008125D02*
X001965Y008184D01*
X001135Y008184D01*
X001077Y008125D01*
X001077Y007295D01*
X001135Y007237D01*
X001965Y007237D01*
X002023Y007295D01*
X002023Y008125D01*
X002012Y008137D02*
X002063Y008137D01*
X001986Y008214D02*
X001070Y008214D01*
X001070Y008291D02*
X001984Y008291D01*
X002063Y008523D02*
X002097Y008523D01*
X002063Y008600D02*
X002552Y008600D01*
X002552Y008523D02*
X002341Y008523D01*
X002418Y008446D02*
X002552Y008446D01*
X002552Y008368D02*
X002454Y008368D01*
X002454Y008291D02*
X002552Y008291D01*
X002552Y008214D02*
X002453Y008214D01*
X002376Y008137D02*
X002552Y008137D01*
X002910Y008368D02*
X003288Y008368D01*
X003211Y008446D02*
X002910Y008446D01*
X002910Y008523D02*
X003165Y008523D01*
X003165Y008600D02*
X002910Y008600D01*
X002910Y008677D02*
X003165Y008677D01*
X003235Y008755D02*
X002910Y008755D01*
X002910Y008832D02*
X003196Y008832D01*
X003147Y008909D02*
X002988Y008909D01*
X002988Y008986D02*
X003143Y008986D01*
X003143Y009064D02*
X002988Y009064D01*
X002988Y009141D02*
X003400Y009141D01*
X003400Y009218D02*
X003143Y009218D01*
X003143Y009433D01*
X003152Y009469D01*
X003171Y009501D01*
X003197Y009526D01*
X003228Y009545D01*
X003264Y009554D01*
X003400Y009554D01*
X003400Y009218D01*
X003479Y009218D01*
X003479Y009141D02*
X003927Y009141D01*
X003927Y009218D02*
X003737Y009218D01*
X003737Y009295D02*
X003927Y009295D01*
X003959Y009373D02*
X003737Y009373D01*
X003732Y009450D02*
X003967Y009450D01*
X003967Y009527D02*
X003682Y009527D01*
X003479Y009527D02*
X003400Y009527D01*
X003400Y009450D02*
X003479Y009450D01*
X003479Y009373D02*
X003400Y009373D01*
X003400Y009295D02*
X003479Y009295D01*
X003143Y009295D02*
X002988Y009295D01*
X002988Y009218D02*
X003143Y009218D01*
X003143Y009373D02*
X002988Y009373D01*
X002988Y009450D02*
X003147Y009450D01*
X003198Y009527D02*
X002975Y009527D01*
X002975Y009604D02*
X003967Y009604D01*
X003967Y009682D02*
X002639Y009682D01*
X002639Y009759D02*
X002560Y009759D01*
X002560Y009703D02*
X002560Y009961D01*
X002345Y009961D01*
X002309Y009951D01*
X002277Y009933D01*
X002251Y009907D01*
X002233Y009875D01*
X002224Y009840D01*
X002224Y009703D01*
X002560Y009703D01*
X002560Y009682D02*
X001879Y009682D01*
X001853Y009759D02*
X002224Y009759D01*
X002224Y009836D02*
X001801Y009836D01*
X001770Y009913D02*
X002258Y009913D01*
X002292Y010145D02*
X001846Y010145D01*
X001846Y010068D02*
X003303Y010068D01*
X003303Y009991D02*
X003343Y009991D01*
X003343Y009913D02*
X003303Y009913D01*
X003303Y009836D02*
X003343Y009836D01*
X003506Y009836D02*
X003517Y009836D01*
X003517Y009759D02*
X002975Y009759D01*
X002975Y009836D02*
X003140Y009836D01*
X003056Y009913D02*
X002941Y009913D01*
X003046Y009991D02*
X001820Y009991D01*
X001863Y010222D02*
X002264Y010222D01*
X002264Y010516D02*
X002047Y010516D01*
X002047Y011009D01*
X002160Y011122D01*
X002378Y011122D01*
X002378Y011070D01*
X002387Y011060D01*
X002366Y011039D01*
X002347Y011007D01*
X002338Y010972D01*
X002338Y010855D01*
X002595Y010855D01*
X002595Y010816D01*
X002338Y010816D01*
X002338Y010699D01*
X002347Y010663D01*
X002366Y010632D01*
X002368Y010629D01*
X002322Y010629D01*
X002264Y010571D01*
X002264Y010516D01*
X002264Y010531D02*
X002047Y010531D01*
X002047Y010608D02*
X002301Y010608D01*
X002341Y010686D02*
X002047Y010686D01*
X002047Y010763D02*
X002338Y010763D01*
X002338Y010917D02*
X002047Y010917D01*
X002047Y010840D02*
X002595Y010840D01*
X002635Y010840D02*
X002910Y010840D01*
X002910Y010763D02*
X002892Y010763D01*
X002889Y010686D02*
X002931Y010686D01*
X002898Y010608D02*
X003086Y010608D01*
X003086Y010531D02*
X002935Y010531D01*
X002935Y010454D02*
X003086Y010454D01*
X003086Y010377D02*
X002935Y010377D01*
X002935Y010299D02*
X003083Y010299D01*
X003046Y010222D02*
X002935Y010222D01*
X002906Y010145D02*
X003046Y010145D01*
X003323Y010480D02*
X003730Y010480D01*
X003774Y010524D01*
X003517Y010682D02*
X003502Y010697D01*
X003451Y010697D01*
X003455Y010705D01*
X003464Y010740D01*
X003464Y010857D01*
X003207Y010857D01*
X003207Y010896D01*
X003464Y010896D01*
X003464Y011013D01*
X003455Y011049D01*
X003437Y011080D01*
X003415Y011102D01*
X003424Y011111D01*
X003424Y011126D01*
X003559Y011126D01*
X003559Y011050D01*
X003697Y010912D01*
X003751Y010912D01*
X003715Y010877D01*
X003639Y010801D01*
X003576Y010801D01*
X003517Y010742D01*
X003517Y010682D01*
X003517Y010686D02*
X003514Y010686D01*
X003538Y010763D02*
X003464Y010763D01*
X003464Y010840D02*
X003678Y010840D01*
X003692Y010917D02*
X003464Y010917D01*
X003464Y010995D02*
X003614Y010995D01*
X003559Y011072D02*
X003442Y011072D01*
X003193Y011265D02*
X003187Y011270D01*
X003193Y011265D02*
X003991Y011265D01*
X003873Y011147D01*
X003794Y011147D01*
X003991Y011265D02*
X004322Y011265D01*
X004317Y011270D01*
X004322Y011265D02*
X004322Y011422D01*
X004322Y011580D02*
X003990Y011580D01*
X003873Y011777D02*
X003599Y011777D01*
X003597Y011775D01*
X003873Y011777D02*
X003990Y011895D01*
X004322Y011895D01*
X004322Y012052D02*
X003873Y012052D01*
X003833Y012092D01*
X003599Y012092D01*
X003597Y012094D01*
X003400Y012094D02*
X003400Y012328D01*
X003400Y012407D01*
X003282Y012525D01*
X002967Y012525D01*
X002974Y012532D01*
X002974Y012548D01*
X002967Y012525D02*
X002883Y012525D01*
X002737Y012539D02*
X002381Y012539D01*
X002381Y012462D02*
X002737Y012462D01*
X002737Y012389D02*
X002754Y012372D01*
X002381Y012372D01*
X002381Y014213D01*
X002332Y014262D01*
X001148Y014262D01*
X001178Y014353D01*
X001361Y014604D01*
X001612Y014787D01*
X001907Y014883D01*
X002062Y014895D01*
X011796Y014895D01*
X011769Y014868D01*
X011648Y014747D01*
X011473Y014747D01*
X011415Y014688D01*
X011415Y014397D01*
X011386Y014397D01*
X011386Y014413D01*
X011327Y014471D01*
X011009Y014471D01*
X010951Y014413D01*
X010951Y014094D01*
X010988Y014057D01*
X010951Y014019D01*
X010951Y013701D01*
X011009Y013642D01*
X011013Y013642D01*
X011013Y013253D01*
X011210Y013056D01*
X011210Y012701D01*
X011179Y012733D01*
X010984Y012733D01*
X010970Y012719D01*
X010970Y013080D01*
X011186Y013080D01*
X011210Y013003D02*
X010970Y013003D01*
X010970Y013080D02*
X010912Y013138D01*
X010692Y013138D01*
X010634Y013080D01*
X010316Y013080D01*
X010381Y013015D02*
X010102Y013294D01*
X010102Y013517D01*
X010210Y013517D01*
X010323Y013564D01*
X010409Y013650D01*
X010456Y013763D01*
X010456Y013886D01*
X010409Y013999D01*
X010323Y014085D01*
X010210Y014132D01*
X010142Y014132D01*
X010142Y014415D01*
X010142Y014729D01*
X010133Y014764D01*
X010114Y014796D01*
X010088Y014822D01*
X010057Y014840D01*
X010021Y014850D01*
X009963Y014850D01*
X009906Y014850D01*
X009885Y014844D01*
X009864Y014850D01*
X009806Y014850D01*
X009806Y014784D01*
X009806Y014784D01*
X009806Y014784D01*
X009806Y014850D01*
X009748Y014850D01*
X009727Y014844D01*
X009706Y014850D01*
X009648Y014850D01*
X009591Y014850D01*
X009570Y014844D01*
X009549Y014850D01*
X009491Y014850D01*
X009491Y014784D01*
X009491Y014784D01*
X009491Y014784D01*
X009491Y014850D01*
X009433Y014850D01*
X009412Y014844D01*
X009391Y014850D01*
X009333Y014850D01*
X009276Y014850D01*
X009255Y014844D01*
X009234Y014850D01*
X009176Y014850D01*
X009118Y014850D01*
X009097Y014844D01*
X009076Y014850D01*
X009019Y014850D01*
X009019Y014784D01*
X009018Y014784D01*
X009019Y014784D02*
X009019Y014784D01*
X009018Y014784D02*
X009018Y014850D01*
X008961Y014850D01*
X008940Y014844D01*
X008919Y014850D01*
X008861Y014850D01*
X008803Y014850D01*
X008782Y014844D01*
X008761Y014850D01*
X008704Y014850D01*
X008704Y014784D01*
X008704Y014784D01*
X008704Y014784D01*
X008704Y014850D01*
X008646Y014850D01*
X008625Y014844D01*
X008604Y014850D01*
X008546Y014850D01*
X008488Y014850D01*
X008467Y014844D01*
X008446Y014850D01*
X008389Y014850D01*
X008389Y014784D01*
X008389Y014784D01*
X008389Y014784D01*
X008389Y014850D01*
X008331Y014850D01*
X008310Y014844D01*
X008289Y014850D01*
X008231Y014850D01*
X008173Y014850D01*
X008152Y014844D01*
X008131Y014850D01*
X008074Y014850D01*
X008074Y014784D01*
X008074Y014784D01*
X008074Y014784D01*
X008074Y014850D01*
X008016Y014850D01*
X007995Y014844D01*
X007974Y014850D01*
X007916Y014850D01*
X007858Y014850D01*
X007837Y014844D01*
X007816Y014850D01*
X007759Y014850D01*
X007759Y014784D01*
X007759Y014850D01*
X007701Y014850D01*
X007665Y014840D01*
X007634Y014822D01*
X007608Y014796D01*
X007589Y014764D01*
X007580Y014729D01*
X007580Y014415D01*
X007759Y014415D01*
X007916Y014415D01*
X007916Y014415D01*
X007759Y014415D01*
X007759Y014415D01*
X007759Y014415D01*
X007580Y014415D01*
X007580Y014132D01*
X007512Y014132D01*
X007399Y014085D01*
X007313Y013999D01*
X007266Y013886D01*
X007266Y013763D01*
X007313Y013650D01*
X007399Y013564D01*
X007512Y013517D01*
X007620Y013517D01*
X007620Y013294D01*
X007612Y013285D01*
X007612Y012332D01*
X007549Y012269D01*
X007549Y011650D01*
X007284Y011915D01*
X007284Y012250D01*
X007106Y012427D01*
X007023Y012511D01*
X006942Y012511D01*
X006942Y012582D01*
X006921Y012603D01*
X006942Y012624D01*
X006942Y012740D01*
X006921Y012761D01*
X006942Y012782D01*
X006942Y012897D01*
X006921Y012918D01*
X006942Y012939D01*
X006942Y012957D01*
X007043Y013058D01*
X007043Y013119D01*
X007139Y013215D01*
X007139Y013410D01*
X007002Y013548D01*
X006807Y013548D01*
X006669Y013410D01*
X006669Y013215D01*
X006739Y013146D01*
X006729Y013136D01*
X006540Y013136D01*
X006549Y013171D01*
X006549Y013312D01*
X006370Y013312D01*
X006370Y013312D01*
X006549Y013312D01*
X006549Y013453D01*
X006537Y013499D01*
X006513Y013540D01*
X006480Y013573D01*
X006439Y013597D01*
X006393Y013609D01*
X006370Y013609D01*
X006370Y013312D01*
X006370Y013312D01*
X006370Y012997D01*
X005504Y012131D01*
X005487Y012114D01*
X005487Y011895D01*
X005329Y011737D01*
X004322Y011737D01*
X004322Y011580D01*
X004322Y011580D01*
X004322Y011737D01*
X004322Y011737D01*
X004322Y011690D02*
X004322Y011690D01*
X004322Y011613D02*
X004322Y011613D01*
X004322Y012210D02*
X004031Y012210D01*
X003873Y012368D01*
X003440Y012368D01*
X003400Y012328D01*
X003731Y012745D02*
X003873Y012604D01*
X004110Y012367D01*
X004322Y012367D01*
X004322Y012840D02*
X004070Y012840D01*
X003991Y012919D01*
X003991Y013706D01*
X003912Y013785D01*
X004100Y013930D02*
X004118Y013930D01*
X004109Y013920D02*
X004010Y014020D01*
X003815Y014020D01*
X003677Y013882D01*
X003677Y013688D01*
X003815Y013550D01*
X003852Y013550D01*
X003852Y013049D01*
X003572Y013049D01*
X003563Y013039D01*
X003541Y013061D01*
X003510Y013079D01*
X003474Y013089D01*
X003430Y013089D01*
X003557Y013215D01*
X003557Y013410D01*
X003419Y013548D01*
X003224Y013548D01*
X003087Y013410D01*
X003087Y013215D01*
X003102Y013200D01*
X002993Y013200D01*
X002993Y012962D01*
X002954Y012962D01*
X002954Y013200D01*
X002818Y013200D01*
X002782Y013190D01*
X002750Y013172D01*
X002724Y013146D01*
X002706Y013114D01*
X002697Y013079D01*
X002697Y012962D01*
X002954Y012962D01*
X002954Y012922D01*
X002697Y012922D01*
X002697Y012806D01*
X002706Y012770D01*
X002724Y012738D01*
X002746Y012717D01*
X002737Y012708D01*
X002737Y012389D01*
X002741Y012385D02*
X002381Y012385D01*
X002381Y012617D02*
X002737Y012617D01*
X002737Y012694D02*
X002381Y012694D01*
X002381Y012771D02*
X002706Y012771D01*
X002697Y012848D02*
X002381Y012848D01*
X002381Y012926D02*
X002954Y012926D01*
X002954Y013003D02*
X002993Y013003D01*
X002993Y013080D02*
X002954Y013080D01*
X002954Y013157D02*
X002993Y013157D01*
X003087Y013235D02*
X002381Y013235D01*
X002381Y013312D02*
X003087Y013312D01*
X003087Y013389D02*
X002381Y013389D01*
X002381Y013466D02*
X003143Y013466D01*
X003220Y013544D02*
X002381Y013544D01*
X002381Y013621D02*
X003744Y013621D01*
X003677Y013698D02*
X002381Y013698D01*
X002381Y013775D02*
X003677Y013775D01*
X003677Y013853D02*
X002381Y013853D01*
X002381Y013930D02*
X003725Y013930D01*
X003802Y014007D02*
X002381Y014007D01*
X002381Y014084D02*
X004588Y014084D01*
X004583Y014079D02*
X004583Y013949D01*
X004528Y013895D01*
X004403Y014020D01*
X004209Y014020D01*
X004109Y013920D01*
X004022Y014007D02*
X004196Y014007D01*
X004416Y014007D02*
X004583Y014007D01*
X004583Y014079D02*
X004720Y014217D01*
X004850Y014217D01*
X004910Y014277D01*
X004910Y014339D01*
X004968Y014397D01*
X005287Y014397D01*
X005296Y014388D01*
X005318Y014410D01*
X005350Y014428D01*
X005385Y014437D01*
X005502Y014437D01*
X005502Y014180D01*
X005541Y014180D01*
X005541Y014437D01*
X005658Y014437D01*
X005693Y014428D01*
X005725Y014410D01*
X005751Y014384D01*
X005769Y014352D01*
X005779Y014316D01*
X006512Y014316D01*
X006473Y014276D02*
X006473Y014264D01*
X006446Y014238D01*
X006069Y013861D01*
X006069Y013569D01*
X005997Y013569D01*
X005976Y013548D01*
X005955Y013569D01*
X005840Y013569D01*
X005819Y013548D01*
X005798Y013569D01*
X005725Y013569D01*
X005726Y013570D01*
X005726Y013764D01*
X005607Y013883D01*
X005658Y013883D01*
X005693Y013893D01*
X005725Y013911D01*
X005751Y013937D01*
X005769Y013969D01*
X005779Y014004D01*
X005779Y014141D01*
X005541Y014141D01*
X005541Y014180D01*
X005779Y014180D01*
X005779Y014316D01*
X005779Y014239D02*
X006447Y014239D01*
X006473Y014276D02*
X006610Y014414D01*
X006805Y014414D01*
X006942Y014276D01*
X006942Y014081D01*
X006805Y013944D01*
X006610Y013944D01*
X006583Y013971D01*
X006355Y013742D01*
X006355Y013609D01*
X006370Y013609D01*
X006370Y013312D01*
X006370Y013389D02*
X006370Y013389D01*
X006370Y013466D02*
X006370Y013466D01*
X006370Y013544D02*
X006370Y013544D01*
X006355Y013621D02*
X007342Y013621D01*
X007293Y013698D02*
X006355Y013698D01*
X006388Y013775D02*
X007266Y013775D01*
X007266Y013853D02*
X006466Y013853D01*
X006543Y013930D02*
X007284Y013930D01*
X007321Y014007D02*
X006868Y014007D01*
X006942Y014084D02*
X007399Y014084D01*
X007580Y014162D02*
X006942Y014162D01*
X006942Y014239D02*
X007580Y014239D01*
X007580Y014316D02*
X006902Y014316D01*
X006825Y014393D02*
X007580Y014393D01*
X007580Y014470D02*
X001263Y014470D01*
X001207Y014393D02*
X004964Y014393D01*
X004910Y014316D02*
X001166Y014316D01*
X001319Y014548D02*
X007580Y014548D01*
X007580Y014625D02*
X001389Y014625D01*
X001495Y014702D02*
X007580Y014702D01*
X007598Y014779D02*
X001601Y014779D01*
X001827Y014857D02*
X011758Y014857D01*
X011681Y014779D02*
X010124Y014779D01*
X010142Y014702D02*
X011429Y014702D01*
X011415Y014625D02*
X010142Y014625D01*
X010142Y014548D02*
X011415Y014548D01*
X011415Y014470D02*
X011328Y014470D01*
X011008Y014470D02*
X010142Y014470D01*
X010142Y014415D02*
X009963Y014415D01*
X009963Y014415D01*
X009806Y014415D01*
X009806Y014415D01*
X009963Y014415D01*
X009963Y014415D01*
X010142Y014415D01*
X010142Y014393D02*
X010951Y014393D01*
X010951Y014316D02*
X010142Y014316D01*
X010142Y014239D02*
X010951Y014239D01*
X010951Y014162D02*
X010142Y014162D01*
X010323Y014084D02*
X010961Y014084D01*
X010951Y014007D02*
X010401Y014007D01*
X010438Y013930D02*
X010951Y013930D01*
X010951Y013853D02*
X010456Y013853D01*
X010456Y013775D02*
X010951Y013775D01*
X010953Y013698D02*
X010429Y013698D01*
X010380Y013621D02*
X011013Y013621D01*
X011013Y013544D02*
X010274Y013544D01*
X010102Y013466D02*
X011013Y013466D01*
X011013Y013389D02*
X010102Y013389D01*
X010102Y013312D02*
X011013Y013312D01*
X011032Y013235D02*
X010161Y013235D01*
X010238Y013157D02*
X011109Y013157D01*
X011210Y012926D02*
X010970Y012926D01*
X010970Y012848D02*
X011210Y012848D01*
X011210Y012771D02*
X010970Y012771D01*
X010634Y013015D02*
X010634Y013080D01*
X010634Y013015D02*
X010381Y013015D01*
X009491Y013230D02*
X009333Y013230D01*
X009333Y012655D01*
X009345Y012643D01*
X009019Y012671D02*
X008991Y012643D01*
X009019Y012671D02*
X009019Y013230D01*
X009176Y013230D01*
X008546Y013230D02*
X008389Y013230D01*
X008389Y012317D01*
X008381Y012309D01*
X008074Y012317D02*
X008062Y012305D01*
X008074Y012317D02*
X008074Y013230D01*
X008231Y013230D01*
X007916Y013230D02*
X007759Y013230D01*
X007612Y013235D02*
X007139Y013235D01*
X007139Y013312D02*
X007620Y013312D01*
X007620Y013389D02*
X007139Y013389D01*
X007083Y013466D02*
X007620Y013466D01*
X007448Y013544D02*
X007006Y013544D01*
X006803Y013544D02*
X006509Y013544D01*
X006546Y013466D02*
X006726Y013466D01*
X006669Y013389D02*
X006549Y013389D01*
X006549Y013312D02*
X006669Y013312D01*
X006669Y013235D02*
X006549Y013235D01*
X006545Y013157D02*
X006727Y013157D01*
X006685Y012997D02*
X006786Y012997D01*
X006904Y013116D01*
X006904Y013313D01*
X007081Y013157D02*
X007612Y013157D01*
X007612Y013080D02*
X007043Y013080D01*
X006988Y013003D02*
X007612Y013003D01*
X007612Y012926D02*
X006928Y012926D01*
X006942Y012848D02*
X007612Y012848D01*
X007612Y012771D02*
X006931Y012771D01*
X006942Y012694D02*
X007612Y012694D01*
X007612Y012617D02*
X006934Y012617D01*
X006942Y012539D02*
X007612Y012539D01*
X007612Y012462D02*
X007071Y012462D01*
X007148Y012385D02*
X007612Y012385D01*
X007587Y012308D02*
X007226Y012308D01*
X007284Y012230D02*
X007549Y012230D01*
X007549Y012153D02*
X007284Y012153D01*
X007284Y012076D02*
X007549Y012076D01*
X007549Y011999D02*
X007284Y011999D01*
X007284Y011922D02*
X007549Y011922D01*
X007549Y011844D02*
X007354Y011844D01*
X007432Y011767D02*
X007549Y011767D01*
X007549Y011690D02*
X007509Y011690D01*
X006865Y011226D02*
X006865Y010860D01*
X006845Y010840D01*
X006865Y011226D02*
X006826Y011265D01*
X006685Y011265D01*
X005543Y011226D02*
X005464Y011226D01*
X005464Y011207D02*
X005464Y012092D01*
X005543Y012092D01*
X005543Y011207D01*
X005525Y011207D01*
X005504Y011186D01*
X005483Y011207D01*
X005464Y011207D01*
X005464Y011304D02*
X005543Y011304D01*
X005543Y011381D02*
X005464Y011381D01*
X005464Y011458D02*
X005543Y011458D01*
X005543Y011535D02*
X005464Y011535D01*
X005464Y011613D02*
X005543Y011613D01*
X005543Y011690D02*
X005464Y011690D01*
X005464Y011767D02*
X005543Y011767D01*
X005543Y011844D02*
X005464Y011844D01*
X005464Y011922D02*
X005543Y011922D01*
X005543Y011999D02*
X005464Y011999D01*
X005464Y012076D02*
X005543Y012076D01*
X005726Y013621D02*
X006069Y013621D01*
X006069Y013698D02*
X005726Y013698D01*
X005715Y013775D02*
X006069Y013775D01*
X006069Y013853D02*
X005638Y013853D01*
X005744Y013930D02*
X006138Y013930D01*
X006215Y014007D02*
X005779Y014007D01*
X005779Y014084D02*
X006293Y014084D01*
X006370Y014162D02*
X005541Y014162D01*
X005541Y014239D02*
X005502Y014239D01*
X005502Y014316D02*
X005541Y014316D01*
X005541Y014393D02*
X005502Y014393D01*
X005742Y014393D02*
X006590Y014393D01*
X007759Y014784D02*
X007759Y014784D01*
X007916Y014784D02*
X007916Y014850D01*
X007916Y014784D01*
X007916Y014784D01*
X007916Y014784D01*
X008231Y014784D02*
X008231Y014850D01*
X008231Y014784D01*
X008231Y014784D01*
X008231Y014784D01*
X008546Y014784D02*
X008546Y014850D01*
X008546Y014784D01*
X008546Y014784D01*
X008546Y014784D01*
X008861Y014784D02*
X008861Y014850D01*
X008861Y014784D01*
X008861Y014784D01*
X008861Y014784D01*
X009176Y014784D02*
X009176Y014850D01*
X009176Y014784D01*
X009176Y014784D01*
X009176Y014784D01*
X009333Y014784D02*
X009333Y014850D01*
X009333Y014784D01*
X009333Y014784D01*
X009333Y014784D01*
X009648Y014784D02*
X009648Y014850D01*
X009648Y014784D01*
X009648Y014784D01*
X009648Y014784D01*
X009963Y014784D02*
X009963Y014850D01*
X009963Y014784D01*
X009963Y014784D01*
X009806Y014415D02*
X009648Y014415D01*
X009648Y014415D01*
X009491Y014415D01*
X009491Y014415D01*
X009627Y014415D01*
X009648Y014415D01*
X009648Y014415D01*
X009806Y014415D01*
X009806Y014415D01*
X009491Y014415D02*
X009470Y014415D01*
X009333Y014415D01*
X009312Y014415D01*
X009197Y014415D01*
X009176Y014415D01*
X009333Y014415D01*
X009333Y014415D01*
X009491Y014415D01*
X009491Y014415D01*
X009333Y014415D02*
X009333Y014415D01*
X009176Y014415D02*
X009176Y014415D01*
X009176Y014415D01*
X009019Y014415D01*
X009019Y014415D01*
X009176Y014415D01*
X009018Y014415D02*
X008861Y014415D01*
X008861Y014415D01*
X008704Y014415D01*
X008840Y014415D01*
X008861Y014415D01*
X009018Y014415D01*
X009018Y014415D01*
X008861Y014415D02*
X008861Y014415D01*
X008704Y014415D02*
X008704Y014415D01*
X008682Y014415D01*
X008546Y014415D01*
X008546Y014415D01*
X008525Y014415D01*
X008389Y014415D01*
X008389Y014415D01*
X008546Y014415D01*
X008704Y014415D01*
X008704Y014415D01*
X008546Y014415D02*
X008546Y014415D01*
X008389Y014415D02*
X008231Y014415D01*
X008095Y014415D01*
X008074Y014415D01*
X008074Y014415D01*
X008231Y014415D01*
X008231Y014415D01*
X008367Y014415D01*
X008389Y014415D01*
X008389Y014415D01*
X008231Y014415D02*
X008231Y014415D01*
X008074Y014415D02*
X007937Y014415D01*
X007916Y014415D01*
X007916Y014415D01*
X008074Y014415D01*
X008074Y014415D01*
X005301Y014393D02*
X005291Y014393D01*
X004872Y014239D02*
X002356Y014239D01*
X002381Y014162D02*
X004665Y014162D01*
X004563Y013930D02*
X004493Y013930D01*
X003852Y013544D02*
X003423Y013544D01*
X003500Y013466D02*
X003852Y013466D01*
X003852Y013389D02*
X003557Y013389D01*
X003557Y013312D02*
X003852Y013312D01*
X003852Y013235D02*
X003557Y013235D01*
X003499Y013157D02*
X003852Y013157D01*
X003852Y013080D02*
X003506Y013080D01*
X003514Y012831D02*
X003357Y012831D01*
X003357Y012792D01*
X003514Y012792D01*
X003514Y012831D01*
X003731Y012812D02*
X003731Y012745D01*
X003400Y011775D02*
X003400Y011462D01*
X002978Y011458D02*
X002950Y011430D01*
X002950Y011414D01*
X002827Y011414D01*
X002794Y011446D01*
X002436Y011446D01*
X002398Y011408D01*
X002042Y011408D01*
X001845Y011212D01*
X001834Y011200D01*
X001801Y011280D01*
X001718Y011363D01*
X001609Y011408D01*
X001491Y011408D01*
X001382Y011363D01*
X001299Y011280D01*
X001254Y011171D01*
X001254Y011053D01*
X001299Y010944D01*
X001381Y010862D01*
X001299Y010780D01*
X001254Y010671D01*
X001254Y010553D01*
X001299Y010444D01*
X001381Y010362D01*
X001299Y010280D01*
X001254Y010171D01*
X001254Y010053D01*
X001299Y009944D01*
X001356Y009887D01*
X001336Y009873D01*
X001289Y009826D01*
X001252Y009771D01*
X001227Y009710D01*
X001214Y009645D01*
X001214Y009622D01*
X001539Y009622D01*
X001539Y009601D01*
X001214Y009601D01*
X001214Y009579D01*
X001227Y009514D01*
X001252Y009453D01*
X001289Y009397D01*
X001336Y009351D01*
X001391Y009314D01*
X001452Y009289D01*
X001501Y009279D01*
X001158Y009279D01*
X001122Y009269D01*
X001090Y009251D01*
X001070Y009231D01*
X001070Y011458D01*
X001184Y011458D01*
X001200Y011442D01*
X002073Y011442D01*
X002089Y011458D01*
X002978Y011458D01*
X002933Y011072D02*
X002852Y011072D01*
X002886Y010995D02*
X002910Y010995D01*
X002910Y010917D02*
X002892Y010917D01*
X002378Y011072D02*
X002110Y011072D01*
X002047Y010995D02*
X002344Y010995D01*
X002014Y011381D02*
X001675Y011381D01*
X001777Y011304D02*
X001937Y011304D01*
X001860Y011226D02*
X001823Y011226D01*
X001425Y011381D02*
X001070Y011381D01*
X001070Y011304D02*
X001323Y011304D01*
X001277Y011226D02*
X001070Y011226D01*
X001070Y011149D02*
X001254Y011149D01*
X001254Y011072D02*
X001070Y011072D01*
X001070Y010995D02*
X001278Y010995D01*
X001325Y010917D02*
X001070Y010917D01*
X001070Y010840D02*
X001359Y010840D01*
X001292Y010763D02*
X001070Y010763D01*
X001070Y010686D02*
X001260Y010686D01*
X001254Y010608D02*
X001070Y010608D01*
X001070Y010531D02*
X001263Y010531D01*
X001295Y010454D02*
X001070Y010454D01*
X001070Y010377D02*
X001366Y010377D01*
X001319Y010299D02*
X001070Y010299D01*
X001070Y010222D02*
X001275Y010222D01*
X001254Y010145D02*
X001070Y010145D01*
X001070Y010068D02*
X001254Y010068D01*
X001280Y009991D02*
X001070Y009991D01*
X001070Y009913D02*
X001330Y009913D01*
X001299Y009836D02*
X001070Y009836D01*
X001070Y009759D02*
X001247Y009759D01*
X001221Y009682D02*
X001070Y009682D01*
X001070Y009604D02*
X001539Y009604D01*
X001539Y009601D02*
X001561Y009601D01*
X001561Y009276D01*
X001583Y009276D01*
X001589Y009277D01*
X001589Y008824D01*
X001511Y008824D01*
X001511Y009277D01*
X001517Y009276D01*
X001539Y009276D01*
X001539Y009601D01*
X001561Y009604D02*
X002224Y009604D01*
X002224Y009527D02*
X001876Y009527D01*
X001846Y009450D02*
X002235Y009450D01*
X002324Y009373D02*
X001786Y009373D01*
X001665Y009295D02*
X002474Y009295D01*
X002474Y009218D02*
X002039Y009218D01*
X002063Y009141D02*
X002474Y009141D01*
X002474Y009064D02*
X002063Y009064D01*
X002063Y008986D02*
X002474Y008986D01*
X002474Y008909D02*
X002063Y008909D01*
X002063Y008832D02*
X002552Y008832D01*
X002552Y008755D02*
X001589Y008755D01*
X001589Y008832D02*
X001511Y008832D01*
X001511Y008909D02*
X001589Y008909D01*
X001589Y008986D02*
X001511Y008986D01*
X001511Y009064D02*
X001589Y009064D01*
X001589Y009141D02*
X001511Y009141D01*
X001511Y009218D02*
X001589Y009218D01*
X001561Y009295D02*
X001539Y009295D01*
X001539Y009373D02*
X001561Y009373D01*
X001561Y009450D02*
X001539Y009450D01*
X001539Y009527D02*
X001561Y009527D01*
X001435Y009295D02*
X001070Y009295D01*
X001070Y009373D02*
X001314Y009373D01*
X001254Y009450D02*
X001070Y009450D01*
X001070Y009527D02*
X001224Y009527D01*
X001511Y008677D02*
X001589Y008677D01*
X001589Y008600D02*
X001511Y008600D01*
X001511Y008523D02*
X001589Y008523D01*
X001589Y008446D02*
X001511Y008446D01*
X001511Y008368D02*
X001589Y008368D01*
X002063Y008677D02*
X002552Y008677D01*
X002218Y007828D02*
X002023Y007828D01*
X002023Y007751D02*
X002218Y007751D01*
X002218Y007673D02*
X002023Y007673D01*
X002023Y007596D02*
X002234Y007596D01*
X002218Y007519D02*
X002023Y007519D01*
X002023Y007442D02*
X002218Y007442D01*
X002218Y007364D02*
X002023Y007364D01*
X002015Y007287D02*
X002218Y007287D01*
X002218Y007210D02*
X001070Y007210D01*
X001135Y007184D02*
X001077Y007125D01*
X001077Y006295D01*
X001135Y006237D01*
X001965Y006237D01*
X002023Y006295D01*
X002023Y007125D01*
X001965Y007184D01*
X001135Y007184D01*
X001084Y007133D02*
X001070Y007133D01*
X001070Y007055D02*
X001077Y007055D01*
X001070Y006978D02*
X001077Y006978D01*
X001070Y006901D02*
X001077Y006901D01*
X001070Y006824D02*
X001077Y006824D01*
X001070Y006746D02*
X001077Y006746D01*
X001070Y006669D02*
X001077Y006669D01*
X001070Y006592D02*
X001077Y006592D01*
X001070Y006515D02*
X001077Y006515D01*
X001070Y006437D02*
X001077Y006437D01*
X001070Y006360D02*
X001077Y006360D01*
X001070Y006283D02*
X001089Y006283D01*
X001070Y006206D02*
X003600Y006206D01*
X003578Y006129D02*
X003538Y006129D01*
X003538Y006051D02*
X003578Y006051D01*
X003578Y005974D02*
X003538Y005974D01*
X003538Y005897D02*
X003242Y005897D01*
X003242Y005930D02*
X003104Y006067D01*
X002909Y006067D01*
X002772Y005930D01*
X002772Y005800D01*
X002431Y005458D01*
X002431Y005193D01*
X002296Y005193D01*
X002238Y005135D01*
X002238Y004836D01*
X002247Y004827D01*
X002226Y004806D01*
X002207Y004774D01*
X002198Y004738D01*
X001550Y004738D01*
X001550Y004769D02*
X001550Y004691D01*
X001886Y004691D01*
X001886Y004554D01*
X001877Y004519D01*
X001858Y004487D01*
X001832Y004461D01*
X001801Y004443D01*
X001765Y004433D01*
X001550Y004433D01*
X001550Y004691D01*
X001471Y004691D01*
X001135Y004691D01*
X001135Y004554D01*
X001145Y004519D01*
X001163Y004487D01*
X001189Y004461D01*
X001221Y004443D01*
X001256Y004433D01*
X001471Y004433D01*
X001471Y004691D01*
X001471Y004769D01*
X001135Y004769D01*
X001135Y004906D01*
X001145Y004941D01*
X001163Y004973D01*
X001189Y004999D01*
X001221Y005017D01*
X001256Y005027D01*
X001471Y005027D01*
X001471Y004769D01*
X001550Y004769D01*
X001886Y004769D01*
X001886Y004906D01*
X001877Y004941D01*
X001858Y004973D01*
X001832Y004999D01*
X001801Y005017D01*
X001765Y005027D01*
X001550Y005027D01*
X001550Y004769D01*
X001550Y004815D02*
X001471Y004815D01*
X001471Y004738D02*
X001070Y004738D01*
X001070Y004661D02*
X001135Y004661D01*
X001135Y004584D02*
X001070Y004584D01*
X001070Y004506D02*
X001152Y004506D01*
X001070Y004429D02*
X002219Y004429D01*
X002226Y004418D02*
X002247Y004397D01*
X002238Y004387D01*
X002238Y004088D01*
X002296Y004030D01*
X002355Y004030D01*
X002355Y003899D01*
X002145Y003689D01*
X001742Y003689D01*
X001690Y003741D01*
X001690Y003764D01*
X001788Y003764D01*
X001846Y003823D01*
X001846Y004220D01*
X001788Y004278D01*
X001233Y004278D01*
X001175Y004220D01*
X001175Y003823D01*
X001233Y003764D01*
X001331Y003764D01*
X001331Y003593D01*
X001489Y003435D01*
X001594Y003330D01*
X002294Y003330D01*
X002574Y003610D01*
X002673Y003511D01*
X002752Y003511D01*
X002814Y003448D01*
X003723Y003448D01*
X003689Y003414D01*
X003689Y003219D01*
X003827Y003082D01*
X004021Y003082D01*
X004133Y003193D02*
X004447Y003193D01*
X004484Y003156D02*
X004679Y003156D01*
X004816Y003294D01*
X004816Y003489D01*
X004679Y003626D01*
X004484Y003626D01*
X004347Y003489D01*
X004347Y003294D01*
X004484Y003156D01*
X004370Y003271D02*
X004159Y003271D01*
X004159Y003348D02*
X004347Y003348D01*
X004347Y003425D02*
X004148Y003425D01*
X004070Y003502D02*
X004360Y003502D01*
X004437Y003580D02*
X004039Y003580D01*
X004116Y003657D02*
X004488Y003657D01*
X004477Y003660D02*
X004512Y003650D01*
X004710Y003650D01*
X004710Y003869D01*
X004391Y003869D01*
X004391Y003771D01*
X004400Y003736D01*
X004419Y003704D01*
X004445Y003678D01*
X004477Y003660D01*
X004402Y003734D02*
X004194Y003734D01*
X004271Y003811D02*
X004391Y003811D01*
X004391Y003889D02*
X004348Y003889D01*
X004580Y004120D02*
X006355Y004120D01*
X006392Y004043D02*
X005995Y004043D01*
X005959Y004197D02*
X006038Y004197D01*
X006038Y004275D02*
X005959Y004275D01*
X005959Y004352D02*
X006038Y004352D01*
X006038Y004429D02*
X005959Y004429D01*
X006038Y004506D02*
X007069Y004506D01*
X006992Y004429D02*
X006710Y004429D01*
X006785Y004352D02*
X006915Y004352D01*
X006837Y004275D02*
X006785Y004275D01*
X006550Y004257D02*
X006530Y004238D01*
X006530Y003671D01*
X006382Y003657D02*
X006334Y003657D01*
X006334Y003734D02*
X006382Y003734D01*
X006382Y003811D02*
X006334Y003811D01*
X006334Y003889D02*
X006382Y003889D01*
X006382Y003966D02*
X006334Y003966D01*
X006315Y004197D02*
X006256Y004197D01*
X006374Y004429D02*
X006390Y004429D01*
X006374Y004533D02*
X006374Y004670D01*
X006365Y004705D01*
X006347Y004737D01*
X006321Y004763D01*
X006289Y004781D01*
X006253Y004791D01*
X006038Y004791D01*
X006038Y004533D01*
X006374Y004533D01*
X006374Y004584D02*
X007146Y004584D01*
X007224Y004661D02*
X006374Y004661D01*
X006345Y004738D02*
X007301Y004738D01*
X007378Y004815D02*
X005733Y004815D01*
X005733Y004893D02*
X007455Y004893D01*
X007370Y004970D02*
X007361Y004970D01*
X007160Y004970D02*
X007121Y004970D01*
X007121Y005047D02*
X007160Y005047D01*
X007160Y005124D02*
X007121Y005124D01*
X007121Y005202D02*
X005693Y005202D01*
X005693Y005279D02*
X006883Y005279D01*
X006883Y005124D02*
X005693Y005124D01*
X005707Y005047D02*
X006883Y005047D01*
X006920Y004970D02*
X005733Y004970D01*
X005475Y004815D02*
X005436Y004815D01*
X005436Y004738D02*
X005475Y004738D01*
X005475Y004661D02*
X005436Y004661D01*
X005623Y004584D02*
X004911Y004584D01*
X004710Y004579D02*
X004979Y004848D01*
X005011Y004848D01*
X004657Y004197D02*
X005742Y004197D01*
X005959Y004584D02*
X006038Y004584D01*
X006038Y004661D02*
X005959Y004661D01*
X005959Y004738D02*
X006038Y004738D01*
X005693Y005356D02*
X006576Y005356D01*
X006512Y005433D02*
X005660Y005433D01*
X006393Y005714D02*
X006589Y005911D01*
X006589Y006187D01*
X006826Y006423D01*
X006845Y006443D01*
X007141Y006443D01*
X007141Y006246D02*
X006924Y006246D01*
X006786Y006108D01*
X006786Y005557D01*
X006747Y005517D01*
X006786Y005557D01*
X006931Y005665D02*
X007290Y005665D01*
X007290Y005714D02*
X007475Y005714D01*
X007475Y005891D01*
X007652Y006069D01*
X007692Y006108D01*
X007731Y006147D01*
X007692Y006108D01*
X007652Y006069D01*
X007615Y006051D02*
X010466Y006051D01*
X010486Y006129D02*
X007692Y006129D01*
X007696Y006116D02*
X008196Y006116D01*
X008243Y006069D01*
X008262Y005974D02*
X008262Y005974D01*
X008262Y005897D02*
X008262Y005897D01*
X008262Y005820D02*
X008262Y005820D01*
X008262Y005742D02*
X008262Y005742D01*
X008262Y005665D02*
X008262Y005665D01*
X008262Y005588D02*
X008262Y005588D01*
X008262Y005511D02*
X008262Y005511D01*
X008262Y005433D02*
X008262Y005433D01*
X008297Y005356D02*
X008209Y005356D01*
X008167Y005279D02*
X008275Y005279D01*
X008197Y005202D02*
X008124Y005202D01*
X008120Y005124D02*
X008103Y005124D01*
X008043Y005047D02*
X008026Y005047D01*
X007966Y004970D02*
X007698Y004970D01*
X007613Y005242D02*
X007889Y005242D01*
X007475Y005714D02*
X007475Y005714D01*
X007475Y005911D01*
X007475Y005911D01*
X007475Y005714D01*
X007475Y005714D01*
X007290Y005714D01*
X007290Y005742D02*
X006925Y005742D01*
X006925Y005820D02*
X007290Y005820D01*
X007292Y005897D02*
X006925Y005897D01*
X007105Y006045D02*
X007180Y006045D01*
X007176Y006049D01*
X007141Y006049D01*
X007180Y006045D02*
X007412Y006045D01*
X007558Y006191D01*
X007558Y008490D01*
X007440Y008608D01*
X007141Y008608D01*
X006648Y008608D01*
X006648Y008612D01*
X006558Y008702D01*
X006558Y009242D01*
X006540Y009260D01*
X006697Y009109D02*
X006820Y009233D01*
X006820Y009298D01*
X006846Y009298D01*
X006882Y009308D01*
X006914Y009326D01*
X007010Y009423D01*
X006842Y009591D01*
X006870Y009619D01*
X007037Y009451D01*
X007037Y009146D01*
X006929Y009146D01*
X006844Y009061D01*
X006844Y008942D01*
X006855Y008931D01*
X006841Y008918D01*
X006817Y008876D01*
X006804Y008829D01*
X006804Y008805D01*
X007141Y008805D01*
X007477Y008805D01*
X007141Y008805D01*
X007141Y008805D01*
X007141Y008805D01*
X006804Y008805D01*
X006804Y008780D01*
X006813Y008747D01*
X006793Y008747D01*
X006793Y008800D01*
X006697Y008896D01*
X006697Y009109D01*
X006728Y009141D02*
X006924Y009141D01*
X006846Y009064D02*
X006697Y009064D01*
X006697Y008986D02*
X006844Y008986D01*
X006836Y008909D02*
X006697Y008909D01*
X006761Y008832D02*
X006805Y008832D01*
X006793Y008755D02*
X006811Y008755D01*
X006419Y008909D02*
X006157Y008909D01*
X006233Y008832D02*
X006355Y008832D01*
X006323Y008755D02*
X006310Y008755D01*
X006419Y008986D02*
X005528Y008986D01*
X005528Y009064D02*
X006401Y009064D01*
X006323Y009141D02*
X006148Y009141D01*
X006194Y009218D02*
X006229Y009218D01*
X005900Y009218D02*
X005900Y009218D01*
X005900Y009141D02*
X005900Y009141D01*
X005900Y009295D02*
X005900Y009295D01*
X005900Y009373D02*
X005900Y009373D01*
X005900Y009450D02*
X005900Y009450D01*
X005941Y009527D02*
X005073Y009527D01*
X005079Y009604D02*
X005965Y009604D01*
X006040Y009682D02*
X005459Y009682D01*
X005461Y009684D02*
X005479Y009715D01*
X005489Y009751D01*
X005489Y009868D01*
X005231Y009868D01*
X005231Y009630D01*
X005368Y009630D01*
X005403Y009639D01*
X005435Y009658D01*
X005461Y009684D01*
X005489Y009759D02*
X006117Y009759D01*
X006090Y009682D02*
X006146Y009682D01*
X006167Y009604D02*
X006223Y009604D01*
X006198Y009836D02*
X005489Y009836D01*
X005231Y009836D02*
X005192Y009836D01*
X005192Y009759D02*
X005231Y009759D01*
X005231Y009682D02*
X005192Y009682D01*
X005465Y009450D02*
X005619Y009450D01*
X005604Y009373D02*
X005488Y009373D01*
X005488Y009295D02*
X005604Y009295D01*
X005607Y009218D02*
X005497Y009218D01*
X005528Y009141D02*
X005653Y009141D01*
X005644Y008909D02*
X005502Y008909D01*
X005488Y008832D02*
X005644Y008832D01*
X005644Y008755D02*
X005488Y008755D01*
X005900Y008805D02*
X006058Y008805D01*
X006805Y009218D02*
X007037Y009218D01*
X007037Y009295D02*
X006820Y009295D01*
X006960Y009373D02*
X007037Y009373D01*
X007037Y009450D02*
X006983Y009450D01*
X006961Y009527D02*
X006906Y009527D01*
X006884Y009604D02*
X006856Y009604D01*
X006283Y009913D02*
X006175Y009913D01*
X006196Y009991D02*
X006268Y009991D01*
X006251Y010202D02*
X006258Y010202D01*
X005566Y010202D02*
X005507Y010143D01*
X005507Y010120D01*
X005526Y010202D02*
X005487Y010202D01*
X005526Y010202D01*
X005566Y010202D01*
X005546Y010202D02*
X005526Y010202D01*
X005487Y010202D02*
X005290Y010202D01*
X005211Y010281D01*
X004565Y009991D02*
X004493Y009991D01*
X004464Y009913D02*
X004570Y009913D01*
X004529Y009836D02*
X004464Y009836D01*
X004464Y009759D02*
X004525Y009759D01*
X004525Y009664D02*
X004525Y009548D01*
X004534Y009512D01*
X004552Y009480D01*
X004578Y009455D01*
X004610Y009436D01*
X004646Y009427D01*
X004782Y009427D01*
X004782Y009664D01*
X004525Y009664D01*
X004525Y009604D02*
X004441Y009604D01*
X004441Y009527D02*
X004530Y009527D01*
X004586Y009450D02*
X004441Y009450D01*
X004449Y009373D02*
X004974Y009373D01*
X004974Y009295D02*
X004481Y009295D01*
X004481Y009218D02*
X004965Y009218D01*
X004934Y009141D02*
X004481Y009141D01*
X004481Y009145D02*
X004224Y009145D01*
X004224Y008907D01*
X004360Y008907D01*
X004396Y008916D01*
X004427Y008935D01*
X004453Y008961D01*
X004472Y008993D01*
X004481Y009028D01*
X004481Y009145D01*
X004481Y009064D02*
X004934Y009064D01*
X004934Y008986D02*
X004468Y008986D01*
X004368Y008909D02*
X004960Y008909D01*
X004974Y008832D02*
X003684Y008832D01*
X003733Y008909D02*
X004040Y008909D01*
X003940Y008986D02*
X003737Y008986D01*
X003737Y009064D02*
X003927Y009064D01*
X004184Y009064D02*
X004224Y009064D01*
X004224Y009141D02*
X004184Y009141D01*
X004184Y008986D02*
X004224Y008986D01*
X004224Y008909D02*
X004184Y008909D01*
X003635Y008677D02*
X004991Y008677D01*
X004974Y008755D02*
X003566Y008755D01*
X003635Y008600D02*
X005115Y008600D01*
X004821Y009450D02*
X004782Y009450D01*
X004782Y009527D02*
X004821Y009527D01*
X004821Y009604D02*
X004782Y009604D01*
X004782Y009682D02*
X004441Y009682D01*
X002639Y009836D02*
X002560Y009836D01*
X002560Y009913D02*
X002639Y009913D01*
X001088Y008137D02*
X001070Y008137D01*
X001070Y008060D02*
X001077Y008060D01*
X001070Y007982D02*
X001077Y007982D01*
X001070Y007905D02*
X001077Y007905D01*
X001070Y007828D02*
X001077Y007828D01*
X001070Y007751D02*
X001077Y007751D01*
X001070Y007673D02*
X001077Y007673D01*
X001070Y007596D02*
X001077Y007596D01*
X001070Y007519D02*
X001077Y007519D01*
X001070Y007442D02*
X001077Y007442D01*
X001070Y007364D02*
X001077Y007364D01*
X001070Y007287D02*
X001085Y007287D01*
X002016Y007133D02*
X002218Y007133D01*
X002218Y007055D02*
X002023Y007055D01*
X002023Y006978D02*
X002218Y006978D01*
X002218Y006901D02*
X002023Y006901D01*
X002023Y006824D02*
X002189Y006824D01*
X002178Y006746D02*
X002023Y006746D01*
X002023Y006669D02*
X002178Y006669D01*
X002184Y006592D02*
X002023Y006592D01*
X002023Y006515D02*
X002238Y006515D01*
X002023Y006437D02*
X003368Y006437D01*
X003446Y006360D02*
X002023Y006360D01*
X002011Y006283D02*
X003523Y006283D01*
X003322Y006129D02*
X001945Y006129D01*
X001942Y006129D02*
X001589Y006129D01*
X001589Y005675D01*
X002063Y005675D01*
X002063Y006008D01*
X002054Y006044D01*
X002036Y006075D01*
X002010Y006101D01*
X001978Y006120D01*
X001942Y006129D01*
X002049Y006051D02*
X002893Y006051D01*
X002816Y005974D02*
X002063Y005974D01*
X002063Y005897D02*
X002772Y005897D01*
X002772Y005820D02*
X002063Y005820D01*
X002063Y005742D02*
X002714Y005742D01*
X002637Y005665D02*
X001589Y005665D01*
X001589Y005588D02*
X001511Y005588D01*
X001511Y005511D02*
X001589Y005511D01*
X001589Y005433D02*
X001511Y005433D01*
X001511Y005356D02*
X001589Y005356D01*
X001589Y005279D02*
X001511Y005279D01*
X001511Y005202D02*
X001589Y005202D01*
X001550Y004970D02*
X001471Y004970D01*
X001471Y004893D02*
X001550Y004893D01*
X001550Y004661D02*
X001471Y004661D01*
X001471Y004584D02*
X001550Y004584D01*
X001550Y004506D02*
X001471Y004506D01*
X001230Y004275D02*
X001070Y004275D01*
X001070Y004352D02*
X002238Y004352D01*
X002226Y004418D02*
X002207Y004450D01*
X002198Y004485D01*
X002198Y004597D01*
X002559Y004597D01*
X002559Y004627D01*
X002198Y004627D01*
X002198Y004738D01*
X002198Y004661D02*
X001886Y004661D01*
X001886Y004584D02*
X002198Y004584D01*
X002198Y004506D02*
X001870Y004506D01*
X001791Y004275D02*
X002238Y004275D01*
X002238Y004197D02*
X001846Y004197D01*
X001846Y004120D02*
X002238Y004120D01*
X002283Y004043D02*
X001846Y004043D01*
X001846Y003966D02*
X002355Y003966D01*
X002345Y003889D02*
X001846Y003889D01*
X001835Y003811D02*
X002267Y003811D01*
X002190Y003734D02*
X001697Y003734D01*
X001422Y003502D02*
X001070Y003502D01*
X001070Y003425D02*
X001499Y003425D01*
X001576Y003348D02*
X001070Y003348D01*
X001070Y003271D02*
X003689Y003271D01*
X003689Y003348D02*
X002311Y003348D01*
X002389Y003425D02*
X003700Y003425D01*
X003715Y003193D02*
X001070Y003193D01*
X001070Y003116D02*
X003792Y003116D01*
X003979Y002884D02*
X003397Y002884D01*
X003446Y002807D02*
X003901Y002807D01*
X003874Y002730D02*
X003446Y002730D01*
X003499Y002653D02*
X003874Y002653D01*
X003667Y002498D02*
X003596Y002570D01*
X003572Y002579D01*
X003699Y002421D02*
X003755Y002421D01*
X004344Y002653D02*
X004701Y002653D01*
X004701Y002701D02*
X004701Y002507D01*
X004839Y002369D01*
X005033Y002369D01*
X005073Y002409D01*
X005073Y001956D01*
X005131Y001898D01*
X005843Y001898D01*
X005901Y001956D01*
X005901Y002905D01*
X005843Y002963D01*
X005131Y002963D01*
X005073Y002905D01*
X005073Y002799D01*
X005033Y002839D01*
X004839Y002839D01*
X004701Y002701D01*
X004730Y002730D02*
X004344Y002730D01*
X004317Y002807D02*
X004807Y002807D01*
X004701Y002575D02*
X004419Y002575D01*
X004496Y002498D02*
X004709Y002498D01*
X004787Y002421D02*
X004573Y002421D01*
X004606Y002344D02*
X005073Y002344D01*
X005073Y002266D02*
X004606Y002266D01*
X004606Y002189D02*
X005073Y002189D01*
X005073Y002112D02*
X004606Y002112D01*
X004606Y002035D02*
X005073Y002035D01*
X005073Y001958D02*
X004606Y001958D01*
X004606Y001880D02*
X006124Y001880D01*
X006047Y001803D02*
X004606Y001803D01*
X004575Y001726D02*
X004997Y001726D01*
X004920Y001649D02*
X004498Y001649D01*
X004420Y001571D02*
X004843Y001571D01*
X005310Y001802D02*
X005310Y001802D01*
X005901Y001958D02*
X008931Y001958D01*
X008931Y002035D02*
X005901Y002035D01*
X005901Y002112D02*
X008931Y002112D01*
X008931Y002189D02*
X005901Y002189D01*
X005901Y002266D02*
X008931Y002266D01*
X008931Y002344D02*
X005901Y002344D01*
X005901Y002421D02*
X008931Y002421D01*
X008931Y002498D02*
X005901Y002498D01*
X005901Y002575D02*
X008931Y002575D01*
X008931Y002653D02*
X005901Y002653D01*
X005901Y002730D02*
X006682Y002730D01*
X006605Y002807D02*
X005901Y002807D01*
X005901Y002884D02*
X006551Y002884D01*
X006551Y002962D02*
X006136Y002962D01*
X006222Y003039D02*
X006551Y003039D01*
X006584Y003116D02*
X006256Y003116D01*
X006267Y003193D02*
X006584Y003193D01*
X006584Y003271D02*
X006257Y003271D01*
X006224Y003348D02*
X006388Y003348D01*
X006382Y003425D02*
X006178Y003425D01*
X006178Y003502D02*
X006382Y003502D01*
X006382Y003580D02*
X006328Y003580D01*
X005819Y003502D02*
X004803Y003502D01*
X004816Y003425D02*
X005819Y003425D01*
X005773Y003348D02*
X004816Y003348D01*
X004793Y003271D02*
X005740Y003271D01*
X005731Y003193D02*
X004716Y003193D01*
X005073Y002884D02*
X004240Y002884D01*
X005065Y002807D02*
X005073Y002807D01*
X005129Y002962D02*
X003320Y002962D01*
X002760Y003502D02*
X002466Y003502D01*
X002543Y003580D02*
X002604Y003580D01*
X002960Y003889D02*
X003841Y003889D01*
X003764Y003811D02*
X003005Y003811D01*
X002949Y004738D02*
X002940Y004774D01*
X002921Y004806D01*
X002900Y004827D01*
X002909Y004836D01*
X002909Y005135D01*
X002851Y005193D01*
X002717Y005193D01*
X002717Y005340D01*
X002974Y005597D01*
X003104Y005597D01*
X003242Y005735D01*
X003242Y005930D01*
X003281Y005974D02*
X003197Y005974D01*
X003120Y006051D02*
X003282Y006051D01*
X003578Y005897D02*
X003909Y005897D01*
X003930Y005820D02*
X003835Y005820D01*
X003826Y005742D02*
X003930Y005742D01*
X003930Y005665D02*
X003795Y005665D01*
X003795Y005588D02*
X003930Y005588D01*
X003930Y005511D02*
X003795Y005511D01*
X003795Y005433D02*
X003930Y005433D01*
X003930Y005356D02*
X003793Y005356D01*
X003740Y005279D02*
X003930Y005279D01*
X003930Y005202D02*
X003740Y005202D01*
X003454Y005202D02*
X002717Y005202D01*
X002717Y005279D02*
X003454Y005279D01*
X003323Y005356D02*
X002733Y005356D01*
X002810Y005433D02*
X003321Y005433D01*
X003321Y005511D02*
X002887Y005511D01*
X002965Y005588D02*
X003321Y005588D01*
X003321Y005665D02*
X003172Y005665D01*
X003242Y005742D02*
X003289Y005742D01*
X003281Y005820D02*
X003242Y005820D01*
X003262Y005124D02*
X002909Y005124D01*
X002909Y005047D02*
X003262Y005047D01*
X003262Y004970D02*
X002909Y004970D01*
X002909Y004893D02*
X003262Y004893D01*
X003283Y004815D02*
X002912Y004815D01*
X002431Y005202D02*
X002039Y005202D01*
X002063Y005279D02*
X002431Y005279D01*
X002431Y005356D02*
X002063Y005356D01*
X002063Y005433D02*
X002431Y005433D01*
X002483Y005511D02*
X002063Y005511D01*
X002063Y005588D02*
X002560Y005588D01*
X002238Y005124D02*
X001070Y005124D01*
X001070Y005047D02*
X002238Y005047D01*
X002238Y004970D02*
X001860Y004970D01*
X001886Y004893D02*
X002238Y004893D01*
X002236Y004815D02*
X001886Y004815D01*
X001161Y004970D02*
X001070Y004970D01*
X001070Y004893D02*
X001135Y004893D01*
X001135Y004815D02*
X001070Y004815D01*
X001070Y004197D02*
X001175Y004197D01*
X001175Y004120D02*
X001070Y004120D01*
X001070Y004043D02*
X001175Y004043D01*
X001175Y003966D02*
X001070Y003966D01*
X001070Y003889D02*
X001175Y003889D01*
X001186Y003811D02*
X001070Y003811D01*
X001070Y003734D02*
X001331Y003734D01*
X001331Y003657D02*
X001070Y003657D01*
X001070Y003580D02*
X001344Y003580D01*
X001511Y005742D02*
X001589Y005742D01*
X001589Y005820D02*
X001511Y005820D01*
X001511Y005897D02*
X001589Y005897D01*
X001589Y005974D02*
X001511Y005974D01*
X001511Y006051D02*
X001589Y006051D01*
X001589Y006129D02*
X001511Y006129D01*
X001155Y006129D02*
X001070Y006129D01*
X002593Y006515D02*
X002593Y006515D01*
X002593Y006592D02*
X002593Y006592D01*
X002593Y006669D02*
X002593Y006669D01*
X002949Y006515D02*
X003291Y006515D01*
X003214Y006592D02*
X003003Y006592D01*
X003008Y006669D02*
X003137Y006669D01*
X003059Y006746D02*
X003008Y006746D01*
X003912Y004815D02*
X003930Y004815D01*
X004710Y004043D02*
X004711Y004043D01*
X004710Y003966D02*
X004711Y003966D01*
X004710Y003889D02*
X004711Y003889D01*
X004710Y003811D02*
X004711Y003811D01*
X004710Y003734D02*
X004711Y003734D01*
X004710Y003657D02*
X004711Y003657D01*
X004725Y003580D02*
X005670Y003580D01*
X005663Y003657D02*
X004932Y003657D01*
X005019Y003734D02*
X005186Y003734D01*
X005171Y003811D02*
X005030Y003811D01*
X005030Y003889D02*
X005171Y003889D01*
X005171Y003966D02*
X005030Y003966D01*
X004994Y004043D02*
X005223Y004043D01*
X005845Y002962D02*
X005861Y002962D01*
X006870Y003193D02*
X007240Y003193D01*
X007233Y003271D02*
X007318Y003271D01*
X007121Y003271D02*
X007121Y003271D01*
X007121Y003256D02*
X007121Y003671D01*
X007121Y003671D01*
X007121Y004086D01*
X007188Y004086D01*
X007224Y004076D01*
X007256Y004058D01*
X007268Y004046D01*
X007408Y004046D01*
X007416Y004038D01*
X007424Y004046D01*
X007571Y004046D01*
X007457Y004160D01*
X007457Y004355D01*
X007594Y004492D01*
X007724Y004492D01*
X007898Y004666D01*
X007633Y004666D01*
X007067Y004100D01*
X007067Y004086D01*
X007121Y004086D01*
X007121Y003671D01*
X007121Y003671D01*
X007121Y003256D01*
X007121Y003348D02*
X007121Y003348D01*
X007121Y003425D02*
X007121Y003425D01*
X007121Y003502D02*
X007121Y003502D01*
X007121Y003580D02*
X007121Y003580D01*
X007121Y003657D02*
X007121Y003657D01*
X007121Y003734D02*
X007121Y003734D01*
X007121Y003811D02*
X007121Y003811D01*
X007121Y003889D02*
X007121Y003889D01*
X007121Y003966D02*
X007121Y003966D01*
X007121Y004043D02*
X007121Y004043D01*
X007088Y004120D02*
X007497Y004120D01*
X007457Y004197D02*
X007165Y004197D01*
X007242Y004275D02*
X007457Y004275D01*
X007457Y004352D02*
X007319Y004352D01*
X007397Y004429D02*
X007531Y004429D01*
X007474Y004506D02*
X007738Y004506D01*
X007816Y004584D02*
X007551Y004584D01*
X007628Y004661D02*
X007893Y004661D01*
X008066Y004429D02*
X008667Y004429D01*
X008663Y004506D02*
X008143Y004506D01*
X008220Y004584D02*
X008663Y004584D01*
X008663Y004661D02*
X008298Y004661D01*
X008375Y004738D02*
X008663Y004738D01*
X008794Y004815D02*
X008452Y004815D01*
X008529Y004893D02*
X008794Y004893D01*
X008794Y004970D02*
X008606Y004970D01*
X008684Y005047D02*
X008794Y005047D01*
X008794Y005124D02*
X008761Y005124D01*
X008799Y005319D02*
X008799Y005386D01*
X008829Y005378D01*
X008853Y005378D01*
X008853Y005714D01*
X008853Y005714D01*
X008853Y005378D01*
X008860Y005378D01*
X008860Y005360D01*
X008840Y005360D01*
X008799Y005319D01*
X008799Y005356D02*
X008836Y005356D01*
X008853Y005433D02*
X008853Y005433D01*
X008853Y005511D02*
X008853Y005511D01*
X008853Y005588D02*
X008853Y005588D01*
X008853Y005665D02*
X008853Y005665D01*
X008853Y005714D02*
X008853Y007427D01*
X008952Y007525D01*
X008991Y007519D02*
X010499Y007519D01*
X010466Y007596D02*
X009926Y007596D01*
X009926Y007565D02*
X009926Y008379D01*
X009916Y008414D01*
X009898Y008446D01*
X009872Y008472D01*
X009840Y008490D01*
X009805Y008500D01*
X008991Y008500D01*
X008991Y007565D01*
X008912Y007565D01*
X008912Y008500D01*
X008098Y008500D01*
X008063Y008490D01*
X008031Y008472D01*
X008005Y008446D01*
X007987Y008414D01*
X007977Y008379D01*
X007977Y007565D01*
X008912Y007565D01*
X008912Y007486D01*
X007977Y007486D01*
X007977Y006672D01*
X007987Y006636D01*
X008005Y006605D01*
X008031Y006579D01*
X008063Y006560D01*
X008098Y006551D01*
X008912Y006551D01*
X008912Y007486D01*
X008991Y007486D01*
X008991Y007565D01*
X009926Y007565D01*
X009926Y007486D02*
X008991Y007486D01*
X008991Y006551D01*
X009805Y006551D01*
X009840Y006560D01*
X009872Y006579D01*
X009898Y006605D01*
X009916Y006636D01*
X009926Y006672D01*
X009926Y007486D01*
X009926Y007442D02*
X010466Y007442D01*
X010469Y007364D02*
X009926Y007364D01*
X009926Y007287D02*
X010466Y007287D01*
X010466Y007210D02*
X009926Y007210D01*
X009926Y007133D02*
X010504Y007133D01*
X010466Y007055D02*
X009926Y007055D01*
X009926Y006978D02*
X010466Y006978D01*
X010471Y006901D02*
X009926Y006901D01*
X009926Y006824D02*
X010466Y006824D01*
X010496Y006746D02*
X009926Y006746D01*
X009925Y006669D02*
X010466Y006669D01*
X010466Y006592D02*
X009885Y006592D01*
X010479Y006515D02*
X007697Y006515D01*
X007697Y006592D02*
X008018Y006592D01*
X007978Y006669D02*
X007697Y006669D01*
X007697Y006746D02*
X007977Y006746D01*
X007977Y006824D02*
X007697Y006824D01*
X007697Y006901D02*
X007977Y006901D01*
X007977Y006978D02*
X007697Y006978D01*
X007697Y007055D02*
X007977Y007055D01*
X007977Y007133D02*
X007697Y007133D01*
X007697Y007210D02*
X007977Y007210D01*
X007977Y007287D02*
X007697Y007287D01*
X007697Y007364D02*
X007977Y007364D01*
X007977Y007442D02*
X007697Y007442D01*
X007697Y007519D02*
X008912Y007519D01*
X008912Y007596D02*
X008991Y007596D01*
X008991Y007673D02*
X008912Y007673D01*
X008912Y007751D02*
X008991Y007751D01*
X008991Y007828D02*
X008912Y007828D01*
X008912Y007905D02*
X008991Y007905D01*
X008991Y007982D02*
X008912Y007982D01*
X008912Y008060D02*
X008991Y008060D01*
X008991Y008137D02*
X008912Y008137D01*
X008912Y008214D02*
X008991Y008214D01*
X008991Y008291D02*
X008912Y008291D01*
X008912Y008368D02*
X008991Y008368D01*
X008991Y008446D02*
X008912Y008446D01*
X008937Y009064D02*
X008966Y009064D01*
X009134Y009064D02*
X009163Y009064D01*
X009330Y009064D02*
X009360Y009064D01*
X009527Y009064D02*
X009557Y009064D01*
X009724Y009064D02*
X009754Y009064D01*
X009921Y009064D02*
X009951Y009064D01*
X010118Y009064D02*
X010148Y009064D01*
X010428Y009064D02*
X010428Y009064D01*
X010428Y009141D02*
X010428Y009141D01*
X010428Y009218D02*
X010428Y009218D01*
X010428Y009295D02*
X010428Y009295D01*
X010428Y009336D02*
X010428Y009336D01*
X010428Y009672D01*
X010404Y009672D01*
X010370Y009663D01*
X010370Y009781D01*
X010374Y009785D01*
X010374Y010058D01*
X010411Y010022D01*
X010424Y010022D01*
X010424Y009992D01*
X010433Y009956D01*
X010452Y009924D01*
X010534Y009842D01*
X010716Y010024D01*
X010744Y009996D01*
X010562Y009814D01*
X010645Y009731D01*
X010677Y009713D01*
X010712Y009703D01*
X010749Y009703D01*
X010762Y009707D01*
X010685Y009630D01*
X010685Y009436D01*
X010823Y009298D01*
X011017Y009298D01*
X011155Y009436D01*
X011155Y009630D01*
X011017Y009768D01*
X010853Y009768D01*
X010912Y009828D01*
X010744Y009996D01*
X010772Y010024D01*
X010744Y010052D01*
X010926Y010234D01*
X010844Y010316D01*
X010812Y010335D01*
X010777Y010344D01*
X010746Y010344D01*
X010746Y010357D01*
X010677Y010426D01*
X010861Y010610D01*
X010869Y010610D01*
X010961Y010519D01*
X011155Y010519D01*
X011171Y010534D01*
X011171Y009372D01*
X010945Y009146D01*
X010609Y009146D01*
X010613Y009160D01*
X010613Y009336D01*
X010428Y009336D01*
X010428Y009336D01*
X010428Y009672D01*
X010453Y009672D01*
X010500Y009660D01*
X010542Y009636D01*
X010576Y009601D01*
X010600Y009559D01*
X010613Y009512D01*
X010613Y009336D01*
X010428Y009336D01*
X010428Y009373D02*
X010428Y009373D01*
X010428Y009450D02*
X010428Y009450D01*
X010428Y009527D02*
X010428Y009527D01*
X010428Y009604D02*
X010428Y009604D01*
X010370Y009682D02*
X010736Y009682D01*
X010685Y009604D02*
X010573Y009604D01*
X010609Y009527D02*
X010685Y009527D01*
X010685Y009450D02*
X010613Y009450D01*
X010613Y009373D02*
X010748Y009373D01*
X010613Y009295D02*
X011094Y009295D01*
X011092Y009373D02*
X011171Y009373D01*
X011171Y009450D02*
X011155Y009450D01*
X011155Y009527D02*
X011171Y009527D01*
X011171Y009604D02*
X011155Y009604D01*
X011171Y009682D02*
X011104Y009682D01*
X011171Y009759D02*
X011027Y009759D01*
X010940Y009856D02*
X011037Y009952D01*
X011055Y009984D01*
X011065Y010019D01*
X011065Y010056D01*
X011055Y010092D01*
X011037Y010123D01*
X010954Y010206D01*
X010772Y010024D01*
X010940Y009856D01*
X010904Y009836D02*
X011171Y009836D01*
X011171Y009913D02*
X010998Y009913D01*
X011057Y009991D02*
X011171Y009991D01*
X011171Y010068D02*
X011061Y010068D01*
X011015Y010145D02*
X011171Y010145D01*
X011171Y010222D02*
X010915Y010222D01*
X010893Y010145D02*
X010838Y010145D01*
X010816Y010068D02*
X010760Y010068D01*
X010750Y009991D02*
X010805Y009991D01*
X010739Y009991D02*
X010683Y009991D01*
X010662Y009913D02*
X010606Y009913D01*
X010584Y009836D02*
X010374Y009836D01*
X010374Y009913D02*
X010463Y009913D01*
X010424Y009991D02*
X010374Y009991D01*
X010231Y009844D02*
X010231Y009336D01*
X010613Y009218D02*
X011017Y009218D01*
X010466Y008986D02*
X007437Y008986D01*
X007445Y008909D02*
X010499Y008909D01*
X010466Y008832D02*
X007476Y008832D01*
X007470Y008755D02*
X010466Y008755D01*
X010476Y008677D02*
X007566Y008677D01*
X007644Y008600D02*
X010466Y008600D01*
X010491Y008523D02*
X007697Y008523D01*
X007697Y008446D02*
X008005Y008446D01*
X007977Y008368D02*
X007697Y008368D01*
X007697Y008291D02*
X007977Y008291D01*
X007977Y008214D02*
X007697Y008214D01*
X007697Y008137D02*
X007977Y008137D01*
X007977Y008060D02*
X007697Y008060D01*
X007697Y007982D02*
X007977Y007982D01*
X007977Y007905D02*
X007697Y007905D01*
X007697Y007828D02*
X007977Y007828D01*
X007977Y007751D02*
X007697Y007751D01*
X007697Y007673D02*
X007977Y007673D01*
X007977Y007596D02*
X007697Y007596D01*
X007697Y006437D02*
X010466Y006437D01*
X010489Y006360D02*
X007697Y006360D01*
X007697Y006283D02*
X010466Y006283D01*
X010466Y006206D02*
X007697Y006206D01*
X007768Y005974D02*
X007772Y005974D01*
X007965Y005974D02*
X007969Y005974D01*
X008556Y005974D02*
X008560Y005974D01*
X008853Y005974D02*
X008853Y005974D01*
X008853Y006050D02*
X008853Y005714D01*
X008853Y006050D01*
X008853Y005897D02*
X008853Y005897D01*
X008853Y005820D02*
X008853Y005820D01*
X008853Y005742D02*
X008853Y005742D01*
X008853Y005714D02*
X008853Y005714D01*
X009050Y005714D02*
X009050Y005714D01*
X009050Y005446D01*
X008999Y005395D01*
X008999Y005037D01*
X008999Y004691D01*
X008900Y004592D01*
X008628Y004352D02*
X007989Y004352D01*
X007927Y004275D02*
X008623Y004275D01*
X008623Y004179D02*
X008623Y004062D01*
X008633Y004027D01*
X008651Y003995D01*
X008677Y003969D01*
X008709Y003950D01*
X008744Y003941D01*
X008881Y003941D01*
X008881Y004179D01*
X008623Y004179D01*
X008623Y004120D02*
X007887Y004120D01*
X007908Y004086D02*
X007908Y003671D01*
X007908Y003671D01*
X007908Y003671D01*
X008105Y003671D01*
X008105Y004086D01*
X008038Y004086D01*
X008007Y004078D01*
X007976Y004086D01*
X007908Y004086D01*
X007908Y004043D02*
X007908Y004043D01*
X007908Y003966D02*
X007908Y003966D01*
X007908Y003889D02*
X007908Y003889D01*
X007908Y003811D02*
X007908Y003811D01*
X007908Y003734D02*
X007908Y003734D01*
X007908Y003671D02*
X007908Y003671D01*
X007908Y003256D01*
X007976Y003256D01*
X008007Y003264D01*
X008038Y003256D01*
X008105Y003256D01*
X008105Y003671D01*
X008105Y003671D01*
X008105Y003671D01*
X008105Y004086D01*
X008173Y004086D01*
X008204Y004078D01*
X008234Y004086D01*
X008302Y004086D01*
X008302Y003671D01*
X008302Y003671D01*
X008302Y004086D01*
X008370Y004086D01*
X008405Y004076D01*
X008437Y004058D01*
X008463Y004032D01*
X008481Y004000D01*
X008491Y003965D01*
X008491Y003671D01*
X008302Y003671D01*
X008302Y003671D01*
X008302Y003671D01*
X008105Y003671D01*
X007917Y003671D01*
X007908Y003671D01*
X007908Y003657D02*
X007908Y003657D01*
X007908Y003580D02*
X007908Y003580D01*
X007908Y003502D02*
X007908Y003502D01*
X007908Y003425D02*
X007908Y003425D01*
X007908Y003348D02*
X007908Y003348D01*
X007908Y003271D02*
X007908Y003271D01*
X007796Y003271D02*
X007662Y003271D01*
X007649Y003193D02*
X010860Y003193D01*
X010860Y003116D02*
X007651Y003116D01*
X007651Y003039D02*
X010860Y003039D01*
X010647Y002962D02*
X009703Y002962D01*
X009760Y002884D02*
X010647Y002884D01*
X010647Y002807D02*
X009760Y002807D01*
X009760Y002730D02*
X010647Y002730D01*
X010647Y002653D02*
X010298Y002653D01*
X010046Y002653D02*
X009760Y002653D01*
X009760Y002575D02*
X009969Y002575D01*
X009937Y002498D02*
X009760Y002498D01*
X009760Y002421D02*
X009937Y002421D01*
X009943Y002344D02*
X009760Y002344D01*
X009760Y002266D02*
X009857Y002266D01*
X009779Y002189D02*
X009760Y002189D01*
X009815Y001880D02*
X006346Y001880D01*
X006423Y001803D02*
X010023Y001803D01*
X009976Y001726D02*
X006470Y001726D01*
X006470Y001649D02*
X009976Y001649D01*
X009698Y001417D02*
X011057Y001417D01*
X011077Y001340D02*
X009731Y001340D01*
X009621Y001494D02*
X006402Y001494D01*
X006470Y001562D01*
X006890Y002730D02*
X008931Y002730D01*
X008931Y002807D02*
X007519Y002807D01*
X007596Y002884D02*
X008931Y002884D01*
X008988Y002962D02*
X007651Y002962D01*
X008105Y003256D02*
X008173Y003256D01*
X008204Y003264D01*
X008234Y003256D01*
X008302Y003256D01*
X008370Y003256D01*
X008405Y003265D01*
X008437Y003284D01*
X008463Y003310D01*
X008481Y003341D01*
X008491Y003377D01*
X008491Y003671D01*
X008302Y003671D01*
X008113Y003671D01*
X008105Y003671D01*
X008105Y003671D01*
X008105Y003671D01*
X008105Y003256D01*
X008105Y003271D02*
X008105Y003271D01*
X008105Y003348D02*
X008105Y003348D01*
X008105Y003425D02*
X008105Y003425D01*
X008105Y003502D02*
X008105Y003502D01*
X008105Y003580D02*
X008105Y003580D01*
X008105Y003657D02*
X008105Y003657D01*
X008105Y003734D02*
X008105Y003734D01*
X008105Y003811D02*
X008105Y003811D01*
X008105Y003889D02*
X008105Y003889D01*
X008105Y003966D02*
X008105Y003966D01*
X008105Y004043D02*
X008105Y004043D01*
X007927Y004197D02*
X008881Y004197D01*
X008920Y004197D02*
X009119Y004197D01*
X009119Y004198D02*
X009119Y004179D01*
X008920Y004179D01*
X008920Y003941D01*
X009057Y003941D01*
X009092Y003950D01*
X009124Y003969D01*
X009150Y003995D01*
X009156Y004006D01*
X009173Y003988D01*
X009205Y003970D01*
X009240Y003961D01*
X009377Y003961D01*
X009377Y004198D01*
X009119Y004198D01*
X008920Y004120D02*
X008881Y004120D01*
X008881Y004043D02*
X008920Y004043D01*
X008920Y003966D02*
X008881Y003966D01*
X008682Y003966D02*
X008490Y003966D01*
X008491Y003889D02*
X011057Y003889D01*
X011135Y003966D02*
X010291Y003966D01*
X010369Y004043D02*
X011511Y004043D01*
X011473Y004120D02*
X010407Y004120D01*
X010407Y004197D02*
X011473Y004197D01*
X011473Y004275D02*
X010407Y004275D01*
X010559Y004352D02*
X011548Y004352D01*
X011866Y004352D02*
X012435Y004352D01*
X012452Y004429D02*
X010637Y004429D01*
X010643Y004506D02*
X012452Y004506D01*
X012415Y004584D02*
X010643Y004584D01*
X010627Y004661D02*
X012338Y004661D01*
X012328Y004738D02*
X010705Y004738D01*
X010703Y004738D02*
X010648Y004738D01*
X010626Y004815D02*
X010571Y004815D01*
X010549Y004893D02*
X010523Y004893D01*
X010782Y004815D02*
X011447Y004815D01*
X011370Y004893D02*
X010826Y004893D01*
X010820Y004970D02*
X011354Y004970D01*
X011345Y005047D02*
X010900Y005047D01*
X010977Y005124D02*
X011268Y005124D01*
X011249Y005202D02*
X010998Y005202D01*
X010998Y005279D02*
X011249Y005279D01*
X011249Y005356D02*
X011170Y005356D01*
X011247Y005433D02*
X011249Y005433D01*
X011536Y005433D02*
X011984Y005433D01*
X011984Y005356D02*
X011536Y005356D01*
X011536Y005279D02*
X012007Y005279D01*
X012076Y005202D02*
X011725Y005202D01*
X011803Y005124D02*
X012076Y005124D01*
X012081Y005047D02*
X011824Y005047D01*
X011824Y004970D02*
X012140Y004970D01*
X012217Y004893D02*
X011809Y004893D01*
X011731Y004815D02*
X012295Y004815D01*
X012455Y005047D02*
X012578Y005047D01*
X012545Y004970D02*
X012533Y004970D01*
X012643Y005124D02*
X012378Y005124D01*
X012362Y005202D02*
X012721Y005202D01*
X012705Y005186D02*
X012873Y005018D01*
X013041Y005186D01*
X012959Y005269D01*
X012927Y005287D01*
X012891Y005296D01*
X012855Y005296D01*
X012819Y005287D01*
X012788Y005269D01*
X012705Y005186D01*
X012711Y005124D02*
X012767Y005124D01*
X012788Y005047D02*
X012844Y005047D01*
X012902Y005047D02*
X012958Y005047D01*
X012980Y005124D02*
X013035Y005124D01*
X013069Y005158D02*
X012901Y004990D01*
X013069Y004822D01*
X013152Y004904D01*
X013170Y004936D01*
X013179Y004972D01*
X013179Y005008D01*
X013170Y005044D01*
X013152Y005076D01*
X013069Y005158D01*
X013103Y005124D02*
X013666Y005124D01*
X013647Y005047D02*
X013168Y005047D01*
X013179Y004970D02*
X013647Y004970D01*
X013647Y004893D02*
X013140Y004893D01*
X012998Y004893D02*
X012943Y004893D01*
X012921Y004970D02*
X012881Y004970D01*
X013020Y004815D02*
X013308Y004815D01*
X013503Y004815D02*
X013542Y004815D01*
X013542Y004738D02*
X013503Y004738D01*
X013503Y004661D02*
X013542Y004661D01*
X013542Y004616D02*
X013701Y004616D01*
X013706Y004611D01*
X014288Y004611D01*
X014346Y004669D01*
X014346Y005106D01*
X014291Y005160D01*
X014291Y005419D01*
X014208Y005503D01*
X014074Y005637D01*
X014109Y005672D01*
X014147Y005634D01*
X014465Y005634D01*
X014482Y005651D01*
X014482Y005063D01*
X014540Y005005D01*
X014865Y005005D01*
X014865Y003117D01*
X014540Y003117D01*
X014482Y003058D01*
X014482Y002405D01*
X014495Y002392D01*
X014471Y002367D01*
X014471Y002289D01*
X014459Y002134D01*
X014363Y001839D01*
X014180Y001588D01*
X013929Y001405D01*
X013904Y001397D01*
X014029Y001522D01*
X014029Y001717D01*
X013891Y001855D01*
X013697Y001855D01*
X013559Y001717D01*
X013559Y001587D01*
X013459Y001487D01*
X011775Y001487D01*
X011782Y001499D01*
X011792Y001534D01*
X011792Y001710D01*
X011593Y001710D01*
X011396Y001710D01*
X011396Y001710D01*
X011593Y001710D01*
X011593Y001710D01*
X011593Y001710D01*
X011792Y001710D01*
X011792Y001886D01*
X011792Y001886D01*
X011900Y001886D01*
X011923Y001910D01*
X011981Y001910D01*
X011981Y001797D01*
X012239Y001797D01*
X012239Y001757D01*
X012278Y001757D01*
X012278Y001520D01*
X012415Y001520D01*
X012450Y001529D01*
X012482Y001548D01*
X012508Y001573D01*
X012526Y001605D01*
X012536Y001641D01*
X012536Y001757D01*
X012278Y001757D01*
X012278Y001797D01*
X012536Y001797D01*
X012536Y001914D01*
X012535Y001917D01*
X012555Y001897D01*
X012750Y001897D01*
X012887Y002034D01*
X012887Y002194D01*
X012909Y002172D01*
X013104Y002172D01*
X013242Y002310D01*
X013242Y002391D01*
X013264Y002369D01*
X013458Y002369D01*
X013596Y002507D01*
X013596Y002701D01*
X013458Y002839D01*
X013264Y002839D01*
X013217Y002792D01*
X013189Y002821D01*
X013149Y002860D01*
X013158Y002869D01*
X013176Y002901D01*
X013185Y002936D01*
X013185Y003051D01*
X013341Y003051D01*
X013341Y003250D01*
X013341Y003446D01*
X013341Y003446D01*
X013341Y003445D01*
X013341Y003250D01*
X013341Y003250D01*
X013341Y003250D01*
X013341Y003051D01*
X013497Y003051D01*
X013533Y003061D01*
X013565Y003079D01*
X013591Y003105D01*
X013607Y003134D01*
X013607Y003038D01*
X013617Y003003D01*
X013635Y002971D01*
X013661Y002945D01*
X013693Y002927D01*
X013729Y002917D01*
X013957Y002917D01*
X013957Y003194D01*
X014036Y003194D01*
X014036Y002917D01*
X014265Y002917D01*
X014301Y002927D01*
X014332Y002945D01*
X014358Y002971D01*
X014377Y003003D01*
X014386Y003038D01*
X014386Y003194D01*
X014036Y003194D01*
X014036Y003273D01*
X013957Y003273D01*
X013619Y003273D01*
X013619Y003250D01*
X013503Y003250D01*
X013503Y003250D01*
X013619Y003250D01*
X013619Y003194D01*
X013957Y003194D01*
X013957Y003273D01*
X013957Y003550D01*
X013729Y003550D01*
X013693Y003541D01*
X013661Y003523D01*
X013635Y003497D01*
X013619Y003467D01*
X013619Y003524D01*
X013613Y003545D01*
X013619Y003566D01*
X013619Y003643D01*
X013503Y003643D01*
X013503Y003643D01*
X013503Y003643D01*
X013619Y003643D01*
X013619Y003721D01*
X013613Y003742D01*
X013619Y003763D01*
X013619Y003840D01*
X013503Y003840D01*
X013503Y003840D01*
X013503Y003840D01*
X013619Y003840D01*
X013619Y003918D01*
X013613Y003939D01*
X013619Y003960D01*
X013619Y004037D01*
X013619Y004114D01*
X013609Y004150D01*
X013591Y004182D01*
X013565Y004208D01*
X013533Y004226D01*
X013497Y004235D01*
X013341Y004235D01*
X013185Y004235D01*
X013150Y004226D01*
X013150Y004356D01*
X013173Y004379D01*
X013288Y004379D01*
X013297Y004388D01*
X013319Y004366D01*
X013351Y004348D01*
X013386Y004339D01*
X013503Y004339D01*
X013503Y004576D01*
X013542Y004576D01*
X013542Y004339D01*
X013659Y004339D01*
X013694Y004348D01*
X013726Y004366D01*
X013752Y004392D01*
X013770Y004424D01*
X013780Y004460D01*
X013780Y004576D01*
X013542Y004576D01*
X013542Y004616D01*
X013542Y004584D02*
X014865Y004584D01*
X014865Y004661D02*
X014338Y004661D01*
X014346Y004738D02*
X014865Y004738D01*
X014865Y004815D02*
X014346Y004815D01*
X014346Y004893D02*
X014865Y004893D01*
X014865Y004970D02*
X014346Y004970D01*
X014346Y005047D02*
X014498Y005047D01*
X014482Y005124D02*
X014328Y005124D01*
X014291Y005202D02*
X014482Y005202D01*
X014482Y005279D02*
X014291Y005279D01*
X014291Y005356D02*
X014482Y005356D01*
X014482Y005433D02*
X014277Y005433D01*
X014200Y005511D02*
X014482Y005511D01*
X014482Y005588D02*
X014123Y005588D01*
X014116Y005665D02*
X014102Y005665D01*
X013873Y005433D02*
X012454Y005433D01*
X012454Y005356D02*
X013950Y005356D01*
X014005Y005279D02*
X012941Y005279D01*
X013026Y005202D02*
X014005Y005202D01*
X013795Y005511D02*
X012440Y005511D01*
X012363Y005588D02*
X013769Y005588D01*
X013722Y005665D02*
X011536Y005665D01*
X011536Y005588D02*
X012076Y005588D01*
X011998Y005511D02*
X011536Y005511D01*
X011536Y005742D02*
X013695Y005742D01*
X013695Y005820D02*
X011536Y005820D01*
X011536Y005897D02*
X013695Y005897D01*
X013768Y006129D02*
X011377Y006129D01*
X011059Y006206D02*
X013691Y006206D01*
X013614Y006283D02*
X011059Y006283D01*
X010332Y005974D02*
X010328Y005974D01*
X010035Y005974D02*
X010035Y005974D01*
X010035Y005897D02*
X010035Y005897D01*
X010035Y005820D02*
X010035Y005820D01*
X010035Y005742D02*
X010035Y005742D01*
X010035Y005665D02*
X010035Y005665D01*
X010035Y005588D02*
X010035Y005588D01*
X010035Y005511D02*
X010035Y005511D01*
X010035Y005433D02*
X010035Y005433D01*
X010087Y005356D02*
X009981Y005356D01*
X009981Y005279D02*
X010017Y005279D01*
X009424Y005281D02*
X009424Y005045D01*
X009432Y005037D01*
X009432Y004647D01*
X009396Y004612D01*
X009634Y004584D02*
X009840Y004584D01*
X009911Y004506D02*
X009634Y004506D01*
X009638Y004429D02*
X009911Y004429D01*
X009911Y004352D02*
X009674Y004352D01*
X009674Y004275D02*
X009911Y004275D01*
X009937Y004197D02*
X009674Y004197D01*
X009674Y004120D02*
X009937Y004120D01*
X009976Y004043D02*
X009662Y004043D01*
X009572Y003966D02*
X010053Y003966D01*
X009416Y003966D02*
X009377Y003966D01*
X009377Y004043D02*
X009416Y004043D01*
X009416Y004120D02*
X009377Y004120D01*
X009377Y004197D02*
X009416Y004197D01*
X009221Y003966D02*
X009119Y003966D01*
X008628Y004043D02*
X008452Y004043D01*
X008302Y004043D02*
X008302Y004043D01*
X008302Y003966D02*
X008302Y003966D01*
X008302Y003889D02*
X008302Y003889D01*
X008302Y003811D02*
X008302Y003811D01*
X008302Y003734D02*
X008302Y003734D01*
X008302Y003671D02*
X008302Y003256D01*
X008302Y003671D01*
X008302Y003671D01*
X008302Y003657D02*
X008302Y003657D01*
X008302Y003580D02*
X008302Y003580D01*
X008302Y003502D02*
X008302Y003502D01*
X008302Y003425D02*
X008302Y003425D01*
X008302Y003348D02*
X008302Y003348D01*
X008302Y003271D02*
X008302Y003271D01*
X008414Y003271D02*
X010860Y003271D01*
X010860Y003348D02*
X008483Y003348D01*
X008491Y003425D02*
X010860Y003425D01*
X010860Y003502D02*
X008491Y003502D01*
X008491Y003580D02*
X010860Y003580D01*
X010860Y003657D02*
X008491Y003657D01*
X008491Y003734D02*
X010903Y003734D01*
X010980Y003811D02*
X008491Y003811D01*
X007711Y003671D02*
X007515Y003671D01*
X007519Y003667D01*
X007519Y003588D01*
X007421Y004043D02*
X007411Y004043D01*
X007009Y003271D02*
X006870Y003271D01*
X006961Y003116D02*
X007181Y003116D01*
X007181Y003039D02*
X007021Y003039D01*
X007021Y002962D02*
X007181Y002962D01*
X007237Y002884D02*
X007021Y002884D01*
X006967Y002807D02*
X007314Y002807D01*
X009634Y004661D02*
X009763Y004661D01*
X009686Y004738D02*
X009660Y004738D01*
X009424Y005281D02*
X009247Y005458D01*
X009247Y005714D01*
X009444Y005742D02*
X009444Y005742D01*
X009444Y005820D02*
X009444Y005820D01*
X009444Y005897D02*
X009444Y005897D01*
X009444Y005974D02*
X009444Y005974D01*
X009737Y005974D02*
X009741Y005974D01*
X009151Y005974D02*
X009146Y005974D01*
X008991Y006592D02*
X008912Y006592D01*
X008912Y006669D02*
X008991Y006669D01*
X008991Y006746D02*
X008912Y006746D01*
X008912Y006824D02*
X008991Y006824D01*
X008991Y006901D02*
X008912Y006901D01*
X008912Y006978D02*
X008991Y006978D01*
X008991Y007055D02*
X008912Y007055D01*
X008912Y007133D02*
X008991Y007133D01*
X008991Y007210D02*
X008912Y007210D01*
X008912Y007287D02*
X008991Y007287D01*
X008991Y007364D02*
X008912Y007364D01*
X008912Y007442D02*
X008991Y007442D01*
X009926Y007673D02*
X010466Y007673D01*
X010476Y007751D02*
X009926Y007751D01*
X009926Y007828D02*
X010466Y007828D01*
X010491Y007905D02*
X009926Y007905D01*
X009926Y007982D02*
X010466Y007982D01*
X010466Y008060D02*
X009926Y008060D01*
X009926Y008137D02*
X010484Y008137D01*
X010466Y008214D02*
X009926Y008214D01*
X009926Y008291D02*
X010484Y008291D01*
X010466Y008368D02*
X009926Y008368D01*
X009898Y008446D02*
X010466Y008446D01*
X011156Y008301D02*
X011156Y007801D01*
X010979Y007624D01*
X011156Y007486D02*
X011314Y007643D01*
X011314Y007919D01*
X011448Y008053D01*
X011578Y008053D01*
X011558Y007679D02*
X011550Y007671D01*
X011550Y007565D01*
X011156Y007486D02*
X011097Y007427D01*
X010763Y007427D01*
X011156Y008301D02*
X011168Y008313D01*
X011811Y008938D02*
X011811Y009041D01*
X012007Y009237D01*
X012044Y009237D01*
X012102Y009295D01*
X012102Y009614D01*
X012093Y009623D01*
X012114Y009644D01*
X012133Y009676D01*
X012142Y009712D01*
X012142Y009828D01*
X011885Y009828D01*
X011885Y009868D01*
X012142Y009868D01*
X012142Y009959D01*
X012199Y009902D01*
X012475Y009902D01*
X012746Y009631D01*
X012746Y009455D01*
X012686Y009455D01*
X012623Y009519D01*
X012566Y009519D01*
X012474Y009611D01*
X012279Y009611D01*
X012142Y009473D01*
X012142Y009278D01*
X012279Y009141D01*
X011911Y009141D01*
X011834Y009064D02*
X012280Y009064D01*
X012259Y009043D02*
X012259Y008929D01*
X012281Y008907D01*
X012259Y008885D01*
X012259Y008771D01*
X012281Y008750D01*
X012259Y008728D01*
X012259Y008614D01*
X012264Y008609D01*
X012147Y008609D01*
X012167Y008629D01*
X012167Y008823D01*
X012029Y008961D01*
X011835Y008961D01*
X011811Y008938D01*
X011811Y008986D02*
X012259Y008986D01*
X012259Y009043D02*
X012340Y009124D01*
X012593Y009124D01*
X012593Y009144D01*
X012535Y009202D01*
X012474Y009141D01*
X012593Y009141D01*
X012474Y009141D02*
X012279Y009141D01*
X012202Y009218D02*
X011989Y009218D01*
X012102Y009295D02*
X012142Y009295D01*
X012142Y009373D02*
X012102Y009373D01*
X012102Y009450D02*
X012142Y009450D01*
X012102Y009527D02*
X012196Y009527D01*
X012273Y009604D02*
X012102Y009604D01*
X012134Y009682D02*
X012695Y009682D01*
X012746Y009604D02*
X012480Y009604D01*
X012558Y009527D02*
X012746Y009527D01*
X012618Y009759D02*
X012142Y009759D01*
X012142Y009913D02*
X012188Y009913D01*
X011885Y009913D02*
X011845Y009913D01*
X011845Y009868D02*
X011845Y010106D01*
X011732Y010106D01*
X011732Y010554D01*
X011846Y010440D01*
X011967Y010440D01*
X011866Y010339D01*
X011866Y010144D01*
X011905Y010106D01*
X011885Y010106D01*
X011885Y009868D01*
X011845Y009868D01*
X011885Y009836D02*
X012541Y009836D01*
X012890Y010207D02*
X012690Y010406D01*
X012690Y010536D01*
X012553Y010674D01*
X012358Y010674D01*
X012221Y010536D01*
X012221Y010455D01*
X012198Y010477D01*
X012078Y010477D01*
X012179Y010577D01*
X012179Y010747D01*
X012244Y010812D01*
X012438Y010812D01*
X012496Y010870D01*
X012496Y011188D01*
X012458Y011226D01*
X012496Y011264D01*
X012496Y011582D01*
X012471Y011607D01*
X012528Y011607D01*
X012528Y011532D01*
X012586Y011474D01*
X012879Y011474D01*
X012711Y011352D01*
X012646Y011149D01*
X012496Y011149D01*
X012496Y011072D02*
X012671Y011072D01*
X012672Y011068D02*
X012650Y011045D01*
X012631Y011014D01*
X012622Y010978D01*
X012622Y010871D01*
X012814Y010871D01*
X012841Y010852D01*
X012622Y010852D01*
X012622Y010745D01*
X012631Y010709D01*
X012650Y010677D01*
X012676Y010651D01*
X012707Y010633D01*
X012743Y010624D01*
X012988Y010624D01*
X012988Y010820D01*
X013007Y010820D01*
X013007Y010624D01*
X013252Y010624D01*
X013287Y010633D01*
X013319Y010651D01*
X013345Y010677D01*
X013362Y010707D01*
X013362Y010617D01*
X013384Y010595D01*
X013382Y010595D01*
X013244Y010457D01*
X013244Y010376D01*
X013222Y010398D01*
X013027Y010398D01*
X012890Y010260D01*
X012890Y010207D01*
X012890Y010222D02*
X012874Y010222D01*
X012929Y010299D02*
X012797Y010299D01*
X012720Y010377D02*
X013006Y010377D01*
X013243Y010377D02*
X013244Y010377D01*
X013244Y010454D02*
X012690Y010454D01*
X012690Y010531D02*
X013318Y010531D01*
X013371Y010608D02*
X012618Y010608D01*
X012645Y010686D02*
X012179Y010686D01*
X012179Y010608D02*
X012293Y010608D01*
X012221Y010531D02*
X012132Y010531D01*
X012195Y010763D02*
X012622Y010763D01*
X012622Y010840D02*
X012466Y010840D01*
X012496Y010917D02*
X012622Y010917D01*
X012626Y010995D02*
X012496Y010995D01*
X012672Y011068D02*
X012646Y011149D01*
X012646Y011149D01*
X012671Y011226D02*
X012459Y011226D01*
X012496Y011304D02*
X012696Y011304D01*
X012711Y011352D02*
X012711Y011352D01*
X012751Y011381D02*
X012496Y011381D01*
X012496Y011458D02*
X012858Y011458D01*
X013103Y011474D02*
X013417Y011474D01*
X013475Y011532D01*
X013475Y011936D01*
X013616Y011936D01*
X013753Y012074D01*
X013753Y012203D01*
X014110Y012560D01*
X014288Y012560D01*
X014346Y012618D01*
X014346Y013055D01*
X014288Y013113D01*
X013706Y013113D01*
X013647Y013055D01*
X013647Y012618D01*
X013705Y012560D01*
X013551Y012406D01*
X013421Y012406D01*
X013284Y012268D01*
X013284Y012136D01*
X013263Y012156D01*
X013184Y012235D01*
X013088Y012235D01*
X013163Y012310D01*
X013163Y012469D01*
X013442Y012469D01*
X013500Y012527D01*
X013500Y012846D01*
X013462Y012883D01*
X013500Y012921D01*
X013500Y013240D01*
X013442Y013298D01*
X013425Y013298D01*
X013425Y013411D01*
X013460Y013445D01*
X013853Y013445D01*
X014090Y013681D01*
X014173Y013765D01*
X014173Y013800D01*
X014190Y013800D01*
X014248Y013858D01*
X014248Y014177D01*
X014238Y014186D01*
X014260Y014207D01*
X014278Y014239D01*
X014400Y014239D01*
X014375Y014316D02*
X014288Y014316D01*
X014288Y014275D02*
X014288Y014391D01*
X014050Y014391D01*
X014050Y014431D01*
X014011Y014431D01*
X014011Y014669D01*
X013894Y014669D01*
X013858Y014659D01*
X013827Y014641D01*
X013801Y014615D01*
X013797Y014608D01*
X013543Y014862D01*
X013543Y014868D01*
X013520Y014892D01*
X013634Y014883D01*
X013929Y014787D01*
X014092Y014669D01*
X014050Y014669D01*
X014050Y014431D01*
X014288Y014431D01*
X014288Y014457D01*
X014363Y014353D01*
X014459Y014058D01*
X014471Y013903D01*
X014471Y013707D01*
X014497Y013680D01*
X014482Y013665D01*
X014482Y013012D01*
X014540Y012953D01*
X014865Y012953D01*
X014865Y011066D01*
X014540Y011066D01*
X014482Y011007D01*
X014482Y010354D01*
X014493Y010343D01*
X014471Y010320D01*
X014471Y009144D01*
X014458Y009151D01*
X014423Y009161D01*
X014286Y009161D01*
X014286Y008923D01*
X014247Y008923D01*
X014247Y009161D01*
X014110Y009161D01*
X014075Y009151D01*
X014043Y009133D01*
X014017Y009107D01*
X013999Y009075D01*
X013989Y009040D01*
X013989Y008923D01*
X014247Y008923D01*
X014247Y008883D01*
X013989Y008883D01*
X013989Y008767D01*
X013999Y008731D01*
X014017Y008699D01*
X014039Y008678D01*
X014029Y008669D01*
X014029Y008655D01*
X013833Y008655D01*
X013833Y008726D01*
X013812Y008748D01*
X013833Y008769D01*
X013833Y008883D01*
X013812Y008905D01*
X013833Y008927D01*
X013833Y009041D01*
X013753Y009122D01*
X013499Y009122D01*
X013499Y009144D01*
X013504Y009149D01*
X013504Y009907D01*
X013538Y009941D01*
X013622Y010025D01*
X013622Y010171D01*
X013714Y010263D01*
X013714Y010457D01*
X013692Y010479D01*
X013695Y010479D01*
X013832Y010617D01*
X013832Y010811D01*
X013778Y010866D01*
X013957Y010866D01*
X013957Y011143D01*
X013607Y011143D01*
X013607Y010987D01*
X013617Y010952D01*
X013618Y010949D01*
X013500Y010949D01*
X013373Y010822D01*
X013373Y010852D01*
X013141Y010852D01*
X013168Y010871D01*
X013373Y010871D01*
X013373Y010978D01*
X013364Y011014D01*
X013345Y011045D01*
X013319Y011071D01*
X013312Y011075D01*
X013336Y011149D01*
X013957Y011149D01*
X013957Y011143D02*
X013957Y011222D01*
X013607Y011222D01*
X013607Y011378D01*
X013617Y011414D01*
X013635Y011445D01*
X013661Y011471D01*
X013693Y011490D01*
X013729Y011499D01*
X013957Y011499D01*
X013957Y011222D01*
X014036Y011222D01*
X014036Y011499D01*
X014265Y011499D01*
X014301Y011490D01*
X014332Y011471D01*
X014358Y011445D01*
X014377Y011414D01*
X014386Y011378D01*
X014386Y011222D01*
X014036Y011222D01*
X014036Y011143D01*
X014036Y010866D01*
X014265Y010866D01*
X014301Y010876D01*
X014332Y010894D01*
X014358Y010920D01*
X014377Y010952D01*
X014386Y010987D01*
X014386Y011143D01*
X014036Y011143D01*
X013957Y011143D01*
X013957Y011072D02*
X014036Y011072D01*
X014036Y011149D02*
X014865Y011149D01*
X014865Y011072D02*
X014386Y011072D01*
X014386Y010995D02*
X014482Y010995D01*
X014482Y010917D02*
X014356Y010917D01*
X014482Y010840D02*
X013803Y010840D01*
X013832Y010763D02*
X014482Y010763D01*
X014482Y010686D02*
X013832Y010686D01*
X013824Y010608D02*
X014482Y010608D01*
X014482Y010531D02*
X013747Y010531D01*
X013714Y010454D02*
X014482Y010454D01*
X014482Y010377D02*
X013714Y010377D01*
X013714Y010299D02*
X014471Y010299D01*
X014471Y010222D02*
X013674Y010222D01*
X013622Y010145D02*
X014471Y010145D01*
X014471Y010068D02*
X013622Y010068D01*
X013588Y009991D02*
X014471Y009991D01*
X014471Y009913D02*
X013510Y009913D01*
X013504Y009836D02*
X014471Y009836D01*
X014471Y009759D02*
X013504Y009759D01*
X013504Y009682D02*
X014471Y009682D01*
X014471Y009604D02*
X013504Y009604D01*
X013504Y009527D02*
X014471Y009527D01*
X014471Y009450D02*
X013504Y009450D01*
X013504Y009373D02*
X014471Y009373D01*
X014471Y009295D02*
X013504Y009295D01*
X013504Y009218D02*
X014471Y009218D01*
X014286Y009141D02*
X014247Y009141D01*
X014247Y009064D02*
X014286Y009064D01*
X014286Y008986D02*
X014247Y008986D01*
X014247Y008909D02*
X013816Y008909D01*
X013833Y008832D02*
X013989Y008832D01*
X013993Y008755D02*
X013819Y008755D01*
X013833Y008677D02*
X014038Y008677D01*
X014265Y008511D02*
X014267Y008509D01*
X014471Y008317D02*
X014471Y006464D01*
X014447Y006488D01*
X014252Y006488D01*
X014114Y006351D01*
X014114Y006156D01*
X014162Y006109D01*
X014147Y006109D01*
X014109Y006071D01*
X014071Y006109D01*
X014055Y006109D01*
X014055Y006246D01*
X013971Y006330D01*
X013542Y006759D01*
X013570Y006787D01*
X013618Y006739D01*
X013813Y006739D01*
X013950Y006877D01*
X013950Y007071D01*
X013813Y007209D01*
X013618Y007209D01*
X013570Y007161D01*
X013561Y007171D01*
X013598Y007208D01*
X013598Y007527D01*
X013540Y007585D01*
X013261Y007585D01*
X013185Y007661D01*
X013185Y007842D01*
X013204Y007842D01*
X013227Y007842D01*
X013234Y007844D01*
X013336Y007742D01*
X013420Y007658D01*
X013684Y007658D01*
X013674Y007622D01*
X013674Y007506D01*
X013932Y007506D01*
X013932Y007466D01*
X013971Y007466D01*
X013971Y007228D01*
X014108Y007228D01*
X014143Y007238D01*
X014175Y007256D01*
X014201Y007282D01*
X014219Y007314D01*
X014229Y007349D01*
X014229Y007466D01*
X013971Y007466D01*
X013971Y007506D01*
X014229Y007506D01*
X014229Y007622D01*
X014219Y007658D01*
X014201Y007690D01*
X014179Y007711D01*
X014189Y007720D01*
X014189Y008039D01*
X014131Y008097D01*
X013773Y008097D01*
X013714Y008039D01*
X013714Y007944D01*
X013538Y007944D01*
X013504Y007978D01*
X013504Y008176D01*
X013586Y008176D01*
X013586Y008354D01*
X013586Y008354D01*
X013586Y008176D01*
X013719Y008176D01*
X013764Y008188D01*
X013805Y008212D01*
X013838Y008245D01*
X013861Y008285D01*
X013873Y008331D01*
X013873Y008354D01*
X013873Y008368D01*
X014029Y008368D01*
X014029Y008350D01*
X014088Y008292D01*
X014445Y008292D01*
X014471Y008317D01*
X014471Y008291D02*
X013863Y008291D01*
X013873Y008354D02*
X013586Y008354D01*
X013873Y008354D01*
X013807Y008214D02*
X014471Y008214D01*
X014471Y008137D02*
X013504Y008137D01*
X013504Y008060D02*
X013735Y008060D01*
X013714Y007982D02*
X013504Y007982D01*
X013327Y007751D02*
X013185Y007751D01*
X013185Y007828D02*
X013250Y007828D01*
X013204Y007842D02*
X013204Y008129D01*
X013204Y008129D01*
X013204Y008416D01*
X013227Y008416D01*
X013272Y008404D01*
X013302Y008387D01*
X013311Y008423D01*
X013335Y008463D01*
X013339Y008468D01*
X013339Y008569D01*
X013361Y008590D01*
X013339Y008612D01*
X013339Y008726D01*
X013361Y008748D01*
X013339Y008769D01*
X013339Y008883D01*
X013361Y008905D01*
X013339Y008927D01*
X013339Y008961D01*
X013304Y008961D01*
X013282Y008983D01*
X013261Y008961D01*
X013146Y008961D01*
X013125Y008983D01*
X013103Y008961D01*
X012989Y008961D01*
X012967Y008983D01*
X012946Y008961D01*
X012832Y008961D01*
X012810Y008983D01*
X012788Y008961D01*
X012753Y008961D01*
X012753Y008929D01*
X012731Y008907D01*
X012753Y008885D01*
X012753Y008771D01*
X012731Y008750D01*
X012753Y008728D01*
X012753Y008614D01*
X012731Y008592D01*
X012753Y008571D01*
X012753Y008456D01*
X012731Y008435D01*
X012753Y008413D01*
X012753Y008376D01*
X012788Y008376D01*
X012810Y008354D01*
X012832Y008376D01*
X012946Y008376D01*
X012967Y008354D01*
X012989Y008376D01*
X013090Y008376D01*
X013094Y008380D01*
X013135Y008404D01*
X013180Y008416D01*
X013204Y008416D01*
X013204Y008129D01*
X013204Y008129D01*
X013204Y007842D01*
X013204Y007905D02*
X013204Y007905D01*
X013204Y007982D02*
X013204Y007982D01*
X013204Y008060D02*
X013204Y008060D01*
X013204Y008137D02*
X013204Y008137D01*
X013204Y008214D02*
X013204Y008214D01*
X013204Y008291D02*
X013204Y008291D01*
X013204Y008368D02*
X013204Y008368D01*
X013325Y008446D02*
X012742Y008446D01*
X012753Y008523D02*
X013339Y008523D01*
X013351Y008600D02*
X012739Y008600D01*
X012753Y008677D02*
X013339Y008677D01*
X013354Y008755D02*
X012736Y008755D01*
X012753Y008832D02*
X013339Y008832D01*
X013357Y008909D02*
X012733Y008909D01*
X012279Y008909D02*
X012081Y008909D01*
X012158Y008832D02*
X012259Y008832D01*
X012276Y008755D02*
X012167Y008755D01*
X012167Y008677D02*
X012259Y008677D01*
X012795Y008368D02*
X012824Y008368D01*
X012953Y008368D02*
X012982Y008368D01*
X013046Y008129D02*
X013046Y007604D01*
X013085Y007565D01*
X013282Y007368D01*
X013361Y007368D01*
X013598Y007364D02*
X013674Y007364D01*
X013674Y007349D02*
X013684Y007314D01*
X013702Y007282D01*
X013728Y007256D01*
X013760Y007238D01*
X013795Y007228D01*
X013932Y007228D01*
X013932Y007466D01*
X013674Y007466D01*
X013674Y007349D01*
X013699Y007287D02*
X013598Y007287D01*
X013598Y007210D02*
X014471Y007210D01*
X014471Y007287D02*
X014204Y007287D01*
X014229Y007364D02*
X014471Y007364D01*
X014471Y007442D02*
X014229Y007442D01*
X014229Y007519D02*
X014471Y007519D01*
X014471Y007596D02*
X014229Y007596D01*
X014210Y007673D02*
X014471Y007673D01*
X014471Y007751D02*
X014189Y007751D01*
X014189Y007828D02*
X014471Y007828D01*
X014471Y007905D02*
X014189Y007905D01*
X014189Y007982D02*
X014471Y007982D01*
X014471Y008060D02*
X014168Y008060D01*
X013586Y008214D02*
X013586Y008214D01*
X013586Y008291D02*
X013586Y008291D01*
X013586Y008354D02*
X013586Y008354D01*
X013833Y008986D02*
X013989Y008986D01*
X013996Y009064D02*
X013811Y009064D01*
X014057Y009141D02*
X013499Y009141D01*
X013404Y007673D02*
X013185Y007673D01*
X013250Y007596D02*
X013674Y007596D01*
X013674Y007519D02*
X013598Y007519D01*
X013598Y007442D02*
X013674Y007442D01*
X013932Y007442D02*
X013971Y007442D01*
X013971Y007364D02*
X013932Y007364D01*
X013932Y007287D02*
X013971Y007287D01*
X013889Y007133D02*
X014471Y007133D01*
X014471Y007055D02*
X013950Y007055D01*
X013950Y006978D02*
X014471Y006978D01*
X014471Y006901D02*
X013950Y006901D01*
X013897Y006824D02*
X014471Y006824D01*
X014471Y006746D02*
X013820Y006746D01*
X013709Y006592D02*
X014471Y006592D01*
X014471Y006669D02*
X013632Y006669D01*
X013611Y006746D02*
X013555Y006746D01*
X013382Y006515D02*
X012041Y006515D01*
X011964Y006437D02*
X013459Y006437D01*
X013536Y006360D02*
X011887Y006360D01*
X012431Y005279D02*
X012805Y005279D01*
X012219Y005163D02*
X012219Y005087D01*
X012595Y004712D01*
X012274Y004275D02*
X011942Y004275D01*
X011942Y004197D02*
X012197Y004197D01*
X012002Y004120D02*
X011942Y004120D01*
X011904Y004043D02*
X012002Y004043D01*
X012476Y003974D02*
X012493Y003957D01*
X012694Y003957D01*
X012890Y003957D01*
X013065Y003957D01*
X013070Y003939D01*
X013064Y003918D01*
X013064Y003840D01*
X013064Y003763D01*
X013070Y003742D01*
X013064Y003721D01*
X013064Y003643D01*
X013064Y003566D01*
X013070Y003545D01*
X013064Y003524D01*
X013064Y003446D01*
X013064Y003369D01*
X012987Y003369D01*
X012910Y003369D01*
X012874Y003360D01*
X012842Y003341D01*
X012830Y003329D01*
X012493Y003329D01*
X012476Y003312D01*
X012476Y003974D01*
X012476Y003966D02*
X012485Y003966D01*
X012476Y003889D02*
X013064Y003889D01*
X013064Y003840D02*
X013179Y003840D01*
X013064Y003840D01*
X013064Y003811D02*
X012476Y003811D01*
X012476Y003734D02*
X013068Y003734D01*
X013064Y003657D02*
X012476Y003657D01*
X012476Y003580D02*
X013064Y003580D01*
X013064Y003643D02*
X013179Y003643D01*
X013179Y003643D01*
X013179Y003643D01*
X013064Y003643D01*
X013064Y003502D02*
X012476Y003502D01*
X012476Y003425D02*
X013064Y003425D01*
X013064Y003446D02*
X013179Y003446D01*
X013179Y003446D01*
X013179Y003446D01*
X013064Y003446D01*
X012987Y003369D02*
X012987Y003092D01*
X012987Y003369D01*
X012987Y003348D02*
X012987Y003348D01*
X012987Y003271D02*
X012987Y003271D01*
X012987Y003193D02*
X012987Y003193D01*
X012987Y003116D02*
X012987Y003116D01*
X012987Y003092D02*
X012987Y003092D01*
X013185Y003039D02*
X013607Y003039D01*
X013597Y003116D02*
X013607Y003116D01*
X013619Y003271D02*
X013957Y003271D01*
X013957Y003348D02*
X014036Y003348D01*
X014036Y003273D02*
X014036Y003550D01*
X014265Y003550D01*
X014301Y003541D01*
X014332Y003523D01*
X014358Y003497D01*
X014377Y003465D01*
X014386Y003429D01*
X014386Y003273D01*
X014036Y003273D01*
X014036Y003271D02*
X014865Y003271D01*
X014865Y003348D02*
X014386Y003348D01*
X014386Y003425D02*
X014865Y003425D01*
X014865Y003502D02*
X014353Y003502D01*
X014386Y003193D02*
X014865Y003193D01*
X014540Y003116D02*
X014386Y003116D01*
X014386Y003039D02*
X014482Y003039D01*
X014482Y002962D02*
X014349Y002962D01*
X014482Y002884D02*
X013167Y002884D01*
X013185Y002962D02*
X013645Y002962D01*
X013490Y002807D02*
X014482Y002807D01*
X014482Y002730D02*
X013567Y002730D01*
X013596Y002653D02*
X014482Y002653D01*
X014482Y002575D02*
X013596Y002575D01*
X013588Y002498D02*
X014482Y002498D01*
X014482Y002421D02*
X013510Y002421D01*
X013242Y002344D02*
X014471Y002344D01*
X014469Y002266D02*
X013198Y002266D01*
X013121Y002189D02*
X014463Y002189D01*
X014452Y002112D02*
X012887Y002112D01*
X012887Y002189D02*
X012892Y002189D01*
X012887Y002035D02*
X014426Y002035D01*
X014401Y001958D02*
X012811Y001958D01*
X012536Y001880D02*
X014376Y001880D01*
X014337Y001803D02*
X013943Y001803D01*
X014020Y001726D02*
X014281Y001726D01*
X014225Y001649D02*
X014029Y001649D01*
X014029Y001571D02*
X014158Y001571D01*
X014052Y001494D02*
X014001Y001494D01*
X013945Y001417D02*
X013923Y001417D01*
X013645Y001803D02*
X012536Y001803D01*
X012536Y001726D02*
X013568Y001726D01*
X013559Y001649D02*
X012536Y001649D01*
X012506Y001571D02*
X013543Y001571D01*
X013466Y001494D02*
X011779Y001494D01*
X011792Y001571D02*
X012012Y001571D01*
X012009Y001573D02*
X012035Y001548D01*
X012067Y001529D01*
X012103Y001520D01*
X012239Y001520D01*
X012239Y001757D01*
X011981Y001757D01*
X011981Y001641D01*
X011991Y001605D01*
X012009Y001573D01*
X011981Y001649D02*
X011792Y001649D01*
X011792Y001726D02*
X011981Y001726D01*
X011981Y001803D02*
X011792Y001803D01*
X011792Y001880D02*
X011981Y001880D01*
X012239Y001726D02*
X012278Y001726D01*
X012278Y001649D02*
X012239Y001649D01*
X012239Y001571D02*
X012278Y001571D01*
X011958Y002274D02*
X011958Y002282D01*
X011971Y002294D01*
X011989Y002326D01*
X011998Y002361D01*
X011998Y002439D01*
X011998Y002516D01*
X011989Y002551D01*
X011971Y002583D01*
X011945Y002609D01*
X011913Y002628D01*
X011903Y002630D01*
X011951Y002630D01*
X012116Y002466D01*
X012116Y002388D01*
X012080Y002388D01*
X012021Y002330D01*
X012021Y002302D01*
X011987Y002302D01*
X011958Y002274D01*
X011994Y002344D02*
X012035Y002344D01*
X011998Y002421D02*
X012116Y002421D01*
X012083Y002498D02*
X011998Y002498D01*
X011998Y002439D02*
X011702Y002439D01*
X011702Y002439D01*
X011998Y002439D01*
X012006Y002575D02*
X011975Y002575D01*
X011702Y002439D02*
X011702Y002439D01*
X011405Y002439D01*
X011405Y002516D01*
X011405Y002516D01*
X010954Y002516D01*
X010954Y001967D01*
X011240Y001967D01*
X011252Y001979D01*
X011284Y001998D01*
X011319Y002007D01*
X011396Y002007D01*
X011396Y001892D01*
X011396Y001892D01*
X011396Y002007D01*
X011445Y002007D01*
X011445Y002282D01*
X011433Y002294D01*
X011414Y002326D01*
X011405Y002361D01*
X011405Y002439D01*
X011702Y002439D01*
X011405Y002421D02*
X010954Y002421D01*
X010954Y002498D02*
X011405Y002498D01*
X011409Y002344D02*
X010954Y002344D01*
X010954Y002266D02*
X011445Y002266D01*
X011445Y002189D02*
X010954Y002189D01*
X010954Y002112D02*
X011445Y002112D01*
X011445Y002035D02*
X010954Y002035D01*
X010647Y001880D02*
X010517Y001880D01*
X010440Y001803D02*
X010647Y001803D01*
X010647Y001726D02*
X010446Y001726D01*
X010446Y001649D02*
X010647Y001649D01*
X010647Y001571D02*
X010446Y001571D01*
X010379Y001494D02*
X010665Y001494D01*
X011396Y001958D02*
X011396Y001958D01*
X012476Y003348D02*
X012853Y003348D01*
X013341Y003348D02*
X013341Y003348D01*
X013341Y003425D02*
X013341Y003425D01*
X013341Y003446D02*
X013341Y003642D01*
X013341Y003643D01*
X013341Y003643D01*
X013341Y003446D01*
X013341Y003446D01*
X013341Y003502D02*
X013341Y003502D01*
X013341Y003580D02*
X013341Y003580D01*
X013341Y003643D02*
X013341Y003839D01*
X013341Y003840D01*
X013341Y003840D01*
X013341Y003643D01*
X013341Y003643D01*
X013341Y003657D02*
X013341Y003657D01*
X013341Y003734D02*
X013341Y003734D01*
X013341Y003811D02*
X013341Y003811D01*
X013341Y003840D02*
X013341Y004037D01*
X013341Y004235D01*
X013341Y004037D01*
X013341Y004037D01*
X013341Y004037D01*
X013341Y003840D01*
X013341Y003840D01*
X013341Y003889D02*
X013341Y003889D01*
X013341Y003966D02*
X013341Y003966D01*
X013341Y004043D02*
X013341Y004043D01*
X013341Y004120D02*
X013341Y004120D01*
X013341Y004197D02*
X013341Y004197D01*
X013344Y004352D02*
X013150Y004352D01*
X013150Y004275D02*
X014865Y004275D01*
X014865Y004352D02*
X013701Y004352D01*
X013772Y004429D02*
X014865Y004429D01*
X014865Y004506D02*
X013780Y004506D01*
X013542Y004506D02*
X013503Y004506D01*
X013503Y004429D02*
X013542Y004429D01*
X013542Y004352D02*
X013503Y004352D01*
X013575Y004197D02*
X014865Y004197D01*
X014865Y004120D02*
X013617Y004120D01*
X013619Y004043D02*
X014865Y004043D01*
X014865Y003966D02*
X013619Y003966D01*
X013619Y004037D02*
X013503Y004037D01*
X013619Y004037D01*
X013503Y004037D02*
X013503Y004037D01*
X013619Y003889D02*
X014865Y003889D01*
X014865Y003811D02*
X013619Y003811D01*
X013615Y003734D02*
X014865Y003734D01*
X014865Y003657D02*
X013619Y003657D01*
X013619Y003580D02*
X014865Y003580D01*
X014036Y003502D02*
X013957Y003502D01*
X013957Y003425D02*
X014036Y003425D01*
X014036Y003193D02*
X013957Y003193D01*
X013957Y003116D02*
X014036Y003116D01*
X014036Y003039D02*
X013957Y003039D01*
X013957Y002962D02*
X014036Y002962D01*
X013641Y003502D02*
X013619Y003502D01*
X013341Y003271D02*
X013341Y003271D01*
X013341Y003193D02*
X013341Y003193D01*
X013341Y003116D02*
X013341Y003116D01*
X013232Y002807D02*
X013203Y002807D01*
X013179Y003840D02*
X013179Y003840D01*
X013179Y003840D01*
X014055Y006129D02*
X014142Y006129D01*
X014114Y006206D02*
X014055Y006206D01*
X014018Y006283D02*
X014114Y006283D01*
X014124Y006360D02*
X013941Y006360D01*
X013864Y006437D02*
X014201Y006437D01*
X014471Y006515D02*
X013786Y006515D01*
X010617Y009759D02*
X010370Y009759D01*
X010827Y009913D02*
X010883Y009913D01*
X010861Y010299D02*
X011171Y010299D01*
X011171Y010377D02*
X010727Y010377D01*
X010705Y010454D02*
X011171Y010454D01*
X011168Y010531D02*
X011171Y010531D01*
X010948Y010531D02*
X010782Y010531D01*
X010859Y010608D02*
X010871Y010608D01*
X011732Y010531D02*
X011755Y010531D01*
X011732Y010454D02*
X011832Y010454D01*
X011904Y010377D02*
X011732Y010377D01*
X011732Y010299D02*
X011866Y010299D01*
X011866Y010222D02*
X011732Y010222D01*
X011732Y010145D02*
X011866Y010145D01*
X011845Y010068D02*
X011885Y010068D01*
X011885Y009991D02*
X011845Y009991D01*
X012988Y010686D02*
X013007Y010686D01*
X013007Y010763D02*
X012988Y010763D01*
X013350Y010686D02*
X013362Y010686D01*
X013373Y010840D02*
X013391Y010840D01*
X013373Y010917D02*
X013468Y010917D01*
X013369Y010995D02*
X013607Y010995D01*
X013607Y011072D02*
X013318Y011072D01*
X013336Y011149D02*
X013270Y011352D01*
X013103Y011474D01*
X013124Y011458D02*
X013648Y011458D01*
X013608Y011381D02*
X013231Y011381D01*
X013270Y011352D02*
X013270Y011352D01*
X013270Y011352D01*
X013286Y011304D02*
X013607Y011304D01*
X013607Y011226D02*
X013311Y011226D01*
X013475Y011535D02*
X014865Y011535D01*
X014865Y011458D02*
X014346Y011458D01*
X014386Y011381D02*
X014865Y011381D01*
X014865Y011304D02*
X014386Y011304D01*
X014386Y011226D02*
X014865Y011226D01*
X014865Y011613D02*
X013475Y011613D01*
X013475Y011690D02*
X014865Y011690D01*
X014865Y011767D02*
X013475Y011767D01*
X013475Y011844D02*
X014865Y011844D01*
X014865Y011922D02*
X013475Y011922D01*
X013679Y011999D02*
X014865Y011999D01*
X014865Y012076D02*
X013753Y012076D01*
X013753Y012153D02*
X014865Y012153D01*
X014865Y012230D02*
X013780Y012230D01*
X013858Y012308D02*
X014865Y012308D01*
X014865Y012385D02*
X013935Y012385D01*
X014012Y012462D02*
X014865Y012462D01*
X014865Y012539D02*
X014089Y012539D01*
X014345Y012617D02*
X014865Y012617D01*
X014865Y012694D02*
X014346Y012694D01*
X014346Y012771D02*
X014865Y012771D01*
X014865Y012848D02*
X014346Y012848D01*
X014346Y012926D02*
X014865Y012926D01*
X014491Y013003D02*
X014346Y013003D01*
X014321Y013080D02*
X014482Y013080D01*
X014482Y013157D02*
X013500Y013157D01*
X013500Y013080D02*
X013673Y013080D01*
X013647Y013003D02*
X013500Y013003D01*
X013500Y012926D02*
X013647Y012926D01*
X013647Y012848D02*
X013497Y012848D01*
X013500Y012771D02*
X013647Y012771D01*
X013647Y012694D02*
X013500Y012694D01*
X013500Y012617D02*
X013649Y012617D01*
X013685Y012539D02*
X013500Y012539D01*
X013608Y012462D02*
X013163Y012462D01*
X013163Y012385D02*
X013400Y012385D01*
X013323Y012308D02*
X013161Y012308D01*
X013189Y012230D02*
X013284Y012230D01*
X013284Y012153D02*
X013266Y012153D01*
X012580Y012820D02*
X012504Y012744D01*
X012504Y012736D01*
X012357Y012590D01*
X011856Y012590D01*
X011856Y012614D01*
X011847Y012623D01*
X011868Y012645D01*
X011887Y012676D01*
X011896Y012712D01*
X011896Y012765D01*
X012185Y012765D01*
X012243Y012823D01*
X012243Y013213D01*
X012397Y013366D01*
X012576Y013366D01*
X012576Y012823D01*
X012580Y012820D01*
X012576Y012848D02*
X012243Y012848D01*
X012243Y012926D02*
X012576Y012926D01*
X012576Y013003D02*
X012243Y013003D01*
X012243Y013080D02*
X012576Y013080D01*
X012576Y013157D02*
X012243Y013157D01*
X012265Y013235D02*
X012576Y013235D01*
X012576Y013312D02*
X012342Y013312D01*
X012169Y013544D02*
X011944Y013544D01*
X011929Y013529D02*
X011964Y013563D01*
X012189Y013563D01*
X012062Y013436D01*
X011886Y013436D01*
X011828Y013378D01*
X011828Y013086D01*
X011811Y013096D01*
X011775Y013106D01*
X011658Y013106D01*
X011658Y012868D01*
X011619Y012868D01*
X011619Y013106D01*
X011502Y013106D01*
X011496Y013104D01*
X011496Y013175D01*
X011412Y013259D01*
X011299Y013372D01*
X011299Y013467D01*
X011413Y013353D01*
X011608Y013353D01*
X011700Y013445D01*
X011845Y013445D01*
X011929Y013529D01*
X011867Y013466D02*
X012092Y013466D01*
X011839Y013389D02*
X011644Y013389D01*
X011828Y013312D02*
X011359Y013312D01*
X011377Y013389D02*
X011299Y013389D01*
X011299Y013466D02*
X011300Y013466D01*
X011437Y013235D02*
X011828Y013235D01*
X011828Y013157D02*
X011496Y013157D01*
X011619Y013080D02*
X011658Y013080D01*
X011658Y013003D02*
X011619Y013003D01*
X011619Y012926D02*
X011658Y012926D01*
X011891Y012694D02*
X012461Y012694D01*
X012531Y012771D02*
X012191Y012771D01*
X012384Y012617D02*
X011853Y012617D01*
X012496Y011535D02*
X012528Y011535D01*
X013957Y011458D02*
X014036Y011458D01*
X014036Y011381D02*
X013957Y011381D01*
X013957Y011304D02*
X014036Y011304D01*
X014036Y011226D02*
X013957Y011226D01*
X013957Y010995D02*
X014036Y010995D01*
X014036Y010917D02*
X013957Y010917D01*
X013500Y013235D02*
X014482Y013235D01*
X014482Y013312D02*
X013425Y013312D01*
X013425Y013389D02*
X014482Y013389D01*
X014482Y013466D02*
X013875Y013466D01*
X013952Y013544D02*
X014482Y013544D01*
X014482Y013621D02*
X014029Y013621D01*
X014090Y013681D02*
X014090Y013681D01*
X014106Y013698D02*
X014479Y013698D01*
X014471Y013775D02*
X014173Y013775D01*
X014242Y013853D02*
X014471Y013853D01*
X014469Y013930D02*
X014248Y013930D01*
X014248Y014007D02*
X014463Y014007D01*
X014450Y014084D02*
X014248Y014084D01*
X014248Y014162D02*
X014425Y014162D01*
X014278Y014239D02*
X014288Y014275D01*
X014334Y014393D02*
X014050Y014393D01*
X014050Y014470D02*
X014011Y014470D01*
X014011Y014548D02*
X014050Y014548D01*
X014050Y014625D02*
X014011Y014625D01*
X014046Y014702D02*
X013703Y014702D01*
X013780Y014625D02*
X013811Y014625D01*
X013676Y014533D02*
X013400Y014809D01*
X013347Y014666D02*
X013530Y014483D01*
X013517Y014483D01*
X013459Y014425D01*
X013459Y014106D01*
X013496Y014069D01*
X013459Y014031D01*
X013459Y013964D01*
X013445Y013964D01*
X013445Y013984D01*
X013408Y014022D01*
X013445Y014060D01*
X013445Y014378D01*
X013387Y014436D01*
X013069Y014436D01*
X013034Y014401D01*
X012991Y014401D01*
X012991Y014402D01*
X012933Y014460D01*
X012634Y014460D01*
X012625Y014451D01*
X012604Y014472D01*
X012572Y014491D01*
X012536Y014500D01*
X012425Y014500D01*
X012425Y014139D01*
X012395Y014139D01*
X012395Y014500D01*
X012283Y014500D01*
X012248Y014491D01*
X012216Y014472D01*
X012195Y014451D01*
X012185Y014460D01*
X011886Y014460D01*
X011850Y014424D01*
X011850Y014544D01*
X011971Y014666D01*
X013347Y014666D01*
X013388Y014625D02*
X011931Y014625D01*
X011854Y014548D02*
X013465Y014548D01*
X013504Y014470D02*
X012605Y014470D01*
X012425Y014470D02*
X012395Y014470D01*
X012395Y014393D02*
X012425Y014393D01*
X012425Y014316D02*
X012395Y014316D01*
X012395Y014239D02*
X012425Y014239D01*
X012425Y014162D02*
X012395Y014162D01*
X012214Y014470D02*
X011850Y014470D01*
X013228Y013825D02*
X013630Y013825D01*
X013676Y013872D01*
X013459Y014007D02*
X013423Y014007D01*
X013445Y014084D02*
X013480Y014084D01*
X013459Y014162D02*
X013445Y014162D01*
X013445Y014239D02*
X013459Y014239D01*
X013459Y014316D02*
X013445Y014316D01*
X013430Y014393D02*
X013459Y014393D01*
X013676Y014265D02*
X013676Y014533D01*
X013626Y014779D02*
X013940Y014779D01*
X013714Y014857D02*
X013549Y014857D01*
X008770Y009064D02*
X008740Y009064D01*
X008573Y009064D02*
X008543Y009064D01*
X008376Y009064D02*
X008346Y009064D01*
X008179Y009064D02*
X008149Y009064D01*
X007982Y009064D02*
X007952Y009064D01*
X007785Y009064D02*
X007755Y009064D01*
X007588Y009064D02*
X007558Y009064D01*
X007475Y005897D02*
X007475Y005897D01*
X007475Y005820D02*
X007475Y005820D01*
X007475Y005742D02*
X007475Y005742D01*
X007290Y005588D02*
X006982Y005588D01*
X006982Y005511D02*
X007298Y005511D01*
X007160Y005433D02*
X007121Y005433D01*
X007121Y005356D02*
X007160Y005356D01*
X007160Y005279D02*
X007121Y005279D01*
X002697Y013003D02*
X002381Y013003D01*
X002381Y013080D02*
X002697Y013080D01*
X002736Y013157D02*
X002381Y013157D01*
D50*
X002574Y013273D03*
X002574Y012525D03*
X003322Y013313D03*
X003912Y013785D03*
X004306Y013785D03*
X004818Y013982D03*
X004896Y014572D03*
X005491Y013667D03*
X006668Y013588D03*
X006904Y013313D03*
X006707Y014179D03*
X008991Y012643D03*
X009345Y012643D03*
X009148Y011974D03*
X009148Y011376D03*
X009833Y010639D03*
X009424Y009927D03*
X010920Y009533D03*
X011393Y008706D03*
X011168Y008313D03*
X011578Y008053D03*
X011558Y007679D03*
X011932Y008726D03*
X012377Y009376D03*
X012463Y009746D03*
X012101Y010242D03*
X012456Y010439D03*
X011944Y010675D03*
X011747Y011265D03*
X011707Y012053D03*
X011081Y012498D03*
X011629Y013234D03*
X011511Y013588D03*
X012377Y013116D03*
X012928Y012407D03*
X013519Y012171D03*
X014542Y011738D03*
X013597Y010714D03*
X013479Y010360D03*
X013125Y010163D03*
X014267Y009297D03*
X012889Y007360D03*
X013715Y006974D03*
X014148Y007131D03*
X014349Y006254D03*
X013715Y005281D03*
X013794Y003903D03*
X014570Y003309D03*
X013578Y002887D03*
X013361Y002604D03*
X013007Y002407D03*
X012652Y002131D03*
X012652Y001738D03*
X013794Y001620D03*
X011668Y003234D03*
X011314Y003470D03*
X011707Y004179D03*
X011589Y005006D03*
X012219Y005399D03*
X011038Y005557D03*
X010763Y005242D03*
X010408Y004533D03*
X010172Y004179D03*
X008676Y003588D03*
X008243Y002919D03*
X007416Y003037D03*
X006786Y002958D03*
X006078Y002289D03*
X006235Y001659D03*
X004936Y002604D03*
X004109Y002683D03*
X003924Y003317D03*
X004581Y003391D03*
X003211Y002738D03*
X002770Y003746D03*
X001983Y004218D03*
X002109Y005128D03*
X003007Y005832D03*
X003991Y007210D03*
X003204Y008037D03*
X003400Y008588D03*
X002231Y008694D03*
X002219Y008313D03*
X003085Y009769D03*
X002219Y010793D03*
X003794Y011147D03*
X005912Y009726D03*
X006558Y008702D03*
X006038Y007722D03*
X006550Y007368D03*
X006105Y006431D03*
X006353Y006202D03*
X006393Y005714D03*
X006747Y005517D03*
X006786Y005084D03*
X006550Y004257D03*
X007692Y004257D03*
X007889Y005242D03*
X005566Y006856D03*
X005054Y008273D03*
X004818Y008824D03*
X006845Y010840D03*
X010566Y011265D03*
X011058Y010754D03*
X011038Y010332D03*
X012416Y014557D03*
X011196Y014691D03*
X001944Y014415D03*
X010172Y002446D03*
X009975Y002053D03*
X010211Y001659D03*
X008204Y001659D03*
X002731Y001462D03*
D51*
X012652Y012683D02*
X012770Y012801D01*
X012770Y013087D01*
X012784Y013101D01*
D52*
X009963Y013230D02*
X009806Y013230D01*
X008861Y013230D02*
X008704Y013230D01*
X005491Y013667D02*
X004896Y013667D01*
X004795Y013565D01*
X005251Y001659D02*
X006235Y001659D01*
D53*
X005999Y003194D02*
X005999Y003785D01*
X005914Y003870D01*
X005450Y003870D01*
X005450Y004380D02*
X004710Y004380D01*
X004586Y004380D01*
X004070Y003864D01*
X003833Y003628D01*
X002889Y003628D01*
X002770Y003746D01*
X002574Y003943D01*
X002534Y003943D01*
X002534Y004198D01*
X002574Y004238D01*
X002534Y003943D02*
X002534Y003864D01*
X002534Y003824D01*
X002219Y003509D01*
X001668Y003509D01*
X001511Y003667D01*
X001511Y004021D01*
X003597Y004238D02*
X003814Y004238D01*
X004109Y004533D01*
X004109Y005950D01*
X003164Y006895D01*
X003164Y007643D01*
X003085Y007722D01*
X003204Y007840D01*
X003204Y008037D01*
X003085Y007722D02*
X002593Y007722D01*
X002731Y007860D01*
X002731Y009179D01*
X002887Y011775D02*
X002885Y011777D01*
X001668Y011777D01*
X002887Y011775D02*
X003204Y011775D01*
D54*
X005999Y003194D03*
D55*
X001274Y002565D03*
M02*
