G75*
%MOIN*%
%OFA0B0*%
%FSLAX24Y24*%
%IPPOS*%
%LPD*%
%AMOC8*
5,1,8,0,0,1.08239X$1,22.5*
%
%ADD10R,0.0315X0.0315*%
%ADD11R,0.0236X0.0276*%
%ADD12R,0.0157X0.0157*%
%ADD13R,0.0236X0.0236*%
%ADD14R,0.0276X0.0236*%
%ADD15R,0.0394X0.0394*%
%ADD16C,0.0310*%
%ADD17C,0.0394*%
%ADD18C,0.0271*%
%ADD19C,0.0087*%
%ADD20C,0.0079*%
%ADD21C,0.0337*%
%ADD22C,0.0416*%
%ADD23C,0.0100*%
D10*
X001333Y003391D03*
X001924Y003391D03*
X001806Y004624D03*
X001215Y004624D03*
X001215Y005631D03*
X001806Y005631D03*
X001806Y006226D03*
X001215Y006226D03*
X001215Y007525D03*
X001806Y007525D03*
D11*
X001747Y007053D03*
X001747Y006659D03*
X001353Y006659D03*
X001353Y007053D03*
X001381Y005135D03*
X001774Y005135D03*
X001578Y004057D03*
X001184Y004057D03*
X004578Y002084D03*
X004971Y002084D03*
X004940Y001509D03*
X004546Y001509D03*
D12*
X013085Y012880D03*
X013085Y013273D03*
X013085Y013667D03*
X013085Y014061D03*
X013479Y014061D03*
X013873Y014061D03*
X014267Y014061D03*
X014267Y013667D03*
X014267Y013273D03*
X014267Y012880D03*
X013873Y012880D03*
X013479Y012880D03*
D13*
X001554Y002998D03*
X001160Y002998D03*
D14*
X014660Y012486D03*
X014660Y012880D03*
D15*
X013952Y010281D03*
X013873Y009691D03*
X013519Y009061D03*
X013282Y008352D03*
X013125Y007761D03*
D16*
X003452Y002358D03*
X003452Y001858D03*
X002952Y001858D03*
X002952Y002358D03*
X002452Y002358D03*
X002452Y001858D03*
D17*
X001550Y009612D03*
X001550Y010112D03*
X001550Y010612D03*
X001550Y011112D03*
D18*
X002219Y010793D03*
X003085Y009769D03*
X002231Y008694D03*
X002219Y008313D03*
X003204Y008037D03*
X003400Y008588D03*
X004818Y008824D03*
X005054Y008273D03*
X006038Y007722D03*
X006550Y007368D03*
X006105Y006431D03*
X006353Y006202D03*
X006393Y005714D03*
X006747Y005517D03*
X006786Y005084D03*
X006550Y004257D03*
X007692Y004257D03*
X008676Y003588D03*
X008243Y002919D03*
X007416Y003037D03*
X006786Y002958D03*
X006078Y002289D03*
X006235Y001659D03*
X004936Y002604D03*
X004109Y002683D03*
X003924Y003317D03*
X004581Y003391D03*
X003211Y002738D03*
X002770Y003746D03*
X001983Y004218D03*
X002109Y005128D03*
X003007Y005832D03*
X003991Y007210D03*
X005566Y006856D03*
X006558Y008702D03*
X005912Y009726D03*
X006845Y010840D03*
X008991Y012643D03*
X009345Y012643D03*
X009148Y011974D03*
X009148Y011376D03*
X009833Y010639D03*
X009424Y009927D03*
X010920Y009533D03*
X011393Y008706D03*
X011168Y008313D03*
X011578Y008053D03*
X011558Y007679D03*
X011932Y008726D03*
X012377Y009376D03*
X012463Y009746D03*
X012101Y010242D03*
X012456Y010439D03*
X011944Y010675D03*
X011747Y011265D03*
X011707Y012053D03*
X011081Y012498D03*
X011629Y013234D03*
X011511Y013588D03*
X012377Y013116D03*
X012928Y012407D03*
X013519Y012171D03*
X014542Y011738D03*
X013597Y010714D03*
X013479Y010360D03*
X013125Y010163D03*
X014267Y009297D03*
X012889Y007360D03*
X013715Y006974D03*
X014148Y007131D03*
X014349Y006254D03*
X013715Y005281D03*
X013794Y003903D03*
X014570Y003309D03*
X013578Y002887D03*
X013361Y002604D03*
X013007Y002407D03*
X012652Y002131D03*
X012652Y001738D03*
X013794Y001620D03*
X011668Y003234D03*
X011314Y003470D03*
X011707Y004179D03*
X011589Y005006D03*
X012219Y005399D03*
X011038Y005557D03*
X010763Y005242D03*
X010408Y004533D03*
X010172Y004179D03*
X010172Y002446D03*
X009975Y002053D03*
X010211Y001659D03*
X008204Y001659D03*
X007889Y005242D03*
X011038Y010332D03*
X011058Y010754D03*
X010566Y011265D03*
X012416Y014557D03*
X011196Y014691D03*
X006904Y013313D03*
X006668Y013588D03*
X006707Y014179D03*
X005491Y013667D03*
X004818Y013982D03*
X004306Y013785D03*
X003912Y013785D03*
X003322Y013313D03*
X002574Y013273D03*
X002574Y012525D03*
X003794Y011147D03*
X001944Y014415D03*
X004896Y014572D03*
X002731Y001462D03*
D19*
X003452Y001687D02*
X003715Y001423D01*
X004459Y001423D01*
X004546Y001509D01*
X004546Y002053D01*
X004578Y002084D01*
X004581Y002088D01*
X004581Y003391D01*
X003924Y003317D02*
X003410Y003317D01*
X002452Y002358D01*
X002952Y002358D02*
X003211Y002618D01*
X003211Y002738D01*
X002952Y002470D02*
X002952Y002358D01*
X003452Y001858D02*
X003452Y001687D01*
X004936Y002120D02*
X004971Y002084D01*
X004936Y002120D02*
X004936Y002604D01*
X006471Y002840D02*
X007219Y002092D01*
X009463Y002092D01*
X009896Y001659D01*
X010211Y001659D01*
X009975Y002053D02*
X010487Y002053D01*
X011668Y003234D01*
X011707Y003273D01*
X011707Y003588D01*
X010763Y004533D01*
X010408Y004533D01*
X010172Y004179D02*
X010881Y003470D01*
X011314Y003470D01*
X010290Y002446D01*
X010172Y002446D01*
X007298Y002446D01*
X006786Y002958D01*
X006471Y003037D02*
X006471Y002840D01*
X006471Y003037D02*
X007692Y004257D01*
X006904Y004612D02*
X006550Y004257D01*
X006904Y004612D02*
X009621Y004612D01*
X010566Y005557D01*
X011038Y005557D01*
X011038Y004848D01*
X011707Y004179D01*
X012062Y004533D02*
X012062Y003037D01*
X012062Y002958D01*
X012652Y002368D01*
X012652Y002131D01*
X013007Y002407D02*
X012377Y003037D01*
X012377Y004691D01*
X011558Y005509D01*
X011558Y007679D01*
X011904Y007880D02*
X011904Y006187D01*
X011944Y006147D01*
X012495Y005596D01*
X012495Y005202D01*
X012849Y004848D01*
X012849Y003116D01*
X013361Y002604D01*
X013991Y002958D02*
X013991Y001817D01*
X013794Y001620D01*
X013991Y002958D02*
X013282Y003667D01*
X013282Y004809D01*
X012810Y005281D01*
X012810Y005675D01*
X012337Y006147D01*
X012337Y007919D01*
X011944Y008313D01*
X011168Y008313D01*
X011393Y008706D02*
X011432Y008746D01*
X011432Y011383D01*
X011786Y011738D01*
X011983Y011935D01*
X012022Y011974D01*
X012022Y013431D01*
X012495Y013903D01*
X012652Y014061D01*
X012770Y014061D01*
X013085Y014061D01*
X013085Y012880D02*
X013085Y012565D01*
X012928Y012407D01*
X013046Y012525D01*
X013479Y012801D02*
X013715Y012565D01*
X014148Y012131D01*
X014148Y011069D01*
X013794Y010714D01*
X013597Y010714D01*
X013479Y010360D02*
X013991Y010360D01*
X013952Y010320D01*
X013952Y010281D01*
X013991Y010360D02*
X014070Y010360D01*
X013873Y009691D02*
X013558Y009691D01*
X013243Y010006D01*
X013125Y010124D01*
X013125Y010163D01*
X012967Y009651D02*
X012574Y010045D01*
X012495Y010045D01*
X012259Y010045D01*
X012219Y010084D01*
X012101Y010202D01*
X012101Y010242D01*
X012456Y010439D02*
X013322Y009572D01*
X013519Y009376D01*
X013519Y009297D01*
X013519Y009061D01*
X013282Y008509D02*
X013282Y008352D01*
X013282Y008509D02*
X012967Y008824D01*
X012967Y009651D01*
X012377Y009376D02*
X012810Y008943D01*
X012810Y008037D01*
X013085Y007761D01*
X013125Y007761D01*
X011904Y007880D02*
X011731Y008053D01*
X011578Y008053D01*
X010881Y009494D02*
X010920Y009533D01*
X010881Y009494D02*
X008440Y009494D01*
X007141Y008194D01*
X006865Y007919D01*
X006865Y007210D01*
X006707Y007053D01*
X006353Y007053D01*
X006038Y007368D01*
X006038Y007407D01*
X006038Y007722D01*
X006550Y007368D02*
X006550Y008313D01*
X010605Y012368D01*
X010605Y013194D01*
X010999Y013588D01*
X011511Y013588D01*
X011668Y012053D02*
X011707Y012053D01*
X011668Y012053D02*
X011274Y011659D01*
X010290Y011659D01*
X009424Y010793D01*
X009424Y009927D01*
X008015Y010840D02*
X006845Y010840D01*
X006660Y010840D01*
X006353Y011147D01*
X006353Y012843D01*
X005883Y013313D01*
X003322Y013313D01*
X006353Y012843D02*
X006823Y013313D01*
X006904Y013313D01*
X009148Y011974D02*
X008015Y010840D01*
X006105Y006431D02*
X004668Y006431D01*
X003637Y005399D01*
X002731Y005399D01*
X002495Y005635D01*
X001877Y005635D01*
X001873Y005631D01*
X001806Y005631D01*
X001381Y005135D02*
X001215Y005301D01*
X001215Y005631D01*
X001215Y006226D02*
X001314Y006324D01*
X001353Y006324D01*
X001806Y006226D02*
X002810Y006226D01*
X003007Y006029D01*
X003007Y005832D01*
X002613Y005045D02*
X002180Y004612D01*
X001818Y004612D01*
X001806Y004624D01*
X001215Y004624D02*
X001184Y004592D01*
X001184Y004525D01*
X001184Y004057D01*
X001432Y003706D02*
X001314Y003588D01*
X001314Y003411D01*
X001333Y003391D01*
X001432Y003706D02*
X001904Y003706D01*
X002928Y004730D01*
X003873Y004730D01*
X004857Y005714D01*
X006393Y005714D01*
X006274Y006108D02*
X006353Y006187D01*
X006353Y006202D01*
X006259Y006108D01*
X004818Y006108D01*
X003755Y005045D01*
X003715Y005045D01*
X002613Y005045D01*
X003026Y004494D02*
X001924Y003391D01*
X001554Y003021D01*
X001554Y002998D01*
X001869Y003336D02*
X001924Y003391D01*
X003026Y004494D02*
X004030Y004494D01*
X004896Y005360D01*
X006511Y005360D01*
X003204Y008037D02*
X002574Y007407D01*
X002574Y006935D01*
X002298Y006659D01*
X001747Y006659D01*
X001353Y007053D02*
X001353Y007387D01*
X001215Y007525D01*
X001806Y007525D02*
X001806Y007584D01*
X001806Y007899D01*
X002219Y008313D01*
X011589Y005006D02*
X012062Y004533D01*
X013479Y012801D02*
X013479Y012880D01*
X014267Y012880D02*
X014660Y012880D01*
D20*
X006747Y005517D02*
X006589Y005360D01*
X006511Y005360D01*
X002456Y002407D02*
X002452Y002403D01*
X002452Y002358D01*
X001353Y006324D02*
X001353Y006659D01*
X003794Y011147D02*
X006353Y011147D01*
D21*
X005999Y003194D03*
D22*
X001274Y002565D03*
D23*
X001497Y001502D02*
X001631Y001502D01*
X001634Y001495D02*
X001739Y001390D01*
X001877Y001333D01*
X002026Y001333D01*
X002164Y001390D01*
X002269Y001495D01*
X002308Y001587D01*
X002363Y001565D01*
X002422Y001553D01*
X002424Y001553D01*
X002424Y001830D01*
X002479Y001830D01*
X002479Y001553D01*
X002482Y001553D01*
X002541Y001565D01*
X002596Y001588D01*
X002646Y001621D01*
X002688Y001663D01*
X002699Y001679D01*
X002779Y001599D01*
X002891Y001553D01*
X003012Y001553D01*
X003124Y001599D01*
X003202Y001677D01*
X003258Y001620D01*
X003258Y001606D01*
X003556Y001308D01*
X002062Y001308D01*
X001908Y001320D01*
X001616Y001415D01*
X001368Y001595D01*
X001188Y001844D01*
X001093Y002135D01*
X001081Y002289D01*
X001081Y002730D01*
X001151Y002730D01*
X001151Y002989D01*
X001169Y002989D01*
X001169Y002730D01*
X001298Y002730D01*
X001336Y002740D01*
X001354Y002750D01*
X001374Y002730D01*
X001643Y002730D01*
X001634Y002720D01*
X001577Y002582D01*
X001577Y002433D01*
X001634Y002295D01*
X001739Y002190D01*
X001877Y002133D01*
X002026Y002133D01*
X002164Y002190D01*
X002183Y002209D01*
X002193Y002185D01*
X002273Y002105D01*
X002257Y002095D01*
X002215Y002052D01*
X002184Y002006D01*
X002164Y002026D01*
X002026Y002083D01*
X001877Y002083D01*
X001739Y002026D01*
X001634Y001920D01*
X001577Y001782D01*
X001577Y001633D01*
X001634Y001495D01*
X001652Y001403D02*
X001726Y001403D01*
X001590Y001600D02*
X001364Y001600D01*
X001293Y001699D02*
X001577Y001699D01*
X001583Y001797D02*
X001221Y001797D01*
X001171Y001896D02*
X001624Y001896D01*
X001708Y001994D02*
X001139Y001994D01*
X001107Y002093D02*
X002255Y002093D01*
X002190Y002191D02*
X002165Y002191D01*
X001738Y002191D02*
X001088Y002191D01*
X001081Y002290D02*
X001639Y002290D01*
X001595Y002388D02*
X001081Y002388D01*
X001081Y002487D02*
X001577Y002487D01*
X001578Y002585D02*
X001081Y002585D01*
X001081Y002684D02*
X001619Y002684D01*
X001822Y002860D02*
X001822Y003015D01*
X001890Y003084D01*
X002144Y003084D01*
X002231Y003172D01*
X002231Y003425D01*
X002488Y003681D01*
X002528Y003584D01*
X002609Y003504D01*
X002714Y003460D01*
X002827Y003460D01*
X002932Y003504D01*
X003013Y003584D01*
X003056Y003689D01*
X003056Y003802D01*
X003013Y003907D01*
X002932Y003988D01*
X002835Y004028D01*
X003107Y004300D01*
X004111Y004300D01*
X004224Y004413D01*
X004977Y005166D01*
X006591Y005166D01*
X006595Y005170D01*
X006668Y005170D01*
X006729Y005232D01*
X006804Y005232D01*
X006909Y005275D01*
X006989Y005356D01*
X007032Y005461D01*
X007032Y005574D01*
X006989Y005679D01*
X006909Y005759D01*
X006804Y005803D01*
X006690Y005803D01*
X006669Y005794D01*
X006635Y005876D01*
X006554Y005956D01*
X006524Y005969D01*
X006595Y006041D01*
X006639Y006146D01*
X006639Y006259D01*
X006595Y006364D01*
X006515Y006444D01*
X006410Y006488D01*
X006391Y006488D01*
X006347Y006592D01*
X006267Y006673D01*
X006162Y006716D01*
X006048Y006716D01*
X005943Y006673D01*
X005895Y006624D01*
X005738Y006624D01*
X005808Y006694D01*
X005851Y006799D01*
X005851Y006913D01*
X005808Y007018D01*
X005727Y007098D01*
X005623Y007141D01*
X005509Y007141D01*
X005404Y007098D01*
X005324Y007018D01*
X002767Y007018D01*
X002767Y007116D02*
X005448Y007116D01*
X005324Y007018D02*
X005280Y006913D01*
X005280Y006799D01*
X005324Y006694D01*
X005393Y006624D01*
X004588Y006624D01*
X003556Y005593D01*
X003171Y005593D01*
X003249Y005671D01*
X003292Y005775D01*
X003292Y005889D01*
X003249Y005994D01*
X003200Y006042D01*
X003200Y006109D01*
X003004Y006306D01*
X002890Y006420D01*
X002113Y006420D01*
X002113Y006446D01*
X002094Y006465D01*
X002378Y006465D01*
X002654Y006741D01*
X002767Y006854D01*
X002767Y007327D01*
X003192Y007751D01*
X003260Y007751D01*
X003365Y007795D01*
X003446Y007875D01*
X003489Y007980D01*
X003489Y008094D01*
X003446Y008199D01*
X003365Y008279D01*
X003260Y008323D01*
X003147Y008323D01*
X003042Y008279D01*
X002961Y008199D01*
X002918Y008094D01*
X002918Y008025D01*
X002380Y007487D01*
X002380Y007015D01*
X002218Y006853D01*
X002015Y006853D01*
X002015Y006859D01*
X002007Y006867D01*
X002015Y006895D01*
X002015Y007044D01*
X001756Y007044D01*
X001756Y007062D01*
X002015Y007062D01*
X002015Y007210D01*
X002013Y007218D01*
X002026Y007218D01*
X002113Y007306D01*
X002113Y007745D01*
X002026Y007833D01*
X002013Y007833D01*
X002208Y008027D01*
X002276Y008027D01*
X002381Y008071D01*
X002461Y008151D01*
X002505Y008256D01*
X002505Y008369D01*
X002461Y008474D01*
X002381Y008555D01*
X002276Y008598D01*
X002162Y008598D01*
X002058Y008555D01*
X001977Y008474D01*
X001934Y008369D01*
X001934Y008301D01*
X001612Y007979D01*
X001612Y007833D01*
X001586Y007833D01*
X001511Y007757D01*
X001435Y007833D01*
X001081Y007833D01*
X001081Y011408D01*
X001358Y011408D01*
X001354Y011406D01*
X001256Y011308D01*
X001203Y011181D01*
X001203Y011043D01*
X001256Y010915D01*
X001309Y010862D01*
X001256Y010808D01*
X001203Y010681D01*
X001203Y010543D01*
X001256Y010415D01*
X001309Y010362D01*
X001256Y010308D01*
X001203Y010181D01*
X001203Y010043D01*
X001256Y009915D01*
X001309Y009862D01*
X001281Y009833D01*
X001243Y009776D01*
X001216Y009713D01*
X001203Y009646D01*
X001203Y009612D01*
X001550Y009612D01*
X001897Y009612D01*
X001897Y009646D01*
X001884Y009713D01*
X001857Y009776D01*
X001819Y009833D01*
X001791Y009862D01*
X001844Y009915D01*
X001897Y010043D01*
X001897Y010181D01*
X001844Y010308D01*
X001791Y010362D01*
X001844Y010415D01*
X001897Y010543D01*
X001897Y010681D01*
X001844Y010808D01*
X001791Y010862D01*
X001844Y010915D01*
X001897Y011043D01*
X001897Y011181D01*
X001844Y011308D01*
X001746Y011406D01*
X001742Y011408D01*
X003677Y011408D01*
X003632Y011389D01*
X003552Y011309D01*
X003509Y011204D01*
X003509Y011090D01*
X003552Y010985D01*
X003632Y010905D01*
X003737Y010862D01*
X003851Y010862D01*
X003956Y010905D01*
X004009Y010958D01*
X006269Y010958D01*
X006273Y010954D01*
X006580Y010646D01*
X006635Y010646D01*
X006684Y010598D01*
X006788Y010555D01*
X006902Y010555D01*
X007007Y010598D01*
X007055Y010646D01*
X008095Y010646D01*
X008208Y010760D01*
X008863Y011415D01*
X008863Y011319D01*
X008906Y011214D01*
X008987Y011134D01*
X009065Y011101D01*
X006808Y008845D01*
X006800Y008864D01*
X006720Y008944D01*
X006615Y008988D01*
X006951Y008988D01*
X006853Y008889D02*
X006775Y008889D01*
X006615Y008988D02*
X006501Y008988D01*
X001081Y008988D01*
X001081Y009086D02*
X007050Y009086D01*
X007148Y009185D02*
X001081Y009185D01*
X001081Y009283D02*
X001437Y009283D01*
X001449Y009278D02*
X001516Y009265D01*
X001550Y009265D01*
X001584Y009265D01*
X001651Y009278D01*
X001714Y009304D01*
X001771Y009342D01*
X001819Y009391D01*
X001857Y009448D01*
X001884Y009511D01*
X001897Y009578D01*
X001897Y009612D01*
X001550Y009612D01*
X001550Y009612D01*
X001550Y009612D01*
X001203Y009612D01*
X001203Y009578D01*
X001216Y009511D01*
X001243Y009448D01*
X001281Y009391D01*
X001329Y009342D01*
X001386Y009304D01*
X001449Y009278D01*
X001550Y009283D02*
X001550Y009283D01*
X001550Y009265D02*
X001550Y009612D01*
X001550Y009612D01*
X001550Y009265D01*
X001663Y009283D02*
X007247Y009283D01*
X007345Y009382D02*
X001811Y009382D01*
X001871Y009480D02*
X007444Y009480D01*
X007542Y009579D02*
X001897Y009579D01*
X001891Y009677D02*
X003478Y009677D01*
X003480Y009676D02*
X003557Y009676D01*
X004502Y009676D01*
X004557Y009730D01*
X004557Y010792D01*
X004502Y010847D01*
X003480Y010847D01*
X003425Y010792D01*
X003425Y009730D01*
X003480Y009676D01*
X003425Y009776D02*
X001857Y009776D01*
X001803Y009874D02*
X003425Y009874D01*
X003425Y009973D02*
X001868Y009973D01*
X001897Y010071D02*
X003425Y010071D01*
X003425Y010170D02*
X001897Y010170D01*
X001861Y010268D02*
X003425Y010268D01*
X003425Y010367D02*
X001796Y010367D01*
X001865Y010465D02*
X003425Y010465D01*
X003425Y010564D02*
X001897Y010564D01*
X001897Y010662D02*
X003425Y010662D01*
X003425Y010761D02*
X001864Y010761D01*
X001793Y010859D02*
X006367Y010859D01*
X006466Y010761D02*
X004557Y010761D01*
X004557Y010662D02*
X006564Y010662D01*
X006766Y010564D02*
X004557Y010564D01*
X004557Y010465D02*
X005319Y010465D01*
X005319Y010476D02*
X005319Y009929D01*
X005371Y009877D01*
X005445Y009877D01*
X006154Y009877D01*
X006206Y009929D01*
X006206Y010476D01*
X006154Y010528D01*
X005371Y010528D01*
X005319Y010476D01*
X005319Y010367D02*
X004557Y010367D01*
X004557Y010268D02*
X005319Y010268D01*
X005319Y010170D02*
X004557Y010170D01*
X004557Y010071D02*
X005319Y010071D01*
X005319Y009973D02*
X004557Y009973D01*
X004557Y009874D02*
X007838Y009874D01*
X007739Y009776D02*
X004557Y009776D01*
X004504Y009677D02*
X007641Y009677D01*
X007936Y009973D02*
X006206Y009973D01*
X006206Y010071D02*
X008035Y010071D01*
X008133Y010170D02*
X006206Y010170D01*
X006206Y010268D02*
X008232Y010268D01*
X008330Y010367D02*
X006206Y010367D01*
X006206Y010465D02*
X008429Y010465D01*
X008527Y010564D02*
X006925Y010564D01*
X007055Y011034D02*
X007007Y011082D01*
X006902Y011126D01*
X006788Y011126D01*
X006690Y011085D01*
X006547Y011227D01*
X006547Y012763D01*
X006822Y013038D01*
X006848Y013027D01*
X006961Y013027D01*
X007066Y013071D01*
X007146Y013151D01*
X007190Y013256D01*
X007190Y013369D01*
X007146Y013474D01*
X007066Y013555D01*
X006961Y013598D01*
X006848Y013598D01*
X006743Y013555D01*
X006662Y013474D01*
X006628Y013391D01*
X006353Y013117D01*
X005964Y013506D01*
X005733Y013506D01*
X005776Y013610D01*
X005776Y013724D01*
X005733Y013829D01*
X005653Y013909D01*
X005548Y013952D01*
X005434Y013952D01*
X005329Y013909D01*
X005249Y013829D01*
X005205Y013724D01*
X005205Y013610D01*
X005248Y013506D01*
X004379Y013506D01*
X004468Y013543D01*
X004548Y013623D01*
X004591Y013728D01*
X004591Y013804D01*
X004656Y013740D01*
X004761Y013696D01*
X004875Y013696D01*
X004979Y013740D01*
X005060Y013820D01*
X005103Y013925D01*
X005103Y014039D01*
X005060Y014144D01*
X004979Y014224D01*
X004875Y014267D01*
X004761Y014267D01*
X004656Y014224D01*
X004576Y014144D01*
X004532Y014039D01*
X004532Y013963D01*
X004468Y014027D01*
X004363Y014071D01*
X004249Y014071D01*
X004144Y014027D01*
X004109Y013992D01*
X004074Y014027D01*
X003969Y014071D01*
X003855Y014071D01*
X003750Y014027D01*
X003670Y013947D01*
X003627Y013842D01*
X003627Y013728D01*
X003670Y013623D01*
X003750Y013543D01*
X003839Y013506D01*
X003532Y013506D01*
X003483Y013555D01*
X003378Y013598D01*
X003265Y013598D01*
X003160Y013555D01*
X003080Y013474D01*
X003036Y013369D01*
X003036Y013256D01*
X003080Y013151D01*
X003160Y013071D01*
X003265Y013027D01*
X003378Y013027D01*
X003483Y013071D01*
X003532Y013119D01*
X005803Y013119D01*
X006159Y012763D01*
X006159Y011337D01*
X004009Y011337D01*
X003956Y011389D01*
X003911Y011408D01*
X004423Y011408D01*
X004478Y011463D01*
X004478Y012328D01*
X004423Y012383D01*
X002392Y012383D01*
X002392Y014218D01*
X002337Y014272D01*
X001163Y014272D01*
X001188Y014349D01*
X001368Y014597D01*
X001616Y014777D01*
X001908Y014872D01*
X002062Y014884D01*
X013479Y014884D01*
X013633Y014872D01*
X013925Y014777D01*
X014173Y014597D01*
X014353Y014349D01*
X014373Y014289D01*
X014126Y014289D01*
X014070Y014233D01*
X014014Y014289D01*
X013732Y014289D01*
X013676Y014233D01*
X013620Y014289D01*
X013338Y014289D01*
X013282Y014233D01*
X013226Y014289D01*
X012945Y014289D01*
X012910Y014254D01*
X012572Y014254D01*
X012415Y014097D01*
X012415Y014097D01*
X011829Y013511D01*
X011829Y012312D01*
X011764Y012338D01*
X011651Y012338D01*
X011546Y012295D01*
X011465Y012215D01*
X011422Y012110D01*
X011422Y012081D01*
X011194Y011853D01*
X010364Y011853D01*
X010685Y012174D01*
X010685Y012174D01*
X010799Y012287D01*
X010799Y012434D01*
X010839Y012336D01*
X010920Y012256D01*
X011025Y012212D01*
X011138Y012212D01*
X011243Y012256D01*
X011324Y012336D01*
X011367Y012441D01*
X011367Y012554D01*
X011324Y012659D01*
X011243Y012740D01*
X011138Y012783D01*
X011025Y012783D01*
X010920Y012740D01*
X010839Y012659D01*
X010799Y012561D01*
X010799Y013114D01*
X011079Y013394D01*
X011300Y013394D01*
X011349Y013346D01*
X011454Y013303D01*
X011567Y013303D01*
X011672Y013346D01*
X011753Y013426D01*
X011796Y013531D01*
X011796Y013645D01*
X011753Y013750D01*
X011672Y013830D01*
X011567Y013874D01*
X011454Y013874D01*
X011349Y013830D01*
X011300Y013782D01*
X010919Y013782D01*
X010805Y013668D01*
X010411Y013275D01*
X010411Y012448D01*
X009423Y011459D01*
X009391Y011537D01*
X009310Y011618D01*
X009205Y011661D01*
X009109Y011661D01*
X009137Y011688D01*
X009205Y011688D01*
X009310Y011732D01*
X009391Y011812D01*
X009434Y011917D01*
X009434Y012031D01*
X009391Y012136D01*
X009310Y012216D01*
X009205Y012260D01*
X009092Y012260D01*
X008987Y012216D01*
X008906Y012136D01*
X008863Y012031D01*
X008863Y011962D01*
X007934Y011034D01*
X007055Y011034D01*
X007033Y011056D02*
X007957Y011056D01*
X008055Y011155D02*
X006619Y011155D01*
X006547Y011253D02*
X008154Y011253D01*
X008252Y011352D02*
X006547Y011352D01*
X006547Y011450D02*
X008351Y011450D01*
X008449Y011549D02*
X006547Y011549D01*
X006547Y011647D02*
X008548Y011647D01*
X008646Y011746D02*
X006547Y011746D01*
X006547Y011844D02*
X008745Y011844D01*
X008843Y011943D02*
X006547Y011943D01*
X006547Y012041D02*
X008867Y012041D01*
X008910Y012140D02*
X006547Y012140D01*
X006547Y012238D02*
X009041Y012238D01*
X009048Y012358D02*
X009153Y012401D01*
X009168Y012417D01*
X009184Y012401D01*
X009288Y012358D01*
X009402Y012358D01*
X009507Y012401D01*
X009587Y012482D01*
X009631Y012587D01*
X009631Y012700D01*
X009587Y012805D01*
X009507Y012885D01*
X009402Y012929D01*
X009288Y012929D01*
X009184Y012885D01*
X009168Y012870D01*
X009153Y012885D01*
X009048Y012929D01*
X008934Y012929D01*
X008829Y012885D01*
X008749Y012805D01*
X008705Y012700D01*
X008705Y012587D01*
X008749Y012482D01*
X008829Y012401D01*
X008934Y012358D01*
X009048Y012358D01*
X008795Y012435D02*
X006547Y012435D01*
X006547Y012337D02*
X010300Y012337D01*
X010202Y012238D02*
X009256Y012238D01*
X009386Y012140D02*
X010103Y012140D01*
X010005Y012041D02*
X009430Y012041D01*
X009434Y011943D02*
X009906Y011943D01*
X009808Y011844D02*
X009404Y011844D01*
X009324Y011746D02*
X009709Y011746D01*
X009611Y011647D02*
X009238Y011647D01*
X009379Y011549D02*
X009512Y011549D01*
X008965Y011155D02*
X008603Y011155D01*
X008505Y011056D02*
X009020Y011056D01*
X008921Y010958D02*
X008406Y010958D01*
X008308Y010859D02*
X008823Y010859D01*
X008724Y010761D02*
X008209Y010761D01*
X008111Y010662D02*
X008626Y010662D01*
X008702Y011253D02*
X008890Y011253D01*
X008863Y011352D02*
X008800Y011352D01*
X009830Y010925D02*
X010318Y011413D01*
X010280Y011322D01*
X010280Y011209D01*
X010324Y011104D01*
X010404Y011023D01*
X010509Y010980D01*
X010623Y010980D01*
X010727Y011023D01*
X010808Y011104D01*
X010851Y011209D01*
X010851Y011322D01*
X010808Y011427D01*
X010770Y011465D01*
X011240Y011465D01*
X011238Y011464D01*
X011238Y010977D01*
X011220Y010996D01*
X011115Y011039D01*
X011001Y011039D01*
X010896Y010996D01*
X010816Y010915D01*
X010772Y010810D01*
X010772Y010697D01*
X010816Y010592D01*
X010896Y010511D01*
X011001Y010468D01*
X011115Y010468D01*
X011220Y010511D01*
X011238Y010530D01*
X011238Y008951D01*
X011231Y008948D01*
X011150Y008868D01*
X011107Y008763D01*
X011107Y008649D01*
X011128Y008598D01*
X011111Y008598D01*
X011006Y008555D01*
X010926Y008474D01*
X010883Y008369D01*
X010883Y008256D01*
X010926Y008151D01*
X011006Y008071D01*
X011111Y008027D01*
X011225Y008027D01*
X011292Y008055D01*
X011292Y007996D01*
X011335Y007891D01*
X011351Y007876D01*
X011316Y007840D01*
X011272Y007736D01*
X011272Y007622D01*
X011316Y007517D01*
X011364Y007469D01*
X011364Y005429D01*
X011511Y005282D01*
X011428Y005248D01*
X011347Y005167D01*
X011304Y005062D01*
X011304Y004949D01*
X011347Y004844D01*
X011428Y004763D01*
X011533Y004720D01*
X011601Y004720D01*
X011868Y004453D01*
X011868Y004421D01*
X011764Y004464D01*
X011696Y004464D01*
X011232Y004928D01*
X011232Y005347D01*
X011280Y005395D01*
X011324Y005500D01*
X011324Y005613D01*
X011280Y005718D01*
X011200Y005799D01*
X011095Y005842D01*
X010981Y005842D01*
X010876Y005799D01*
X010828Y005750D01*
X010486Y005750D01*
X009671Y004936D01*
X009671Y005318D01*
X009619Y005370D01*
X008836Y005370D01*
X008783Y005318D01*
X008783Y004806D01*
X006824Y004806D01*
X006562Y004543D01*
X006493Y004543D01*
X006388Y004500D01*
X006308Y004419D01*
X006264Y004314D01*
X006264Y004201D01*
X006308Y004096D01*
X006388Y004015D01*
X006493Y003972D01*
X006607Y003972D01*
X006712Y004015D01*
X006792Y004096D01*
X006836Y004201D01*
X006836Y004269D01*
X006985Y004418D01*
X007449Y004418D01*
X007406Y004314D01*
X007406Y004246D01*
X006317Y003157D01*
X006317Y003258D01*
X006269Y003375D01*
X006179Y003464D01*
X006062Y003513D01*
X005935Y003513D01*
X005818Y003464D01*
X005729Y003375D01*
X005680Y003258D01*
X005680Y003131D01*
X005729Y003014D01*
X005818Y002925D01*
X005935Y002876D01*
X006062Y002876D01*
X006179Y002925D01*
X006269Y003014D01*
X006278Y003035D01*
X006278Y002760D01*
X007026Y002012D01*
X007139Y001898D01*
X009383Y001898D01*
X009703Y001579D01*
X009816Y001465D01*
X010001Y001465D01*
X010050Y001417D01*
X010155Y001374D01*
X010268Y001374D01*
X010373Y001417D01*
X010453Y001497D01*
X010497Y001602D01*
X010497Y001716D01*
X010453Y001821D01*
X010415Y001859D01*
X010567Y001859D01*
X010681Y001973D01*
X011656Y002948D01*
X011725Y002948D01*
X011830Y002992D01*
X011868Y003030D01*
X011868Y002878D01*
X011982Y002765D01*
X012432Y002315D01*
X012410Y002293D01*
X012367Y002188D01*
X012367Y002075D01*
X012410Y001970D01*
X012491Y001889D01*
X012596Y001846D01*
X012709Y001846D01*
X012814Y001889D01*
X012894Y001970D01*
X012938Y002075D01*
X012938Y002126D01*
X012950Y002122D01*
X013063Y002122D01*
X013168Y002165D01*
X013249Y002245D01*
X013283Y002327D01*
X013304Y002318D01*
X013418Y002318D01*
X013523Y002362D01*
X013603Y002442D01*
X013647Y002547D01*
X013647Y002661D01*
X013603Y002766D01*
X013523Y002846D01*
X013418Y002889D01*
X013349Y002889D01*
X013043Y003196D01*
X013043Y004774D01*
X013089Y004728D01*
X013089Y003587D01*
X013797Y002878D01*
X013797Y001905D01*
X013737Y001905D01*
X013632Y001862D01*
X013552Y001781D01*
X013509Y001676D01*
X013509Y001563D01*
X013552Y001458D01*
X013632Y001378D01*
X013710Y001345D01*
X013633Y001320D01*
X013479Y001308D01*
X009742Y001308D01*
X009742Y001388D01*
X009625Y001505D01*
X006480Y001505D01*
X006521Y001602D01*
X006521Y001716D01*
X006477Y001821D01*
X006397Y001901D01*
X006292Y001945D01*
X006178Y001945D01*
X006073Y001901D01*
X005993Y001821D01*
X005949Y001716D01*
X005949Y001602D01*
X005990Y001505D01*
X005168Y001505D01*
X005164Y001500D01*
X004949Y001500D01*
X004949Y001519D01*
X005208Y001519D01*
X005208Y001667D01*
X005198Y001705D01*
X005178Y001739D01*
X005150Y001767D01*
X005116Y001787D01*
X005081Y001796D01*
X005152Y001796D01*
X005239Y001884D01*
X005239Y002284D01*
X005152Y002372D01*
X005130Y002372D01*
X005130Y002394D01*
X005178Y002442D01*
X005221Y002547D01*
X005221Y002661D01*
X005178Y002766D01*
X005098Y002846D01*
X004993Y002889D01*
X004879Y002889D01*
X004775Y002846D01*
X004775Y003181D01*
X004824Y003230D01*
X004867Y003335D01*
X004867Y003448D01*
X004824Y003553D01*
X004743Y003633D01*
X004638Y003677D01*
X004525Y003677D01*
X004420Y003633D01*
X004339Y003553D01*
X004296Y003448D01*
X004296Y003335D01*
X004339Y003230D01*
X004388Y003181D01*
X004388Y002756D01*
X004351Y002844D01*
X004271Y002925D01*
X004166Y002968D01*
X004052Y002968D01*
X003947Y002925D01*
X003867Y002844D01*
X003824Y002739D01*
X003824Y002626D01*
X003867Y002521D01*
X003905Y002483D01*
X003877Y002483D01*
X003751Y002431D01*
X003710Y002531D01*
X003624Y002616D01*
X003512Y002663D01*
X003489Y002663D01*
X003497Y002681D01*
X003497Y002795D01*
X003453Y002900D01*
X003373Y002980D01*
X003355Y002987D01*
X003490Y003123D01*
X003714Y003123D01*
X003762Y003074D01*
X003867Y003031D01*
X003981Y003031D01*
X004086Y003074D01*
X004166Y003155D01*
X004210Y003260D01*
X004210Y003373D01*
X004166Y003478D01*
X004086Y003559D01*
X003981Y003602D01*
X003867Y003602D01*
X003762Y003559D01*
X003714Y003510D01*
X003330Y003510D01*
X002483Y002663D01*
X002391Y002663D01*
X002308Y002628D01*
X002269Y002720D01*
X002164Y002826D01*
X002026Y002883D01*
X001877Y002883D01*
X001822Y002860D01*
X001822Y002881D02*
X001872Y002881D01*
X001822Y002979D02*
X002799Y002979D01*
X002701Y002881D02*
X002031Y002881D01*
X002207Y002782D02*
X002602Y002782D01*
X002504Y002684D02*
X002285Y002684D01*
X002231Y003176D02*
X002996Y003176D01*
X002898Y003078D02*
X001884Y003078D01*
X002231Y003275D02*
X003095Y003275D01*
X003193Y003373D02*
X002231Y003373D01*
X002278Y003472D02*
X002685Y003472D01*
X002856Y003472D02*
X003292Y003472D01*
X002999Y003570D02*
X003791Y003570D01*
X004057Y003570D02*
X004357Y003570D01*
X004306Y003472D02*
X004169Y003472D01*
X004210Y003373D02*
X004296Y003373D01*
X004321Y003275D02*
X004210Y003275D01*
X004175Y003176D02*
X004388Y003176D01*
X004388Y003078D02*
X004089Y003078D01*
X003903Y002881D02*
X003461Y002881D01*
X003497Y002782D02*
X003841Y002782D01*
X003824Y002684D02*
X003497Y002684D01*
X003655Y002585D02*
X003840Y002585D01*
X003901Y002487D02*
X003728Y002487D01*
X003374Y002979D02*
X004388Y002979D01*
X004388Y002881D02*
X004315Y002881D01*
X004377Y002782D02*
X004388Y002782D01*
X004775Y002881D02*
X004858Y002881D01*
X004775Y002979D02*
X005764Y002979D01*
X005702Y003078D02*
X004775Y003078D01*
X004775Y003176D02*
X005680Y003176D01*
X005687Y003275D02*
X004842Y003275D01*
X004867Y003373D02*
X005728Y003373D01*
X005836Y003472D02*
X004857Y003472D01*
X004806Y003570D02*
X006731Y003570D01*
X006632Y003472D02*
X006161Y003472D01*
X006269Y003373D02*
X006534Y003373D01*
X006435Y003275D02*
X006310Y003275D01*
X006317Y003176D02*
X006337Y003176D01*
X006278Y002979D02*
X006234Y002979D01*
X006278Y002881D02*
X006074Y002881D01*
X005924Y002881D02*
X005013Y002881D01*
X005161Y002782D02*
X006278Y002782D01*
X006354Y002684D02*
X005212Y002684D01*
X005221Y002585D02*
X006452Y002585D01*
X006551Y002487D02*
X005196Y002487D01*
X005130Y002388D02*
X006649Y002388D01*
X006748Y002290D02*
X005234Y002290D01*
X005239Y002191D02*
X006846Y002191D01*
X006945Y002093D02*
X005239Y002093D01*
X005239Y001994D02*
X007043Y001994D01*
X006487Y001797D02*
X009484Y001797D01*
X009583Y001699D02*
X006521Y001699D01*
X006520Y001600D02*
X009681Y001600D01*
X009628Y001502D02*
X009780Y001502D01*
X009726Y001403D02*
X010083Y001403D01*
X010340Y001403D02*
X013607Y001403D01*
X013534Y001502D02*
X010455Y001502D01*
X010496Y001600D02*
X013509Y001600D01*
X013518Y001699D02*
X010497Y001699D01*
X010463Y001797D02*
X013568Y001797D01*
X013715Y001896D02*
X012821Y001896D01*
X012905Y001994D02*
X013797Y001994D01*
X013797Y002093D02*
X012938Y002093D01*
X013195Y002191D02*
X013797Y002191D01*
X013797Y002290D02*
X013267Y002290D01*
X013549Y002388D02*
X013797Y002388D01*
X013797Y002487D02*
X013622Y002487D01*
X013647Y002585D02*
X013797Y002585D01*
X013797Y002684D02*
X013637Y002684D01*
X013586Y002782D02*
X013797Y002782D01*
X013794Y002881D02*
X013439Y002881D01*
X013260Y002979D02*
X013696Y002979D01*
X013597Y003078D02*
X013161Y003078D01*
X013063Y003176D02*
X013499Y003176D01*
X013400Y003275D02*
X013043Y003275D01*
X013043Y003373D02*
X013302Y003373D01*
X013203Y003472D02*
X013043Y003472D01*
X013043Y003570D02*
X013105Y003570D01*
X013089Y003669D02*
X013043Y003669D01*
X013043Y003767D02*
X013089Y003767D01*
X013089Y003866D02*
X013043Y003866D01*
X013043Y003964D02*
X013089Y003964D01*
X013089Y004063D02*
X013043Y004063D01*
X013043Y004161D02*
X013089Y004161D01*
X013089Y004260D02*
X013043Y004260D01*
X013043Y004358D02*
X013089Y004358D01*
X013089Y004457D02*
X013043Y004457D01*
X013043Y004555D02*
X013089Y004555D01*
X013089Y004654D02*
X013043Y004654D01*
X013043Y004752D02*
X013065Y004752D01*
X013317Y005048D02*
X014854Y005048D01*
X014854Y005146D02*
X013218Y005146D01*
X013120Y005245D02*
X014854Y005245D01*
X014854Y005343D02*
X013021Y005343D01*
X013004Y005361D02*
X013004Y005755D01*
X012890Y005869D01*
X012531Y006227D01*
X012531Y007999D01*
X012418Y008113D01*
X012060Y008470D01*
X012094Y008484D01*
X012174Y008564D01*
X012217Y008669D01*
X012217Y008783D01*
X012174Y008888D01*
X012094Y008968D01*
X011989Y009012D01*
X011875Y009012D01*
X011770Y008968D01*
X011690Y008888D01*
X011658Y008811D01*
X011635Y008868D01*
X011626Y008877D01*
X011626Y011007D01*
X011690Y010980D01*
X011804Y010980D01*
X011909Y011023D01*
X011989Y011104D01*
X012032Y011209D01*
X012032Y011322D01*
X011989Y011427D01*
X011909Y011507D01*
X011853Y011531D01*
X011866Y011544D01*
X012177Y011854D01*
X012177Y011854D01*
X012216Y011894D01*
X012216Y013350D01*
X012689Y013823D01*
X012733Y013867D01*
X012910Y013867D01*
X012913Y013864D01*
X012887Y013838D01*
X012867Y013804D01*
X012857Y013765D01*
X012857Y013667D01*
X013085Y013667D01*
X013085Y013667D01*
X012857Y013667D01*
X012857Y013568D01*
X012867Y013530D01*
X012887Y013496D01*
X012913Y013470D01*
X012857Y013414D01*
X012857Y013132D01*
X012913Y013076D01*
X012857Y013020D01*
X012857Y012739D01*
X012892Y012704D01*
X012892Y012693D01*
X012871Y012693D01*
X012766Y012649D01*
X012686Y012569D01*
X012642Y012464D01*
X012642Y012350D01*
X012686Y012245D01*
X012766Y012165D01*
X012871Y012122D01*
X012985Y012122D01*
X013090Y012165D01*
X013170Y012245D01*
X013214Y012350D01*
X013214Y012419D01*
X013279Y012484D01*
X013279Y012704D01*
X013282Y012707D01*
X013338Y012651D01*
X013355Y012651D01*
X013550Y012456D01*
X013462Y012456D01*
X013357Y012413D01*
X013276Y012333D01*
X013233Y012228D01*
X013233Y012114D01*
X013276Y012009D01*
X013357Y011929D01*
X013462Y011885D01*
X013575Y011885D01*
X013680Y011929D01*
X013761Y012009D01*
X013804Y012114D01*
X013804Y012202D01*
X013955Y012051D01*
X013955Y011149D01*
X013761Y010955D01*
X013759Y010956D01*
X013654Y011000D01*
X013540Y011000D01*
X013435Y010956D01*
X013355Y010876D01*
X013312Y010771D01*
X013312Y010657D01*
X013332Y010608D01*
X013317Y010602D01*
X013237Y010522D01*
X013203Y010440D01*
X013182Y010449D01*
X013068Y010449D01*
X012963Y010405D01*
X012883Y010325D01*
X012871Y010297D01*
X012741Y010427D01*
X012741Y010495D01*
X012698Y010600D01*
X012617Y010681D01*
X012512Y010724D01*
X012399Y010724D01*
X012294Y010681D01*
X012228Y010615D01*
X012229Y010618D01*
X012229Y010732D01*
X012186Y010837D01*
X012105Y010917D01*
X012001Y010960D01*
X011887Y010960D01*
X011782Y010917D01*
X011702Y010837D01*
X011658Y010732D01*
X011658Y010618D01*
X011702Y010513D01*
X011782Y010433D01*
X011858Y010401D01*
X011816Y010299D01*
X011816Y010185D01*
X011859Y010080D01*
X011939Y010000D01*
X012044Y009956D01*
X012073Y009956D01*
X012178Y009851D01*
X012493Y009851D01*
X012774Y009571D01*
X012774Y009253D01*
X012662Y009364D01*
X012662Y009432D01*
X012619Y009537D01*
X012539Y009618D01*
X012434Y009661D01*
X012320Y009661D01*
X012215Y009618D01*
X012135Y009537D01*
X012091Y009432D01*
X012091Y009319D01*
X012135Y009214D01*
X012215Y009134D01*
X012320Y009090D01*
X012388Y009090D01*
X012616Y008862D01*
X012616Y007957D01*
X012778Y007795D01*
X012778Y007623D01*
X012727Y007602D01*
X012647Y007522D01*
X012603Y007417D01*
X012603Y007303D01*
X012647Y007198D01*
X012727Y007118D01*
X012832Y007074D01*
X012945Y007074D01*
X013050Y007118D01*
X013131Y007198D01*
X013174Y007303D01*
X013174Y007415D01*
X013384Y007415D01*
X013472Y007502D01*
X013472Y008005D01*
X013541Y008005D01*
X013629Y008093D01*
X013629Y008611D01*
X013541Y008699D01*
X013367Y008699D01*
X013363Y008703D01*
X013363Y008703D01*
X013352Y008714D01*
X013777Y008714D01*
X013865Y008802D01*
X013865Y009320D01*
X013841Y009344D01*
X014132Y009344D01*
X014220Y009432D01*
X014220Y009943D01*
X014298Y010022D01*
X014298Y010540D01*
X014211Y010628D01*
X013982Y010628D01*
X014342Y010988D01*
X014342Y012212D01*
X014229Y012325D01*
X013909Y012645D01*
X013903Y012651D01*
X014014Y012651D01*
X014070Y012707D01*
X014126Y012651D01*
X014380Y012651D01*
X014372Y012624D01*
X014372Y012495D01*
X014651Y012495D01*
X014651Y012477D01*
X014372Y012477D01*
X014372Y012348D01*
X014383Y012310D01*
X014402Y012276D01*
X014430Y012248D01*
X014465Y012228D01*
X014503Y012218D01*
X014651Y012218D01*
X014651Y012477D01*
X014669Y012477D01*
X014669Y012218D01*
X014818Y012218D01*
X014854Y012227D01*
X014854Y010442D01*
X014577Y010442D01*
X014460Y010325D01*
X014460Y006517D01*
X014406Y006539D01*
X014292Y006539D01*
X014187Y006496D01*
X014107Y006415D01*
X014064Y006310D01*
X014064Y006197D01*
X014107Y006092D01*
X014187Y006011D01*
X014292Y005968D01*
X014406Y005968D01*
X014460Y005990D01*
X014460Y005749D01*
X014577Y005632D01*
X014854Y005632D01*
X014854Y002489D01*
X014577Y002489D01*
X014460Y002372D01*
X014460Y002289D01*
X014448Y002135D01*
X014353Y001844D01*
X014173Y001595D01*
X014059Y001512D01*
X014080Y001563D01*
X014080Y001631D01*
X014185Y001736D01*
X014185Y003039D01*
X014071Y003152D01*
X013476Y003747D01*
X013476Y004889D01*
X013363Y005002D01*
X013004Y005361D01*
X013004Y005442D02*
X014854Y005442D01*
X014854Y005540D02*
X013004Y005540D01*
X013004Y005639D02*
X014571Y005639D01*
X014472Y005737D02*
X013004Y005737D01*
X012923Y005836D02*
X014460Y005836D01*
X014460Y005934D02*
X012824Y005934D01*
X012890Y005869D02*
X012890Y005869D01*
X012726Y006033D02*
X014166Y006033D01*
X014091Y006131D02*
X012627Y006131D01*
X012531Y006230D02*
X014064Y006230D01*
X014071Y006328D02*
X012531Y006328D01*
X012531Y006427D02*
X014119Y006427D01*
X014259Y006525D02*
X012531Y006525D01*
X012531Y006624D02*
X014460Y006624D01*
X014460Y006722D02*
X013854Y006722D01*
X013877Y006732D02*
X013957Y006812D01*
X014001Y006917D01*
X014001Y007031D01*
X013957Y007136D01*
X013877Y007216D01*
X013772Y007260D01*
X013659Y007260D01*
X013554Y007216D01*
X013473Y007136D01*
X013430Y007031D01*
X013430Y006917D01*
X013473Y006812D01*
X013554Y006732D01*
X013659Y006688D01*
X013772Y006688D01*
X013877Y006732D01*
X013961Y006821D02*
X014460Y006821D01*
X014460Y006919D02*
X014001Y006919D01*
X014001Y007018D02*
X014460Y007018D01*
X014460Y007116D02*
X013965Y007116D01*
X013878Y007215D02*
X014460Y007215D01*
X014460Y007313D02*
X013174Y007313D01*
X013174Y007412D02*
X014460Y007412D01*
X014460Y007510D02*
X013472Y007510D01*
X013472Y007609D02*
X014460Y007609D01*
X014460Y007707D02*
X013472Y007707D01*
X013472Y007806D02*
X014460Y007806D01*
X014460Y007904D02*
X013472Y007904D01*
X013472Y008003D02*
X014460Y008003D01*
X014460Y008101D02*
X013629Y008101D01*
X013629Y008200D02*
X014460Y008200D01*
X014460Y008298D02*
X013629Y008298D01*
X013629Y008397D02*
X014460Y008397D01*
X014460Y008495D02*
X013629Y008495D01*
X013629Y008594D02*
X014460Y008594D01*
X014460Y008692D02*
X013548Y008692D01*
X013855Y008791D02*
X014460Y008791D01*
X014460Y008889D02*
X013865Y008889D01*
X013865Y008988D02*
X014460Y008988D01*
X014460Y009086D02*
X013865Y009086D01*
X013865Y009185D02*
X014460Y009185D01*
X014460Y009283D02*
X013865Y009283D01*
X014170Y009382D02*
X014460Y009382D01*
X014460Y009480D02*
X014220Y009480D01*
X014220Y009579D02*
X014460Y009579D01*
X014460Y009677D02*
X014220Y009677D01*
X014220Y009776D02*
X014460Y009776D01*
X014460Y009874D02*
X014220Y009874D01*
X014249Y009973D02*
X014460Y009973D01*
X014460Y010071D02*
X014298Y010071D01*
X014298Y010170D02*
X014460Y010170D01*
X014460Y010268D02*
X014298Y010268D01*
X014298Y010367D02*
X014503Y010367D01*
X014298Y010465D02*
X014854Y010465D01*
X014854Y010564D02*
X014275Y010564D01*
X014115Y010761D02*
X014854Y010761D01*
X014854Y010859D02*
X014213Y010859D01*
X014312Y010958D02*
X014854Y010958D01*
X014854Y011056D02*
X014342Y011056D01*
X014342Y011155D02*
X014854Y011155D01*
X014854Y011253D02*
X014342Y011253D01*
X014342Y011352D02*
X014854Y011352D01*
X014854Y011450D02*
X014342Y011450D01*
X014342Y011549D02*
X014854Y011549D01*
X014854Y011647D02*
X014342Y011647D01*
X014342Y011746D02*
X014854Y011746D01*
X014854Y011844D02*
X014342Y011844D01*
X014342Y011943D02*
X014854Y011943D01*
X014854Y012041D02*
X014342Y012041D01*
X014342Y012140D02*
X014854Y012140D01*
X014669Y012238D02*
X014651Y012238D01*
X014651Y012337D02*
X014669Y012337D01*
X014669Y012435D02*
X014651Y012435D01*
X014372Y012435D02*
X014118Y012435D01*
X014020Y012534D02*
X014372Y012534D01*
X014375Y012632D02*
X013921Y012632D01*
X013909Y012645D02*
X013909Y012645D01*
X014217Y012337D02*
X014375Y012337D01*
X014315Y012238D02*
X014446Y012238D01*
X013955Y012041D02*
X013774Y012041D01*
X013804Y012140D02*
X013866Y012140D01*
X013955Y011943D02*
X013694Y011943D01*
X013955Y011844D02*
X012167Y011844D01*
X012216Y011943D02*
X013343Y011943D01*
X013263Y012041D02*
X012216Y012041D01*
X012216Y012140D02*
X012827Y012140D01*
X012693Y012238D02*
X012216Y012238D01*
X012216Y012337D02*
X012648Y012337D01*
X012642Y012435D02*
X012216Y012435D01*
X012216Y012534D02*
X012671Y012534D01*
X012749Y012632D02*
X012216Y012632D01*
X012216Y012731D02*
X012864Y012731D01*
X012857Y012829D02*
X012216Y012829D01*
X012216Y012928D02*
X012857Y012928D01*
X012863Y013026D02*
X012216Y013026D01*
X012216Y013125D02*
X012864Y013125D01*
X012857Y013223D02*
X012216Y013223D01*
X012216Y013322D02*
X012857Y013322D01*
X012863Y013420D02*
X012286Y013420D01*
X012385Y013519D02*
X012873Y013519D01*
X012857Y013617D02*
X012483Y013617D01*
X012582Y013716D02*
X012857Y013716D01*
X012873Y013814D02*
X012680Y013814D01*
X012689Y013823D02*
X012689Y013823D01*
X012428Y014110D02*
X010290Y014110D01*
X010329Y014094D02*
X010212Y014143D01*
X010085Y014143D01*
X009968Y014094D01*
X009879Y014005D01*
X009830Y013888D01*
X009830Y013761D01*
X009879Y013644D01*
X009968Y013555D01*
X010085Y013506D01*
X010212Y013506D01*
X010329Y013555D01*
X010418Y013644D01*
X010467Y013761D01*
X010467Y013888D01*
X010418Y014005D01*
X010329Y014094D01*
X010411Y014011D02*
X012329Y014011D01*
X012231Y013913D02*
X010456Y013913D01*
X010467Y013814D02*
X011333Y013814D01*
X011688Y013814D02*
X012132Y013814D01*
X012034Y013716D02*
X011767Y013716D01*
X011796Y013617D02*
X011935Y013617D01*
X011837Y013519D02*
X011791Y013519D01*
X011829Y013420D02*
X011747Y013420D01*
X011829Y013322D02*
X011614Y013322D01*
X011407Y013322D02*
X011006Y013322D01*
X010908Y013223D02*
X011829Y013223D01*
X011829Y013125D02*
X010809Y013125D01*
X010799Y013026D02*
X011829Y013026D01*
X011829Y012928D02*
X010799Y012928D01*
X010799Y012829D02*
X011829Y012829D01*
X011829Y012731D02*
X011252Y012731D01*
X011335Y012632D02*
X011829Y012632D01*
X011829Y012534D02*
X011367Y012534D01*
X011365Y012435D02*
X011829Y012435D01*
X011829Y012337D02*
X011768Y012337D01*
X011647Y012337D02*
X011324Y012337D01*
X011202Y012238D02*
X011489Y012238D01*
X011434Y012140D02*
X010651Y012140D01*
X010553Y012041D02*
X011383Y012041D01*
X011284Y011943D02*
X010454Y011943D01*
X010750Y012238D02*
X010961Y012238D01*
X010839Y012337D02*
X010799Y012337D01*
X010799Y012632D02*
X010828Y012632D01*
X010799Y012731D02*
X010911Y012731D01*
X010411Y012731D02*
X009618Y012731D01*
X009631Y012632D02*
X010411Y012632D01*
X010411Y012534D02*
X009609Y012534D01*
X009541Y012435D02*
X010399Y012435D01*
X010411Y012829D02*
X009563Y012829D01*
X009404Y012928D02*
X010411Y012928D01*
X010411Y013026D02*
X006811Y013026D01*
X006712Y012928D02*
X008932Y012928D01*
X009050Y012928D02*
X009286Y012928D01*
X008773Y012829D02*
X006614Y012829D01*
X006547Y012731D02*
X008718Y012731D01*
X008705Y012632D02*
X006547Y012632D01*
X006547Y012534D02*
X008727Y012534D01*
X007667Y013519D02*
X010055Y013519D01*
X009906Y013617D02*
X007816Y013617D01*
X007843Y013644D02*
X007892Y013761D01*
X007892Y013888D01*
X007843Y014005D01*
X007754Y014094D01*
X007637Y014143D01*
X007510Y014143D01*
X007393Y014094D01*
X007304Y014005D01*
X007256Y013888D01*
X007256Y013761D01*
X007304Y013644D01*
X007393Y013555D01*
X007510Y013506D01*
X007637Y013506D01*
X007754Y013555D01*
X007843Y013644D01*
X007873Y013716D02*
X009849Y013716D01*
X009830Y013814D02*
X007892Y013814D01*
X007881Y013913D02*
X009841Y013913D01*
X009886Y014011D02*
X007836Y014011D01*
X007716Y014110D02*
X010006Y014110D01*
X010448Y013716D02*
X010853Y013716D01*
X010754Y013617D02*
X010391Y013617D01*
X010242Y013519D02*
X010656Y013519D01*
X010557Y013420D02*
X007169Y013420D01*
X007190Y013322D02*
X010459Y013322D01*
X010411Y013223D02*
X007176Y013223D01*
X007120Y013125D02*
X010411Y013125D01*
X011970Y011647D02*
X013955Y011647D01*
X013955Y011549D02*
X011871Y011549D01*
X011966Y011450D02*
X012897Y011450D01*
X012928Y011463D02*
X012811Y011415D01*
X012721Y011325D01*
X012673Y011208D01*
X012673Y011082D01*
X012721Y010965D01*
X012811Y010875D01*
X012928Y010827D01*
X013054Y010827D01*
X013171Y010875D01*
X013261Y010965D01*
X013309Y011082D01*
X013309Y011208D01*
X013261Y011325D01*
X013171Y011415D01*
X013054Y011463D01*
X012928Y011463D01*
X013085Y011450D02*
X013955Y011450D01*
X013955Y011352D02*
X013234Y011352D01*
X013290Y011253D02*
X013955Y011253D01*
X013955Y011155D02*
X013309Y011155D01*
X013299Y011056D02*
X013862Y011056D01*
X013764Y010958D02*
X013755Y010958D01*
X013439Y010958D02*
X013254Y010958D01*
X013348Y010859D02*
X013133Y010859D01*
X013312Y010761D02*
X012217Y010761D01*
X012229Y010662D02*
X012275Y010662D01*
X012163Y010859D02*
X012849Y010859D01*
X012728Y010958D02*
X012006Y010958D01*
X011942Y011056D02*
X012683Y011056D01*
X012673Y011155D02*
X012010Y011155D01*
X012032Y011253D02*
X012692Y011253D01*
X012748Y011352D02*
X012020Y011352D01*
X011881Y010958D02*
X011626Y010958D01*
X011626Y010859D02*
X011724Y010859D01*
X011670Y010761D02*
X011626Y010761D01*
X011626Y010662D02*
X011658Y010662D01*
X011681Y010564D02*
X011626Y010564D01*
X011626Y010465D02*
X011749Y010465D01*
X011844Y010367D02*
X011626Y010367D01*
X011626Y010268D02*
X011816Y010268D01*
X011822Y010170D02*
X011626Y010170D01*
X011626Y010071D02*
X011868Y010071D01*
X012004Y009973D02*
X011626Y009973D01*
X011626Y009874D02*
X012155Y009874D01*
X012176Y009579D02*
X011626Y009579D01*
X011626Y009677D02*
X012667Y009677D01*
X012577Y009579D02*
X012766Y009579D01*
X012774Y009480D02*
X012642Y009480D01*
X012662Y009382D02*
X012774Y009382D01*
X012774Y009283D02*
X012743Y009283D01*
X012491Y008988D02*
X012046Y008988D01*
X012172Y008889D02*
X012589Y008889D01*
X012616Y008791D02*
X012214Y008791D01*
X012217Y008692D02*
X012616Y008692D01*
X012616Y008594D02*
X012186Y008594D01*
X012105Y008495D02*
X012616Y008495D01*
X012616Y008397D02*
X012133Y008397D01*
X012232Y008298D02*
X012616Y008298D01*
X012616Y008200D02*
X012330Y008200D01*
X012429Y008101D02*
X012616Y008101D01*
X012616Y008003D02*
X012527Y008003D01*
X012531Y007904D02*
X012669Y007904D01*
X012767Y007806D02*
X012531Y007806D01*
X012531Y007707D02*
X012778Y007707D01*
X012744Y007609D02*
X012531Y007609D01*
X012531Y007510D02*
X012642Y007510D01*
X012603Y007412D02*
X012531Y007412D01*
X012531Y007313D02*
X012603Y007313D01*
X012640Y007215D02*
X012531Y007215D01*
X012531Y007116D02*
X012730Y007116D01*
X012531Y007018D02*
X013430Y007018D01*
X013430Y006919D02*
X012531Y006919D01*
X012531Y006821D02*
X013470Y006821D01*
X013577Y006722D02*
X012531Y006722D01*
X013047Y007116D02*
X013465Y007116D01*
X013552Y007215D02*
X013138Y007215D01*
X014439Y006525D02*
X014460Y006525D01*
X014854Y004949D02*
X013415Y004949D01*
X013476Y004851D02*
X014854Y004851D01*
X014854Y004752D02*
X013476Y004752D01*
X013476Y004654D02*
X014854Y004654D01*
X014854Y004555D02*
X013476Y004555D01*
X013476Y004457D02*
X014854Y004457D01*
X014854Y004358D02*
X013476Y004358D01*
X013476Y004260D02*
X014854Y004260D01*
X014854Y004161D02*
X013476Y004161D01*
X013476Y004063D02*
X014854Y004063D01*
X014854Y003964D02*
X013476Y003964D01*
X013476Y003866D02*
X014854Y003866D01*
X014854Y003767D02*
X013476Y003767D01*
X013554Y003669D02*
X014854Y003669D01*
X014854Y003570D02*
X013653Y003570D01*
X013751Y003472D02*
X014854Y003472D01*
X014854Y003373D02*
X013850Y003373D01*
X013948Y003275D02*
X014854Y003275D01*
X014854Y003176D02*
X014047Y003176D01*
X014145Y003078D02*
X014854Y003078D01*
X014854Y002979D02*
X014185Y002979D01*
X014185Y002881D02*
X014854Y002881D01*
X014854Y002782D02*
X014185Y002782D01*
X014185Y002684D02*
X014854Y002684D01*
X014854Y002585D02*
X014185Y002585D01*
X014185Y002487D02*
X014575Y002487D01*
X014477Y002388D02*
X014185Y002388D01*
X014185Y002290D02*
X014460Y002290D01*
X014453Y002191D02*
X014185Y002191D01*
X014185Y002093D02*
X014434Y002093D01*
X014402Y001994D02*
X014185Y001994D01*
X014185Y001896D02*
X014370Y001896D01*
X014320Y001797D02*
X014185Y001797D01*
X014147Y001699D02*
X014248Y001699D01*
X014177Y001600D02*
X014080Y001600D01*
X012484Y001896D02*
X010604Y001896D01*
X010703Y001994D02*
X012400Y001994D01*
X012367Y002093D02*
X010801Y002093D01*
X010900Y002191D02*
X012368Y002191D01*
X012409Y002290D02*
X010998Y002290D01*
X011097Y002388D02*
X012358Y002388D01*
X012259Y002487D02*
X011195Y002487D01*
X011294Y002585D02*
X012161Y002585D01*
X012062Y002684D02*
X011392Y002684D01*
X011491Y002782D02*
X011964Y002782D01*
X011982Y002765D02*
X011982Y002765D01*
X011868Y002881D02*
X011589Y002881D01*
X011800Y002979D02*
X011868Y002979D01*
X010846Y003276D02*
X010280Y002711D01*
X010229Y002732D01*
X010115Y002732D01*
X010010Y002689D01*
X009962Y002640D01*
X007378Y002640D01*
X007072Y002947D01*
X007072Y003015D01*
X007028Y003120D01*
X006948Y003200D01*
X006920Y003212D01*
X007680Y003972D01*
X007749Y003972D01*
X007853Y004015D01*
X007934Y004096D01*
X007977Y004201D01*
X007977Y004314D01*
X007934Y004418D01*
X009701Y004418D01*
X009815Y004532D01*
X010477Y005194D01*
X010477Y005185D01*
X010521Y005080D01*
X010601Y005000D01*
X010706Y004956D01*
X010819Y004956D01*
X010844Y004967D01*
X010844Y004768D01*
X011422Y004190D01*
X011422Y004148D01*
X010843Y004727D01*
X010618Y004727D01*
X010570Y004775D01*
X010465Y004819D01*
X010351Y004819D01*
X010247Y004775D01*
X010166Y004695D01*
X010123Y004590D01*
X010123Y004476D01*
X010128Y004464D01*
X010115Y004464D01*
X010010Y004421D01*
X009930Y004340D01*
X009886Y004236D01*
X009886Y004122D01*
X009930Y004017D01*
X010010Y003937D01*
X010115Y003893D01*
X010184Y003893D01*
X010687Y003390D01*
X010800Y003276D01*
X010846Y003276D01*
X010845Y003275D02*
X007582Y003275D01*
X007578Y003279D02*
X007473Y003323D01*
X007359Y003323D01*
X007254Y003279D01*
X007174Y003199D01*
X007131Y003094D01*
X007131Y002980D01*
X007174Y002875D01*
X007254Y002795D01*
X007359Y002751D01*
X007473Y002751D01*
X007578Y002795D01*
X007658Y002875D01*
X007702Y002980D01*
X007702Y003094D01*
X007658Y003199D01*
X007578Y003279D01*
X007667Y003176D02*
X010746Y003176D01*
X010648Y003078D02*
X007702Y003078D01*
X007701Y002979D02*
X010549Y002979D01*
X010451Y002881D02*
X007661Y002881D01*
X007548Y002782D02*
X010352Y002782D01*
X010006Y002684D02*
X007335Y002684D01*
X007285Y002782D02*
X007236Y002782D01*
X007172Y002881D02*
X007138Y002881D01*
X007131Y002979D02*
X007072Y002979D01*
X007046Y003078D02*
X007131Y003078D01*
X007165Y003176D02*
X006972Y003176D01*
X006983Y003275D02*
X007250Y003275D01*
X007082Y003373D02*
X010703Y003373D01*
X010605Y003472D02*
X007180Y003472D01*
X007279Y003570D02*
X010506Y003570D01*
X010408Y003669D02*
X007377Y003669D01*
X007476Y003767D02*
X010309Y003767D01*
X010211Y003866D02*
X007574Y003866D01*
X007673Y003964D02*
X009983Y003964D01*
X009911Y004063D02*
X007901Y004063D01*
X007961Y004161D02*
X009886Y004161D01*
X009897Y004260D02*
X007977Y004260D01*
X007959Y004358D02*
X009948Y004358D01*
X010097Y004457D02*
X009740Y004457D01*
X009838Y004555D02*
X010123Y004555D01*
X010149Y004654D02*
X009937Y004654D01*
X010035Y004752D02*
X010224Y004752D01*
X010134Y004851D02*
X010844Y004851D01*
X010844Y004949D02*
X010232Y004949D01*
X010331Y005048D02*
X010553Y005048D01*
X010493Y005146D02*
X010429Y005146D01*
X010177Y005442D02*
X008092Y005442D01*
X008131Y005403D02*
X008050Y005484D01*
X007945Y005527D01*
X007832Y005527D01*
X007727Y005484D01*
X007647Y005403D01*
X007603Y005299D01*
X007603Y005185D01*
X007647Y005080D01*
X007727Y005000D01*
X007832Y004956D01*
X007945Y004956D01*
X008050Y005000D01*
X008131Y005080D01*
X008174Y005185D01*
X008174Y005299D01*
X008131Y005403D01*
X008156Y005343D02*
X008809Y005343D01*
X008783Y005245D02*
X008174Y005245D01*
X008158Y005146D02*
X008783Y005146D01*
X008783Y005048D02*
X008099Y005048D01*
X007679Y005048D02*
X004858Y005048D01*
X004760Y004949D02*
X008783Y004949D01*
X008783Y004851D02*
X004661Y004851D01*
X004563Y004752D02*
X006771Y004752D01*
X006672Y004654D02*
X004464Y004654D01*
X004366Y004555D02*
X006574Y004555D01*
X006346Y004457D02*
X004267Y004457D01*
X004169Y004358D02*
X006283Y004358D01*
X006264Y004260D02*
X003066Y004260D01*
X002968Y004161D02*
X006281Y004161D01*
X006341Y004063D02*
X002869Y004063D01*
X002956Y003964D02*
X007125Y003964D01*
X007026Y003866D02*
X003030Y003866D01*
X003056Y003767D02*
X006928Y003767D01*
X006829Y003669D02*
X004658Y003669D01*
X004505Y003669D02*
X003048Y003669D01*
X002542Y003570D02*
X002377Y003570D01*
X002475Y003669D02*
X002493Y003669D01*
X001987Y004063D02*
X001587Y004063D01*
X001587Y004066D02*
X001846Y004066D01*
X001846Y004214D01*
X001835Y004252D01*
X001816Y004287D01*
X001788Y004315D01*
X001785Y004316D01*
X002026Y004316D01*
X002113Y004404D01*
X002113Y004418D01*
X002260Y004418D01*
X002693Y004851D01*
X002775Y004851D01*
X002693Y004851D01*
X002775Y004851D02*
X001846Y003922D01*
X001846Y004048D01*
X001587Y004048D01*
X001587Y004066D01*
X001846Y004161D02*
X002085Y004161D01*
X002184Y004260D02*
X001831Y004260D01*
X002068Y004358D02*
X002282Y004358D01*
X002299Y004457D02*
X002381Y004457D01*
X002397Y004555D02*
X002479Y004555D01*
X002496Y004654D02*
X002578Y004654D01*
X002594Y004752D02*
X002676Y004752D01*
X002342Y005048D02*
X002043Y005048D01*
X002043Y004978D02*
X002043Y005126D01*
X001783Y005126D01*
X001783Y005144D01*
X002043Y005144D01*
X002043Y005293D01*
X002032Y005331D01*
X002113Y005412D01*
X002113Y005442D01*
X002415Y005442D01*
X002618Y005239D01*
X002533Y005239D01*
X002113Y004819D01*
X002113Y004843D01*
X002027Y004930D01*
X002032Y004940D01*
X002043Y004978D01*
X002035Y004949D02*
X002244Y004949D01*
X002145Y004851D02*
X002106Y004851D01*
X002043Y005146D02*
X002441Y005146D01*
X002611Y005245D02*
X002043Y005245D01*
X002045Y005343D02*
X002513Y005343D01*
X003217Y005639D02*
X003602Y005639D01*
X003701Y005737D02*
X003276Y005737D01*
X003292Y005836D02*
X003799Y005836D01*
X003898Y005934D02*
X003273Y005934D01*
X003210Y006033D02*
X003996Y006033D01*
X004095Y006131D02*
X003178Y006131D01*
X003080Y006230D02*
X004193Y006230D01*
X004292Y006328D02*
X002981Y006328D01*
X002635Y006722D02*
X005312Y006722D01*
X005280Y006821D02*
X002734Y006821D01*
X002767Y006919D02*
X005283Y006919D01*
X005683Y007116D02*
X006016Y007116D01*
X006114Y007018D02*
X005808Y007018D01*
X005849Y006919D02*
X006213Y006919D01*
X006159Y006973D02*
X006273Y006859D01*
X006788Y006859D01*
X006945Y007017D01*
X007059Y007130D01*
X007059Y007839D01*
X007334Y008114D01*
X007334Y008114D01*
X008520Y009300D01*
X010749Y009300D01*
X010758Y009291D01*
X010863Y009248D01*
X010977Y009248D01*
X011082Y009291D01*
X011162Y009371D01*
X011206Y009476D01*
X011206Y009590D01*
X011162Y009695D01*
X011082Y009775D01*
X010977Y009819D01*
X010863Y009819D01*
X010758Y009775D01*
X010678Y009695D01*
X010675Y009687D01*
X009588Y009687D01*
X009666Y009765D01*
X009710Y009870D01*
X009710Y009984D01*
X009666Y010089D01*
X009618Y010137D01*
X009618Y010451D01*
X009672Y010397D01*
X009777Y010354D01*
X009890Y010354D01*
X009995Y010397D01*
X010076Y010478D01*
X010119Y010583D01*
X010119Y010696D01*
X010076Y010801D01*
X009995Y010881D01*
X009890Y010925D01*
X009830Y010925D01*
X009863Y010958D02*
X010858Y010958D01*
X010793Y010859D02*
X010017Y010859D01*
X010092Y010761D02*
X010772Y010761D01*
X010787Y010662D02*
X010119Y010662D01*
X010111Y010564D02*
X010844Y010564D01*
X011238Y010465D02*
X010063Y010465D01*
X009922Y010367D02*
X011238Y010367D01*
X011238Y010268D02*
X009618Y010268D01*
X009618Y010170D02*
X011238Y010170D01*
X011238Y010071D02*
X009673Y010071D01*
X009710Y009973D02*
X011238Y009973D01*
X011238Y009874D02*
X009710Y009874D01*
X009671Y009776D02*
X010760Y009776D01*
X011080Y009776D02*
X011238Y009776D01*
X011238Y009677D02*
X011169Y009677D01*
X011206Y009579D02*
X011238Y009579D01*
X011238Y009480D02*
X011206Y009480D01*
X011238Y009382D02*
X011167Y009382D01*
X011238Y009283D02*
X011063Y009283D01*
X011238Y009185D02*
X008405Y009185D01*
X008503Y009283D02*
X010777Y009283D01*
X011238Y009086D02*
X008306Y009086D01*
X008208Y008988D02*
X011238Y008988D01*
X011172Y008889D02*
X008109Y008889D01*
X008011Y008791D02*
X011118Y008791D01*
X011107Y008692D02*
X007912Y008692D01*
X007814Y008594D02*
X011101Y008594D01*
X010947Y008495D02*
X007715Y008495D01*
X007617Y008397D02*
X010894Y008397D01*
X010883Y008298D02*
X007518Y008298D01*
X007420Y008200D02*
X010906Y008200D01*
X010975Y008101D02*
X007321Y008101D01*
X007223Y008003D02*
X011292Y008003D01*
X011330Y007904D02*
X007124Y007904D01*
X007059Y007806D02*
X011301Y007806D01*
X011272Y007707D02*
X007059Y007707D01*
X007059Y007609D02*
X011278Y007609D01*
X011322Y007510D02*
X007059Y007510D01*
X007059Y007412D02*
X011364Y007412D01*
X011364Y007313D02*
X007059Y007313D01*
X007059Y007215D02*
X011364Y007215D01*
X011364Y007116D02*
X007045Y007116D01*
X006947Y007018D02*
X011364Y007018D01*
X011364Y006919D02*
X006848Y006919D01*
X006532Y006427D02*
X011364Y006427D01*
X011364Y006525D02*
X006375Y006525D01*
X006316Y006624D02*
X011364Y006624D01*
X011364Y006722D02*
X005820Y006722D01*
X005851Y006821D02*
X011364Y006821D01*
X011364Y006328D02*
X006610Y006328D01*
X006639Y006230D02*
X011364Y006230D01*
X011364Y006131D02*
X006633Y006131D01*
X006588Y006033D02*
X011364Y006033D01*
X011364Y005934D02*
X006576Y005934D01*
X006651Y005836D02*
X010966Y005836D01*
X011110Y005836D02*
X011364Y005836D01*
X011364Y005737D02*
X011261Y005737D01*
X011313Y005639D02*
X011364Y005639D01*
X011364Y005540D02*
X011324Y005540D01*
X011300Y005442D02*
X011364Y005442D01*
X011450Y005343D02*
X011232Y005343D01*
X011232Y005245D02*
X011425Y005245D01*
X011339Y005146D02*
X011232Y005146D01*
X011232Y005048D02*
X011304Y005048D01*
X011304Y004949D02*
X011232Y004949D01*
X011309Y004851D02*
X011344Y004851D01*
X011408Y004752D02*
X011454Y004752D01*
X011506Y004654D02*
X011667Y004654D01*
X011605Y004555D02*
X011766Y004555D01*
X011782Y004457D02*
X011864Y004457D01*
X011422Y004161D02*
X011408Y004161D01*
X011352Y004260D02*
X011310Y004260D01*
X011254Y004358D02*
X011211Y004358D01*
X011155Y004457D02*
X011113Y004457D01*
X011057Y004555D02*
X011014Y004555D01*
X010958Y004654D02*
X010916Y004654D01*
X010860Y004752D02*
X010593Y004752D01*
X010079Y005343D02*
X009646Y005343D01*
X009671Y005245D02*
X009980Y005245D01*
X009882Y005146D02*
X009671Y005146D01*
X009671Y005048D02*
X009783Y005048D01*
X009685Y004949D02*
X009671Y004949D01*
X010276Y005540D02*
X007032Y005540D01*
X007025Y005442D02*
X007685Y005442D01*
X007622Y005343D02*
X006977Y005343D01*
X006835Y005245D02*
X007603Y005245D01*
X007619Y005146D02*
X004957Y005146D01*
X004390Y006427D02*
X002113Y006427D01*
X002438Y006525D02*
X004489Y006525D01*
X004587Y006624D02*
X002537Y006624D01*
X002284Y006919D02*
X002015Y006919D01*
X002015Y007018D02*
X002380Y007018D01*
X002380Y007116D02*
X002015Y007116D01*
X002014Y007215D02*
X002380Y007215D01*
X002380Y007313D02*
X002113Y007313D01*
X002113Y007412D02*
X002380Y007412D01*
X002403Y007510D02*
X002113Y007510D01*
X002113Y007609D02*
X002501Y007609D01*
X002600Y007707D02*
X002113Y007707D01*
X002052Y007806D02*
X002698Y007806D01*
X002797Y007904D02*
X002085Y007904D01*
X002184Y008003D02*
X002895Y008003D01*
X002921Y008101D02*
X002412Y008101D01*
X002482Y008200D02*
X002963Y008200D01*
X003088Y008298D02*
X002505Y008298D01*
X002493Y008397D02*
X003188Y008397D01*
X003158Y008426D02*
X003239Y008346D01*
X003344Y008303D01*
X003457Y008303D01*
X003562Y008346D01*
X003642Y008426D01*
X003686Y008531D01*
X003686Y008645D01*
X003642Y008750D01*
X003562Y008830D01*
X003457Y008874D01*
X003344Y008874D01*
X003239Y008830D01*
X003158Y008750D01*
X003115Y008645D01*
X003115Y008531D01*
X003158Y008426D01*
X003130Y008495D02*
X002440Y008495D01*
X002286Y008594D02*
X003115Y008594D01*
X003134Y008692D02*
X001081Y008692D01*
X001081Y008594D02*
X002152Y008594D01*
X001998Y008495D02*
X001081Y008495D01*
X001081Y008397D02*
X001945Y008397D01*
X001931Y008298D02*
X001081Y008298D01*
X001081Y008200D02*
X001833Y008200D01*
X001734Y008101D02*
X001081Y008101D01*
X001081Y008003D02*
X001636Y008003D01*
X001612Y007904D02*
X001081Y007904D01*
X001462Y007806D02*
X001560Y007806D01*
X001081Y008791D02*
X003199Y008791D01*
X003602Y008791D02*
X006285Y008791D01*
X006272Y008759D02*
X006316Y008864D01*
X006396Y008944D01*
X006501Y008988D01*
X006341Y008889D02*
X001081Y008889D01*
X001081Y009382D02*
X001289Y009382D01*
X001229Y009480D02*
X001081Y009480D01*
X001081Y009579D02*
X001203Y009579D01*
X001209Y009677D02*
X001081Y009677D01*
X001081Y009776D02*
X001243Y009776D01*
X001297Y009874D02*
X001081Y009874D01*
X001081Y009973D02*
X001232Y009973D01*
X001203Y010071D02*
X001081Y010071D01*
X001081Y010170D02*
X001203Y010170D01*
X001239Y010268D02*
X001081Y010268D01*
X001081Y010367D02*
X001304Y010367D01*
X001235Y010465D02*
X001081Y010465D01*
X001081Y010564D02*
X001203Y010564D01*
X001203Y010662D02*
X001081Y010662D01*
X001081Y010761D02*
X001236Y010761D01*
X001307Y010859D02*
X001081Y010859D01*
X001081Y010958D02*
X001238Y010958D01*
X001203Y011056D02*
X001081Y011056D01*
X001081Y011155D02*
X001203Y011155D01*
X001233Y011253D02*
X001081Y011253D01*
X001081Y011352D02*
X001300Y011352D01*
X001800Y011352D02*
X003595Y011352D01*
X003529Y011253D02*
X001867Y011253D01*
X001897Y011155D02*
X003509Y011155D01*
X003523Y011056D02*
X001897Y011056D01*
X001862Y010958D02*
X003580Y010958D01*
X003993Y011352D02*
X006159Y011352D01*
X006159Y011450D02*
X004466Y011450D01*
X004478Y011549D02*
X006159Y011549D01*
X006159Y011647D02*
X004478Y011647D01*
X004478Y011746D02*
X006159Y011746D01*
X006159Y011844D02*
X004478Y011844D01*
X004478Y011943D02*
X006159Y011943D01*
X006159Y012041D02*
X004478Y012041D01*
X004478Y012140D02*
X006159Y012140D01*
X006159Y012238D02*
X004478Y012238D01*
X004469Y012337D02*
X006159Y012337D01*
X006159Y012435D02*
X002392Y012435D01*
X002392Y012534D02*
X006159Y012534D01*
X006159Y012632D02*
X002392Y012632D01*
X002392Y012731D02*
X006159Y012731D01*
X006093Y012829D02*
X002392Y012829D01*
X002392Y012928D02*
X005994Y012928D01*
X005896Y013026D02*
X002392Y013026D01*
X002392Y013125D02*
X003106Y013125D01*
X003050Y013223D02*
X002392Y013223D01*
X002392Y013322D02*
X003036Y013322D01*
X003057Y013420D02*
X002392Y013420D01*
X002392Y013519D02*
X003124Y013519D01*
X003519Y013519D02*
X003809Y013519D01*
X003676Y013617D02*
X002392Y013617D01*
X002392Y013716D02*
X003632Y013716D01*
X003627Y013814D02*
X002392Y013814D01*
X002392Y013913D02*
X003656Y013913D01*
X003735Y014011D02*
X002392Y014011D01*
X002392Y014110D02*
X004562Y014110D01*
X004532Y014011D02*
X004483Y014011D01*
X004640Y014208D02*
X002392Y014208D01*
X001684Y014799D02*
X013857Y014799D01*
X014030Y014701D02*
X001511Y014701D01*
X001376Y014602D02*
X014165Y014602D01*
X014240Y014504D02*
X001301Y014504D01*
X001229Y014405D02*
X006530Y014405D01*
X006546Y014421D02*
X006465Y014340D01*
X006422Y014236D01*
X006422Y014122D01*
X006465Y014017D01*
X006546Y013937D01*
X006651Y013893D01*
X006764Y013893D01*
X006869Y013937D01*
X006950Y014017D01*
X006993Y014122D01*
X006993Y014236D01*
X006950Y014340D01*
X006869Y014421D01*
X006764Y014464D01*
X006651Y014464D01*
X006546Y014421D01*
X006451Y014307D02*
X001174Y014307D01*
X004090Y014011D02*
X004128Y014011D01*
X004586Y013716D02*
X004714Y013716D01*
X004542Y013617D02*
X005205Y013617D01*
X005205Y013716D02*
X004922Y013716D01*
X005054Y013814D02*
X005243Y013814D01*
X005339Y013913D02*
X005098Y013913D01*
X005103Y014011D02*
X006471Y014011D01*
X006427Y014110D02*
X005074Y014110D01*
X004995Y014208D02*
X006422Y014208D01*
X006603Y013913D02*
X005643Y013913D01*
X005739Y013814D02*
X007256Y013814D01*
X007266Y013913D02*
X006812Y013913D01*
X006944Y014011D02*
X007311Y014011D01*
X007432Y014110D02*
X006988Y014110D01*
X006993Y014208D02*
X012526Y014208D01*
X013085Y013667D02*
X013314Y013667D01*
X013314Y013765D01*
X013304Y013804D01*
X013284Y013838D01*
X013258Y013864D01*
X013282Y013888D01*
X013338Y013832D01*
X013620Y013832D01*
X013676Y013888D01*
X013732Y013832D01*
X014014Y013832D01*
X014070Y013888D01*
X014094Y013864D01*
X014038Y013808D01*
X014038Y013526D01*
X014094Y013470D01*
X014038Y013414D01*
X014038Y013132D01*
X014094Y013076D01*
X014070Y013052D01*
X014014Y013108D01*
X013732Y013108D01*
X013676Y013052D01*
X013620Y013108D01*
X013338Y013108D01*
X013282Y013052D01*
X013258Y013076D01*
X013314Y013132D01*
X013314Y013414D01*
X013258Y013470D01*
X013284Y013496D01*
X013304Y013530D01*
X013314Y013568D01*
X013314Y013667D01*
X013085Y013667D01*
X013085Y013667D01*
X013314Y013716D02*
X014038Y013716D01*
X014038Y013617D02*
X013314Y013617D01*
X013297Y013519D02*
X014045Y013519D01*
X014044Y013420D02*
X013308Y013420D01*
X013314Y013322D02*
X014038Y013322D01*
X014038Y013223D02*
X013314Y013223D01*
X013307Y013125D02*
X014045Y013125D01*
X014044Y013814D02*
X013298Y013814D01*
X014312Y014405D02*
X006885Y014405D01*
X006963Y014307D02*
X014367Y014307D01*
X013374Y012632D02*
X013279Y012632D01*
X013279Y012534D02*
X013472Y012534D01*
X013411Y012435D02*
X013230Y012435D01*
X013208Y012337D02*
X013281Y012337D01*
X013237Y012238D02*
X013163Y012238D01*
X013233Y012140D02*
X013029Y012140D01*
X013955Y011746D02*
X012068Y011746D01*
X011238Y011450D02*
X010785Y011450D01*
X010839Y011352D02*
X011238Y011352D01*
X011238Y011253D02*
X010851Y011253D01*
X010829Y011155D02*
X011238Y011155D01*
X011238Y011056D02*
X010761Y011056D01*
X010371Y011056D02*
X009961Y011056D01*
X010060Y011155D02*
X010302Y011155D01*
X010280Y011253D02*
X010158Y011253D01*
X010257Y011352D02*
X010293Y011352D01*
X009745Y010367D02*
X009618Y010367D01*
X011626Y009776D02*
X012569Y009776D01*
X012111Y009480D02*
X011626Y009480D01*
X011626Y009382D02*
X012091Y009382D01*
X012106Y009283D02*
X011626Y009283D01*
X011626Y009185D02*
X012164Y009185D01*
X012392Y009086D02*
X011626Y009086D01*
X011626Y008988D02*
X011818Y008988D01*
X011691Y008889D02*
X011626Y008889D01*
X012801Y010367D02*
X012925Y010367D01*
X012741Y010465D02*
X013214Y010465D01*
X013279Y010564D02*
X012713Y010564D01*
X012636Y010662D02*
X013312Y010662D01*
X014016Y010662D02*
X014854Y010662D01*
X010473Y005737D02*
X006931Y005737D01*
X007006Y005639D02*
X010374Y005639D01*
X007424Y004358D02*
X006925Y004358D01*
X006836Y004260D02*
X007406Y004260D01*
X007322Y004161D02*
X006819Y004161D01*
X006759Y004063D02*
X007223Y004063D01*
X006402Y001896D02*
X009386Y001896D01*
X006068Y001896D02*
X005239Y001896D01*
X005152Y001797D02*
X005983Y001797D01*
X005949Y001699D02*
X005199Y001699D01*
X005208Y001600D02*
X005950Y001600D01*
X005165Y001502D02*
X004949Y001502D01*
X003461Y001403D02*
X002177Y001403D01*
X002272Y001502D02*
X003362Y001502D01*
X003264Y001600D02*
X003125Y001600D01*
X002778Y001600D02*
X002615Y001600D01*
X002479Y001600D02*
X002424Y001600D01*
X002424Y001699D02*
X002479Y001699D01*
X002479Y001797D02*
X002424Y001797D01*
X001169Y002782D02*
X001151Y002782D01*
X001151Y002881D02*
X001169Y002881D01*
X001169Y002979D02*
X001151Y002979D01*
X001846Y003964D02*
X001888Y003964D01*
X003446Y003078D02*
X003759Y003078D01*
X006159Y006973D02*
X005844Y007287D01*
X005844Y007512D01*
X005796Y007560D01*
X005753Y007665D01*
X005753Y007779D01*
X005796Y007884D01*
X005876Y007964D01*
X005981Y008008D01*
X006095Y008008D01*
X006200Y007964D01*
X006280Y007884D01*
X006324Y007779D01*
X006324Y007665D01*
X006280Y007560D01*
X006232Y007512D01*
X006232Y007448D01*
X006264Y007415D01*
X006264Y007425D01*
X006308Y007529D01*
X006356Y007578D01*
X006356Y008393D01*
X006416Y008452D01*
X006396Y008460D01*
X006316Y008541D01*
X006272Y008646D01*
X006272Y008759D01*
X006272Y008692D02*
X003666Y008692D01*
X003686Y008594D02*
X006294Y008594D01*
X006361Y008495D02*
X005236Y008495D01*
X005216Y008515D02*
X005111Y008559D01*
X004997Y008559D01*
X004892Y008515D01*
X004812Y008435D01*
X004768Y008330D01*
X004768Y008216D01*
X004812Y008111D01*
X004892Y008031D01*
X004997Y007988D01*
X005111Y007988D01*
X005216Y008031D01*
X005296Y008111D01*
X005339Y008216D01*
X005339Y008330D01*
X005296Y008435D01*
X005216Y008515D01*
X005312Y008397D02*
X006360Y008397D01*
X006356Y008298D02*
X005339Y008298D01*
X005333Y008200D02*
X006356Y008200D01*
X006356Y008101D02*
X005286Y008101D01*
X005147Y008003D02*
X005970Y008003D01*
X006106Y008003D02*
X006356Y008003D01*
X006356Y007904D02*
X006260Y007904D01*
X006313Y007806D02*
X006356Y007806D01*
X006356Y007707D02*
X006324Y007707D01*
X006300Y007609D02*
X006356Y007609D01*
X006300Y007510D02*
X006232Y007510D01*
X005844Y007510D02*
X002951Y007510D01*
X002852Y007412D02*
X005844Y007412D01*
X005844Y007313D02*
X002767Y007313D01*
X002767Y007215D02*
X005917Y007215D01*
X005776Y007609D02*
X003049Y007609D01*
X003148Y007707D02*
X005753Y007707D01*
X005764Y007806D02*
X003376Y007806D01*
X003458Y007904D02*
X005817Y007904D01*
X004960Y008003D02*
X003489Y008003D01*
X003486Y008101D02*
X004822Y008101D01*
X004775Y008200D02*
X003444Y008200D01*
X003319Y008298D02*
X004768Y008298D01*
X004796Y008397D02*
X003613Y008397D01*
X003671Y008495D02*
X004872Y008495D01*
X001550Y009382D02*
X001550Y009382D01*
X001550Y009480D02*
X001550Y009480D01*
X001550Y009579D02*
X001550Y009579D01*
X004410Y013519D02*
X005243Y013519D01*
X005739Y013519D02*
X006707Y013519D01*
X006640Y013420D02*
X006049Y013420D01*
X006148Y013322D02*
X006558Y013322D01*
X006460Y013223D02*
X006246Y013223D01*
X006345Y013125D02*
X006361Y013125D01*
X005776Y013617D02*
X007331Y013617D01*
X007274Y013716D02*
X005776Y013716D01*
X007102Y013519D02*
X007480Y013519D01*
M02*
